<svg width="100%" height="100%" viewBox="0 0 3247 1234" version="1.1" xmlns="http://www.w3.org/2000/svg" xmlns:xlink="http://www.w3.org/1999/xlink" xml:space="preserve" xmlns:serif="http://www.serif.com/" style="fill-rule:evenodd;clip-rule:evenodd;stroke-linejoin:round;stroke-miterlimit:1.5;">
  <g transform="matrix(1,0,0,1,-149.406,-1192.33)">
    <g transform="matrix(1,0,0,1,0,-0.0649902)">
      <g transform="matrix(1,0,0,1,-190.112,0.0649902)">
        <g transform="matrix(1549.76,0,0,1549.76,285.034,2355.46)">
          <path d="M0.386,-0L0.526,-0L0.526,-0.129L0.619,-0.129L0.619,-0.247L0.526,-0.247L0.526,-0.705L0.318,-0.705L0.035,-0.252L0.035,-0.129L0.386,-0.129L0.386,-0ZM0.164,-0.243L0.164,-0.247L0.385,-0.598L0.389,-0.598L0.389,-0.243L0.164,-0.243Z" style="fill-rule:nonzero;" />
        </g>
      </g>
    </g>
    <g transform="matrix(1,0,0,1,0,-0.0649902)">
      <g transform="matrix(1,0,0,1,2151.95,0.0649902)">
        <g transform="matrix(1549.76,0,0,1549.76,285.034,2355.46)">
          <path d="M0.386,-0L0.526,-0L0.526,-0.129L0.619,-0.129L0.619,-0.247L0.526,-0.247L0.526,-0.705L0.318,-0.705L0.035,-0.252L0.035,-0.129L0.386,-0.129L0.386,-0ZM0.164,-0.243L0.164,-0.247L0.385,-0.598L0.389,-0.598L0.389,-0.243L0.164,-0.243Z" style="fill-rule:nonzero;" />
        </g>
      </g>
    </g>
    <g transform="matrix(1,0,0,1,0,-0.0649902)">
      <g transform="matrix(1.04827,0,0,1.04827,1374.32,1499.56)">
        <path d="M309.082,335.571L283.216,266.381L336.966,211.169L404.9,196.531L424.57,220.74L393.254,252.46L365.941,261.052L346.425,281.11L355.987,307.719L375.387,328.306L402.745,321.031L422.216,299.648L464.729,286.185L477.395,314.677L433.529,368.46L360.02,391.735L309.082,335.571Z" />
      </g>
      <g transform="matrix(1.6241,0,0,1.6241,3325.29,75.5995)">
        <path d="M-799.272,1141.68C-827.119,1200.8 -887.255,1241.76 -956.882,1241.76C-1048.32,1241.76 -1123.39,1171.12 -1130.46,1081.49" style="fill:none;stroke:currentcolor;stroke-width:33.35px;" />
      </g>
      <g transform="matrix(1.6241,0,0,1.6241,3325.29,75.5995)">
        <path d="M-1129.95,1048.4C-1120.36,961.34 -1046.48,893.522 -956.882,893.522C-860.784,893.522 -782.765,971.541 -782.765,1067.64C-782.765,1082.32 -784.586,1096.58 -788.016,1110.21" style="fill:none;stroke:currentcolor;stroke-width:33.35px;" />
      </g>
      <g transform="matrix(-0.578174,2.15777,-2.15777,-0.578174,3522.29,4490.98)">
        <path d="M-799.272,1141.68C-827.119,1200.8 -887.255,1241.76 -956.882,1241.76C-1048.32,1241.76 -1123.39,1171.12 -1130.46,1081.49" style="fill:none;stroke:currentcolor;stroke-width:24.25px;" />
      </g>
      <g transform="matrix(-0.578174,2.15777,-2.15777,-0.578174,3522.29,4490.98)">
        <path d="M-1129.95,1048.4C-1120.36,961.34 -1046.48,893.522 -956.882,893.522C-860.784,893.522 -782.765,971.541 -782.765,1067.64C-782.765,1082.32 -784.586,1096.58 -788.016,1110.21" style="fill:none;stroke:currentcolor;stroke-width:24.25px;" />
      </g>
      <g transform="matrix(2.06597,1.89638,-1.89638,2.06597,5772.64,1417.93)">
        <path d="M-799.272,1141.68C-827.119,1200.8 -887.255,1241.76 -956.882,1241.76C-1048.32,1241.76 -1123.39,1171.12 -1130.46,1081.49" style="fill:none;stroke:currentcolor;stroke-width:19.32px;" />
      </g>
      <g transform="matrix(2.06597,1.89638,-1.89638,2.06597,5772.64,1417.93)">
        <path d="M-1129.95,1048.4C-1120.36,961.34 -1046.48,893.522 -956.882,893.522C-860.784,893.522 -782.765,971.541 -782.765,1067.64C-782.765,1082.32 -784.586,1096.58 -788.016,1110.21" style="fill:none;stroke:currentcolor;stroke-width:19.32px;" />
      </g>
      <g transform="matrix(-3.26901,0.875928,-0.875928,-3.26901,-420.338,6137.6)">
        <path d="M-799.272,1141.68C-827.119,1200.8 -887.255,1241.76 -956.882,1241.76C-1048.32,1241.76 -1123.39,1171.12 -1130.46,1081.49" style="fill:none;stroke:currentcolor;stroke-width:16.01px;" />
      </g>
      <g transform="matrix(-3.26901,0.875928,-0.875928,-3.26901,-420.338,6137.6)">
        <path d="M-1129.95,1048.4C-1120.36,961.34 -1046.48,893.522 -956.882,893.522C-860.784,893.522 -782.765,971.541 -782.765,1067.64C-782.765,1082.32 -784.586,1096.58 -788.016,1110.21" style="fill:none;stroke:currentcolor;stroke-width:16.01px;" />
      </g>
      <g transform="matrix(1,0,0,1,2728.09,741.915)">
        <path d="M-904.543,901.539C-833.986,923.78 -782.765,989.775 -782.765,1067.64C-782.765,1137.58 -824.09,1197.94 -883.633,1225.62" style="fill:none;stroke:currentcolor;stroke-width:54.17px;" />
      </g>
      <g transform="matrix(1,0,0,1,2728.09,741.915)">
        <path d="M-937.34,1240.67C-943.756,1241.39 -950.276,1241.76 -956.882,1241.76C-1052.98,1241.76 -1131,1163.74 -1131,1067.64C-1131,971.541 -1052.98,893.522 -956.882,893.522" style="fill:none;stroke:currentcolor;stroke-width:54.17px;" />
      </g>
      <g transform="matrix(1,0,0,1,2728.09,741.915)">
        <path d="M-904.543,901.539C-833.986,923.78 -782.765,989.775 -782.765,1067.64C-782.765,1137.58 -824.09,1197.94 -883.633,1225.62" style="fill:none;stroke:currentcolor;stroke-width:54.17px;" />
      </g>
      <g transform="matrix(1,0,0,1,2728.09,741.915)">
        <path d="M-937.34,1240.67C-943.756,1241.39 -950.276,1241.76 -956.882,1241.76C-1052.98,1241.76 -1131,1163.74 -1131,1067.64C-1131,971.541 -1052.98,893.522 -956.882,893.522" style="fill:none;stroke:currentcolor;stroke-width:54.17px;" />
      </g>
      <g transform="matrix(1,0,0,1,2730.59,729.536)">
        <path d="M-791.26,1034.59L-686.335,1006.23" style="fill:none;stroke:currentcolor;stroke-width:54.17px;" />
      </g>
      <g transform="matrix(0.730214,-0.361316,0.535157,0.830095,1995.93,464.536)">
        <path d="M-791.26,1034.59L-686.335,1006.23" style="fill:none;stroke:currentcolor;stroke-width:56.77px;" />
      </g>
      <g transform="matrix(0.588836,0.702962,-0.731171,0.673626,3318.16,1883.42)">
        <path d="M-791.26,1034.59L-686.335,1006.23" style="fill:none;stroke:currentcolor;stroke-width:55.35px;" />
      </g>
      <g transform="matrix(0.260851,-0.884338,0.965379,0.238953,979.167,372.085)">
        <path d="M-791.26,1034.59L-686.335,1006.23" style="fill:none;stroke:currentcolor;stroke-width:55.28px;" />
      </g>
      <g transform="matrix(1.94443,-0.569179,-0.569179,1.34303,4301.69,-217.31)">
        <path d="M-1202.21,1224.92L-999.087,1102.51" style="fill:none;stroke:currentcolor;stroke-width:48.54px;" />
      </g>
    </g>
  </g>
</svg>
