<?xml version="1.0" standalone="no"?>
<!DOCTYPE svg PUBLIC "-//W3C//DTD SVG 20010904//EN"
 "http://www.w3.org/TR/2001/REC-SVG-20010904/DTD/svg10.dtd">
<svg version="1.0" xmlns="http://www.w3.org/2000/svg"
 width="28.000000pt" height="28.000000pt" viewBox="0 0 28.000000 28.000000"
 preserveAspectRatio="xMidYMid meet">

<g transform="translate(0.000000,28.000000) scale(0.100000,-0.100000)"
fill="#000000" stroke="none">
<path d="M0 203 c0 -9 3 -13 7 -10 3 4 13 1 22 -6 14 -10 14 -10 4 4 -7 9 -10
19 -6 22 3 4 -1 7 -10 7 -9 0 -17 -7 -17 -17z"/>
<path d="M45 177 c-57 -55 -59 -82 -8 -103 21 -9 47 -13 62 -9 31 7 37 7 77
-1 44 -8 94 19 94 51 0 29 -34 55 -71 55 -14 0 -38 11 -53 25 -15 14 -33 25
-41 25 -8 0 -35 -19 -60 -43z m105 -8 c26 -21 46 -30 59 -26 23 6 46 -16 38
-37 -7 -17 -83 -26 -97 -12 -7 7 -17 6 -31 -2 -24 -15 -88 -6 -96 14 -5 13 62
91 80 93 5 1 26 -13 47 -30z"/>
<path d="M70 146 c0 -9 5 -16 10 -16 6 0 10 -9 10 -20 0 -11 5 -20 11 -20 18
0 6 64 -13 68 -11 2 -18 -3 -18 -12z"/>
<path d="M184 209 c-9 -16 12 -33 31 -25 14 5 15 9 5 21 -15 18 -26 19 -36 4z
m26 -9 c0 -5 -5 -10 -11 -10 -5 0 -7 5 -4 10 3 6 8 10 11 10 2 0 4 -4 4 -10z"/>
<path d="M245 209 c-4 -6 -4 -13 -1 -16 3 -4 6 -1 6 5 0 7 5 12 11 12 7 0 9
-9 6 -21 -4 -16 -3 -19 5 -11 12 12 4 42 -11 42 -5 0 -13 -5 -16 -11z"/>
</g>
</svg>
