<?xml version="1.0" encoding="utf-8"?>
<!-- Generator: Adobe Illustrator 25.4.1, SVG Export Plug-In . SVG Version: 6.00 Build 0)  -->
<svg version="1.1" id="图层_1" xmlns="http://www.w3.org/2000/svg" xmlns:xlink="http://www.w3.org/1999/xlink" x="0px" y="0px"
	 viewBox="0 0 208 208" style="enable-background:new 0 0 208 208;" xml:space="preserve">
<style type="text/css">
	.st0{fill-rule:evenodd;clip-rule:evenodd;}
</style>
<g>
	<path class="st0" d="M4.04,46.33c7.69,0,15.38,0,23.07,0c0,2.56,0,5.13,0,7.69c-2.56,0-5.13,0-7.69,0c0,2.56,0,5.13,0,7.69
		c-2.56,0-5.13,0-7.69,0c0,2.56,0,5.13,0,7.69c-2.56,0-5.13,0-7.69,0C4.04,61.71,4.04,54.02,4.04,46.33z"/>
	<path class="st0" d="M142.44,46.33c5.13,0,10.25,0,15.38,0c0,2.56,0,5.13,0,7.69c-5.13,0-10.25,0-15.38,0
		C142.44,51.46,142.44,48.9,142.44,46.33z"/>
	<path class="st0" d="M180.89,46.33c5.13,0,10.25,0,15.38,0c0,2.56,0,5.13,0,7.69c-5.13,0-10.25,0-15.38,0
		C180.89,51.46,180.89,48.9,180.89,46.33z"/>
	<path class="st0" d="M134.76,54.02c2.56,0,5.13,0,7.69,0c0,5.13,0,10.25,0,15.38c-2.56,0-5.13,0-7.69,0
		C134.76,64.27,134.76,59.15,134.76,54.02z"/>
	<path class="st0" d="M157.82,54.02c2.56,0,5.13,0,7.69,0c0,5.13,0,10.25,0,15.38c-2.56,0-5.13,0-7.69,0
		C157.82,64.27,157.82,59.15,157.82,54.02z"/>
	<path class="st0" d="M173.2,54.02c2.56,0,5.13,0,7.69,0c0,5.13,0,10.25,0,15.38c-2.56,0-5.13,0-7.69,0
		C173.2,64.27,173.2,59.15,173.2,54.02z"/>
	<path class="st0" d="M196.27,54.02c2.56,0,5.13,0,7.69,0c0,7.69,0,15.38,0,23.07c-2.56,0-5.13,0-7.69,0
		C196.27,69.4,196.27,61.71,196.27,54.02z"/>
	<path class="st0" d="M19.42,61.71c2.56,0,5.13,0,7.69,0c0,2.56,0,5.13,0,7.69c-2.56,0-5.13,0-7.69,0
		C19.42,66.84,19.42,64.27,19.42,61.71z"/>
	<path class="st0" d="M188.58,100.16c0-2.56,0-5.13,0-7.69c-5.13,0-10.25,0-15.38,0c0-2.56,0-5.13,0-7.69c-15.38,0-30.76,0-46.13,0
		c0-2.56,0-5.13,0-7.69c-5.13,0-10.25,0-15.38,0c0-5.13,0-10.25,0-15.38c-2.56,0-5.13,0-7.69,0c0-2.56,0-5.13,0-7.69
		c-5.13,0-10.25,0-15.38,0c0-2.56,0-5.13,0-7.69c-7.69,0-15.38,0-23.07,0c0,2.56,0,5.13,0,7.69c-5.13,0-10.25,0-15.38,0
		c0,2.56,0,5.13,0,7.69c-2.56,0-5.13,0-7.69,0c0,7.69,0,15.38,0,23.07c-5.13,0-10.25,0-15.38,0c0,2.56,0,5.13,0,7.69
		c-5.13,0-10.25,0-15.38,0c0,2.56,0,5.13,0,7.69c-2.56,0-5.13,0-7.69,0c0,12.81,0,25.63,0,38.44c2.56,0,5.13,0,7.69,0
		c0,2.56,0,5.13,0,7.69c5.13,0,10.25,0,15.38,0c0,2.56,0,5.13,0,7.69c7.69,0,15.38,0,23.07,0c0,2.56,0,5.13,0,7.69
		c10.25,0,20.51,0,30.76,0c0-2.56,0-5.13,0-7.69c5.13,0,10.25,0,15.38,0c0-2.56,0-5.13,0-7.69c2.56,0,5.13,0,7.69,0
		c0,2.56,0,5.13,0,7.69c5.13,0,10.25,0,15.38,0c0,2.56,0,5.13,0,7.69c12.81,0,25.63,0,38.44,0c0-2.56,0-5.13,0-7.69
		c5.13,0,10.25,0,15.38,0c0-2.56,0-5.13,0-7.69c5.13,0,10.25,0,15.38,0c0-2.56,0-5.13,0-7.69c2.56,0,5.13,0,7.69,0
		c0-12.81,0-25.63,0-38.44C193.7,100.16,191.14,100.16,188.58,100.16z M180.89,130.91c-2.56,0-5.13,0-7.69,0c0,2.56,0,5.13,0,7.69
		c-15.38,0-30.76,0-46.13,0c0,2.56,0,5.13,0,7.69c-2.56,0-5.13,0-7.69,0c0-2.56,0-5.13,0-7.69c-2.56,0-5.13,0-7.69,0
		c0-2.56,0-5.13,0-7.69c-7.69,0-15.38,0-23.07,0c0,2.56,0,5.13,0,7.69c-2.56,0-5.13,0-7.69,0c0,2.56,0,5.13,0,7.69
		c-10.25,0-20.51,0-30.76,0c0-2.56,0-5.13,0-7.69c-7.69,0-15.38,0-23.07,0c0-2.56,0-5.13,0-7.69c-2.56,0-5.13,0-7.69,0
		c0-7.69,0-15.38,0-23.07c2.56,0,5.13,0,7.69,0c0-2.56,0-5.13,0-7.69c5.13,0,10.25,0,15.38,0c0-2.56,0-5.13,0-7.69
		c2.56,0,5.13,0,7.69,0c0-2.56,0-5.13,0-7.69c2.56,0,5.13,0,7.69,0c0-5.13,0-10.25,0-15.38c2.56,0,5.13,0,7.69,0
		c0-2.56,0-5.13,0-7.69c7.69,0,15.38,0,23.07,0c0,2.56,0,5.13,0,7.69c2.56,0,5.13,0,7.69,0c0,2.56,0,5.13,0,7.69
		c2.56,0,5.13,0,7.69,0c0,2.56,0,5.13,0,7.69c2.56,0,5.13,0,7.69,0c0,2.56,0,5.13,0,7.69c5.13,0,10.25,0,15.38,0
		c0,2.56,0,5.13,0,7.69c15.38,0,30.76,0,46.13,0c0,2.56,0,5.13,0,7.69c2.56,0,5.13,0,7.69,0
		C180.89,115.53,180.89,123.22,180.89,130.91z"/>
	<path class="st0" d="M27.11,69.4c2.56,0,5.13,0,7.69,0c0,2.56,0,5.13,0,7.69c-2.56,0-5.13,0-7.69,0
		C27.11,74.53,27.11,71.96,27.11,69.4z"/>
	<path class="st0" d="M142.44,69.4c5.13,0,10.25,0,15.38,0c0,2.56,0,5.13,0,7.69c-5.13,0-10.25,0-15.38,0
		C142.44,74.53,142.44,71.96,142.44,69.4z"/>
	<path class="st0" d="M188.58,77.09c2.56,0,5.13,0,7.69,0c0,2.56,0,5.13,0,7.69c-2.56,0-5.13,0-7.69,0
		C188.58,82.21,188.58,79.65,188.58,77.09z"/>
	<path class="st0" d="M50.18,92.47c10.25,0,20.5,0,30.76,0c0,15.38,0,30.76,0,46.13c-5.13,0-10.25,0-15.38,0c0-10.25,0-20.5,0-30.76
		c-5.13,0-10.25,0-15.38,0C50.18,102.72,50.18,97.59,50.18,92.47z"/>
</g>
</svg>
