<svg viewBox="0 0 24 24" xml:space="preserve"><g fill="none" stroke="currentColor" stroke-width="2" stroke-linecap="round" stroke-linejoin="round"><path d="m19.9 14-1.4 4.9c-.3 1-1.1 1.7-2.1 1.7H7.6c-.9 0-1.8-.7-2.1-1.7L4.1 14h15.8zM12 10V4.5M12 4.5c0-1.2.9-2.1 2.1-2.1M14.1 2.4c1.2 0 2.1.9 2.1 2.1M22.2 12c0 .6-.2 1.1-.6 1.4-.4.4-.9.6-1.4.6H3.8c-1.1 0-2-.9-2-2 0-.6.2-1.1.6-1.4.4-.4.9-.6 1.4-.6h16.4c1.1 0 2 .9 2 2z"/></g><path fill="none" stroke="currentColor" stroke-width="2" stroke-linecap="round" stroke-linejoin="round" d="M16.2 7.2h0"/></svg>