<svg viewBox="0 0 512 512" fill="currentColor" stroke="currentColor"><g><g><path d="M218.913,116.8c-6.4-6.4-16-6.4-22.4,0c-3.2,3.2-4.8,6.4-4.8,11.2s1.6,8,4.8,11.2c3.2,3.2,8,4.8,11.2,4.8    c4.8,0,8-1.6,11.2-4.8c3.2-3.2,4.8-6.4,4.8-11.2S222.113,120,218.913,116.8z"/></g></g><g><g><path d="M170.913,372.8c-6.4-6.4-16-6.4-22.4,0c-3.2,3.2-4.8,6.4-4.8,11.2s1.6,8,4.8,11.2c3.2,3.2,8,4.8,11.2,4.8    c4.8,0,8-1.6,11.2-4.8c3.2-3.2,4.8-8,4.8-11.2C175.713,379.2,174.113,376,170.913,372.8z"/></g></g><g><g><path d="M250.913,228.8c-4.8-6.4-16-6.4-22.4,0c-3.2,3.2-4.8,6.4-4.8,11.2s1.6,8,4.8,11.2c3.2,3.2,8,4.8,11.2,4.8    c4.8,0,8-1.6,11.2-4.8c3.2-3.2,4.8-8,4.8-11.2C255.713,235.2,254.113,232,250.913,228.8z"/></g></g><g><g><path d="M410.913,212.8c-4.8-6.4-16-6.4-22.4,0c-3.2,3.2-4.8,6.4-4.8,11.2s1.6,8,4.8,11.2c3.2,3.2,8,4.8,11.2,4.8    c4.8,0,8-1.6,11.2-4.8c3.2-3.2,4.8-8,4.8-11.2C415.713,219.2,414.113,216,410.913,212.8z"/></g></g><g><g><path d="M346.913,308.8c-4.8-6.4-16-6.4-22.4,0c-3.2,3.2-4.8,6.4-4.8,11.2s1.6,8,4.8,11.2c3.2,3.2,8,4.8,11.2,4.8    c4.8,0,8-1.6,11.2-4.8c3.2-3.2,4.8-8,4.8-11.2C351.713,315.2,350.113,312,346.913,308.8z"/></g></g><g><g><path d="M346.913,100.8c-6.4-6.4-16-6.4-22.4,0c-3.2,3.2-4.8,6.4-4.8,11.2s1.6,8,4.8,11.2c3.2,3.2,8,4.8,11.2,4.8    c4.8,0,8-1.6,11.2-4.8s4.8-6.4,4.8-11.2S350.113,104,346.913,100.8z"/></g></g><g><g><path d="M503.713,142.4c-28.8-136-179.2-142.4-208-142.4c-4.8,0-9.6,0-16,0c-67.2,1.6-132.8,36.8-187.2,97.6    c-60.8,67.2-96,155.2-91.2,227.2c8,126.4,70.4,187.2,192,187.2c115.2,0,201.6-33.6,256-100.8    C513.313,331.2,519.713,219.2,503.713,142.4z M423.713,392c-48,59.2-126.4,89.6-230.4,89.6s-152-48-160-158.4    c-4.8-64,28.8-144,83.2-203.2c48-54.4,107.2-84.8,164.8-88c4.8,0,9.6,0,14.4,0c140.8,0,171.2,89.6,176,116.8    C486.113,219.2,481.313,320,423.713,392z"/></g></g></svg>