<svg xmlns="http://www.w3.org/2000/svg" viewBox="0 0 64 64" fill="none" role="img" aria-label="Owyx icon — synthwave gradient">
  <title>Owyx icon — Synthwave gradient</title>
  <defs><linearGradient id="owyx-synthwave-fill" x1="0" y1="0" x2="0" y2="1"><stop offset="0%" stop-color="#f9a8d4"/><stop offset="55%" stop-color="#ec4899"/><stop offset="100%" stop-color="#831843"/></linearGradient><linearGradient id="owyx-synthwave-edge" x1="0" y1="0" x2="0" y2="1"><stop offset="0%" stop-color="#fbcfe8"/><stop offset="100%" stop-color="#be185d"/></linearGradient><radialGradient id="owyx-synthwave-core" cx="50%" cy="32%" r="38%"><stop offset="0%" stop-color="#ffffff" stop-opacity="0.85"/><stop offset="60%" stop-color="#f9a8d4" stop-opacity="0.3"/><stop offset="100%" stop-color="#ec4899" stop-opacity="0"/></radialGradient></defs><g stroke="url(#owyx-synthwave-edge)" stroke-width="0.75" stroke-linejoin="round"><path d="M32 4 L56 18 L32 32 Z" fill="url(#owyx-synthwave-fill)" fill-opacity="0.95"/><path d="M8 18 L32 4 L32 32 Z" fill="url(#owyx-synthwave-fill)" fill-opacity="0.75"/><path d="M56 18 L56 46 L32 32 Z" fill="url(#owyx-synthwave-fill)" fill-opacity="0.55"/><path d="M8 46 L8 18 L32 32 Z" fill="url(#owyx-synthwave-fill)" fill-opacity="0.42"/><path d="M56 46 L32 60 L32 32 Z" fill="url(#owyx-synthwave-fill)" fill-opacity="0.3"/><path d="M32 60 L8 46 L32 32 Z" fill="url(#owyx-synthwave-fill)" fill-opacity="0.18"/></g>
<polygon points="32,4 56,18 56,46 32,60 8,46 8,18" fill="none" stroke="#ec4899" stroke-width="2" stroke-linejoin="round" stroke-linecap="round"/>
<circle cx="32" cy="26" r="9" fill="url(#owyx-synthwave-core)"/>
<circle cx="32" cy="32" r="1.4" fill="#ffffff"/>
</svg>
