<svg xmlns="http://www.w3.org/2000/svg" data-name="Layer 1" width="786.42633" height="652.03428"
     viewBox="0 0 786.42633 652.03428" xmlns:xlink="http://www.w3.org/1999/xlink">
  <path
    d="M903.54736,730.85043l13.83594,12.73764-10.99575-18.45c8.663-15.70975,22.83131-29.2868,22.83131-29.2868s29.39425,28.162,29.39425,50.2992-13.16018,29.86665-29.39425,29.86665c-16.23381,0-29.394-7.72947-29.394-29.86665A38.833,38.833,0,0,1,903.54736,730.85043Z"
    transform="translate(-206.78683 -123.98286)" fill="#f2f2f2"/>
  <path
    d="M920.94151,744.27764v1.09115c.06482,12.6836,2.20394,22.57981,6.4012,29.54819.05941.10264.12423.19987.18367.30251l.47-.28628.44833-.28091c-4.6564-7.52479-6.304-18.16106-6.36337-29.22406-.00541-.35654-.01082-.71846-.00541-1.08037.01622-4.68344.3025-9.42085.76165-14.02325.03241-.35654.07023-.71846.108-1.08037.63742-6.07169,1.55574-11.87328,2.49566-16.91323.06482-.35654.135-.713.20527-1.06418,1.626-8.52412,3.28434-14.69845,3.66248-16.06513.04319-.16746.07023-.25928.07564-.28088l-.51319-.14586-.00541-.00541-.51859-.14586c-.0054.02163-.09723.32954-.24846.90214-.578,2.13911-2.07974,7.94611-3.55443,15.606-.06482.34573-.135.70227-.19987,1.05878-.76706,4.08921-1.51792,8.6592-2.11215,13.456q-.22684,1.807-.40514,3.56525c-.04319.36191-.081.72383-.11341,1.08037Q920.96848,737.75491,920.94151,744.27764Z"
    transform="translate(-206.78683 -123.98286)" fill="#fff"/>
  <path
    d="M916.40934,708.70636q-.33223.42946-.68064.8751a29.8087,29.8087,0,0,0,8.616,2.60911c.36191.054.72924.10263,1.09656.14045a30.83387,30.83387,0,0,0,3.25193.17286,30.06183,30.06183,0,0,0,13.21834-3.04665c-.23227-.29169-.45914-.578-.686-.86429a28.98836,28.98836,0,0,1-12.53233,2.83057,29.80237,29.80237,0,0,1-3.04666-.15667c-.37273-.03779-.74-.08642-1.102-.135A28.88877,28.88877,0,0,1,916.40934,708.70636Z"
    transform="translate(-206.78683 -123.98286)" fill="#fff"/>
  <path
    d="M906.22144,723.71816c-.17827.31869-.35113.63741-.524.9561a30.06438,30.06438,0,0,0,16.01654,5.61795c.37272.01619.74545.027,1.12356.03241.15127.00541.3025.00541.45377.00541a30.22423,30.22423,0,0,0,24.56225-12.61337c-.21065-.3241-.42674-.64282-.64279-.96151a29.14214,29.14214,0,0,1-23.91946,12.49451c-.11345,0-.23228,0-.34573-.00541q-.55909,0-1.11819-.03241A28.94206,28.94206,0,0,1,906.22144,723.71816Z"
    transform="translate(-206.78683 -123.98286)" fill="#fff"/>
  <path
    d="M901.38136,734.44624c-.12964.39974-.25928.79406-.37273,1.1938a30.2024,30.2024,0,0,0,19.93288,9.72875c.37811.027.75624.04863,1.13979.05945.39973.02159.80487.027,1.21.027a30.291,30.291,0,0,0,28.7325-20.79717c-.23227-.43755-.47536-.86969-.71845-1.30727a29.221,29.221,0,0,1-28.014,21.02407c-.40514,0-.81028-.01081-1.21542-.027-.37814-.01622-.75627-.03782-1.13438-.07023A29.12666,29.12666,0,0,1,901.38136,734.44624Z"
    transform="translate(-206.78683 -123.98286)" fill="#fff"/>
  <path
    d="M316.94925,355.76722l-18.42885,3.74943,18.95117-10.10747c.70712-17.92608-4.40075-36.873-4.40075-36.873s-39.72111,8.90812-51.16667,27.85684-4.17722,32.36909,9.71863,40.76257c13.89562,8.39335,29.15667,8.58136,40.60223-10.36737A38.83288,38.83288,0,0,0,316.94925,355.76722Z"
    transform="translate(-206.78683 -123.98286)" fill="#f2f2f2"/>
  <path
    d="M295.11815,358.26721l-.56415.934c-6.61327,10.82324-13.56091,18.1881-20.75648,21.98271-.10392.05714-.20968.10685-.31363.164l-.25425-.488-.23852-.47225c7.87626-4.03349,14.78578-12.286,20.55652-21.72482.189-.30239.38072-.60938.56321-.922,2.40759-4.01726,4.61192-8.22034,6.59848-12.39724.1566-.322.31135-.65129.4661-.98063,2.59363-5.52673,4.80716-10.96751,6.60842-15.76751.12885-.3387.25307-.68017.3745-1.017,3.01544-8.137,4.78823-14.27949,5.17117-15.64484.04961-.16567.07394-.25825.08048-.27953l.51468.14048.00743-.00183.51931.14327c-.00656.02131-.08716.33235-.25375.90066-.61124,2.12986-2.32819,7.87691-5.02625,15.196-.12326.32944-.24749.67094-.37633,1.00961-1.45767,3.89683-3.17777,8.19681-5.14922,12.61q-.74007,1.664-1.49655,3.26121c-.15015.33212-.3049.66146-.4615.9834Q298.46752,352.67,295.11815,358.26721Z"
    transform="translate(-206.78683 -123.98286)" fill="#fff"/>
  <path
    d="M309.17142,328.03255c-.33493-.1455-.67449-.29379-1.01307-.45416a29.79906,29.79906,0,0,1-2.68885-1.4411,28.98824,28.98824,0,0,1-9.26378-8.90245c-.34221.12775-.68443.25553-1.03407.38512a30.06182,30.06182,0,0,0,9.73927,9.4421,30.83323,30.83323,0,0,0,2.87293,1.53337c.334.15755.67353.30584,1.01124.44673a29.80847,29.80847,0,0,0,8.724,2.2214q-.06781-.5616-.13015-1.101A28.88891,28.88891,0,0,1,309.17142,328.03255Z"
    transform="translate(-206.78683 -123.98286)" fill="#fff"/>
  <path
    d="M302.14932,344.91334q-.49531-.26135-.97389-.5504c-.09991-.054-.20162-.11546-.29873-.17412a29.14213,29.14213,0,0,1-14.01428-23.062c-.34971.16109-.69946.32218-1.04733.49069a30.22425,30.22425,0,0,0,14.503,23.496c.12948.07821.25893.1564.39121.23.32644.19086.65107.37432.97849.55317A30.06442,30.06442,0,0,0,318.3021,349.369c.01681-.36216.03363-.72436.04581-1.08932A28.942,28.942,0,0,1,302.14932,344.91334Z"
    transform="translate(-206.78683 -123.98286)" fill="#fff"/>
  <path
    d="M295.11815,358.26721c-.3404-.16775-.67524-.34477-1.0073-.5264-.35515-.19561-.70753-.39582-1.05432-.60529a29.221,29.221,0,0,1-13.10908-32.48c-.43432.24888-.86583.49309-1.29088.74753A30.291,30.291,0,0,0,292.498,358.06029c.34679.20946.69637.4143,1.04969.60249.33389.18905.66873.36607,1.00636.53842a30.20241,30.20241,0,0,0,22.092,1.97836c.10957-.40081.20248-.80537.29818-1.21455A29.12672,29.12672,0,0,1,295.11815,358.26721Z"
    transform="translate(-206.78683 -123.98286)" fill="#fff"/>
  <path
    d="M627.60982,162.34l-1.50044,21.17374,8.53985-22.68841c19.95913-3.4137,41.91143-.46871,41.91143-.46871s-4.15923,45.75834-23.692,61.33993-35.61589,9.41018-47.04249-4.914c-11.42641-14.32393-13.86928-31.37635,5.6635-46.95793C615.83726,166.35645,621.47447,163.96518,627.60982,162.34Z"
    transform="translate(-206.78683 -123.98286)" fill="#f2f2f2"/>
  <path
    d="M628.00544,187.13868l-.96278.768c-11.14577,8.98473-18.37207,17.83778-21.56633,26.446-.04875.12467-.08891.2503-.13763.375l.58339.21317.56342.19786c3.362-9.405,11.5873-18.34524,21.307-26.18453.31079-.25572.62632-.51524.94946-.7652,4.14386-3.2822,8.52543-6.3641,12.90954-9.19843.3374-.22236.68336-.44374,1.02931-.66511,5.806-3.71122,11.57145-6.98448,16.68-9.70258.36022-.19376.72421-.38273,1.08347-.56792,8.66573-4.56515,15.28093-7.44777,16.753-8.07609.17815-.07975.2782-.12053.30106-.131l-.23251-.55547.001-.00858-.23632-.56024c-.02289.01045-.3592.14616-.97088.41574-2.29429.99565-8.47513,3.75794-16.27179,7.84823-.35068.18615-.7147.37514-1.07489.56888-4.148,2.20144-8.70888,4.75557-13.35962,7.60757q-1.754,1.07169-3.431,2.152c-.34974.21663-.6957.438-1.0331.66037Q633.77978,182.57135,628.00544,187.13868Z"
    transform="translate(-206.78683 -123.98286)" fill="#fff"/>
  <path
    d="M656.20179,158.10233q-.61279.00914-1.25122.01539a33.64476,33.64476,0,0,0,3.76233,9.43878c.20709.35735.42272.71569.6479,1.06641a34.80164,34.80164,0,0,0,2.13639,2.991,33.93068,33.93068,0,0,0,11.99215,9.51879c.09388-.41025.18683-.812.27975-1.21364a32.71933,32.71933,0,0,1-11.31863-9.06558,33.63269,33.63269,0,0,1-2.00619-2.79851c-.229-.35547-.44465-.71381-.65648-1.06737A32.607,32.607,0,0,1,656.20179,158.10233Z"
    transform="translate(-206.78683 -123.98286)" fill="#fff"/>
  <path
    d="M635.78519,159.67929c-.40667.067-.80957.13883-1.21244.21062a33.93381,33.93381,0,0,0,6.31647,18.0865c.24806.34027.50087.67676.76224,1.01419.1017.13727.20815.27072.31462.40419A34.1142,34.1142,0,0,0,670.384,192.18923c.13771-.414.26684-.829.396-1.24394a32.8928,32.8928,0,0,1-27.86062-12.31094c-.07986-.1001-.16349-.205-.23858-.30886q-.39353-.49332-.75845-1.00945A32.66688,32.66688,0,0,1,635.78519,159.67929Z"
    transform="translate(-206.78683 -123.98286)" fill="#fff"/>
  <path
    d="M622.91248,162.95976c-.44395.167-.88314.33014-1.31569.51139a34.08954,34.08954,0,0,0,5.44587,24.43555c.24227.35265.48938.7015.7498,1.04753.2623.36791.54269.72919.82786,1.08667a34.18957,34.18957,0,0,0,38.57422,10.71378c.22258-.51293.43278-1.03159.64778-1.55408a32.98177,32.98177,0,0,1-38.26873-9.92014c-.28517-.35748-.56079-.72256-.83167-1.09143-.25184-.34507-.499-.69392-.73648-1.05035A32.87538,32.87538,0,0,1,622.91248,162.95976Z"
    transform="translate(-206.78683 -123.98286)" fill="#fff"/>
  <path
    d="M403.58115,548.93076c-2.00945,0-4.0394-.03183-6.03187-.09407l.04526-1.44715c2.861.08913,5.78078.11388,8.65526.07427l.01981,1.44856Q404.92747,548.9304,403.58115,548.93076Zm11.40383-.336-.08487-1.44573c2.86528-.169,5.76734-.4067,8.62555-.70589l.15138,1.44007c-2.88015.302-5.80414.5418-8.69208.71155Zm-26.1433-.22563c-2.88933-.22139-5.80908-.51138-8.6786-.86362l.17683-1.43724c2.84759.3487,5.7447.63728,8.61211.85655Zm43.48494-1.59285-.21714-1.43158c2.84689-.43216,5.71571-.93363,8.5244-1.4917l.28222,1.42027C438.08547,545.83556,435.19544,546.34132,432.32662,546.77631Zm-60.79227-.52977c-2.85432-.48383-5.73552-1.03973-8.56331-1.65367l.30732-1.416c2.80622.6097,5.66514,1.16139,8.49788,1.64094Zm77.89484-2.86952-.348-1.40612c2.79456-.691,5.60467-1.45492,8.35254-2.26973l.41165,1.38919C455.07629,541.91149,452.245,542.681,449.42919,543.377Zm-94.93552-.83037c-2.79986-.74479-5.6174-1.56385-8.37446-2.436l.4364-1.38066c2.7362.865,5.53217,1.67772,8.3101,2.41615ZM466.147,538.41742l-.4753-1.36793c2.71179-.94283,5.43915-1.962,8.1078-3.03008l.53755,1.34529C471.62858,536.44051,468.88,537.46751,466.147,538.41742Zm-128.3025-1.13452c-2.71922-.99941-5.45542-2.07805-8.13185-3.20549l.5623-1.33539c2.65592,1.119,5.3709,2.1891,8.06961,3.18145Zm144.475-5.33659-.59979-1.31841c2.60428-1.18332,5.222-2.44656,7.78032-3.75436l.65921,1.29012C487.58107,529.4814,484.94354,530.7538,482.31945,531.94631Zm15.49841-7.92249-.71721-1.25759c2.49748-1.42521,4.99073-2.92328,7.409-4.45317l.77379,1.22363C502.84677,521.07861,500.33514,522.5887,497.81786,524.02382Zm14.71966-9.31235-.829-1.18685c2.35178-1.64306,4.69861-3.36393,6.97542-5.11379l.88271,1.14865C517.27291,511.32279,514.90769,513.05639,512.53752,514.71147Zm-220.77838-2.03986c-2.338-1.69823-4.6735-3.47709-6.9422-5.28849l.9039-1.13169c2.25134,1.79726,4.56917,3.56268,6.88912,5.24748ZM526.35467,504.092l-.93364-1.10764c2.19193-1.84959,4.37325-3.777,6.48455-5.72914l.98315,1.06378C530.76187,500.28605,528.56358,502.22825,526.35467,504.092ZM278.1245,501.78482c-2.17743-1.90689-4.34072-3.89016-6.42938-5.89537l1.003-1.04539c2.0731,1.99031,4.21977,3.95877,6.38057,5.85151Zm261.03026-9.53231-1.03124-1.0171c2.02072-2.04764,4.0196-4.16672,5.93992-6.29782l1.07652.969c-1.93523,2.14808-3.94892,4.28276-5.98524,6.34592Zm-273.61244-2.54346c-1.99777-2.10069-3.97079-4.27211-5.86424-6.45343l1.0942-.9492c1.87894,2.16505,3.83676,4.3195,5.81968,6.40392Zm285.28784-10.415-1.11895-.91949c1.82554-2.22164,3.6228-4.514,5.34366-6.81486l1.16.86716C554.48125,474.74536,552.66985,477.05612,550.83016,479.294Zm-296.71541-2.75c-1.794-2.2669-3.56055-4.60737-5.25066-6.95632l1.1755-.846c1.67737,2.33056,3.43042,4.65334,5.21105,6.904Zm307.1658-11.22422-1.19817-.81336c1.61548-2.37865,3.19767-4.82663,4.70214-7.27743l1.23495.75823C564.50231,460.45644,562.90805,462.92351,561.28055,465.31981Zm-317.34282-2.91833c-1.57834-2.41968-3.12308-4.90939-4.59181-7.40192l1.24769-.73559c1.45775,2.47339,2.99082,4.94475,4.55714,7.34533Zm326.47975-11.95832-1.26749-.70022c1.39056-2.51659,2.74151-5.10111,4.01677-7.682l1.29865.64223C573.18091,445.3032,571.81864,447.90744,570.41748,450.44316Zm7.73576-15.65967-1.32685-.5814c1.15432-2.63612,2.26266-5.33589,3.29461-8.02364l1.35236.51916C580.43359,429.40656,579.31605,432.12684,578.15324,434.78349Zm-350.47957-3.12557c-1.11047-2.66511-2.17389-5.39176-3.16058-8.105l1.36156-.49511c.9789,2.6927,2.0342,5.39813,3.13582,8.04273Zm356.74344-13.1933-1.375-.45551c.90388-2.72382,1.75693-5.50776,2.535-8.27543l1.3948.39182C586.18749,412.91439,585.32741,415.72028,584.41711,418.46462Zm-362.69433-3.17438c-.86185-2.7606-1.67171-5.58061-2.40695-8.38294l1.40117-.3678c.72958,2.78111,1.53343,5.57991,2.38856,8.31929ZM589.13835,401.6775l-1.41106-.32818c.64859-2.79173,1.24131-5.64284,1.76259-8.47278l1.42451.2617C590.38957,395.99077,589.7919,398.86313,589.13835,401.6775Zm-371.8397-3.255c-.60405-2.82921-1.15078-5.71147-1.62467-8.56826l1.42875-.23765c.47071,2.83555,1.01321,5.6959,1.61265,8.50318Zm374.99644-13.89425-1.43583-.19663c.38973-2.837.71862-5.72985.9782-8.59867l1.4429.13014c-.26175,2.89143-.59347,5.80625-.98532,8.66514ZM214.444,381.22091c-.34163-2.86743-.62207-5.78785-.83391-8.68l1.445-.1061c.20971,2.87094.48839,5.76876.82754,8.61494Zm379.42627-14.05763-1.44714-.06507c.12873-2.87024.19451-5.78149.19451-8.65243h1.44855c0,2.89284-.06582,5.82605-.196,8.71748Zm-380.69906-3.33281c-.04951-1.776-.0746-3.58815-.075-5.38469q0-1.672.02865-3.33776l1.44856.02546q-.02865,1.653-.02865,3.3123c.00035,1.78311.02546,3.58178.07427,5.34508Zm1.746-17.34482-1.44572-.09053c.18071-2.89429.43038-5.81757.74125-8.68886l1.44007.156c-.30878,2.84972-.556,5.75072-.73565,8.62343Zm376.76514-8.83734c-.28929-2.85574-.68723-4.2481-1.10737-7.09146l1.433-.21148c.423,2.86492.78586,5.0519,1.07793,7.92921Zm-374.90175-8.36637-1.43158-.22139c.44383-2.86563.95946-5.7539,1.53273-8.58559l1.41958.28717c-.56874,2.81011-1.08049,5.67645-1.52078,8.51981Zm372.3323-7.25412c-.55241-2.82567-1.1755-5.67008-1.85313-8.454l1.40753-.34233c.68254,2.80512,1.31063,5.6715,1.86727,8.51839Zm-368.90123-9.70628-1.40506-.35224c.70342-2.80551,1.48251-5.63437,2.31571-8.40841l1.387.4166C221.68281,306.73031,220.90974,309.5376,220.21162,312.32154ZM585.019,305.21386c-.80774-2.75813-1.69046-5.53252-2.62339-8.24715l1.36934-.47106c.94071,2.73549,1.8305,5.53181,2.6446,8.3108Zm-359.82092-9.48811-1.3665-.48026c.96264-2.73832,2.002-5.48972,3.08915-8.17782l1.34316.5432c-1.079,2.66724-2.11061,5.39778-3.06582,8.11486ZM579.39385,288.849c-1.05671-2.66583-2.18839-5.3412-3.36393-7.9522l1.32124-.59484c1.18473,2.63116,2.32495,5.32706,3.38939,8.013Zm-347.69422-9.20024-1.31629-.60476c1.20984-2.6347,2.4975-5.27683,3.82722-7.85283l1.28729.66416C234.178,274.41191,232.90027,277.03388,231.69963,279.64877Zm340.60493-6.54433c-1.29644-2.55726-2.67007-5.11981-4.08255-7.61553l1.26041-.71367c1.4238,2.51517,2.80729,5.09718,4.11367,7.67423Zm-332.6545-8.85753-1.25546-.72282c1.445-2.50915,2.9689-5.02078,4.52957-7.46451l1.2208.77945C242.59632,259.26432,241.08377,261.75683,239.65006,264.24691Zm324.14424-6.18182c-1.5306-2.43666-3.13335-4.86412-4.76368-7.21519l1.18968-.82542c1.64307,2.36911,3.25854,4.815,4.80046,7.27036Zm-314.82059-8.41868-1.184-.83461c1.66994-2.36839,3.41591-4.729,5.19053-7.01644l1.14442.88766C252.36381,244.95346,250.63057,247.29605,248.97371,249.64641Zm304.96716-5.78856c-1.74562-2.28635-3.56339-4.55927-5.40449-6.75544l1.11046-.93046c1.85455,2.21315,3.68646,4.503,5.44552,6.80673ZM259.58678,235.964l-1.10268-.9393c1.874-2.20113,3.82721-4.392,5.80518-6.51178l1.05883.9881C263.38535,231.60489,261.447,233.7795,259.58678,235.964Zm283.24308-5.3656c-1.94579-2.118-3.96443-4.21729-5.99863-6.23876l1.02135-1.02771c2.04976,2.0374,4.08325,4.15222,6.04389,6.28615Zm-271.434-7.28912-1.01286-1.03549c2.07134-2.02642,4.21482-4.02988,6.37032-5.95443l.96474,1.08076c-2.13923,1.90974-4.26644,3.898-6.32221,5.90918Zm259.15943-4.91045c-2.13252-1.93412-4.33435-3.84171-6.544-5.66973l.92374-1.11612c2.22588,1.84184,4.44468,3.76391,6.59347,5.71288Zm-246.254-6.614-.91454-1.12321c2.24038-1.82445,4.5557-3.62385,6.88208-5.34827l.86291,1.16352c-2.309,1.7117-4.60705,3.49729-6.83046,5.308Zm13.89315-10.29724-.80845-1.20171c2.39776-1.61335,4.86624-3.19311,7.3372-4.69648l.75256,1.23779C303.024,198.31891,300.57424,199.887,298.1945,201.48762Zm14.76636-8.982-.6953-1.271c2.53674-1.38808,5.13784-2.73479,7.73081-4.00333l.63657,1.30143c-2.57312,1.25865-5.15442,2.59509-7.67206,3.97292Zm174.81894-3.35615c-2.57741-1.2841-5.21777-2.52472-7.84754-3.68717l.58565-1.32477c2.65026,1.17129,5.31113,2.42145,7.90834,3.71546ZM328.47624,184.9166l-.57574-1.329c2.651-1.149,5.36276-2.251,8.0597-3.27553l.51424,1.35448c-2.67644,1.01643-5.36737,2.10992-7.99818,3.25009Zm143.44443-2.77722c-2.68209-1.04007-5.42713-2.03243-8.15944-2.9491l.46116-1.37358c2.75282.92409,5.51908,1.92386,8.22168,2.97244Zm-127.2868-3.35828-.45121-1.37642c2.75282-.90252,5.56152-1.75235,8.34758-2.52506l.38725,1.39549C350.1526,177.04217,347.36548,177.8853,344.63387,178.7811Zm110.86043-2.15374c-2.76272-.78758-5.58061-1.52105-8.37516-2.1799l.33245-1.40966c2.81648.66381,5.65559,1.40293,8.44024,2.19618Zm-94.18613-2.47379-.32253-1.41213c2.82214-.6447,5.697-1.23212,8.54421-1.74562l.25746,1.42521C366.96128,172.931,364.10873,173.51382,361.30817,174.15357Zm77.34385-1.497c-2.82072-.52945-5.69378-1.00048-8.54-1.40011l.20087-1.4344c2.86813.40281,5.76381.87741,8.60645,1.41072Zm-60.31449-1.57623-.19168-1.43582c2.86743-.38265,5.78361-.70447,8.66729-.95557l.1259,1.4429C384.07729,170.38153,381.18372,170.70052,378.33753,171.08034Zm43.17868-.83108c-2.85326-.26877-5.75744-.476-8.63262-.615l.07073-1.44714c2.89638.1404,5.82251.34906,8.69769.62Zm-25.9396-.673-.06085-1.44715c2.66229-.111,5.3755-.16763,8.06537-.16833l.65567.00106-.00425,1.44855-.65142-.00106C400.91179,169.41005,398.21838,169.46628,395.57661,169.57627Z"
    transform="translate(-206.78683 -123.98286)" fill="#e4e4e4"/>
  <path
    d="M618.18081,134.848l0,121.53565a10.87747,10.87747,0,0,1-10.86518,10.86518l-176.254,0a10.87747,10.87747,0,0,1-10.86518-10.86518l0-121.53565a10.87747,10.87747,0,0,1,10.86518-10.86518l176.254-.00005A10.87747,10.87747,0,0,1,618.18081,134.848Z"
    transform="translate(-206.78683 -123.98286)" fill="#e4e4e4"/>
  <path
    d="M611.24859,134.63412l0,121.9635a3.35314,3.35314,0,0,1-3.34931,3.34931l-177.42131,0a3.35315,3.35315,0,0,1-3.34932-3.34931l0-121.96349a3.35315,3.35315,0,0,1,3.34931-3.34932l177.42132,0A3.35314,3.35314,0,0,1,611.24859,134.63412Z"
    transform="translate(-206.78683 -123.98286)" fill="#fff"/>
  <rect x="239.88445" y="26.65652" width="145.03469" height="2.99359" fill="var(--color-green)"/>
  <rect x="239.88446" y="36.13622" width="145.03469" height="2.99359" fill="var(--color-green)"/>
  <rect x="239.88446" y="45.61595" width="145.03469" height="2.99359" fill="var(--color-green)"/>
  <rect x="239.88445" y="60.65652" width="145.03469" height="2.99359" fill="#e4e4e4"/>
  <rect x="239.88446" y="70.13622" width="145.03469" height="2.99359" fill="#e4e4e4"/>
  <rect x="239.88446" y="79.61595" width="145.03469" height="2.99359" fill="#e4e4e4"/>
  <rect x="239.88445" y="94.65652" width="145.03469" height="2.99359" fill="#e4e4e4"/>
  <rect x="239.88446" y="104.13622" width="145.03469" height="2.99359" fill="#e4e4e4"/>
  <rect x="239.88446" y="113.61595" width="145.03469" height="2.99359" fill="#e4e4e4"/>
  <path
    d="M339.18767,567.6237H217.652a10.87748,10.87748,0,0,1-10.86519-10.86518V380.5045A10.87748,10.87748,0,0,1,217.652,369.63931H339.18767a10.87748,10.87748,0,0,1,10.86518,10.86519v176.254A10.87747,10.87747,0,0,1,339.18767,567.6237Z"
    transform="translate(-206.78683 -123.98286)" fill="#e4e4e4"/>
  <path
    d="M339.40159,560.69148H217.43809a3.35315,3.35315,0,0,1-3.34931-3.34932V379.92085a3.35314,3.35314,0,0,1,3.34931-3.34931h121.9635a3.35314,3.35314,0,0,1,3.34931,3.34931V557.34216A3.35315,3.35315,0,0,1,339.40159,560.69148Z"
    transform="translate(-206.78683 -123.98286)" fill="#fff"/>
  <rect x="31.35118" y="346.44201" width="80.56365" height="2.99359" fill="#e4e4e4"/>
  <rect x="31.35118" y="355.92172" width="80.56365" height="2.99359" fill="#e4e4e4"/>
  <rect x="31.35118" y="365.40145" width="80.56365" height="2.99359" fill="#e4e4e4"/>
  <rect x="31.35118" y="386.17222" width="80.56365" height="2.99359" fill="#e4e4e4"/>
  <rect x="31.35118" y="395.65193" width="80.56365" height="2.99359" fill="#e4e4e4"/>
  <rect x="31.35118" y="405.13166" width="80.56365" height="2.99359" fill="#e4e4e4"/>
  <rect x="265.49334" y="406.87051" width="33.83702" height="32.66539"
        transform="translate(-340.4299 6.37959) rotate(-21.14419)" fill="var(--color-green)"/>
  <path
    d="M264.87305,443.42761l-12.765-33.00522,34.15574-13.21007,12.7649,33.00522ZM253.40563,410.996l12.04124,31.13391,32.28419-12.486L285.68994,398.51Z"
    transform="translate(-206.78683 -123.98286)" fill="#3f3d56"/>
  <circle cx="196.79436" cy="234.46291" r="37.2593" fill="var(--color-green)"/>
  <path
    d="M383.80161,355.128a3.318,3.318,0,0,0,0,6.63591h12.41978a4.04654,4.04654,0,0,1,4.04206,4.04188v12.41987a3.31778,3.31778,0,0,0,6.63555,0V365.80574a4.04654,4.04654,0,0,1,4.04206-4.04188h12.41978a3.318,3.318,0,0,0,0-6.63591H410.94106a4.04654,4.04654,0,0,1-4.04206-4.04188V338.6662a3.31778,3.31778,0,0,0-6.63555,0v12.41987a4.04654,4.04654,0,0,1-4.04206,4.04188Z"
    transform="translate(-206.78683 -123.98286)" fill="#fff"/>
  <polygon points="635.135 638.023 622.147 638.022 615.968 587.925 635.137 587.926 635.135 638.023"
           fill="#ffb6b6"/>
  <path
    d="M845.23424,774.59579l-41.87945-.00155v-.52971a16.30152,16.30152,0,0,1,16.30065-16.30039h.001l25.57855.001Z"
    transform="translate(-206.78683 -123.98286)" fill="#2f2e41"/>
  <polygon points="558.058 638.023 545.07 638.022 538.891 587.925 558.061 587.926 558.058 638.023"
           fill="#ffb6b6"/>
  <path
    d="M768.15758,774.59579l-41.87945-.00155v-.52971a16.30152,16.30152,0,0,1,16.30065-16.30039h.001l25.57854.001Z"
    transform="translate(-206.78683 -123.98286)" fill="#2f2e41"/>
  <path
    d="M758.89052,579.86376a11.8953,11.8953,0,0,0,3.19321-17.95836l13.3722-107.51459-25.84109,1.19536L744.596,560.89362a11.95979,11.95979,0,0,0,14.29451,18.97014Z"
    transform="translate(-206.78683 -123.98286)" fill="#ffb6b6"/>
  <path
    d="M774.8895,473.0686l-26.656-3.88786a5.33371,5.33371,0,0,1-4.3383-6.81242l7.72875-25.72033a14.81269,14.81269,0,0,1,29.30245,4.36158l.06651,26.76956a5.33371,5.33371,0,0,1-6.1034,5.28947Z"
    transform="translate(-206.78683 -123.98286)" fill="var(--color-green)"/>
  <path
    d="M759.35048,545.34361l-8.47093,7.83831.63262,41.1511s-7.16454,60.09366-7.81773,62.05324-3.28653,73.8107-3.28653,73.8107,13.717,6.53192,26.12768,2.61277c0,0,12.41065-58.78728,12.41065-75.77028L793.31646,597.599l16.35038,68.58516s7.16454,45.07025,9.7773,60.09367,2.61277,16.983,2.61277,16.983,20.90215,5.87873,26.12768,0c0,0-2.61276-77.07666-4.57234-84.915l-4.57234-93.40647Z"
    transform="translate(-206.78683 -123.98286)" fill="#2f2e41"/>
  <circle cx="590.77537" cy="254.47018" r="21.55534" fill="#ffb9b9"/>
  <path
    d="M821.85259,412.04366l32.21073,13.76581-13.717,75.77027s.67376,39.19153,2.61277,69.89155c1.60787,25.45724-96.67243,0-93.40647-21.55533s16.32981-47.683,16.32981-47.683,3.266-28.74045-3.91916-41.8043-2.61276-28.08725-2.61276-28.08725l28.752-19.0503S788.1115,413.39882,821.85259,412.04366Z"
    transform="translate(-206.78683 -123.98286)" fill="var(--color-green)"/>
  <path
    d="M792.26647,364.34856a86.18834,86.18834,0,0,1,9.65858-.95759,14.54246,14.54246,0,0,1,6.90385.925c3.1936,1.52092,4.98294,4.959,6.15441,8.29665s2.00239,6.9045,4.17558,9.69549c3.61584-3.7743,4.33844-9.38553,4.87677-14.58457.37867-3.65681.71427-7.556-.97655-10.82051a17.10477,17.10477,0,0,0-4.50007-5.02612c-8.30838-6.91509-18.8606-12.35631-29.558-10.80315l-.25029,1.65157a29.49565,29.49565,0,0,0-5.45665.34292l.38221,4.09748-5.68218.36044-.218,4.27037-5.74645.19921a6.65809,6.65809,0,0,0,2.00451,4.32889,8.09425,8.09425,0,0,1-2.95152,1.33316c.95822,3.70948,1.88845,7.42745,2.87836,11.12859.72926,2.72642.599,5.13533,3.52339,3.80477,2.22661-1.0131,3.73313-4.23472,5.98422-5.56577A24.65479,24.65479,0,0,1,792.26647,364.34856Z"
    transform="translate(-206.78683 -123.98286)" fill="#2f2e41"/>
  <path
    d="M869.91243,576.71082a11.89531,11.89531,0,0,0-.40347-18.23559L861.4606,450.4316l-25.10048,6.25755,15.804,104.2357a11.95979,11.95979,0,0,0,17.74831,15.786Z"
    transform="translate(-206.78683 -123.98286)" fill="#ffb6b6"/>
  <path
    d="M864.58107,468.85559l-26.89985,1.43412a5.3337,5.3337,0,0,1-5.59415-5.82541l2.5158-26.73835a14.81269,14.81269,0,0,1,29.58775-1.49049l5.3335,26.23294a5.3337,5.3337,0,0,1-4.94305,6.38719Z"
    transform="translate(-206.78683 -123.98286)" fill="var(--color-green)"/>
  <path d="M992.21317,775.6237h-381a1,1,0,0,1,0-2h381a1,1,0,0,1,0,2Z"
        transform="translate(-206.78683 -123.98286)" fill="#cacaca"/>
</svg>
