<svg preserveAspectRatio="none" overflow="visible" style="display: block;" width="30.8333" height="20.8333" viewBox="0 0 30.8333 20.8333" fill="none" xmlns="http://www.w3.org/2000/svg">
<path id="Vector" d="M1.6228 20.8333C2.51907 20.8333 3.24562 20.1158 3.24562 19.2308L3.24563 17.5253C3.24562 17.0803 3.2459 16.016 3.7136 15.2292C4.00182 14.7442 4.37085 14.339 4.74993 14.1326C5.36078 13.8001 6.0611 13.6111 6.80555 13.6111C7.05077 13.6111 7.3144 13.6219 7.6104 13.6356L7.7201 13.6408C7.97828 13.6529 8.25927 13.6661 8.5395 13.6719C9.17298 13.6851 9.91222 13.6651 10.6258 13.4739C12.0158 13.1014 13.1015 12.0158 13.4738 10.6258C13.665 9.91222 13.685 9.17298 13.672 8.5395C13.6662 8.25937 13.6528 7.9782 13.6408 7.7201L13.6357 7.6104C13.6218 7.3144 13.6112 7.05077 13.6112 6.80555C13.6112 6.02607 13.8182 5.29497 14.1805 4.66428C14.3917 4.29663 14.7595 3.96015 15.2675 3.66463C16.0377 3.21645 16.96 3.2123 17.5237 3.20975C18.0872 3.20722 18.6818 3.20527 19.1787 3.20527C22.2357 3.20527 23.347 3.2282 24.1857 3.5193C25.6395 4.02402 26.7495 5.07765 27.2667 6.36838C27.3963 6.69185 27.4878 7.1167 27.5368 7.85255C27.5868 8.60265 27.5877 9.56012 27.5877 10.9399V19.2308C27.5877 20.1158 28.3143 20.8333 29.2105 20.8333C30.1068 20.8333 30.8333 20.1158 30.8333 19.2308V10.8854C30.8333 9.5729 30.8333 8.50977 30.7755 7.6419C30.7158 6.74778 30.5898 5.95072 30.2847 5.18902C29.4037 2.99072 27.5568 1.29222 25.262 0.495583C23.8303 -0.0014166 22.1092 -0.000816752 19.5178 8.32478e-05L17.939 0.000200073L17.9167 0L17.8582 0.000249942C13.6775 0.00308328 11.0862 0.0528001 8.93633 0.79915C5.23583 2.08378 2.2801 4.81432 0.87485 8.32102C0.40655 9.48963 0.199033 10.7449 0.0986334 12.2503C-1.66334e-05 13.7293 0 15.5563 0 17.8857V19.2308C0 20.1158 0.72655 20.8333 1.6228 20.8333Z" fill="#B0BAC5"/>
</svg>
