<svg viewBox="0 0 24 24" fill="none" xmlns="http://www.w3.org/2000/svg"><path d="M12.35 5.89001L12.34 5.90001C10.59 7.37001 5.67003 11.13 2.64003 13.76C2.09003 14.23 1.97003 15.38 2.44003 15.93C4.24003 17.97 6.24003 20.2 6.89003 20.97C7.52003 21.69 8.91003 22.39 10 21.49C11.8 20 16.78 16.01 19.62 13.7" stroke="currentColor" stroke-width="2" stroke-linecap="round" stroke-linejoin="round"/><path d="M19.59 13.66C19.34 13.33 18.02 11.53 19.05 10.25C19.52 9.63998 20.61 9.20998 21.3 9.98998C21.87 10.62 22.23 11.55 21.01 12.56C20.66 12.85 20.18 13.24 19.62 13.7C19.61 13.69 19.6 13.67 19.59 13.66Z" stroke="currentColor" stroke-width="2" stroke-linecap="round" stroke-linejoin="round"/><path d="M19.63 13.71L19.62 13.7C19.61 13.69 19.6 13.67 19.59 13.66C18.65 12.59 14.44 8.13999 12.34 5.89999C11.76 5.28999 11.33 4.83999 11.18 4.66999C10.91 4.36999 9.91004 3.64999 11.63 2.46999C12.98 1.54999 13.48 1.97999 13.88 2.37999L21.3 9.97999" stroke="currentColor" stroke-width="2" stroke-linecap="round" stroke-linejoin="round"/><path d="M10.6352 14.7743C10.7992 14.517 10.8811 14.2194 10.8811 13.8978C10.8811 12 9.2582 12 8.06967 12C7.61886 12 7.25 12.3538 7.25 12.8041V17.1948C7.25 17.637 7.61886 17.9989 8.06967 17.9989C8.1552 17.9965 9.54283 18.0068 9.57789 17.9909C10.3894 17.9668 11.25 17.6531 11.25 15.9886C11.25 15.7232 11.1762 15.1925 10.6352 14.7743ZM9.61886 13.8978C9.61886 14.0506 9.53686 14.1953 9.40574 14.2918H9.39753C9.29097 14.3722 9.15164 14.4205 9.00411 14.4205H8.47951V13.3831C8.56539 13.3831 8.92616 13.3832 9.00411 13.3831C9.34015 13.3831 9.61886 13.6163 9.61886 13.8978ZM9.29918 16.7927H8.47951V15.7554C8.68401 15.7555 9.09478 15.7553 9.29918 15.7554C9.71537 15.7517 10.0548 16.1404 9.85655 16.4871C9.7664 16.6641 9.54507 16.7927 9.29918 16.7927Z" fill="currentColor" stroke="currentColor" stroke-width="0.25"/><path d="M13.2991 11V14" stroke="currentColor" stroke-linecap="round"/><path d="M12 13.25L14.5981 11.75" stroke="currentColor" stroke-linecap="round"/><path d="M14.5981 13.25L12.0001 11.75" stroke="currentColor" stroke-linecap="round"/></svg>