<svg xmlns="http://www.w3.org/2000/svg" xml:space="preserve" fill-rule="evenodd" stroke-linecap="square" clip-rule="evenodd" viewBox="0 0 596 596">
  <path fill="none" stroke="currentColor" stroke-width="48.862205499999995" d="m553.978 297.989-75.277 74.781V478.16l-106.207.322-74.881 74.509-75.178-74.906h-105.91l-.322-105.71-74.881-74.534 75.203-75.302V117.124l106.232-.322 74.856-74.509 75.178 74.906h105.91l.322 105.735 74.88 74.51"/>
	<path fill="none" stroke="currentColor" stroke-width="48.862205499999995" d="m419.893 297.79-35.915 35.667v50.251l-50.648.174-35.692 35.543-35.866-35.741h-50.499l-.149-50.425-35.716-35.543 35.865-35.94v-50.251l50.648-.174 35.717-35.518 35.865 35.742h50.475l.148 50.4 35.717 35.543"/>
</svg>
