<svg viewBox="0 0 24 24" fill="none" xmlns="http://www.w3.org/2000/svg"><g clip-path="url(#clip0_6351_12952)"><path d="M21.3022 9.9787L13.8798 2.38379C13.4809 1.9763 12.978 1.55147 11.634 2.47049C9.90847 3.64961 10.9056 4.36921 11.1831 4.67266C11.8941 5.45296 18.4754 12.389 19.6113 13.6895C19.8281 13.9322 17.8511 11.7387 19.0477 10.2475C19.5159 9.64057 20.6085 9.20707 21.3022 9.98737C21.8658 10.6203 22.23 11.548 21.0074 12.5624C18.8656 14.331 12.1629 19.7064 9.99518 21.4925C8.91131 22.3855 7.52395 21.6919 6.89096 20.9723C6.24064 20.2006 4.23764 17.9724 2.44274 15.9263C1.96584 15.3801 2.08723 14.227 2.64218 13.7588C5.67703 11.1318 10.6108 7.36036 12.345 5.88646" stroke="currentColor" stroke-width="1.99422" stroke-linecap="round" stroke-linejoin="round"/><path d="M8 13V17H10" stroke="currentColor" stroke-width="2" stroke-linecap="round" stroke-linejoin="round"/><path d="M8 13V17H10" stroke="currentColor" stroke-width="2" stroke-linecap="round" stroke-linejoin="round"/></g><defs><clipPath id="clip0_6351_12952"><rect width="24" height="24" fill="white"/></clipPath></defs></svg>