<svg enable-background="new 0 0 24 24" version="1.1" viewBox="0 0 24 24" xml:space="preserve" xmlns="http://www.w3.org/2000/svg"><g fill="none" stroke="currentColor" stroke-linecap="round" stroke-linejoin="round" stroke-width="2"><path d="m12 19.2v2m0-2v2"/><path d="m8.4 1.3c0.5 1.5 0.7 3 0.1 4.6-0.2 0.5-0.9 1.5-1.6 1.5m8.7-6.1c-0.5 1.5-0.7 3-0.1 4.6 0.2 0.6 0.9 1.5 1.6 1.5"/><path d="m3.6 15.8h-1.7m18.5 0h1.7"/><path d="m3.2 12.1h-1.7m19.3 0h1.8"/><path d="m8.1 12.7v1.6m7.8-1.6v1.6"/><path d="m10.8 18h1.2m0 1.2-1.2-1.2m2.4 0h-1.2m0 1.2 1.2-1.2"/><path d="m4 9.7c-0.5 1.2-0.8 2.4-0.8 3.7 0 3.1 2.9 6.3 5.3 8.2 0.9 0.7 2.2 1.1 3.4 1.1m0.1-17.8c-1.1 0-2.1 0.2-3.2 0.7m11.2 4.1c0.5 1.2 0.8 2.4 0.8 3.7 0 3.1-2.9 6.3-5.3 8.2-0.9 0.7-2.2 1.1-3.4 1.1m-0.1-17.8c1.1 0 2.1 0.2 3.2 0.7"/><path d="m4 9.7c-0.2-1.8-0.3-3.7 0.5-5.5s2.2-2.6 3.9-3m11.6 8.5c0.2-1.9 0.3-3.7-0.5-5.5s-2.2-2.6-3.9-3"/><path d="m12 21.2-2.4 0.4m2.4-0.4 2.4 0.4"/></g></svg>