<svg xmlns="http://www.w3.org/2000/svg" xmlns:xlink="http://www.w3.org/1999/xlink" xml:space="preserve" fill-rule="evenodd" stroke-linecap="round" stroke-linejoin="round" stroke-miterlimit="1.5" clip-rule="evenodd" viewBox="0 0 24 24">
  <defs>
    <path id="purpur" fill="none" stroke="currentColor" stroke-width="1.68" d="m264 41.95 8-4v8l-8 4v-8Z"></path>
  </defs>
  <path fill="none" d="M0 0h24v24H0z"></path>
  <path fill="none" stroke="currentColor" stroke-width="1.77" d="m264 29.95-8 4 8 4.42 8-4.42-8-4Z" transform="matrix(1.125 0 0 1.1372 -285 -31.69)"></path>
  <path fill="none" stroke="currentColor" stroke-width="1.77" d="m272 38.37-8 4.42-8-4.42" transform="matrix(1.125 0 0 1.1372 -285 -31.69)"></path>
  <path fill="none" stroke="currentColor" stroke-width="1.77" d="m260 31.95 8 4.21V45" transform="matrix(1.125 0 0 1.1372 -285 -31.69)"></path>
  <path fill="none" stroke="currentColor" stroke-width="1.77" d="M260 45v-8.84l8-4.21" transform="matrix(1.125 0 0 1.1372 -285 -31.69)"></path>
  <use xlink:href="#purpur" stroke-width="1.68" transform="matrix(1.125 0 0 1.2569 -285 -40.78)"></use>
  <use xlink:href="#purpur" stroke-width="1.68" transform="matrix(-1.125 0 0 1.2569 309 -40.78)"></use>
</svg>