<svg viewBox="0 0 292 319" style="fill-rule:evenodd;clip-rule:evenodd;stroke-linecap:round;stroke-linejoin:round;" stroke="currentColor"><g transform="matrix(1,0,0,1,0,-5)"><path d="M12,109.5L12,155L34.5,224L57.5,224L57.5,271L81,294L160,294L160,172L259.087,172L265,155L265,109.5M12,109.5L12,64L34.5,64L34.5,41L81,17L195.5,17L241,41L241,64L265,64L265,109.5M12,109.5L81,109.5L81,132L195.5,132L195.5,109.5L265,109.5M264.087,204L264.087,244M207.5,272L207.5,312M250,272L250,312L280,312L280,272L250,272ZM192.5,204L192.5,244L222.5,244L222.5,204L192.5,204Z" style="fill:none;fill-rule:nonzero;stroke-width:24px;"/></g></svg>