<svg viewBox="0 0 24 24" fill="none" stroke="currentColor" stroke-width="2"><path d="m22.59 12.013-3.01 3.126v4.405l.005.019-4.251-.005-2.994 3.115h-.003l-3.003-3.132H5.1l-.018.005.005-4.424-2.994-3.116-.003-.023L5.1 8.858V4.452l-.005-.019 4.252.005 2.993-3.115h.003l3.003 3.132h4.234l.018-.005-.005 4.425 2.994 3.115" style="" transform="translate(-.344)"/><path d="m17.229 12.005-1.436 1.491v2.101l.003.009-2.028-.002-1.428 1.486h-.001l-1.433-1.494H8.887l-.008.002.002-2.11-1.428-1.486-.001-.011L8.887 10.5V8.399l-.002-.009 2.027.002 1.428-1.485h.002l1.432 1.494h2.019l.009-.003-.003 2.11 1.428 1.486" style="" transform="translate(-.344)"/></svg>