<svg viewBox="0 0 332 284" style="fill-rule:evenodd;clip-rule:evenodd;stroke-linejoin:round;fill:none;fill-rule:nonzero;stroke-width:24px;" stroke="currentColor"><path d="M147.5,27l27,-15l27.5,15l66.5,0l0,33.5l-73,-0.912l0,45.5l26,-0.088l0,31.5l-12.5,0l0,15.5l16,21.5l35,0l0,-21.5l35.5,0l0,21.5l24.5,0l0,55.5l-24.5,0l0,17l-35.5,0l0,-27l-35,0l-55.5,14.5l-67.5,-14.5l-15,14.5l18,12.5l-3,24.5l-41.5,1.5l-48.5,-19.5l6,-19l24.5,-4.5l16,-41l79,-36l-7,-15.5l0,-31.5l23.5,0l0,-45.5l-73.5,0l0,-32.5l67,0Z"/></svg>