<svg viewBox="0 0 268 313" style="fill-rule:evenodd;clip-rule:evenodd;stroke-linecap:round;stroke-linejoin:round;fill:none;fill-rule:nonzero;stroke-width:24px;" stroke="currentColor"><path d="M84.299,35.5c-5.547,-13.776 -19.037,-23.5 -34.799,-23.5c-20.711,0 -37.5,16.789 -37.5,37.5c-0,20.711 16.789,37.5 37.5,37.5c20.711,0 37.5,-16.789 37.5,-37.5c0,-4.949 -0.959,-9.674 -2.701,-14Zm0,0l44.701,-8.5l28,65m0,0l-99,20l-18,47.5l15.5,37l-25,32.5l0,72l222.5,0l2.5,-72l-33.5,-117l-65,-20Zm-60,65l0,15m94,-13.5l0,13.5m-67.5,45l46,0l-12.5,50.5l-14.5,0l-19,-50.5Z"/></svg>