<svg width="200" height="200" viewBox="0 0 200 200" fill="none" xmlns="http://www.w3.org/2000/svg">
	<g clip-path="url(#clip0_6205_20699)">
		<path
			fill-rule="evenodd"
			clip-rule="evenodd"
			d="M196.578 126.025C200.159 112.688 200.94 98.7557 198.873 85.1028C196.806 71.4499 191.934 58.3724 184.565 46.6928C177.196 35.0132 167.488 24.9843 156.053 17.2368C144.618 9.48941 131.703 4.19112 118.12 1.67522C104.537 -0.840683 90.5797 -0.519744 77.1267 2.61785C63.6738 5.75544 51.0159 11.6418 39.9494 19.9066C28.8828 28.1715 19.647 38.636 12.8229 50.642C5.99878 62.6479 1.73402 75.9356 0.296875 89.669H17.2335C19.5541 71.3251 27.9415 54.2826 41.0629 41.2496C54.1843 28.2167 71.2869 19.941 89.653 17.7376C108.019 15.5342 126.595 19.5296 142.429 29.0887C158.263 38.6479 170.447 53.2225 177.044 70.4965L160.588 74.8982C156.908 66.0554 151.338 58.1243 144.267 51.6612C137.196 45.198 128.797 40.3593 119.658 37.4843L116.623 54.597C125.592 57.8879 133.386 63.757 139.025 71.4657C144.664 79.1743 147.896 88.3781 148.314 97.9185C148.732 107.459 146.317 116.91 141.374 125.082C136.43 133.254 129.179 139.781 120.533 143.843L125.035 160.631C138.378 155.108 149.527 145.342 156.755 132.845C163.983 120.348 166.888 105.817 165.019 91.5031L181.42 87.1296C183.151 98.0656 182.643 109.239 179.924 119.973L196.578 126.025Z"
			fill="#1BD96A"
		/>
		<path
			d="M125.797 196.578C111.561 200.398 96.6581 201.029 82.1508 198.426C67.6435 195.823 53.8902 190.049 41.8733 181.519C29.8563 172.988 19.8721 161.91 12.6337 149.076C5.39538 136.242 1.08144 121.969 0 107.276H16.9366C17.3772 111.998 18.2176 116.676 19.4489 121.256C20.7334 126.061 22.4481 130.74 24.5722 135.237L39.6458 126.194C35.2357 115.982 33.4908 104.819 34.5746 93.7491C35.6584 82.6794 39.5355 72.0657 45.8425 62.9024C52.1496 53.739 60.6804 46.3258 70.6357 41.3571C80.5911 36.3883 91.6452 34.0267 102.763 34.4934L99.7001 51.6062C92.2843 51.64 84.975 53.3723 78.3335 56.6702C71.6919 59.968 65.895 64.7436 61.3879 70.6302C56.8808 76.5167 53.7835 83.3576 52.3339 90.6273C50.8843 97.8969 51.1209 105.402 53.0257 112.566C53.4632 114.16 53.929 115.74 54.5359 117.151L73.8153 105.597L68.0428 90.2475L86.2496 71.5546L109.269 66.6028L115.889 74.8277L105.275 85.5637L96.0305 88.4699L89.4111 95.2699L92.6573 104.271C92.6573 104.271 99.2061 111.24 99.2202 111.24L108.493 108.785L115.084 101.548L129.48 96.9769L133.714 106.627L118.923 124.812L94.0264 132.67L82.8482 120.241L63.3852 131.936C68.3953 137.636 74.6712 142.083 81.7102 144.923C88.7492 147.762 96.3556 148.914 103.92 148.287L108.422 165.118C97.1879 166.584 85.7649 165.124 75.2606 160.88C64.7563 156.636 55.5269 149.752 48.4669 140.895L33.4498 149.895C42.0264 161.15 53.3399 170.026 66.315 175.679C79.2902 181.331 93.496 183.574 107.582 182.193C121.669 180.811 135.168 175.853 146.797 167.787C158.426 159.722 167.798 148.818 174.024 136.112L190.678 142.164C184.512 155.432 175.504 167.182 164.293 176.585C153.081 185.988 139.939 192.813 125.797 196.578Z"
			fill="#1BD96A"
		/>
	</g>
	<defs>
		<clipPath id="clip0_6205_20699">
			<rect width="200" height="200" fill="white" />
		</clipPath>
	</defs>
</svg>
