<svg xmlns="http://www.w3.org/2000/svg" xmlns:xlink="http://www.w3.org/1999/xlink" viewBox="0 0 135.467 33.867"><path d="M10.415 4.674h-7.4v5.66h6.433v2.308H3.015v7.954H.398V2.366h10.017zm11.63 16.166q-2.6 0-4.654-1.1-2.05-1.122-3.262-3.275-1.2-2.153-1.2-5 0-2.127.696-3.893.696-1.78 1.92-2.965 1.225-1.186 2.888-1.83 1.676-.657 3.6-.657 1.92 0 3.584.657 1.676.645 2.888 1.83 1.225 1.186 1.92 2.965.7 1.766.7 3.893 0 2.14-.7 3.92-.696 1.766-1.92 2.952-1.212 1.186-2.888 1.844-1.663.657-3.584.657zm0-2.4q1.367 0 2.553-.464 1.2-.477 2.076-1.34.9-.877 1.392-2.205.516-1.328.516-2.952 0-1.612-.516-2.927-.503-1.328-1.392-2.192-.877-.864-2.076-1.328-1.186-.477-2.553-.477-1.38 0-2.578.477-1.186.464-2.076 1.328-.9.864-1.405 2.192-.503 1.315-.503 2.927 0 1.624.503 2.952.516 1.328 1.405 2.205.9.864 2.076 1.34 1.2.464 2.578.464zm18.836 2.4q-2.875 0-4.8-1.302-1.934-1.302-2.398-3.6l2.617-.62q.3 1.573 1.573 2.462 1.263.9 3.107.9.76 0 1.418-.155.657-.168 1.2-.503.554-.348.864-.94.3-.606.297-1.392-.013-.62-.322-1.1-.297-.503-.593-.786-.297-.297-1.135-.632-.825-.348-1.186-.45-.348-.103-1.457-.413-.116-.04-.168-.052-.735-.206-1.212-.348-.477-.142-1.135-.387-.657-.258-1.083-.503-.413-.258-.877-.632-.464-.387-.735-.812-.258-.438-.438-1.03-.168-.606-.168-1.302 0-.993.3-1.83.322-.838.877-1.43.567-.593 1.34-1.006.774-.425 1.676-.62.902-.206 1.908-.206 1.238 0 2.32.27 1.096.258 2 .8.915.53 1.56 1.405.645.864.9 2l-2.488.632Q44.33 5.8 43.195 5.066q-1.122-.735-2.72-.735-.967 0-1.766.27-.786.27-1.34.94-.54.67-.54 1.663 0 .4.13.735.13.335.3.58.193.245.554.5.374.232.657.387.297.142.838.322.54.18.877.284.335.1.98.258 1.173.322 1.792.516.632.193 1.612.645.993.45 1.495.954.516.503.915 1.34.413.838.413 1.895 0 1.07-.348 1.96-.348.877-.954 1.483-.606.606-1.444 1.018-.825.413-1.78.593-.94.193-1.985.193zm16.36 0q-2.875 0-4.8-1.302-1.934-1.302-2.398-3.6l2.617-.62q.3 1.573 1.573 2.462 1.263.9 3.107.9.76 0 1.418-.155.657-.168 1.2-.503.554-.348.864-.94.3-.606.297-1.392-.013-.62-.322-1.1-.297-.503-.593-.786-.297-.297-1.135-.632-.825-.348-1.186-.45-.348-.103-1.457-.413-.116-.04-.168-.052-.735-.206-1.212-.348-.477-.142-1.135-.387-.657-.258-1.083-.503-.413-.258-.877-.632-.464-.387-.735-.812-.258-.438-.438-1.03Q50.6 7.9 50.6 7.213q0-.993.3-1.83.322-.838.877-1.43.567-.593 1.34-1.006.774-.425 1.676-.62.902-.206 1.908-.206 1.238 0 2.32.27 1.096.258 2 .8.915.53 1.56 1.405.645.864.9 2l-2.488.632q-.322-1.457-1.457-2.192-1.122-.735-2.72-.735-.967 0-1.766.27-.786.27-1.34.94-.54.67-.54 1.663 0 .4.13.735.13.335.3.58.193.245.554.5.374.232.657.387.297.142.838.322.54.18.877.284.335.1.98.258 1.173.322 1.792.516.632.193 1.612.645.993.45 1.495.954.516.503.915 1.34.413.838.413 1.895 0 1.07-.348 1.96-.348.877-.954 1.483-.606.606-1.444 1.018-.825.413-1.78.593-.94.193-1.985.193zM79.517 2.366h2.566v18.23h-2.566v-7.993h-8.96v7.993h-2.6V2.366h2.6v7.954h8.96z"/><path d="M95.586 20.94q-2.19 0-3.96-.74-1.77-.766-3.036-2.086-1.24-1.32-1.927-3.063-.686-1.743-.686-3.723 0-1.98.686-3.696Q87.35 5.89 88.6 4.57q1.267-1.32 3.036-2.06 1.77-.74 3.96-.74 2.19 0 3.96.74 1.77.74 3 2.06 1.267 1.32 1.954 3.063.686 1.716.686 3.696 0 1.98-.686 3.723-.686 1.743-1.954 3.063-1.24 1.32-3 2.086-1.77.74-3.96.74zm0-2.244q1.505 0 2.8-.554 1.294-.554 2.244-1.558.977-1.003 1.505-2.323.528-1.347.528-2.93 0-1.558-.528-2.904-.528-1.347-1.505-2.323-.95-1.003-2.244-1.53-1.294-.554-2.8-.554-1.53 0-2.825.554-1.294.528-2.244 1.53-.95.977-1.48 2.323-.528 1.32-.528 2.904 0 1.584.528 2.93.528 1.32 1.48 2.323.95 1.003 2.244 1.558 1.294.554 2.825.554z" fill="red"/><path d="M114.8 20.84q-2.875 0-4.8-1.302-1.934-1.302-2.398-3.6l2.617-.62q.3 1.573 1.573 2.462 1.263.9 3.107.9.76 0 1.418-.155.657-.168 1.2-.503.554-.348.864-.94.3-.606.297-1.392-.013-.62-.322-1.1-.297-.503-.593-.786-.297-.297-1.135-.632-.825-.348-1.186-.45-.348-.103-1.457-.413-.116-.04-.168-.052-.735-.206-1.212-.348-.477-.142-1.134-.387-.657-.258-1.083-.503-.413-.258-.877-.632-.464-.387-.735-.812-.258-.438-.438-1.03-.168-.606-.168-1.302 0-.993.3-1.83.322-.838.877-1.43.567-.593 1.34-1.006.774-.425 1.676-.62.902-.206 1.908-.206 1.238 0 2.32.27 1.096.258 2 .8.915.53 1.56 1.405.645.864.9 2l-2.488.632q-.322-1.457-1.457-2.192-1.122-.735-2.72-.735-.967 0-1.766.27-.786.27-1.34.94-.54.67-.54 1.663 0 .4.13.735.13.335.3.58.193.245.554.5.374.232.657.387.297.142.838.322.54.18.877.284.335.1.98.258 1.173.322 1.792.516.632.193 1.612.645.993.45 1.495.954.516.503.915 1.34.413.838.413 1.895 0 1.07-.348 1.96-.348.877-.954 1.483-.606.606-1.444 1.018-.825.413-1.78.593-.94.193-1.985.193zm20.278-18.474v2.308h-4.615v15.922h-2.54V4.674h-4.628V2.366zM4.06 26.92h.715v5.106H4l-2.67-4.052v4.052h-.7V26.92h.77l2.672 4.034z"/><use xlink:href="#B"/><path d="M14.74 26.92v.646h-1.3v4.46h-.7v-4.46h-1.3v-.646zm.8 3.472v-.574h2.6v.574zm6.774-2.824H20.24v1.585h1.802v.646H20.24v2.228h-.733V26.92h2.806z"/><use xlink:href="#B" x="17.043"/><use xlink:href="#C"/><path d="M33.8 30.392v-.574h2.6v.574zm5.927-3.472q.686 0 1.112.455.426.455.426 1.127 0 .675-.426 1.123-.423.444-1.112.444h-1.25v1.957h-.72V26.92zm-.108 2.528q.44 0 .686-.26.25-.26.25-.697 0-.423-.25-.686-.246-.267-.686-.267h-1.14v1.9z"/><use xlink:href="#C" x="13.04"/><use xlink:href="#B" x="40.549"/><path d="M55.63 27.568h-2.073v1.585h1.802v.646h-1.802v2.228h-.733V26.92h2.806zm1.058 4.46V26.92h.72v5.106zm4.995-5.108v.646H60.4v4.46h-.7v-4.46h-1.296v-.646zm6.127 0h.72v5.106h-.72v-2.24h-2.5v2.24h-.726V26.92h.726v2.228h2.5z"/><use xlink:href="#B" x="63.758"/><path d="M77.56 32.096q-.805 0-1.347-.365-.542-.365-.672-1l.733-.173q.087.44.44.7.354.25.87.25.213 0 .397-.043.184-.047.336-.14.155-.097.242-.264.087-.17.083-.4-.004-.173-.1-.3-.083-.14-.166-.22-.083-.083-.318-.177-.23-.097-.332-.126-.097-.03-.408-.116-.032-.01-.047-.014-.206-.058-.34-.097-.134-.04-.318-.108-.184-.072-.303-.14-.116-.072-.246-.177-.13-.108-.206-.228-.072-.123-.123-.3-.047-.17-.047-.365 0-.278.087-.513.1-.235.246-.4.16-.166.376-.282.217-.12.47-.173.253-.058.534-.058.347 0 .65.076.307.072.563.224.256.148.437.394.18.242.25.563l-.697.177q-.1-.408-.408-.614-.314-.206-.762-.206-.27 0-.495.076-.22.076-.376.264-.152.188-.152.466 0 .112.036.206.036.094.087.163.054.07.155.137.105.065.184.108.083.04.235.1.152.05.246.08.094.025.274.072.33.1.502.144.177.054.45.18.278.126.42.267.144.14.256.376.116.235.116.53 0 .3-.097.55-.097.246-.267.415-.17.17-.404.285-.23.116-.498.166-.264.054-.556.054zm5.68-5.176v.646h-1.293v4.46h-.7v-4.46H79.94v-.646zm.972 5.108V26.92h.72v5.106zm5.718-5.108h.715v5.106h-.776l-2.67-4.052v4.052h-.7V26.92h.77l2.672 4.034zm4.44 5.176q-.534 0-1-.18-.462-.18-.802-.5-.34-.332-.534-.823-.2-.495-.2-1.094 0-.802.336-1.405.34-.607.914-.917.578-.314 1.304-.314.715 0 1.286.307.574.307.9.885l-.636.34q-.235-.437-.64-.657-.404-.22-.9-.22-.4 0-.722.134-.332.13-.58.376-.246.242-.386.618-.14.376-.14.84 0 .917.516 1.448.516.527 1.34.527.672 0 1.123-.376.455-.376.542-1.08h-1.668v-.6h2.365v2.633h-.585V31.1q-.256.473-.722.73-.466.256-1.105.256zm7.6-5.176q.686 0 1.112.455.426.455.426 1.127 0 .675-.426 1.123-.422.444-1.112.444h-1.25v1.957H100V26.92zm-.108 2.528q.44 0 .686-.26.25-.26.25-.697 0-.423-.25-.686-.246-.267-.686-.267h-1.14v1.9zm5.495 2.58l-1.322-2.297h-.715v2.297h-.72V26.92h1.72q.4 0 .693.116.303.112.487.314.188.2.282.46.094.26.094.567 0 .534-.296.885-.296.35-.823.44l1.44 2.326zm-2.037-4.485v1.64h.903q.48 0 .722-.217.242-.22.242-.6 0-.376-.242-.6-.242-.224-.722-.224z"/><use xlink:href="#B" x="102.801"/><path d="M117.98 26.92h.758l-1.878 5.106h-.75l-1.87-5.106h.755l1.495 4.225zm1.734 5.108V26.92h.72v5.106zm2.276 0V26.92h1.683q.578 0 1.03.188.455.188.744.527.293.34.444.805.152.466.152 1.03 0 .762-.26 1.333-.26.567-.802.896-.538.33-1.307.33zm.72-.65h.935q.816 0 1.23-.502.415-.506.415-1.405 0-.896-.415-1.398-.415-.506-1.23-.506h-.935zm7.324-3.8H128v1.6h1.802v.643H128v1.578h2.044v.65h-2.777v-5.11h2.777z"/><use xlink:href="#C" x="101.931"/><defs ><path id="B" d="M8.527 32.096q-.726 0-1.304-.31-.574-.314-.914-.917-.336-.603-.336-1.398 0-.596.195-1.09.195-.498.538-.83.343-.332.81-.513.47-.184 1.01-.184.538 0 1.004.184.47.18.81.513.343.332.538.83.2.495.2 1.09 0 .6-.2 1.098-.195.495-.538.827-.34.332-.81.516-.466.184-1.004.184zm0-.675q.383 0 .715-.13.336-.134.58-.376.25-.246.4-.618.144-.372.144-.827 0-.45-.144-.82-.14-.372-.4-.614-.246-.242-.58-.372-.332-.134-.715-.134-.386 0-.722.134-.332.13-.58.372-.25.242-.394.614-.14.368-.14.82 0 .455.14.827.144.372.394.618.25.242.58.376.336.13.722.13z"/><path id="C" d="M32.075 32.028l-1.322-2.297h-.715v2.297h-.72V26.92h1.72q.4 0 .693.116.303.112.488.314.188.2.282.46.094.26.094.567 0 .534-.296.885-.296.35-.823.44l1.44 2.326zm-2.037-4.485v1.64h.903q.48 0 .722-.217.242-.22.242-.6 0-.376-.242-.6-.242-.224-.722-.224z"/></defs></svg>
