<svg id="visual" viewBox="0 0 900 600" width="900" height="600" xmlns="http://www.w3.org/2000/svg" xmlns:xlink="http://www.w3.org/1999/xlink" version="1.1"><path d="M0 205L82 205L82 115L164 115L164 109L245 109L245 163L327 163L327 181L409 181L409 253L491 253L491 217L573 217L573 241L655 241L655 253L736 253L736 127L818 127L818 115L900 115L900 115L900 0L900 0L818 0L818 0L736 0L736 0L655 0L655 0L573 0L573 0L491 0L491 0L409 0L409 0L327 0L327 0L245 0L245 0L164 0L164 0L82 0L82 0L0 0Z" fill="#1bd96a"></path><path d="M0 241L82 241L82 211L164 211L164 169L245 169L245 205L327 205L327 241L409 241L409 337L491 337L491 289L573 289L573 307L655 307L655 325L736 325L736 163L818 163L818 205L900 205L900 181L900 113L900 113L818 113L818 125L736 125L736 251L655 251L655 239L573 239L573 215L491 215L491 251L409 251L409 179L327 179L327 161L245 161L245 107L164 107L164 113L82 113L82 203L0 203Z" fill="#1ad070"></path><path d="M0 349L82 349L82 433L164 433L164 391L245 391L245 373L327 373L327 427L409 427L409 445L491 445L491 373L573 373L573 415L655 415L655 445L736 445L736 367L818 367L818 421L900 421L900 415L900 179L900 203L818 203L818 161L736 161L736 323L655 323L655 305L573 305L573 287L491 287L491 335L409 335L409 239L327 239L327 203L245 203L245 167L164 167L164 209L82 209L82 239L0 239Z" fill="#1fc675"></path><path d="M0 451L82 451L82 475L164 475L164 469L245 469L245 469L327 469L327 499L409 499L409 541L491 541L491 469L573 469L573 511L655 511L655 541L736 541L736 439L818 439L818 517L900 517L900 541L900 413L900 419L818 419L818 365L736 365L736 443L655 443L655 413L573 413L573 371L491 371L491 443L409 443L409 425L327 425L327 371L245 371L245 389L164 389L164 431L82 431L82 347L0 347Z" fill="#27bc79"></path><path d="M0 601L82 601L82 601L164 601L164 601L245 601L245 601L327 601L327 601L409 601L409 601L491 601L491 601L573 601L573 601L655 601L655 601L736 601L736 601L818 601L818 601L900 601L900 601L900 539L900 515L818 515L818 437L736 437L736 539L655 539L655 509L573 509L573 467L491 467L491 539L409 539L409 497L327 497L327 467L245 467L245 467L164 467L164 473L82 473L82 449L0 449Z" fill="#30b27b"></path></svg>
