<svg xmlns="http://www.w3.org/2000/svg" viewBox="0 0 777 141.73">
  <g>
    <path d="M159.07,89.29A70.94,70.94,0,1,0,20,63.52H32A58.78,58.78,0,0,1,145.23,49.93l-11.66,3.12a46.54,46.54,0,0,0-29-26.52l-2.15,12.13a34.31,34.31,0,0,1,2.77,63.26l3.19,11.9a46.52,46.52,0,0,0,28.33-49l11.62-3.1A57.94,57.94,0,0,1,147.27,85Z" transform="translate(-19.79)" fill="#5da545" fill-rule="evenodd"/>
    <path d="M108.92,139.3A70.93,70.93,0,0,1,19.79,76h12a59.48,59.48,0,0,0,1.78,9.91,58.73,58.73,0,0,0,3.63,9.91l10.68-6.41a46.58,46.58,0,0,1,44.72-65L90.43,36.54A34.38,34.38,0,0,0,57.36,79.75C57.67,80.88,58,82,58.43,83l13.66-8.19L68,63.93l12.9-13.25,16.31-3.51L101.9,53l-7.52,7.61-6.55,2.06-4.69,4.82,2.3,6.38s4.64,4.94,4.65,4.94l6.57-1.74,4.67-5.13,10.2-3.24,3,6.84L104.05,88.43,86.41,94l-7.92-8.81L64.7,93.48a34.44,34.44,0,0,0,28.72,11.59L96.61,117A46.6,46.6,0,0,1,54.13,99.83l-10.64,6.38a58.81,58.81,0,0,0,99.6-9.77l11.8,4.29A70.77,70.77,0,0,1,108.92,139.3Z" transform="translate(-19.79)" fill="#5da545"/>
  </g>
  <g>
    <path d="M303,52.44q7.51,7.45,7.52,22.37v39H294.54v-37q0-8.92-4-13.45t-11.35-4.52q-8,0-12.87,5.29t-4.85,15.1v34.55H245.59v-37q0-8.92-4-13.45t-11.35-4.52q-8.16,0-12.94,5.22t-4.78,15.17v34.55H196.64V45.75h15.17v8.66a24.78,24.78,0,0,1,9.56-7A32.51,32.51,0,0,1,234.11,45a30.83,30.83,0,0,1,13.58,2.87,22,22,0,0,1,9.37,8.48A28.31,28.31,0,0,1,267.89,48a35.16,35.16,0,0,1,14.66-3Q295.43,45,303,52.44Z" transform="translate(-19.79)" fill="#19202c"/>
    <path d="M343.49,110.25a32.53,32.53,0,0,1-12.94-12.43,35,35,0,0,1-4.66-18,34.68,34.68,0,0,1,4.66-18,32.66,32.66,0,0,1,12.94-12.37,41.33,41.33,0,0,1,37.35,0,32.7,32.7,0,0,1,12.93,12.37,34.68,34.68,0,0,1,4.66,18,35,35,0,0,1-4.66,18,32.57,32.57,0,0,1-12.93,12.43,41.33,41.33,0,0,1-37.35,0Zm33.14-15q5.73-5.86,5.74-15.43t-5.74-15.42a19.46,19.46,0,0,0-14.53-5.87,19.25,19.25,0,0,0-14.47,5.87Q342,70.22,342,79.78t5.67,15.43a19.25,19.25,0,0,0,14.47,5.86A19.46,19.46,0,0,0,376.63,95.21Z" transform="translate(-19.79)" fill="#19202c"/>
    <path d="M480.39,19.23v94.59H465.1V105a24.75,24.75,0,0,1-9.76,7.27,33,33,0,0,1-12.81,2.42,35.84,35.84,0,0,1-17.65-4.33,31.06,31.06,0,0,1-12.3-12.31,36.71,36.71,0,0,1-4.47-18.29,36.4,36.4,0,0,1,4.47-18.23,31.27,31.27,0,0,1,12.3-12.24A35.94,35.94,0,0,1,442.53,45a32.36,32.36,0,0,1,12.37,2.3,24.89,24.89,0,0,1,9.56,6.88V19.23ZM454.77,98.46A18.92,18.92,0,0,0,462,91a22.87,22.87,0,0,0,2.67-11.22A22.87,22.87,0,0,0,462,68.56a18.89,18.89,0,0,0-7.27-7.45,21.65,21.65,0,0,0-20.65,0,18.89,18.89,0,0,0-7.27,7.45,22.87,22.87,0,0,0-2.67,11.22A22.87,22.87,0,0,0,426.85,91a18.92,18.92,0,0,0,7.27,7.46,21.73,21.73,0,0,0,20.65,0Z" transform="translate(-19.79)" fill="#19202c"/>
    <path d="M540.69,45V60.15a20.64,20.64,0,0,0-3.7-.38q-9.3,0-14.53,5.42T517.23,80.8v33H501.3V45.75h15.17v9.94Q523.35,45,540.69,45Z" transform="translate(-19.79)" fill="#19202c"/>
    <path d="M555,31.79A8.94,8.94,0,0,1,552,25,8.94,8.94,0,0,1,555,18.15a10.2,10.2,0,0,1,7.26-2.74A10.55,10.55,0,0,1,569.5,18a8.43,8.43,0,0,1,2.93,6.56,9.58,9.58,0,0,1-2.87,7.08,9.92,9.92,0,0,1-7.33,2.87A10.2,10.2,0,0,1,555,31.79Zm-.77,14h15.94v68.07H554.2Z" transform="translate(-19.79)" fill="#19202c"/>
    <path d="M650.32,52.5q7.77,7.53,7.77,22.31v39H642.16v-37q0-8.92-4.21-13.45t-12-4.52q-8.81,0-13.9,5.29T607,79.4v34.42H591V45.75h15.17v8.79a25,25,0,0,1,9.94-7.14A35.91,35.91,0,0,1,629.67,45Q642.54,45,650.32,52.5Z" transform="translate(-19.79)" fill="#19202c"/>
    <path d="M716.6,110.12a18.65,18.65,0,0,1-6.82,3.44,30.46,30.46,0,0,1-8.47,1.15q-11.22,0-17.34-5.86t-6.12-17.09V30.7h15.94V46.26H712V59H693.79V91.38c0,3.32.82,5.85,2.48,7.59a9.14,9.14,0,0,0,7,2.61,14,14,0,0,0,8.92-2.8Z" transform="translate(-19.79)" fill="#19202c"/>
    <path d="M789,52.5q7.77,7.53,7.78,22.31v39H780.85v-37q0-8.92-4.21-13.45t-12-4.52q-8.79,0-13.89,5.29t-5.1,15.23v34.42H729.73V19.23h15.94V53.65a25.82,25.82,0,0,1,9.75-6.44A36,36,0,0,1,768.36,45Q781.23,45,789,52.5Z" transform="translate(-19.79)" fill="#19202c"/>
  </g>
</svg>
