<svg xmlns="http://www.w3.org/2000/svg" fill="none" viewBox="0 0 25 25" aria-hidden="true"><path stroke="currentColor" stroke-width="2" d="M15.933 18.394c-3.261-.286-11.074-1.466-14.644-8.469m22.422 0c-2.114 4.291-10.8 11.927-16.017 13.026m6.18-21.87C10.268 3.06 5.496 9.72 5.633 14.388m17.732-5.664c-2.232-1.888-9.562-5.15-16.943 1.716m8.652-3.947c1.888 1.087 5.492 3.288 4.806 8.369m-9.956 2.787c-.286-1.888-.103-6.213 2.918-8.41m4.12 4.977a2.43 2.43 0 0 0-.075-.4m0 0c-.528-1.965-2.354-5.652-6.963-5.908m6.963 5.908c-2.856 2.601-6.11 3.11-7.65 2.975m7.65-2.975c.752-.685 1.702-2.374 2.36-3.376m-8.98 2.575c.687.744 3.468 2.369 4.978 2.231M24 12.5C24 18.851 18.851 24 12.5 24S1 18.851 1 12.5 6.149 1 12.5 1 24 6.149 24 12.5Z"/></svg>
