<svg viewBox="0 0 24 24" fill="none" stroke-width="2" stroke-linecap="round" stroke-linejoin="round" xmlns="http://www.w3.org/2000/svg"><path fill="currentColor" d="M10.423 22q-.69 0-1.153-.462t-.462-1.153v-2.943h-.192q-.691 0-1.153-.462T7 15.827V3.616q0-.691.463-1.153T8.616 2h6.769q.69 0 1.153.463T17 3.616v12.211q0 .69-.462 1.153t-1.153.462h-.193v2.943q0 .69-.462 1.153T13.577 22zM12 12.02q.962 0 1.635-.664t.673-1.625t-.674-1.644T12 7.404t-1.634.683t-.674 1.644t.674 1.625t1.634.663M10.27 21h3.48q.192 0 .327-.134q.135-.135.135-.327v-3.097H9.808v3.097q0 .192.134.327q.135.134.327.134M12 11.02q-.54 0-.914-.375t-.375-.914t.374-.934t.915-.393t.934.393t.393.934t-.393.914t-.934.374"/></svg>