<?xml version="1.0" encoding="UTF-8"?>
<svg xmlns="http://www.w3.org/2000/svg" version="1.1" viewBox="0 0 1558 207.2">
  <!-- Generator: Adobe Illustrator 28.6.0, SVG Export Plug-In . SVG Version: 1.2.0 Build 709)  -->
  <g>
    <g id="Layer_1">
      <g id="icon" fill="#1bd96a">
        <path d="M146.1,109.8l-14.4,17.6-24.1,7.6-10.8-12-61.9,37.1c-2.9-3.8-6.4-9.1-8.5-14.3l61.7-37-5.6-14.9,17.6-18.1,22.3-4.8,6.4,7.9-10.3,10.4-8.9,2.8-6.4,6.6,3.1,8.7,6.4,6.8,9-2.4,6.4-7,13.9-4.4s4.1,9.3,4.1,9.3Z" fill-rule="evenodd"/>
        <path d="M208.6,86.6l-48.9,13.2c-.8-4.7-1.6-8.9-4.3-16.1l49-13.2c2.1,5.5,3.5,10.9,4.2,16.1Z" fill-rule="evenodd"/>
        <path d="M33.7,110.5c3.5,41,37.9,73.2,79.7,73.2s59-18.4,72-45.1l15.9,5.5c-15.3,33.2-48.9,56.3-87.9,56.3S20.3,160.7,16.8,110.5c0,0,16.8,0,16.8,0ZM17.1,93.8C22,45,63.3,6.8,113.4,6.8s96.8,43.4,96.8,96.8-1.1,16.9-3.2,24.8l-15.9-5.5c1.6-6.3,2.4-12.8,2.3-19.3,0-44.2-35.9-80-80-80S38.8,54.3,34,93.8h-16.9,0Z" fill-rule="evenodd"/>
        <path d="M113.1,57c-25.7,0-46.6,20.9-46.6,46.7s20.9,46.7,46.7,46.7,2.6,0,3.9-.2l4.7,16.3c-2.8.4-5.7.6-8.5.6-35,0-63.4-28.4-63.4-63.4s28.4-63.4,63.4-63.4,1.7,0,2.6,0c0,0-2.6,16.7-2.6,16.7ZM132.2,43.2c25.7,8.1,44.4,32.1,44.4,60.5s-16,48.8-38.7,58.4l-4.6-16.2c15.8-7.5,26.7-23.6,26.7-42.2s-12.6-37.1-30.3-43.7l2.7-16.8h0Z" fill-rule="evenodd"/>
      </g>
      <path id="modrinth" fill="#fff" d="M362,74.2c11.7,0,21.1,3.3,27.9,10.1,6.8,7,10.3,17.1,10.3,30.6v53.3h-21.8v-50.5c0-8.2-1.7-14.3-5.4-18.4-3.6-4-8.7-6.1-15.5-6.1s-13.2,2.4-17.6,7.1c-4.4,4.9-6.6,11.8-6.6,20.7v47.2h-21.8v-50.5c0-8.2-1.7-14.3-5.4-18.4-3.6-4-8.7-6.1-15.5-6.1s-13.2,2.4-17.6,7.1c-4.4,4.7-6.6,11.7-6.6,20.7v47.2h-21.8v-93h20.7v11.8c3.5-4.2,7.8-7.3,13.1-9.6,5.2-2.3,11-3.3,17.4-3.3s13.2,1.2,18.6,3.8c5.4,2.8,9.6,6.6,12.7,11.7,3.8-4.9,8.7-8.7,14.8-11.5,6.1-2.6,12.7-4,20-4h0ZM470.1,169.4c-9.4,0-17.9-2.1-25.4-6.1-7.4-3.9-13.5-9.8-17.6-17.1-4.4-7.1-6.4-15.3-6.4-24.6s2.1-17.4,6.4-24.5c4.2-7.2,10.3-13,17.6-16.9,7.5-4,16-6.1,25.4-6.1s18.1,2.1,25.6,6.1c7.5,4,13.4,9.8,17.8,16.9,4.2,7.1,6.3,15.3,6.3,24.5s-2.1,17.4-6.3,24.6c-4.4,7.3-10.3,13.1-17.8,17.1-7.5,4-16,6.1-25.6,6.1h0ZM470.1,150.8c8,0,14.6-2.6,19.9-8s7.8-12.4,7.8-21.1-2.6-15.7-7.8-21.1-11.8-8-19.9-8-14.6,2.6-19.7,8c-5.2,5.4-7.8,12.4-7.8,21.1s2.6,15.7,7.8,21.1c5,5.4,11.7,8,19.7,8ZM631.2,39v129.2h-20.9v-12c-3.6,4.3-8.1,7.7-13.2,9.9-5.4,2.3-11.1,3.3-17.6,3.3s-16.9-1.9-24-5.9-12.9-9.6-16.9-16.9c-4-7.1-6.1-15.5-6.1-24.9s2.1-17.8,6.1-24.9c4-7.1,9.8-12.7,16.9-16.7s15.1-5.9,24-5.9,11.8,1.1,16.9,3.1c5,2.1,9.5,5.3,13.1,9.4v-47.7h21.8,0ZM582.1,150.8c5.2,0,9.9-1.2,14.1-3.7,4.2-2.3,7.5-5.7,9.9-10.1,2.4-4.4,3.7-9.6,3.7-15.3s-1.2-11-3.7-15.3c-2.4-4.3-5.8-7.8-9.9-10.3-4.2-2.3-8.9-3.5-14.1-3.5s-9.9,1.2-14.1,3.5c-4.2,2.4-7.5,5.9-9.9,10.3-2.4,4.3-3.7,9.6-3.7,15.3s1.2,11,3.7,15.3c2.4,4.4,5.8,7.8,9.9,10.1,4.2,2.4,8.9,3.7,14.1,3.7ZM679.9,88.8c6.3-9.8,17.2-14.6,33.1-14.6v20.7c-1.7-.3-3.3-.5-5-.5-8.5,0-15.2,2.4-19.8,7.3-4.7,5.1-7.1,12.2-7.1,21.4v45.1h-21.8v-93h20.7v13.6h0ZM730.9,75.2h21.8v93h-21.8s0-93,0-93ZM741.9,59.9c-4,0-7.3-1.2-9.9-3.8-2.6-2.4-4-5.7-4-9.2,0-3.7,1.4-6.8,4-9.4,2.6-2.4,5.9-3.7,9.9-3.7s7.3,1.2,9.9,3.5c2.6,2.4,4,5.4,4,9s-1.2,7-3.8,9.6c-2.6,2.6-6.1,4-10.1,4ZM833.5,74.2c11.7,0,21.1,3.5,28.2,10.3s10.6,17.1,10.6,30.5v53.3h-21.8v-50.5c0-8.2-1.9-14.3-5.7-18.4-3.8-4-9.2-6.1-16.4-6.1s-14.3,2.4-19,7.1c-4.7,4.9-7,11.8-7,20.9v47h-21.8v-93h20.7v12c3.7-4.3,8.2-7.5,13.6-9.8s11.7-3.3,18.5-3.3h0ZM955.3,163.2c-2.7,2.2-5.9,3.8-9.2,4.7-3.8,1.1-7.7,1.6-11.7,1.6-10.3,0-18.1-2.6-23.7-8-5.6-5.4-8.4-13.1-8.4-23.3v-44.8h-15.3v-17.4h15.3v-21.2h21.8v21.2h24.9v17.4h-24.9v44.2c0,4.5,1,8,3.3,10.3,2.3,2.4,5.4,3.6,9.6,3.6s8.9-1.2,12.2-3.8l6.1,15.5h0ZM1025.5,74.2c11.7,0,21.1,3.5,28.2,10.3s10.6,17.1,10.6,30.5v53.3h-21.8v-50.5c0-8.2-1.9-14.3-5.8-18.4-3.8-4-9.2-6.1-16.4-6.1s-14.3,2.4-19,7.1c-4.7,4.9-7,11.8-7,20.9v47h-21.8V39h21.8v47c3.7-3.8,8-6.8,13.4-8.9,5.2-1.9,11.1-3,17.6-3h0Z"/>
      <g id="docs" fill="#1bd96a">
        <path d="M1177.8,169.7c-8.9,0-16.9-2-24-6-7.1-4-12.7-9.5-16.7-16.6-4-7.1-6.1-15.4-6.1-25s2-17.9,6.1-25c4-7.1,9.6-12.6,16.7-16.5,7.1-3.9,15.1-5.9,24-5.9s14.7,1.7,20.8,5.1c6.1,3.4,11,8.6,14.6,15.5,3.6,6.9,5.4,15.9,5.4,26.7s-1.7,19.6-5.2,26.6c-3.5,7-8.3,12.2-14.4,15.7-6.1,3.5-13.2,5.2-21.2,5.2ZM1180.4,151.2c5.2,0,9.9-1.2,14-3.5,4.1-2.3,7.4-5.7,9.9-10.1,2.5-4.4,3.7-9.5,3.7-15.4s-1.2-11.2-3.7-15.5c-2.5-4.3-5.8-7.7-9.9-10-4.1-2.3-8.8-3.5-14-3.5s-9.9,1.2-14,3.5c-4.1,2.3-7.4,5.6-9.9,10-2.5,4.3-3.7,9.5-3.7,15.5s1.2,11,3.7,15.4c2.5,4.4,5.8,7.8,9.9,10.1,4.1,2.3,8.8,3.5,14,3.5ZM1208.6,168.5v-21.9l.9-24.6-1.7-24.6v-57.6h21.5v128.8h-20.7Z"/>
        <path d="M1299.5,169.7c-9.5,0-17.9-2.1-25.3-6.2-7.4-4.1-13.2-9.7-17.5-16.9-4.3-7.2-6.4-15.3-6.4-24.5s2.1-17.4,6.4-24.6c4.3-7.1,10.1-12.7,17.5-16.7,7.4-4,15.8-6.1,25.3-6.1s18.1,2,25.6,6.1c7.5,4.1,13.3,9.6,17.5,16.7,4.2,7.1,6.3,15.3,6.3,24.6s-2.1,17.3-6.3,24.5c-4.2,7.2-10.1,12.8-17.5,16.9-7.5,4.1-16,6.2-25.6,6.2ZM1299.5,151.2c5.3,0,10.1-1.2,14.2-3.5,4.2-2.3,7.4-5.7,9.8-10.1,2.4-4.4,3.6-9.5,3.6-15.4s-1.2-11.2-3.6-15.5c-2.4-4.3-5.6-7.7-9.8-10-4.2-2.3-8.8-3.5-14.1-3.5s-10,1.2-14.1,3.5c-4.1,2.3-7.4,5.6-9.8,10-2.4,4.3-3.6,9.5-3.6,15.5s1.2,11,3.6,15.4c2.4,4.4,5.7,7.8,9.8,10.1,4.1,2.3,8.8,3.5,14,3.5Z"/>
        <path d="M1412.3,169.7c-9.7,0-18.4-2.1-25.9-6.2-7.6-4.1-13.5-9.7-17.8-16.9-4.3-7.2-6.4-15.3-6.4-24.5s2.1-17.4,6.4-24.6c4.3-7.1,10.2-12.7,17.8-16.7,7.6-4,16.2-6.1,25.9-6.1s17,1.8,23.9,5.5c6.9,3.6,12.1,9,15.7,16.1l-16.7,9.7c-2.8-4.4-6.2-7.6-10.2-9.7-4-2.1-8.3-3.1-12.9-3.1s-10.1,1.2-14.4,3.5c-4.3,2.3-7.6,5.6-10.1,10-2.4,4.3-3.6,9.5-3.6,15.5s1.2,11.2,3.6,15.5c2.4,4.3,5.8,7.7,10.1,10,4.3,2.3,9.1,3.5,14.4,3.5s8.9-1,12.9-3.1c4-2.1,7.4-5.3,10.2-9.7l16.7,9.7c-3.6,6.9-8.8,12.3-15.7,16.1-6.9,3.8-14.8,5.6-23.9,5.6Z"/>
        <path d="M1499.2,169.7c-7.8,0-15.2-1-22.3-3-7.1-2-12.8-4.5-16.9-7.4l8.3-16.5c4.2,2.7,9.1,4.9,14.9,6.6,5.8,1.7,11.6,2.6,17.4,2.6s11.8-.9,14.8-2.8c3.1-1.8,4.6-4.3,4.6-7.5s-1-4.5-3.1-5.8c-2.1-1.3-4.8-2.3-8.2-3-3.4-.7-7.1-1.3-11.2-1.9-4.1-.6-8.2-1.4-12.3-2.3-4.1-1-7.8-2.4-11.2-4.3-3.4-1.9-6.1-4.5-8.2-7.7-2.1-3.2-3.1-7.5-3.1-12.8s1.7-11,5-15.4c3.4-4.3,8.1-7.7,14.1-10.1,6.1-2.4,13.3-3.6,21.6-3.6s12.6.7,18.9,2.1c6.4,1.4,11.6,3.4,15.8,5.9l-8.3,16.5c-4.4-2.7-8.8-4.5-13.3-5.5-4.5-1-8.9-1.5-13.3-1.5-6.6,0-11.5,1-14.7,2.9-3.2,2-4.8,4.5-4.8,7.5s1,4.9,3.1,6.2c2.1,1.4,4.8,2.5,8.2,3.3,3.4.8,7.1,1.5,11.2,2,4.1.5,8.2,1.3,12.2,2.3,4,1,7.8,2.5,11.2,4.3,3.4,1.8,6.2,4.3,8.2,7.5,2.1,3.2,3.1,7.5,3.1,12.7s-1.7,10.8-5.1,15.1c-3.4,4.3-8.2,7.6-14.5,10-6.2,2.4-13.7,3.6-22.4,3.6Z"/>
      </g>
    </g>
  </g>
</svg>
