<svg viewBox="0 0 273 291" fill-rule="evenodd" stroke-linejoin="round">
    <g transform="matrix(1,0,0,1,-3303.68,-2082.6)">
        <g transform="matrix(0.564163,0,0,1.70346,1629.87,0)">
            <g transform="matrix(29.6754,0,-5.39484e-14,10.5245,2970.52,1222.47)">
                <g transform="matrix(1.4323,0,0,1.4323,-3.56656,-3.89073)">
                    <path d="M10.854,7.146C10.948,7.24 11.001,7.367 11.001,7.5C11.001,7.633 10.948,7.76 10.854,7.854L7.854,10.854C7.76,10.948 7.633,11.001 7.5,11.001C7.367,11.001 7.24,10.948 7.146,10.854L5.646,9.354C5.552,9.26 5.499,9.133 5.499,9C5.499,8.725 5.725,8.499 6,8.499C6.133,8.499 6.26,8.552 6.354,8.646L7.5,9.793L10.146,7.146C10.24,7.052 10.367,6.999 10.5,6.999C10.633,6.999 10.76,7.052 10.854,7.146Z"/>
                </g>
              <path d="M1.427,4L1.427,13.715C1.427,14.264 1.879,14.715 2.427,14.715L13.573,14.715C14.121,14.715 14.573,14.264 14.573,13.715L14.573,4L1.427,4ZM1.878,1C0.781,1 -0.122,1.903 -0.122,3L-0.122,14.191C-0.122,15.288 0.781,16.191 1.878,16.191L14.183,16.191C15.28,16.191 16.183,15.097 16.183,14L16.183,3C16.183,1.903 15.28,1 14.183,1L1.878,1Z"/>
              <g transform="matrix(1.32086,0,-1.73365e-32,1.32086,-3.43823,0.00935866)">
                    <path d="M4.819,0C5.094,-0 5.319,0.226 5.319,0.5L5.319,1C5.319,1.274 5.094,1.5 4.819,1.5C4.545,1.5 4.319,1.274 4.319,1L4.319,0.5C4.319,0.226 4.545,0 4.819,0ZM12.5,0C12.774,-0 13,0.226 13,0.5L13,1C13,1.274 12.774,1.5 12.5,1.5C12.226,1.5 12,1.274 12,1L12,0.5C12,0.226 12.226,0 12.5,0Z"/>
                </g>
            </g>
        </g>
    </g>
</svg>
