<svg xmlns="http://www.w3.org/2000/svg" enable-background="new 0 0 24 24" version="1.1" viewBox="0 0 24 24" xml:space="preserve">
	<path fill="currentColor" class="st0"
		d="m12 1c-6.3 0-11.3 5-11.3 11.3 0 5 3.2 9.2 7.7 10.7 0.6 0.1 0.8-0.2 0.8-0.5v-1.9c-3.2 0.6-3.8-1.6-3.8-1.6-0.5-1.3-1.3-1.7-1.3-1.7-1-0.7 0.1-0.7 0.1-0.7 1.1 0.1 1.7 1.2 1.7 1.2 1 1.7 2.7 1.2 3.3 0.9 0.1-0.7 0.4-1.2 0.7-1.5-2.5-0.2-5.1-1.2-5.1-5.5 0-1.2 0.4-2.2 1.2-3-0.1-0.3-0.5-1.4 0.1-3 0 0 1-0.3 3.1 1.2 0.9-0.3 1.8-0.5 2.8-0.5s1.9 0.1 2.8 0.4c2.2-1.5 3.1-1.2 3.1-1.2 0.6 1.6 0.2 2.7 0.1 3 0.7 0.8 1.2 1.8 1.2 3 0 4.4-2.6 5.3-5.2 5.6 0.4 0.3 0.8 1 0.8 2.1v3.1c0 0.3 0.2 0.7 0.8 0.5 4.5-1.5 7.7-5.7 7.7-10.7 0-6.2-5-11.2-11.3-11.2z" />
</svg>
