<svg xmlns="http://www.w3.org/2000/svg" width="220" height="132" viewBox="0 0 220 132" fill="none">
	<mask id="path-1-inside-1_687_15946" fill="white">
		<path
			d="M204 0C212.837 0 220 7.16344 220 16V140H0V16C0 7.16344 7.16344 0 16 0H204ZM15 12C13.3431 12 12 13.3431 12 15C12 16.6569 13.3431 18 15 18C16.6569 18 18 16.6569 18 15C18 13.3431 16.6569 12 15 12ZM25 12C23.3431 12 22 13.3431 22 15C22 16.6569 23.3431 18 25 18C26.6569 18 28 16.6569 28 15C28 13.3431 26.6569 12 25 12ZM35 12C33.3431 12 32 13.3431 32 15C32 16.6569 33.3431 18 35 18C36.6569 18 38 16.6569 38 15C38 13.3431 36.6569 12 35 12Z" />
	</mask>
	<path
		d="M204 0C212.837 0 220 7.16344 220 16V140H0V16C0 7.16344 7.16344 0 16 0H204ZM15 12C13.3431 12 12 13.3431 12 15C12 16.6569 13.3431 18 15 18C16.6569 18 18 16.6569 18 15C18 13.3431 16.6569 12 15 12ZM25 12C23.3431 12 22 13.3431 22 15C22 16.6569 23.3431 18 25 18C26.6569 18 28 16.6569 28 15C28 13.3431 26.6569 12 25 12ZM35 12C33.3431 12 32 13.3431 32 15C32 16.6569 33.3431 18 35 18C36.6569 18 38 16.6569 38 15C38 13.3431 36.6569 12 35 12Z"
		fill="white" fill-opacity="0.12" />
	<path
		d="M220 16H221H220ZM220 140V141H221V140H220ZM0 140H-1V141H0V140ZM204 0V1C212.284 1 219 7.71573 219 16H220H221C221 6.61116 213.389 -1 204 -1V0ZM220 16H219V140H220H221V16H220ZM220 140V139H0V140V141H220V140ZM0 140H1V16H0H-1V140H0ZM0 16H1C1 7.71573 7.71573 1 16 1V0V-1C6.61116 -1 -1 6.61116 -1 16H0ZM16 0V1H204V0V-1H16V0ZM15 12V11C12.7909 11 11 12.7909 11 15H12H13C13 13.8954 13.8954 13 15 13V12ZM12 15H11C11 17.2091 12.7909 19 15 19V18V17C13.8954 17 13 16.1046 13 15H12ZM15 18V19C17.2091 19 19 17.2091 19 15H18H17C17 16.1046 16.1046 17 15 17V18ZM18 15H19C19 12.7909 17.2091 11 15 11V12V13C16.1046 13 17 13.8954 17 15H18ZM25 12V11C22.7909 11 21 12.7909 21 15H22H23C23 13.8954 23.8954 13 25 13V12ZM22 15H21C21 17.2091 22.7909 19 25 19V18V17C23.8954 17 23 16.1046 23 15H22ZM25 18V19C27.2091 19 29 17.2091 29 15H28H27C27 16.1046 26.1046 17 25 17V18ZM28 15H29C29 12.7909 27.2091 11 25 11V12V13C26.1046 13 27 13.8954 27 15H28ZM35 12V11C32.7909 11 31 12.7909 31 15H32H33C33 13.8954 33.8954 13 35 13V12ZM32 15H31C31 17.2091 32.7909 19 35 19V18V17C33.8954 17 33 16.1046 33 15H32ZM35 18V19C37.2091 19 39 17.2091 39 15H38H37C37 16.1046 36.1046 17 35 17V18ZM38 15H39C39 12.7909 37.2091 11 35 11V12V13C36.1046 13 37 13.8954 37 15H38Z"
		fill="white" fill-opacity="0.12" mask="url(#path-1-inside-1_687_15946)" />
	<path
		d="M220 16H221H220ZM220 140V141H221V140H220ZM0 140H-1V141H0V140ZM204 0V1C212.284 1 219 7.71573 219 16H220H221C221 6.61116 213.389 -1 204 -1V0ZM220 16H219V140H220H221V16H220ZM220 140V139H0V140V141H220V140ZM0 140H1V16H0H-1V140H0ZM0 16H1C1 7.71573 7.71573 1 16 1V0V-1C6.61116 -1 -1 6.61116 -1 16H0ZM16 0V1H204V0V-1H16V0ZM15 12V11C12.7909 11 11 12.7909 11 15H12H13C13 13.8954 13.8954 13 15 13V12ZM12 15H11C11 17.2091 12.7909 19 15 19V18V17C13.8954 17 13 16.1046 13 15H12ZM15 18V19C17.2091 19 19 17.2091 19 15H18H17C17 16.1046 16.1046 17 15 17V18ZM18 15H19C19 12.7909 17.2091 11 15 11V12V13C16.1046 13 17 13.8954 17 15H18ZM25 12V11C22.7909 11 21 12.7909 21 15H22H23C23 13.8954 23.8954 13 25 13V12ZM22 15H21C21 17.2091 22.7909 19 25 19V18V17C23.8954 17 23 16.1046 23 15H22ZM25 18V19C27.2091 19 29 17.2091 29 15H28H27C27 16.1046 26.1046 17 25 17V18ZM28 15H29C29 12.7909 27.2091 11 25 11V12V13C26.1046 13 27 13.8954 27 15H28ZM35 12V11C32.7909 11 31 12.7909 31 15H32H33C33 13.8954 33.8954 13 35 13V12ZM32 15H31C31 17.2091 32.7909 19 35 19V18V17C33.8954 17 33 16.1046 33 15H32ZM35 18V19C37.2091 19 39 17.2091 39 15H38H37C37 16.1046 36.1046 17 35 17V18ZM38 15H39C39 12.7909 37.2091 11 35 11V12V13C36.1046 13 37 13.8954 37 15H38Z"
		fill="url(#paint0_radial_687_15946)" fill-opacity="0.25" mask="url(#path-1-inside-1_687_15946)" />
	<path
		d="M110 42C129.882 42 146 58.1177 146 78C146 97.8823 129.882 114 110 114C90.1177 114 74 97.8823 74 78C74 58.1177 90.1177 42 110 42ZM127.828 63.9219C126.266 62.36 123.734 62.3598 122.172 63.9219L104.375 81.7188L97.8281 75.1719C96.266 73.61 93.7339 73.6098 92.1719 75.1719C90.61 76.7339 90.61 79.2661 92.1719 80.8281L101.547 90.2031C103.109 91.7652 105.641 91.765 107.203 90.2031L127.828 69.5781C129.39 68.016 129.39 65.484 127.828 63.9219Z"
		fill="white" fill-opacity="0.75" />
	<defs>
		<radialGradient id="paint0_radial_687_15946" cx="0" cy="0" r="1" gradientUnits="userSpaceOnUse"
			gradientTransform="rotate(34.0355) scale(184.025 170.739)">
			<stop stop-color="white" />
			<stop offset="0.68" stop-color="white" stop-opacity="0" />
		</radialGradient>
	</defs>
</svg>
