<svg xmlns="http://www.w3.org/2000/svg" viewBox="0 0 64 64"><path fill="#e8d7b5" d="M15 18V6H9a6 6 0 100 12z"/><path fill="#ffecc7" d="M55 9c-5.3 0-10.6.8-15.6 2.4l-12.8 4A59.3 59.3 0 019 18a6 6 0 01-6-6v38a6 6 0 006 6c6 0 11.9-.9 17.6-2.7l12.8-4c3.4-1 7-1.7 10.6-2V21h5a6 6 0 100-12z"/><path fill="#88b337" d="M21 37c0-2-6-1.8-9.8-1.4-2 .2-3.6 1.5-4.4 3.3l-.2.5a5.2 5.2 0 002.6 6.7A103 103 0 0018 50c3 1 8-3 8-6s-5-4-5-7z"/><ellipse cx="36" cy="42" fill="#8c421c" rx="4" ry="2"/><path fill="#4398d1" d="M31.5 30c1.1 0 2-.4 2.7-1.1 1 .7 2.4 1.1 3.8 1.1 3.3 0 6-2.2 6-5s-2.7-5-6-5c-3 0-5.4 1.7-5.9 4a4 4 0 00-.6 0c-2 0-3.5 1.3-3.5 3s1.6 3 3.5 3z"/><g fill="#8c421c"><path d="M13.8 28.8l1.9.2.3-2a18 18 0 00-2-.2zM21 31l1.5 1 1.2-1.6-1.8-1.2zM9.7 27l.3 2a16 16 0 012-.2l-.2-2-2.1.2zM5.7 28l2-.5.5 2-2 .5zM24 33.2l1.8 1.2 1-1.7-1.5-1zM17.5 29.4l1.8.7.8-1.8-2-.8zM39.7 34.2l2-.4.4 2-2 .3zM43.7 33.4l2-.4.3 2-2 .4zM31.8 36.5l2 .3.2-2a16 16 0 01-1.9-.2zM27.7 35.4l2 .7.6-2-1.8-.6zM35.9 34.8l.1 2 2.1-.3-.4-2-1.8.3z"/></g><path fill="#fdb62f" d="M46 17.4L44.6 16l-2.3 2.3L40 16l-1.4 1.4 2.3 2.3-2.3 2.3 1.4 1.4 2.3-2.3 2.3 2.3L46 22l-2.3-2.3z"/><path fill="#e8d7b5" d="M55 21h-5v38c6 0 11-5 11-11V15a6 6 0 01-6 6z"/></svg>