<svg id="Layer_1_1_" enable-background="new 0 0 64 64" height="512" viewBox="0 0 64 64" width="512" xmlns="http://www.w3.org/2000/svg"><path d="m15 18v-12h-6c-3.314 0-6 2.686-6 6 0 3.314 2.686 6 6 6z" fill="#e8d7b5"/><path d="m55 9c-5.303 0-10.576.799-15.641 2.371l-12.764 3.961c-5.697 1.769-11.629 2.668-17.595 2.668-3.314 0-6-2.686-6-6v38c0 3.314 2.686 6 6 6 5.966 0 11.898-.899 17.596-2.668l12.764-3.961c3.468-1.076 7.034-1.79 10.641-2.134v-26.237h5c3.314 0 6-2.686 6-6s-2.687-6-6.001-6z" fill="#ffecc7"/><path d="m21 37c0-2.034-5.973-1.77-9.822-1.389-1.94.192-3.605 1.455-4.329 3.265l-.221.552c-.409 1.022-.485 2.147-.218 3.214.376 1.503 1.391 2.76 2.784 3.436 2.594 1.26 6.809 3.256 8.806 3.922 3 1 8-3 8-6s-5-4-5-7z" fill="#88b337"/><ellipse cx="36" cy="42" fill="#8c421c" rx="4" ry="2"/><path d="m31.5 30c1.1 0 2.07-.444 2.711-1.124 1.034.702 2.352 1.124 3.789 1.124 3.314 0 6-2.239 6-5s-2.686-5-6-5c-2.925 0-5.358 1.745-5.889 4.053-.199-.03-.402-.053-.611-.053-1.933 0-3.5 1.343-3.5 3s1.567 3 3.5 3z" fill="#4398d1"/><g fill="#8c421c"><path d="m13.8 28.783c.624.038 1.253.112 1.867.223l.354-1.969c-.692-.124-1.398-.208-2.102-.25z"/><path d="m20.937 30.951c.539.316 1.065.667 1.564 1.045l1.207-1.595c-.562-.425-1.154-.82-1.76-1.176z"/><path d="m9.7 27.031.35 1.969c.614-.109 1.242-.183 1.869-.219l-.117-1.997c-.703.041-1.411.124-2.102.247z"/><path d="m5.965 27.737h2v2h-2z" transform="matrix(.965 -.263 .263 .965 -7.305 2.839)"/><path d="m24.071 33.248c.565.42 1.161.811 1.771 1.16l.996-1.734c-.542-.311-1.071-.658-1.573-1.031z"/><path d="m17.497 29.446c.599.182 1.192.4 1.764.651l.803-1.832c-.645-.282-1.312-.528-1.984-.733z"/><path d="m39.874 33.961h2v2h-2z" transform="matrix(.983 -.185 .185 .983 -5.75 8.144)"/><path d="m43.806 33.224h2v2h-2z" transform="matrix(.983 -.185 .185 .983 -5.547 8.857)"/><path d="m31.789 36.546c.692.118 1.4.196 2.104.232l.102-1.997c-.625-.032-1.254-.102-1.87-.207z"/><path d="m27.736 35.354c.646.276 1.317.517 1.992.715l.564-1.918c-.6-.177-1.196-.391-1.771-.637z"/><path d="m35.876 34.767.133 1.995c.703-.046 1.409-.136 2.1-.265l-.367-1.966c-.614.115-1.241.194-1.866.236z"/></g><path d="m45.974 17.414-1.414-1.414-2.293 2.293-2.293-2.293-1.414 1.414 2.293 2.293-2.293 2.293 1.414 1.414 2.293-2.293 2.293 2.293 1.414-1.414-2.293-2.293z" fill="#fdb62f"/><path d="m55 21h-5v26.237 11.763c6.075 0 11-4.925 11-11v-33c0 3.314-2.686 6-6 6z" fill="#e8d7b5"/></svg>