<svg xmlns="http://www.w3.org/2000/svg" viewBox="0 0 64 64"><g data-name="File system"><path fill="#004fac" d="M61 32H3l7.6-27.5a2 2 0 012-1.5h38.9a2 2 0 012 1.5z"/><path fill="#2488ff" d="M61 32v25a4 4 0 01-4 4H7a4 4 0 01-4-4V32z"/><path fill="#006df0" d="M56 32v22a4 4 0 01-4 4H3.1A4 4 0 007 61h50a4 4 0 004-4V32z"/><path fill="#5eac24" d="M8.3 28h47.4l-1.9-7H10.2z"/><path fill="#d80027" d="M50 7H14l-1.9 7H52z"/><path fill="#ffcd00" d="M12.1 14l-2 7h43.7l-2-7z"/><path fill="#003f8a" d="M24.5 42.6a2 2 0 002 1.4h11a2 2 0 002-1.4l1-3.3a1 1 0 00-.9-1.3H24.4a1 1 0 00-1 1.3z"/></g></svg>