<svg xmlns="http://www.w3.org/2000/svg" viewBox="0 0 64 64"><path fill="#4d2817" d="M20 14a7 7 0 017-7h9c0-2.2-2.6-4-7-4h-8a6 6 0 00-6 6v11l5-3z"/><path fill="#606060" d="M14 29.2V20h-2a4 4 0 00-4 4v4a4 4 0 004 4h2.7a6 6 0 01-.7-2.8zM41 28v-4a4 4 0 00-4-4h-1v8z"/><path fill="#4d2817" d="M31 10V7h-4a7 7 0 00-7 7v3h4a7 7 0 007-7z"/><path fill="#66351e" d="M31 10a7 7 0 01-7 7h6a7 7 0 007-7V7h-6z"/><path fill="#4d2817" d="M30 17h6a7 7 0 007-7V7h-6v3a7 7 0 01-7 7z"/><path fill="#66351e" d="M19 3h-2a6 6 0 00-6 6v11h4V9a6 6 0 016-6z"/><path fill="#878787" d="M11 29v-4a4 4 0 013-3.9V20h-2a4 4 0 00-4 4v4a4 4 0 004 4h.4a4 4 0 01-1.4-3zM37 20h-1v2a4 4 0 014 4v2h1v-4a4 4 0 00-4-4z"/><path fill="#d0382a" d="M41 43.4c2.8 1 5 2.4 5 3.6v14H4V47c0-3.3 16-7 16-7h10z"/><path fill="#b33024" d="M41 46.4L30 43H20S5.9 46.3 4.2 49.4L4 47c0-3.3 16-7 16-7h10l11 3.4c2.8 1 5 2.4 5 3.6l-.2 2.4c-.5-1-2.5-2.1-4.8-3z"/><path fill="#fce0b9" d="M19 17h17v12.2a6 6 0 01-2.2 4.6l-4.7 2.6a5 5 0 01-2.4.6h-3.4a5 5 0 01-2.4-.6l-4.7-2.6a6 6 0 01-2.2-4.6V21z"/><path fill="#fce0b9" d="M20.9 36.4a5 5 0 002.4.6h3.4a5 5 0 002.4-.6l.9-.5V42a7 7 0 01-10 0v-6.1z"/><path fill="#f5cba1" d="M20 35.9l.9.5a5 5 0 002.4.6h3.4a5 5 0 002.4-.6l.9-.5V42l-.5.4-9.5-6.1z"/><path fill="#f5cba1" d="M27 25a1 1 0 00-1 1v11h.7a5 5 0 002.4-.6l4.7-2.6a6 6 0 002.2-4.6V25z"/><g fill="#383838"><path d="M29 28v22h14V33a2 2 0 114 0v17h14V28z"/><path d="M45 31a2 2 0 00-2 2v24h4V33a2 2 0 00-2-2zM36 57v4h18v-4H43z"/></g><path fill="#3d2012" d="M24 15h-4v2h4a7 7 0 007-7V8a7 7 0 01-7 7z"/><path fill="#4d2817" d="M30 15h-1.1a7 7 0 01-4.9 2h6a7 7 0 007-7V8a7 7 0 01-7 7z"/><path fill="#3d2012" d="M39 14.3a7 7 0 01-3 .7h-1.1a7 7 0 01-4.9 2h6a7 7 0 007-7V8a7 7 0 01-4 6.3z"/><path fill="#fce0b9" d="M10 57l10-2h6a3 3 0 013 3v3H10z"/><path fill="#262626" d="M41 30.5V50h2V33a2 2 0 114 0v17h2V30.5c0-1.4-1.8-2.5-4-2.5s-4 1.1-4 2.5zM36 59h18v2H36z"/><path d="M20 25.8a1.8 1.8 0 110-3.6 1.8 1.8 0 010 3.6zm0-2c-.1 0-.3 0-.3.2 0 .3.6.3.6 0l-.3-.3zM30 25.8a1.8 1.8 0 110-3.6 1.8 1.8 0 010 3.6zm0-2c-.1 0-.3 0-.3.2 0 .3.6.3.6 0l-.3-.3z"/><path d="M61 27H42v-3a5 5 0 00-2-4v-3a8 8 0 004-7V7c0-.6-.4-1-1-1h-6.1c-.6-2.1-3.1-4-7.9-4H17a7 7 0 00-7 7v10.4A5 5 0 007 24v4a5 5 0 004 4.9v8.6C6.8 43 3 44.9 3 47v14c0 .6.4 1 1 1h50c.6 0 1-.4 1-1v-4c0-.6-.4-1-1-1h-6v-5h13c.6 0 1-.4 1-1V28c0-.6-.4-1-1-1zm-24 0v-6a3 3 0 013 3v3zM21 37.5a6 6 0 002.3.5h3.4l1.3-.1v4.4a6 6 0 01-7-.7zM29 27a1 1 0 00-1 1v7.8a4 4 0 01-1.3.2h-3.4a4 4 0 01-2-.5L16.7 33a5 5 0 01-1.7-3.8V21c.2 0 .4 0 .5-.2l4.8-2.8H35v9zm7-19v2a6 6 0 01-6 6h-.7a8 8 0 002.7-6V8zm-6 2a6 6 0 01-6 6h-3v-2a6 6 0 016-6h3zm8 9.1a5 5 0 00-1-.1v-1l1-.3zm4-9.1a6 6 0 01-6 6h-.7a8 8 0 002.7-6V8h4zM17 6a5 5 0 014-2h8c3 0 5 .9 5.7 2H27a8 8 0 00-8 8v2.4l-3 1.8V9a5 5 0 011-3zm-5 3a5 5 0 014-4.9A7 7 0 0014 9v10h-2zM9 28v-4a3 3 0 013-3h1v8.2c0 .6 0 1.2.2 1.8H12a3 3 0 01-3-3zm4 5h1.1a7 7 0 001.6 1.7l3.3 1.8v2.7l-6 1.6zM5 47c0-.8 2.4-2 6-3.3v12l-1.2.3.4 2 .8-.2V60H5zm23 13H13v-2.6l7.1-1.4H26a2 2 0 012 2zm7-3v3h-5v-2a4 4 0 00-4-4h-6-.2L13 55.4V43l6-1.7v.7c0 .3.1.5.3.7a8 8 0 008.7 1.8V50c0 .6.4 1 1 1h13v5h-6a1 1 0 00-1 1zm18 3H37v-2h16zm-9-4V33a1 1 0 012 0v23zm16-7H48V33a3 3 0 00-6 0v16H30V29h30z"/></svg>