<svg id="Layer_1_1_" enable-background="new 0 0 64 64" height="512" viewBox="0 0 64 64" width="512" xmlns="http://www.w3.org/2000/svg"><path d="m20 14c0-3.866 3.134-7 7-7h4 5c0-2.209-2.582-4-7-4h-8c-1.889 0-3.667.889-4.8 2.4-.779 1.039-1.2 2.302-1.2 3.6v11l5-3z" fill="#4d2817"/><path d="m14 29.19v-9.19h-2c-2.209 0-4 1.791-4 4v4c0 2.209 1.791 4 4 4h2.709c-.455-.857-.709-1.817-.709-2.81z" fill="#606060"/><path d="m41 28v-4c0-2.209-1.791-4-4-4h-1v8z" fill="#606060"/><path d="m31 10v-3h-4c-3.866 0-7 3.134-7 7v3h4c3.866 0 7-3.134 7-7z" fill="#4d2817"/><path d="m31 10c0 3.866-3.134 7-7 7h6c3.866 0 7-3.134 7-7v-3h-1-5z" fill="#66351e"/><path d="m30 17h6c1.075 0 2.09-.25 3-.683v-.011.011c2.363-1.124 4-3.527 4-6.317v-3h-6v3c0 3.866-3.134 7-7 7z" fill="#4d2817"/><path d="m19 3h-2c-1.889 0-3.667.889-4.8 2.4-.779 1.039-1.2 2.302-1.2 3.6v11h1 3v-11c0-1.298.421-2.561 1.2-3.6 1.133-1.511 2.911-2.4 4.8-2.4z" fill="#66351e"/><path d="m11 29v-4c0-1.862 1.278-3.413 3-3.859v-1.141h-2c-2.209 0-4 1.791-4 4v4c0 2.209 1.791 4 4 4h.38c-.839-.733-1.38-1.798-1.38-3z" fill="#878787"/><path d="m37 20h-1v2c2.209 0 4 1.791 4 4v2h1v-4c0-2.209-1.791-4-4-4z" fill="#878787"/><path d="m41 43.354c2.783 1.127 5 2.412 5 3.646v14h-42v-14c0-3.314 16-7 16-7h10z" fill="#d0382a"/><path d="m41 46.354-11-3.354h-10s-14.12 3.254-15.829 6.395l-.171-2.395c0-3.314 16-7 16-7h10l11 3.354c2.783 1.127 5 2.412 5 3.646l-.173 2.419c-.55-1.05-2.478-2.114-4.827-3.065z" fill="#b33024"/><path d="m19 17h17v12.19c0 1.781-.791 3.469-2.159 4.609l-4.703 2.577c-.747.41-1.584.624-2.436.624h-3.405c-.851 0-1.689-.214-2.436-.624l-4.703-2.577c-1.367-1.14-2.158-2.829-2.158-4.609v-8.19z" fill="#fce0b9"/><path d="m20.862 36.376c.747.41 1.584.624 2.436.624h3.405c.851 0 1.689-.214 2.436-.624l.861-.472v6.096c-2.761 2.761-7.239 2.761-10 0v-6.096z" fill="#fce0b9"/><path d="m20 35.904.862.472c.747.41 1.584.624 2.436.624h3.405c.851 0 1.689-.214 2.436-.624l.861-.472v6.096c-.158.158-.323.304-.491.444l-9.509-6.158z" fill="#f5cba1"/><path d="m27 25c-.552 0-1 .448-1 1v11h.702c.851 0 1.689-.214 2.436-.624l4.703-2.577c1.368-1.14 2.159-2.829 2.159-4.609v-4.19z" fill="#f5cba1"/><g fill="#383838"><path d="m29 28v8.441 4.559 9h14v-17c0-1.105.895-2 2-2s2 .895 2 2v17h14v-22z"/><path d="m45 31c-1.105 0-2 .895-2 2v17 7h4v-7-17c0-1.105-.895-2-2-2z"/><path d="m36 57v4h18v-4h-7-4z"/></g><path d="m24 15h-4v2h4c3.866 0 7-3.134 7-7v-2c0 3.866-3.134 7-7 7z" fill="#3d2012"/><path d="m30 15h-1.106c-1.262 1.236-2.988 2-4.894 2h6c3.866 0 7-3.134 7-7v-2c0 3.866-3.134 7-7 7z" fill="#4d2817"/><path d="m39 14.317c-.91.433-1.925.683-3 .683h-1.106c-1.262 1.236-2.988 2-4.894 2h6c1.075 0 2.09-.25 3-.683 2.363-1.124 4-3.527 4-6.317v-2c0 2.791-1.637 5.193-4 6.317z" fill="#3d2012"/><path d="m10 57 10-2h6c1.657 0 3 1.343 3 3v3h-19z" fill="#fce0b9"/><path d="m41 30.462v19.538h2v-17c0-1.105.895-2 2-2s2 .895 2 2v17h2v-19.538c0-1.36-1.791-2.462-4-2.462s-4 1.102-4 2.462z" fill="#262626"/><path d="m36 59h18v2h-18z" fill="#262626"/><path d="m20 25.75c-.965 0-1.75-.785-1.75-1.75s.785-1.75 1.75-1.75 1.75.785 1.75 1.75-.785 1.75-1.75 1.75zm0-2c-.138 0-.25.112-.25.25 0 .275.5.275.5 0 0-.138-.112-.25-.25-.25z"/><path d="m30 25.75c-.965 0-1.75-.785-1.75-1.75s.785-1.75 1.75-1.75 1.75.785 1.75 1.75-.785 1.75-1.75 1.75zm0-2c-.138 0-.25.112-.25.25 0 .275.5.275.5 0 0-.138-.112-.25-.25-.25z"/><path d="m61 27h-19v-3c0-1.627-.793-3.061-2-3.974v-3.108c2.387-1.386 4-3.964 4-6.918v-3c0-.552-.448-1-1-1h-6.14c-.586-2.119-3.078-4-7.86-4h-8-4c-2.192 0-4.285 1.047-5.6 2.8-.903 1.203-1.4 2.695-1.4 4.2v10.417c-1.765.773-3 2.537-3 4.583v4c0 2.414 1.721 4.434 4 4.899v8.605c-4.202 1.473-8 3.386-8 5.496v14c0 .552.448 1 1 1h32 18c.552 0 1-.448 1-1v-4c0-.552-.448-1-1-1h-6v-5h13c.552 0 1-.448 1-1v-22c0-.552-.448-1-1-1zm-24 0v-6c1.654 0 3 1.346 3 3v3zm-16 10.543c.728.298 1.509.457 2.298.457h3.404c.434 0 .87-.055 1.298-.15v4.406c-2.239 1.283-5.052 1.02-7-.688zm8-10.543c-.552 0-1 .448-1 1v7.776c-.422.144-.862.224-1.298.224h-3.404c-.682 0-1.358-.173-1.956-.5l-4.614-2.529c-1.1-.951-1.728-2.324-1.728-3.781v-8.19c.189 0 .355-.066.506-.157l.009.015 4.762-2.858h14.723v9zm7-19v2c0 3.309-2.691 6-6 6h-.726c1.667-1.467 2.726-3.61 2.726-6v-2zm-6 2c0 3.309-2.691 6-6 6h-3v-2c0-3.309 2.691-6 6-6h3zm8 9.101c-.323-.066-.658-.101-1-.101v-1.069c.341-.043.674-.109 1-.194zm4-9.101c0 3.309-2.691 6-6 6h-.726c1.667-1.467 2.726-3.61 2.726-6v-2h4zm-25-4c.939-1.252 2.434-2 4-2h8c3.043 0 4.951.903 5.668 2h-7.668c-4.411 0-8 3.589-8 8v2.434l-3 1.8v-9.234c0-1.075.355-2.141 1-3zm-5 3c0-1.075.355-2.141 1-3 .736-.982 1.814-1.653 3-1.898-.214.218-.415.451-.6.698-.903 1.203-1.4 2.695-1.4 4.2v10h-2zm-3 19v-4c0-1.654 1.346-3 3-3h1v8.19c0 .62.091 1.225.247 1.81h-1.247c-1.654 0-3-1.346-3-3zm4 5h1.136c.378.58.837 1.112 1.383 1.567.049.042.103.078.16.109l3.321 1.82v2.711c-1.657.395-3.809.951-6 1.635zm-8 14c0-.76 2.424-2.038 6-3.336v12.116l-1.196.24.393 1.961.803-.161v2.18h-6zm23 13h-15v-2.58l7.099-1.42h5.901c1.103 0 2 .897 2 2zm7-3v3h-5v-2c0-2.206-1.794-4-4-4h-6c-.066 0-.131.006-.196.02l-6.804 1.36v-12.405c1.84-.601 3.881-1.186 6-1.707v.732c0 .265.105.52.293.707 1.563 1.563 3.631 2.367 5.713 2.366 1.016 0 2.029-.213 2.994-.601v5.528c0 .552.448 1 1 1h13v5h-6c-.552 0-1 .448-1 1zm18 3h-16v-2h16zm-9-4v-23c0-.551.449-1 1-1s1 .449 1 1v23zm16-7h-12v-16c0-1.654-1.346-3-3-3s-3 1.346-3 3v16h-12v-20h30z"/></svg>