<svg xmlns="http://www.w3.org/2000/svg" viewBox="0 0 512 512"><circle cx="256" cy="256" r="256" fill="#fe8205"/><path fill="#fa5d0f" d="M512 256C512 115 397 0 256 0v512c141 0 256-115 256-256z"/><path fill="#f0f7ff" d="M256 61a195 195 0 100 390 195 195 0 000-390z"/><path fill="#dfe7f4" d="M451 256c0-108-87-195-195-195v391c108 0 195-88 195-196z"/><path fill="#575f64" d="M256 121c-8 0-15 7-15 15v150a15 15 0 1030 0V136c0-8-7-15-15-15z"/><path fill="#474f54" d="M271 286V136c0-8-7-15-15-15v180c8 0 15-7 15-15z"/><path fill="#575f64" d="M346 241H226a15 15 0 100 30h120a15 15 0 100-30z"/><path fill="#474f54" d="M361 256c0-8-7-15-15-15h-90v30h90c8 0 15-7 15-15z"/></svg>