<svg xmlns="http://www.w3.org/2000/svg" viewBox="0 0 512 512"><path fill="#fae19e" d="M47 452l296 20c5 0 10-4 11-9l28-425c0-5-4-10-9-10L77 8c-5-1-10 4-10 9L38 442c0 5 4 10 9 10z"/><path fill="#fff9e9" d="M18 504h226l80-79V69c0-6-5-10-10-10H17c-5 0-10 4-10 10v425c0 6 5 10 10 10z"/><path fill="#fff4d6" d="M314 59h-40c5 0 10 4 10 10v356l-1 40 41-40V69c0-6-5-10-10-10z"/><path fill="#ffeec2" d="M244 504v-70c0-6 4-10 10-10h70z"/><g><path fill="#fed23a" d="M469 249h-34v-51c0-9 8-17 17-17s17 8 17 17v51z"/><path fill="#54b1ff" d="M452 504a55 55 0 01-16-39v-74l1-1h30l1 1v74c0 15-6 29-16 39z"/><path fill="#fdf385" d="M452 469c-14 0-26-11-26-26V230c0-7 5-12 12-12l28-1c7 0 12 6 12 13v213c0 15-12 26-26 26z"/><path fill="#faee6e" d="M466 217l-24 1c6 0 11 5 11 12v213c0 10-6 19-14 23 4 2 8 3 13 3 14 0 26-11 26-26V230c0-7-5-13-12-13z"/><path fill="#54b1ff" d="M491 248h-71c-8 0-14 6-14 14 0 7 6 13 14 13l58-1v78c0 7 6 13 13 13 8 0 14-6 14-13v-91c0-7-6-13-14-13z"/><path fill="#3da7ff" d="M491 248h-38v26h25v78c0 7 6 13 13 13 8 0 13-6 13-13v-91c1-7-5-13-13-13z"/></g><g fill="#060606"><path d="M373 20L78 0C68 0 60 7 59 17l-2 34H17C8 51 0 59 0 69v425c0 10 8 18 17 18h227c2 0 4-1 5-3l34-33h1l58 4c10 0 18-7 19-17l28-424c1-10-6-18-16-19zM251 486v-52c0-1 1-3 3-3h52zm95-24c0 2-1 3-3 3l-46-4 32-31 2-5V69c0-10-8-18-17-18h-78c-10 0-10 15 0 15h78c1 0 2 1 2 3v347h-62c-10 0-18 8-18 18v63H18c-2 0-3-1-3-3V69c0-2 1-3 3-3h178c9 0 9-15 0-15H72l2-33c0-2 1-3 3-3l295 20c2 0 2 1 2 3z"/><path d="M268 237H63a8 8 0 000 15h205a7 7 0 100-15zM268 289H63a8 8 0 000 15h205a7 7 0 100-15zM56 192c0 4 3 8 7 8h205a7 7 0 100-15H63c-4 0-7 3-7 7zM92 140c0 4 3 7 7 7h133a8 8 0 000-15H99c-4 0-7 4-7 8zM195 439a36391 36391 0 01-54 0c-9 0-14-2-16-11-1-7-12-6-14 0-6 17-14 10-19-1s-6-23-8-35c-2-8-15-6-15 2 0 11-1 22-4 32l-11 31c-4 9 11 13 14 4l11-27c5 12 15 26 31 18l7-6c8 9 20 8 31 8h47c9 0 9-15 0-15zM506 246c-4-3-9-5-15-6h-5v-10c0-7-4-14-10-17v-15c0-31-48-31-48 0v15c-6 4-10 10-10 17v11c-25 2-25 40 0 41v101c0 9 15 10 15 0V282h38v161c0 24-38 24-38-1v-13c1-10-14-11-15-1v13c0 11 4 20 10 27 1 15 8 30 19 42 3 3 7 2 10-1 12-11 18-26 19-42 5-5 9-10 9-27l1-68c12 3 26-7 26-20v-91c0-5-2-11-6-15zm-73-5v-11c0-2 2-4 4-5h30a5 5 0 014 5v11zm19-52c5 0 9 4 9 9v12h-18v-12c0-5 4-9 9-9zm0 304c-4-5-6-11-7-17a33 33 0 0014 0c-1 6-3 12-7 17zm45-141c0 7-11 7-11 0v-78c0-4-4-7-8-7h-58c-8 0-7-11 0-11l71-1c4 1 6 3 6 6v91z"/></g></svg>