<?xml version="1.0" encoding="iso-8859-1"?>
<!-- Generator: Adobe Illustrator 19.0.0, SVG Export Plug-In . SVG Version: 6.00 Build 0)  -->
<svg version="1.1" id="Capa_1" xmlns="http://www.w3.org/2000/svg" xmlns:xlink="http://www.w3.org/1999/xlink" x="0px" y="0px"
	 viewBox="0 0 512 512" style="enable-background:new 0 0 512 512;" xml:space="preserve">
<path style="fill:#80C56E;" d="M408.906,45.536c2.263,6.186,27.401,79.804-24.155,166.617
	c-31.315,52.729-78.861,56.218-83.517,56.434c-2.727-3.781-29.57-43.179-7.763-100.497
	C329.376,73.721,402.655,47.612,408.906,45.536z"/>
<path style="fill:#66AD66;" d="M408.906,45.536L301.234,268.587l0,0c4.657-0.217,52.202-3.705,83.517-56.434
	C436.308,125.34,411.169,51.722,408.906,45.536z"/>
<path style="fill:#FFFFFF;stroke:#000000;stroke-width:15;stroke-linecap:round;stroke-linejoin:round;stroke-miterlimit:10;" d="
	M297.907,275.479l3.327-6.892c-0.07-0.098-0.16-0.225-0.262-0.369C298.914,273.026,297.907,275.479,297.907,275.479z"/>
<path style="fill:#80C56E;" d="M103.094,45.536c-2.263,6.186-27.401,79.804,24.155,166.617
	c31.315,52.729,78.861,56.218,83.517,56.434c2.727-3.781,29.57-43.179,7.762-100.497C182.624,73.721,109.345,47.612,103.094,45.536z
	"/>
<path style="fill:#66AD66;" d="M218.528,168.09C182.624,73.721,109.345,47.612,103.094,45.536
	c63.67,121.61,98.013,199.506,107.934,222.682C214.849,262.756,239.774,223.93,218.528,168.09z"/>
<path style="fill:#80C56E;" d="M256,0c-7.676,7.449-96.408,97.362-82.296,260.712c8.571,99.218,75.639,137.883,82.296,141.487
	c6.657-3.604,73.725-42.27,82.296-141.487C352.408,97.362,263.676,7.449,256,0z"/>
<path style="fill:#66AD66;" d="M256,0v402.199c6.657-3.604,73.725-42.27,82.296-141.487C352.408,97.362,263.676,7.449,256,0z"/>
<path style="fill:#80C56E;" d="M445.966,250.043c16.695-57.379,11.044-110.709,11.044-110.709s-32.151,14.322-112.949,66.535
	C281.256,246.454,261.824,317.612,256,336.79h73.813C383.468,336.79,430.976,301.562,445.966,250.043z"/>
<path style="fill:#66AD66;" d="M457.011,139.333c0,0-83.039,164.043-201.011,197.457h73.813c53.656,0,101.163-35.228,116.154-86.747
	C462.661,192.664,457.011,139.333,457.011,139.333z"/>
<path style="fill:#80C56E;" d="M66.034,250.043C49.339,192.664,54.99,139.334,54.99,139.334s32.151,14.322,112.949,66.535
	C230.744,246.454,250.176,317.612,256,336.79h-73.813C128.532,336.79,81.024,301.562,66.034,250.043z"/>
<path style="fill:#66AD66;" d="M256,336.79c-5.824-19.178-25.256-90.336-88.061-130.922c-80.799-52.213-112.95-66.535-112.95-66.535
	S138.028,303.377,256,336.79z"/>
<path style="fill:#FEC37D;" d="M309.376,512H202.624c-28.315,0-52.604-20.189-57.781-48.027l-22.887-123.072h268.089
	l-22.887,123.072C361.98,491.811,337.691,512,309.376,512z"/>
<path style="fill:#F9AE5D;" d="M338.192,340.902l-22.887,123.072C310.128,491.811,285.838,512,257.523,512h51.853
	c28.315,0,52.604-20.189,57.781-48.027l22.887-123.072h-51.852V340.902z"/>
<path style="fill:#F2A559;" d="M394.718,368.559H117.282c-11.242,0-20.356-9.114-20.356-20.356l0,0
	c0-11.242,9.114-20.356,20.356-20.356h277.437c11.242,0,20.356,9.114,20.356,20.356l0,0
	C415.074,359.445,405.961,368.559,394.718,368.559z"/>
<path style="fill:#EA8F3D;" d="M394.718,327.846h-32.614v40.712h32.614c11.242,0,20.356-9.114,20.356-20.356l0,0
	C415.075,336.96,405.961,327.846,394.718,327.846z"/>
<g>
</g>
<g>
</g>
<g>
</g>
<g>
</g>
<g>
</g>
<g>
</g>
<g>
</g>
<g>
</g>
<g>
</g>
<g>
</g>
<g>
</g>
<g>
</g>
<g>
</g>
<g>
</g>
<g>
</g>
</svg>
