<svg xmlns="http://www.w3.org/2000/svg" viewBox="0 0 512 512"><path fill="#80c56e" d="M409 46c2 6 27 79-24 166-32 53-79 56-84 57-2-4-29-44-8-101C329 74 403 48 409 46z"/><path fill="#66ad66" d="M409 46L301 269c5-1 52-4 84-57 51-87 26-160 24-166z"/><path fill="#fff" stroke="#000" stroke-linecap="round" stroke-linejoin="round" stroke-miterlimit="10" stroke-width="15" d="M298 275l3-6v-1l-3 7z"/><path fill="#80c56e" d="M103 46c-2 6-27 79 24 166 32 53 79 56 84 57 2-4 29-44 8-101A203 203 0 00103 46z"/><path fill="#66ad66" d="M219 168A203 203 0 00103 46c64 121 98 199 108 222 4-5 29-44 8-100z"/><path fill="#80c56e" d="M256 0c-8 7-96 97-82 261 8 99 75 138 82 141 7-3 74-42 82-141C352 97 264 7 256 0z"/><path fill="#66ad66" d="M256 0v402c7-3 74-42 82-141C352 97 264 7 256 0z"/><path fill="#80c56e" d="M446 250c17-57 11-111 11-111s-32 15-113 67c-63 40-82 112-88 131h74c53 0 101-35 116-87z"/><path fill="#66ad66" d="M457 139s-83 164-201 198h74c53 0 101-35 116-87 17-57 11-111 11-111z"/><path fill="#80c56e" d="M66 250c-17-57-11-111-11-111s32 15 113 67c63 40 82 112 88 131h-74c-53 0-101-35-116-87z"/><path fill="#66ad66" d="M256 337c-6-19-25-91-88-131-81-52-113-67-113-67s83 164 201 198z"/><path fill="#fec37d" d="M309 512H203c-29 0-53-20-58-48l-23-123h268l-23 123c-5 28-29 48-58 48z"/><path fill="#f9ae5d" d="M338 341l-23 123c-5 28-29 48-57 48h51c29 0 53-20 58-48l23-123h-52z"/><path fill="#f2a559" d="M395 369H117c-11 0-20-10-20-21s9-20 20-20h278c11 0 20 9 20 20s-9 21-20 21z"/><path fill="#ea8f3d" d="M395 328h-33v41h33c11 0 20-10 20-21s-9-20-20-20z"/></svg>