<?xml version="1.0"?>
<svg xmlns="http://www.w3.org/2000/svg" id="Solid" height="512px" viewBox="0 0 512 512" width="512px" class=""><g><path d="m400 216a23.928 23.928 0 0 1 -16.971-7.029l-127.029-127.03-127.029 127.03a24 24 0 0 1 -33.942-33.942l144-144a24 24 0 0 1 33.942 0l144 144a24 24 0 0 1 -16.971 40.971zm-127.029 264.971 144-144a24 24 0 0 0 -33.942-33.942l-127.029 127.03-127.029-127.03a24 24 0 0 0 -33.942 33.942l144 144a24 24 0 0 0 33.942 0z" data-original="#000000" class="active-path" data-old_color="#000000" fill="#E3E9ED"/></g> </svg>
