<svg xmlns="http://www.w3.org/2000/svg" viewBox="0 0 512 512"><defs/><path fill="#69E781" d="M256 363c-9 0-16-7-16-16V16a16 16 0 0132 0v331c0 9-7 16-16 16zm0 0" class="active-path" data-old_color="#000000" data-original="#000000"/><path fill="#69E781" d="M256 363c-4 0-8-2-11-5l-86-85a16 16 0 0123-23l74 74 74-74a16 16 0 0123 23l-86 85c-3 3-7 5-11 5zm0 0" class="active-path" data-old_color="#000000" data-original="#000000"/><path fill="#69E781" d="M453 512H59c-33 0-59-26-59-59v-96a16 16 0 0132 0v96c0 15 12 27 27 27h394c15 0 27-12 27-27v-96a16 16 0 0132 0v96c0 33-26 59-59 59zm0 0" class="active-path" data-old_color="#000000" data-original="#000000"/></svg>