<?xml version="1.0"?>
<svg xmlns="http://www.w3.org/2000/svg" height="512px" viewBox="0 0 512 512" width="512px"><g><path d="m256 362.667969c-8.832031 0-16-7.167969-16-16v-330.667969c0-8.832031 7.167969-16 16-16s16 7.167969 16 16v330.667969c0 8.832031-7.167969 16-16 16zm0 0" data-original="#000000" class="active-path" data-old_color="#000000" fill="#FFFFFF"/><path d="m256 362.667969c-4.097656 0-8.191406-1.558594-11.308594-4.695313l-85.332031-85.332031c-6.25-6.25-6.25-16.382813 0-22.636719 6.25-6.25 16.382813-6.25 22.636719 0l74.023437 74.027344 74.027344-74.027344c6.25-6.25 16.386719-6.25 22.636719 0 6.25 6.253906 6.25 16.386719 0 22.636719l-85.335938 85.332031c-3.15625 3.136719-7.25 4.695313-11.347656 4.695313zm0 0" data-original="#000000" class="active-path" data-old_color="#000000" fill="#FFFFFF"/><path d="m453.332031 512h-394.664062c-32.363281 0-58.667969-26.304688-58.667969-58.667969v-96c0-8.832031 7.167969-16 16-16s16 7.167969 16 16v96c0 14.699219 11.96875 26.667969 26.667969 26.667969h394.664062c14.699219 0 26.667969-11.96875 26.667969-26.667969v-96c0-8.832031 7.167969-16 16-16s16 7.167969 16 16v96c0 32.363281-26.304688 58.667969-58.667969 58.667969zm0 0" data-original="#000000" class="active-path" data-old_color="#000000" fill="#FFFFFF"/></g> </svg>
