<svg xmlns="http://www.w3.org/2000/svg" viewBox="0 0 512 512"><path fill="#fea832" d="M482 316v105H30V316c0-73 36-139 91-180l15 45 15-64a226 226 0 01210 0l15 64 15-45c55 41 91 107 91 180z"/><path fill="#fe9923" d="M482 316v105H256V91c38 0 74 10 105 26l15 64 15-45c55 41 91 107 91 180z"/><path fill="#fedb41" d="M331 106v150c0 8-7 15-15 15H196c-8 0-15-7-15-15V106c0-25 20-45 45-45h60c25 0 45 20 45 45z"/><path fill="#fcbf29" d="M376 241c8 0 15-7 15-15v-90c-9-7-19-13-30-19v109c0 8 7 15 15 15z"/><g fill="#fedb41"><path d="M136 241c8 0 15-7 15-15V117c-11 6-21 12-30 19v90c0 8 7 15 15 15zM512 421c0 17-13 30-30 30H30c-16 0-30-13-30-30s14-30 30-30h452c17 0 30 14 30 30z"/></g><g fill="#fcbf29"><path d="M316 271h-60V61h30c25 0 45 20 45 45v150c0 8-7 15-15 15zM512 421c0 17-13 30-30 30H256v-60h226c17 0 30 14 30 30z"/></g></svg>