<svg xmlns="http://www.w3.org/2000/svg" viewBox="0 0 480 480"><path fill="#ffdfba" d="M394 425v39c0 4-4 8-8 8H94c-4 0-8-4-8-8v-39c0-41 33-75 74-75 23 0 42-18 42-41v-7a99 99 0 01-61-92v-3c-14 0-25-11-25-25V94c0-29 14-56 38-72l12-8c5-3 11-1 12 4l4 14c2 4 7 6 11 5l59-26c4-1 9 1 11 5l5 13c1 4 5 6 9 5l49-13c5-2 10 2 10 7v12c0 3 2 6 5 7l36 15c5 1 7 7 4 11-10 19-16 41-16 64v44c0 14-12 26-26 26v3c0 41-25 77-61 92v7c0 23 19 41 42 41 41 0 74 34 74 75z"/><path fill="#ffaa64" d="M394 425v39c0 4-4 8-8 8H94c-4 0-8-4-8-8v-39c0-41 33-75 74-75 6 0 12-1 17-3a69 69 0 00126 0c5 2 11 3 17 3 41 0 74 34 74 75z"/><path fill="#ffe773" d="M336 40c0 3 2 6 5 7l36 15c5 1 7 7 4 11-10 19-16 41-16 64v44c0 14-12 26-26 26v-62c0-26-21-48-48-48H189c-27 0-48 22-48 48v62c-14 0-25-11-25-25V94c0-29 14-56 38-72l12-8c5-3 11-1 12 4l4 14c2 4 7 6 11 5l59-26c4-1 9 1 11 5l5 13c1 4 5 6 9 5l49-13c5-2 10 2 10 7v12z"/><path fill="#ffebd2" d="M339 210a99 99 0 01-198 0v-65c0-26 21-48 48-48h102c27 0 48 22 48 48z"/><path fill="#ffd6a6" d="M279 318a99 99 0 01-78 0l1-16c24 10 52 10 76 0l1 16z"/><path fill="#fff3e4" d="M218 274c16 10 3 35-15 28a99 99 0 01-62-92v-65c0-10 3-19 8-27 7-10 22-5 22 7v65c0 37 19 67 47 84z"/><path fill="#ffbd7b" d="M181 355c6 9 1 21-10 23-24 7-56 24-56 72v22H94c-4 0-8-4-8-8v-39c0-41 33-75 74-75 6 0 12-1 17-3l4 8z"/><path fill="#faa157" d="M299 355c-6 9-1 21 10 23 24 7 56 24 56 72v22h21c4 0 8-4 8-8v-39c0-41-33-75-74-75-6 0-12-1-17-3l-4 8z"/><path fill="#ffec8f" d="M193 37c0-1 1 0 0 0l-9 6a87 87 0 00-38 72v9c-3 6-5 14-5 21v62c-14 0-25-11-25-25V94c0-29 14-56 38-72l12-8c5-3 11-1 12 4l4 14c2 4 7 6 11 5z"/><path d="M402 425v47a8 8 0 01-16 0v-47c0-37-30-67-67-67-17 0-33-9-42-24a8 8 0 1114-8c6 10 17 16 28 16 46 0 83 37 83 83zm-112-59c3 4 3 9-1 12a77 77 0 01-116-21l-12 1c-37 0-67 30-67 67v47a8 8 0 01-16 0v-47c0-46 37-83 83-83 18 0 33-15 33-33v-2c-35-17-59-52-61-93-14-3-25-16-25-32V94c0-31 16-61 42-79l21-14c4-3 10-1 12 5l7 23 67-28c4-2 9 0 11 4l7 21 59-16c5-1 10 3 10 8v22l45 18c5 1 6 7 4 11-13 21-20 44-20 68v45a8 8 0 01-16 0v-45c0-24 6-47 17-68l-41-17c-3-1-5-4-5-7V28l-56 16c-4 1-8-1-10-5l-7-20-67 28c-4 2-9 0-11-5l-6-21-12 8a79 79 0 00-35 65v88c0 7 4 12 9 15v-52c0-31 25-56 56-56h102c31 0 56 25 56 56v66c-1 71-69 122-137 102-1 16-10 29-22 37 19 32 62 40 91 16 3-3 9-3 11 0zm-50-65c50 0 91-41 91-91v-65c0-22-18-40-40-40H189c-22 0-40 18-40 40v65c0 50 41 91 91 91z"/></svg>