<svg id="Layer_1" enable-background="new 0 0 480.002 480.002" height="512" viewBox="0 0 480.002 480.002" width="512" xmlns="http://www.w3.org/2000/svg"><path d="m394.001 424.742v39.26c0 4.42-3.58 8-8 8h-292c-4.42 0-8-3.58-8-8v-39.26c0-41.01 33.11-75.01 74.11-74.57 23.207.23 41.89-18.43 41.89-41.34v-6.83l.15-.37c-35.9-14.86-61.15-50.23-61.15-91.5v-3.13c-14.252 0-25-11.262-25-24.54v-88.15c0-28.96 14.36-56.04 38.33-72.3l11.76-7.97c4.44-3.01 10.52-.88 12.12 4.24l4.15 13.28c1.41 4.52 6.42 6.83 10.78 4.97l59.04-25.2c4.24-1.8 9.13.33 10.68 4.67l4.65 13.02c1.4 3.94 5.6 6.13 9.64 5.03l48.75-13.29c5.08-1.39 10.1 2.44 10.1 7.71v11.11c0 3.27 1.99 6.22 5.03 7.43l36.31 14.53c4.48 1.79 6.32 7.09 4.01 11.33-10.37 18.99-16.35 40.93-16.35 64.04v44.09c0 14.36-11.64 26-26 26v3.13c0 41.27-25.25 76.64-61.15 91.5l.15.37v6.83c0 22.943 18.717 41.57 41.89 41.34 41-.44 74.11 33.56 74.11 74.57z" fill="#ffdfba"/><path d="m394.001 424.742v39.26c0 4.418-3.582 8-8 8h-292c-4.418 0-8-3.582-8-8v-39.26c0-41.006 33.109-75.015 74.113-74.572 6.036.065 11.796-1.16 16.987-3.418v.01c10.95 24.91 35.7 41.06 62.9 41.06s51.95-16.15 62.9-41.06v-.01c5.191 2.257 10.951 3.483 16.987 3.418 41.004-.443 74.113 33.566 74.113 74.572z" fill="#ffaa64"/><path d="m336.001 39.586c0 3.271 1.992 6.213 5.029 7.428l36.309 14.524c4.485 1.794 6.322 7.097 4.008 11.337-10.362 18.985-16.346 40.931-16.346 64.038v44.09c0 14.36-11.64 26-26 26v-61.77c0-26.51-21.49-48-48-48h-102c-26.51 0-48 21.49-48 48v61.77c-14.255 0-25-11.265-25-24.54v-88.15c0-28.96 14.36-56.04 38.33-72.3l11.757-7.969c4.44-3.009 10.525-.883 12.124 4.236l4.15 13.279c1.412 4.52 6.42 6.83 10.775 4.972l59.048-25.194c4.238-1.808 9.124.328 10.673 4.668l4.65 13.021c1.406 3.937 5.606 6.127 9.639 5.027l48.748-13.295c5.089-1.388 10.105 2.443 10.105 7.718v11.11z" fill="#ffe773"/><path d="m339.001 210.132c0 54.696-44.348 99-99 99-54.65 0-99-44.302-99-99 0-6.721 0-57.228 0-64.9 0-26.51 21.49-48 48-48h102c26.51 0 48 21.49 48 48z" fill="#ffebd2"/><path d="m279.131 318.422c-24.637 10.313-51.712 11.113-78.26 0 1.356-5.626 1.13-9.27 1.13-16.42l.15-.37c24.082 9.996 51.571 10.016 75.7 0l.15.37c0 7.153-.226 10.796 1.13 16.42z" fill="#ffd6a6"/><path d="m217.585 274.059c16.277 10.183 3.442 35.156-14.376 28.004-36.634-14.704-62.208-50.404-62.208-91.932v-64.9c0-10.084 3.11-19.442 8.422-27.168 6.657-9.68 21.65-4.88 21.578 6.868-.002.245-.001 64.955-.001 65.2.001 36.511 19.193 66.791 46.585 83.928z" fill="#fff3e4"/><path d="m181.248 354.73c5.506 9.073.512 20.907-9.749 23.615-24.507 6.468-56.498 23.706-56.498 71.397v22.26h-21c-4.418 0-8-3.582-8-8v-39.26c0-41.01 33.11-75.01 74.11-74.57 6.04.06 11.8-1.16 16.99-3.42v.01c1.218 2.767 2.605 5.427 4.147 7.968z" fill="#ffbd7b"/><path d="m298.754 354.73c-5.506 9.073-.512 20.907 9.749 23.615 24.507 6.468 56.498 23.706 56.498 71.397v22.26h21c4.418 0 8-3.582 8-8v-39.26c0-41.01-33.11-75.01-74.11-74.57-6.04.06-11.8-1.16-16.99-3.42v.01c-1.218 2.767-2.605 5.427-4.147 7.968z" fill="#faa157"/><path d="m193.141 36.532c.234-.1.413.226.202.369l-9.012 6.111c-23.97 16.26-38.33 43.34-38.33 72.3v8.57c-3.2 6.43-5 13.68-5 21.35v61.77c-14.252 0-25-11.262-25-24.54v-88.15c0-28.96 14.36-56.04 38.33-72.3l11.76-7.97c4.44-3.01 10.52-.88 12.12 4.24l4.15 13.28c1.41 4.52 6.42 6.83 10.78 4.97z" fill="#ffec8f"/><path d="m402.001 424.745v47.257c0 4.418-3.582 8-8 8s-8-3.582-8-8v-47.257c0-36.794-29.775-66.572-66.573-66.571-17.41 0-33.208-8.87-42.258-23.728-2.299-3.773-1.104-8.695 2.67-10.994 3.772-2.3 8.695-1.103 10.994 2.67 6.123 10.051 16.812 16.051 28.594 16.051 45.637 0 82.573 36.93 82.573 82.572zm-111.612-58.26c2.846 3.38 2.412 8.427-.968 11.272-36.841 31.013-92.818 20.862-116.34-21.177-4.034 1.045-8.227 1.593-12.505 1.593-36.878 0-66.574 29.849-66.574 66.571v47.257c0 4.418-3.582 8-8 8s-8-3.582-8-8v-47.257c0-45.634 36.929-82.571 82.571-82.571 18.452 0 33.429-14.863 33.429-33.341v-2.107c-34.919-16.697-59.429-51.784-60.923-92.643-14.37-3.455-25.077-16.317-25.077-31.62v-88.152c0-31.653 15.642-61.155 41.841-78.917l20.67-14.014c4.434-3.006 10.526-.882 12.125 4.235l7.361 23.556 66.863-28.528c4.24-1.807 9.125.333 10.674 4.667l7.508 21.023 58.854-16.051c5.086-1.386 10.104 2.45 10.104 7.718v21.584l44.971 17.988c4.654 1.862 6.471 7.505 3.772 11.733-12.916 20.228-19.743 43.606-19.743 67.607v45.547c0 4.418-3.582 8-8 8s-8-3.582-8-8v-45.547c0-23.846 5.978-47.146 17.363-67.951l-41.335-16.53c-3.038-1.215-5.029-4.157-5.029-7.428v-16.526l-55.896 15.244c-4.03 1.098-8.232-1.091-9.639-5.027l-7.142-19.998-67.183 28.665c-4.366 1.859-9.366-.464-10.775-4.972l-6.788-21.722-11.757 7.971c-21.803 14.781-34.819 39.332-34.819 65.673v88.151c0 6.348 3.656 11.865 9 14.636v-51.863c0-30.878 25.121-56 56-56h102c30.879 0 56 25.12 56 55.997 0 .178.002 65.555-.003 65.733-.547 70.614-68.81 121.947-137.167 101.823-1.246 15.79-9.814 29.175-22.057 37.259 19.064 32.202 62.559 39.7 91.342 15.47 3.378-2.842 8.426-2.411 11.272.969zm-50.388-65.358c50.178 0 91-40.822 91-91v-64.895c0-22.055-17.944-39.997-40-39.997h-102c-22.056 0-40 17.944-40 40v64.891c0 50.179 40.822 91.001 91 91.001z"/></svg>