<svg xmlns="http://www.w3.org/2000/svg" viewBox="0 0 504 504"><path fill="#7fb241" d="M253 120c-72 7-126-47-119-119 72-7 126 47 119 119z"/><path fill="#8e6d53" d="M256 171c-6-1-11-7-12-14A117 117 0 01348 28a16 16 0 014 32 85 85 0 00-76 94 16 16 0 01-20 17z"/><path fill="#e14b4b" d="M374 120c-17-4-35-3-53 2-45 15-93 15-138 0-18-5-36-6-53-2-69 19-103 119-75 224s107 175 176 157a78 78 0 0142 0c69 18 148-52 176-157s-6-205-75-224z"/><path fill="#d03f3f" d="M449 344c-28 105-107 175-176 157h-1c-13-4-27-4-41 0-26 7-53 1-79-14a426 426 0 00259-346c43 38 60 119 38 203z"/></svg>