<?xml version="1.0" encoding="iso-8859-1"?>
<!-- Generator: Adobe Illustrator 19.0.0, SVG Export Plug-In . SVG Version: 6.00 Build 0)  -->
<svg version="1.1" id="Capa_1" xmlns="http://www.w3.org/2000/svg" xmlns:xlink="http://www.w3.org/1999/xlink" x="0px" y="0px"
	 viewBox="0 0 503.894 503.894" style="enable-background:new 0 0 503.894 503.894;" xml:space="preserve">
<path style="fill:#7FB241;" d="M253.483,120.441c-72.72,6.416-126.336-47.216-119.936-119.92
	C206.267-5.895,259.883,47.737,253.483,120.441z"/>
<path style="fill:#8E6D53;" d="M256.267,171.097c-6.272-1.568-11.2-6.88-11.952-13.68c-3.44-31.152,5.472-61.76,25.056-86.208
	c19.6-24.448,47.552-39.808,78.688-43.232c8.736-0.944,16.576,5.344,17.52,14.064c0.96,8.72-5.328,16.56-14.048,17.536
	c-22.704,2.496-43.072,13.68-57.36,31.504s-20.768,40.128-18.272,62.832c0.96,8.736-5.328,16.576-14.064,17.552
	C259.915,171.689,258.043,171.545,256.267,171.097z"/>
<path style="fill:#E14B4B;" d="M374.075,120.249c-17.344-4.624-35.28-3.664-52.88,2c-45.216,14.576-93.296,14.576-138.512,0
	c-17.6-5.664-35.536-6.624-52.88-2c-69.248,18.448-102.656,118.624-74.64,223.76s106.848,175.392,176.096,156.944
	c0.08-0.016,0.144-0.032,0.224-0.064c13.456-3.632,27.472-3.632,40.928,0c0.08,0.016,0.144,0.032,0.224,0.064
	c69.232,18.448,148.08-51.824,176.096-156.944C476.731,238.873,443.307,138.697,374.075,120.249z"/>
<path style="fill:#D03F3F;" d="M448.715,343.993c-28,105.12-106.88,175.36-176.16,156.96h-0.16c-13.44-3.68-27.52-3.68-40.96,0
	h-0.16c-26.08,6.88-53.44,1.28-78.88-13.92c135.84-52.48,237.6-184.96,258.88-346.4
	C454.315,179.193,471.115,259.993,448.715,343.993z"/>
<g>
</g>
<g>
</g>
<g>
</g>
<g>
</g>
<g>
</g>
<g>
</g>
<g>
</g>
<g>
</g>
<g>
</g>
<g>
</g>
<g>
</g>
<g>
</g>
<g>
</g>
<g>
</g>
<g>
</g>
</svg>
