<svg xmlns="http://www.w3.org/2000/svg" version="1.1" xmlns:xlink="http://www.w3.org/1999/xlink" preserveAspectRatio="none" x="0px" y="0px" width="90px" height="46px" viewBox="0 0 90 46">
<defs>
	<g id="Layer0_0_MEMBER_0_FILL">
		<path fill="#1e2d44" stroke="none" d="
M 85.8 49.1
L 81.3 43.6
Q 79.65 43.5 77.75 43.05 73.95 42.1 72.9 40.4 68.75 34.25 74 27 79.45 19.35 91.55 16.7
L 53.75 14.8 100 14.8 100 11.1 47.75 11.1 47.75 25.1
Q 47.75 25.75 45.85 13.4
L 41.75 13.4 41.75 26.4 39.85 14.1 11.95 14.1
Q 24.8 24.9 31.85 28.4 34.3 29.6 37.9 30.05 40 30.3 44.25 30.4 46.35 30.5 47.35 30.75 49 31.15 50.05 32.2 51.8 33.9 52.05 36.2 52.35 38.6 50.85 40.5 49.65 42.15 46.5 43.1
L 43.55 43.7 39 49.1 39 55.5 49.25 55.5 49.55 49.2 58.5 42.9
Q 55.65 45.3 52.25 50.6 51.3 52.1 50.55 54.1 52.25 52.65 55.45 51.8 58.75 50.9 62.75 50.9 66.65 50.9 69.95 51.8 73.2 52.65 74.9 54.1 74.3 52.35 73.2 50.6 69.8 45.4 67 42.9
L 75.9 49.2 76.2 55.5 85.8 55.5 85.8 49.1 Z"/>
	</g>
</defs>

<g transform="matrix( 1, 0, 0, 1, -10.95,-10.3) ">
	<use xlink:href="#Layer0_0_MEMBER_0_FILL"/>
</g>
</svg>