<svg xmlns="http://www.w3.org/2000/svg" xmlns:xlink="http://www.w3.org/1999/xlink" preserveAspectRatio="none" viewBox="0 0 90 46"><defs><path id="a" fill="#fff" d="M85.8 49.1l-4.5-5.5q-1.65-.1-3.55-.55-3.8-.95-4.85-2.65Q68.75 34.25 74 27q5.45-7.65 17.55-10.3l-37.8-1.9H100v-3.7H47.75v14q0 .65-1.9-11.7h-4.1v13l-1.9-12.3h-27.9q12.85 10.8 19.9 14.3 2.45 1.2 6.05 1.65 2.1.25 6.35.35 2.1.1 3.1.35 1.65.4 2.7 1.45 1.75 1.7 2 4 .3 2.4-1.2 4.3-1.2 1.65-4.35 2.6l-2.95.6L39 49.1v6.4h10.25l.3-6.3 8.95-6.3q-2.85 2.4-6.25 7.7-.95 1.5-1.7 3.5 1.7-1.45 4.9-2.3 3.3-.9 7.3-.9 3.9 0 7.2.9 3.25.85 4.95 2.3-.6-1.75-1.7-3.5-3.4-5.2-6.2-7.7l8.9 6.3.3 6.3h9.6v-6.4z"/></defs><use transform="translate(-10.95 -10.3)" xlink:href="#a"/></svg>