<svg xmlns="http://www.w3.org/2000/svg" viewBox="0 0 24 24"><path fill="#2196f3" d="M13.9 3.6H3A2.6 2.6 0 00.6 6.2v11.6c0 1.4 1.1 2.6 2.5 2.6H14c1.4 0 2.5-1.2 2.5-2.6V6.2c0-1.4-1.1-2.6-2.5-2.6z"/><path fill="#1976d2" d="M11.9 2.1h-1a2.5 2.5 0 00-4.8 0h-1c-.3 0-.6.3-.6.7v1.8c0 .9.7 1.6 1.5 1.6h5c.8 0 1.6-.7 1.6-1.6V2.8c0-.4-.4-.7-.7-.7z"/><path fill="#4caf50" d="M17.5 23a5.5 5.5 0 110-11 5.5 5.5 0 010 11z"/><path d="M17.5 24a6.5 6.5 0 110-13 6.5 6.5 0 010 13zm0-11.5a5 5 0 100 10 5 5 0 000-10z"/><path d="M17.5 21a.8.8 0 01-.8-.8v-3.4a.8.8 0 011.6 0v3.4c0 .5-.4.8-.8.8z"/><circle cx="17.5" cy="14.8" r=".8"/><path d="M9.2 21H2.7A2.8 2.8 0 010 18.2V5.8C0 4.2 1.2 3 2.7 3h2a.8.8 0 010 1.5h-2c-.6 0-1.2.6-1.2 1.3v12.4c0 .7.6 1.3 1.2 1.3h6.5a.8.8 0 010 1.5zM16.3 9.6a.8.8 0 01-.8-.8v-3c0-.7-.6-1.3-1.3-1.3h-1.8a.8.8 0 010-1.5h1.8C15.8 3 17 4.2 17 5.8v3c0 .5-.3.8-.8.8z"/><path d="M11.3 6.5H5.7c-1 0-1.7-.8-1.7-1.8v-2c0-.4.3-.7.8-.7h1a2.8 2.8 0 015.3 0h1.2c.4 0 .7.3.7.8v2c0 1-.8 1.7-1.8 1.7zm-5.8-3v1.3s.1.2.3.2h5.5s.2-.1.2-.3V3.5h-1a.8.8 0 01-.8-.8 1.3 1.3 0 00-2.4 0c0 .5-.4.8-.8.8zM13.3 9.5H3.7a.8.8 0 010-1.5h9.6a.8.8 0 010 1.5zM11 12.5H3.6a.8.8 0 010-1.5H11a.8.8 0 010 1.5zM9.2 15.5H3.7a.8.8 0 010-1.5h5.5a.8.8 0 010 1.5z"/></svg>