<svg id="_x31__x2C_5" enable-background="new 0 0 24 24" height="512" viewBox="0 0 24 24" width="512" xmlns="http://www.w3.org/2000/svg"><path d="m13.861 3.609h-6.144-4.578c-1.417 0-2.564 1.147-2.564 2.564v9.081 2.573c0 1.417 1.147 2.564 2.564 2.564h6.144 4.578c1.417 0 2.564-1.147 2.564-2.564v-9.081-2.573c0-1.417-1.147-2.564-2.564-2.564z" fill="#2196f3"/><path d="m11.875 2.125h-.99c-.297-1.035-1.251-1.8-2.385-1.8s-2.088.765-2.385 1.8h-.99c-.369 0-.675.306-.675.675v1.8c0 .864.711 1.575 1.575 1.575h4.95c.864 0 1.575-.711 1.575-1.575v-1.8c0-.369-.306-.675-.675-.675z" fill="#1976d2"/><path d="m17.5 22.968c-3.015 0-5.467-2.453-5.467-5.468s2.453-5.467 5.467-5.467 5.468 2.453 5.468 5.467-2.453 5.468-5.468 5.468z" fill="#4caf50"/><path d="m17.5 24c-3.584 0-6.5-2.916-6.5-6.5s2.916-6.5 6.5-6.5 6.5 2.916 6.5 6.5-2.916 6.5-6.5 6.5zm0-11.5c-2.757 0-5 2.243-5 5s2.243 5 5 5 5-2.243 5-5-2.243-5-5-5z"/><path d="m17.5 21c-.414 0-.75-.336-.75-.75v-3.5c0-.414.336-.75.75-.75s.75.336.75.75v3.5c0 .414-.336.75-.75.75z"/><circle cx="17.5" cy="14.75" r=".75"/><path d="m9.19 21h-6.44c-1.516 0-2.75-1.233-2.75-2.75v-12.5c0-1.517 1.234-2.75 2.75-2.75h1.88c.414 0 .75.336.75.75s-.336.75-.75.75h-1.88c-.689 0-1.25.561-1.25 1.25v12.5c0 .689.561 1.25 1.25 1.25h6.44c.414 0 .75.336.75.75s-.336.75-.75.75z"/><path d="m16.25 9.59c-.414 0-.75-.336-.75-.75v-3.09c0-.689-.561-1.25-1.25-1.25h-1.87c-.414 0-.75-.336-.75-.75s.336-.75.75-.75h1.87c1.516 0 2.75 1.233 2.75 2.75v3.09c0 .414-.336.75-.75.75z"/><path d="m11.25 6.5h-5.5c-.965 0-1.75-.785-1.75-1.75v-2c0-.414.336-.75.75-.75h1.104c.327-1.153 1.39-2 2.646-2s2.319.847 2.646 2h1.104c.414 0 .75.336.75.75v2c0 .965-.785 1.75-1.75 1.75zm-5.75-3v1.25c0 .138.112.25.25.25h5.5c.138 0 .25-.112.25-.25v-1.25h-1c-.414 0-.75-.336-.75-.75 0-.689-.561-1.25-1.25-1.25s-1.25.561-1.25 1.25c0 .414-.336.75-.75.75z"/><path d="m13.25 9.5h-9.5c-.414 0-.75-.336-.75-.75s.336-.75.75-.75h9.5c.414 0 .75.336.75.75s-.336.75-.75.75z"/><path d="m10.92 12.5h-7.17c-.414 0-.75-.336-.75-.75s.336-.75.75-.75h7.17c.414 0 .75.336.75.75s-.336.75-.75.75z"/><path d="m9.19 15.5h-5.44c-.414 0-.75-.336-.75-.75s.336-.75.75-.75h5.44c.414 0 .75.336.75.75s-.336.75-.75.75z"/></svg>