<svg xmlns="http://www.w3.org/2000/svg" viewBox="0 0 58 58"><defs/><g fill="none" fill-rule="nonzero"><path fill="#35495e" d="M5.7 52.2L.2 20.7l-.1-1c-.1-3.5 2.5-6.6 6-7.2l10.7-1.8-.3 41.5z"/><path fill="#2c3e50" d="M47 50.8a2 2 0 01-1.7 1.5L13.8 58a7 7 0 01-8.2-6.6c0-3.4 2.3-6.4 5.6-7.1l8.9 2.4-8 1.4a3 3 0 00-2.3 4 3 3 0 003.5 2l24-4.3z"/><path fill="#f9eab0" d="M20 46.6L12.2 48a3 3 0 00-2.3 4 3 3 0 003.5 2l24-4.3z"/><path fill="#e64c3c" d="M12.8 33.2l5.6-31.5A2 2 0 0120.7 0L52 5.5a7.2 7.2 0 015.9 8.2l-5.6 31.5z"/><path fill="#3f5c6c" d="M45.4 10.5h-.1l-22.7-4a1 1 0 01.4-2l22.6 4a1 1 0 01-.2 2zM40.6 14.7h-.1L25.7 12a1 1 0 01.3-2l14.8 2.6a1 1 0 01-.2 2z"/><rect width="23" height="12" x="19.8" y="17.2" fill="#ecf0f1" rx="1" transform="rotate(10 31.3 23.2)"/><path fill="#c03a2b" d="M58 12.8l-.1.9-5.6 31.5-7.7-2.3 4.5-25.4 1-6 1.1-6h.8c3.5.6 6 3.7 6 7.3z"/><path fill="#802f34" d="M46.4 37l-31.3-5.4a2 2 0 00-.7 4L46 40.9a3 3 0 012.2 4.1 3 3 0 01-3.4 1.8l-31.4-5.5a2 2 0 10-.7 4l31.5 5.5a7 7 0 008.2-6.6c.1-3.6-2.4-6.7-6-7.2z"/><path fill="#f9eab0" d="M48.2 45.1a3 3 0 01-3.4 1.8l-31.4-5.5 1-6L46 41a3 3 0 012.2 4.1z"/></g></svg>