<?xml version="1.0" encoding="iso-8859-1"?>
<!-- Generator: Adobe Illustrator 19.0.0, SVG Export Plug-In . SVG Version: 6.00 Build 0)  -->
<svg version="1.1" id="Capa_1" xmlns="http://www.w3.org/2000/svg" xmlns:xlink="http://www.w3.org/1999/xlink" x="0px" y="0px"
	 viewBox="0 0 512 512" style="enable-background:new 0 0 512 512;" xml:space="preserve">
<polygon style="fill:#F9D366;" points="223.727,231.117 270.719,149.727 176.737,149.727 "/>
<polygon style="fill:#DD8833;" points="223.727,231.117 206.924,149.727 176.737,149.727 "/>
<g>
	<path style="fill:#9966CC;" d="M359.088,155.315c-4.326,0-7.832-3.506-7.832-7.832v-20.361c0-4.325,3.505-7.832,7.832-7.832
		s7.832,3.506,7.832,7.832v20.361C366.92,151.809,363.413,155.315,359.088,155.315z"/>
	<path style="fill:#9966CC;" d="M359.088,210.133c-4.326,0-7.832-3.506-7.832-7.832v-20.361c0-4.325,3.505-7.832,7.832-7.832
		s7.832,3.506,7.832,7.832v20.361C366.92,206.627,363.413,210.133,359.088,210.133z"/>
	<path style="fill:#9966CC;" d="M396.679,172.544h-20.361c-4.326,0-7.832-3.506-7.832-7.832c0-4.325,3.505-7.832,7.832-7.832h20.361
		c4.326,0,7.832,3.506,7.832,7.832C404.51,169.037,401.004,172.544,396.679,172.544z"/>
	<path style="fill:#9966CC;" d="M341.86,172.544h-20.361c-4.326,0-7.832-3.506-7.832-7.832c0-4.325,3.505-7.832,7.832-7.832h20.361
		c4.326,0,7.832,3.506,7.832,7.832C349.691,169.037,346.185,172.544,341.86,172.544z"/>
</g>
<path style="fill:#F9D366;" d="M354.826,499.212H118.219c41.706-13.596,64.386-40.056,76.206-60.407
	c2.527-4.344,4.563-8.416,6.171-12.019l70.181-3.947c1.357,3.341,3.122,7.257,5.399,11.549
	C287.192,455.168,310.04,484.604,354.826,499.212z"/>
<path style="fill:#DD8833;" d="M236.523,424.771l-11.768,2.015c-3.007,20.487-10.411,55.928-26.982,72.426h-79.558
	c50.623-16.498,73.209-51.939,82.378-72.426L236.523,424.771z"/>
<path style="fill:#DDAC33;" d="M247.917,424.124l-11.392,0.647l11.215-1.932C247.79,423.257,247.854,423.685,247.917,424.124z"/>
<path style="fill:#F9D366;" d="M161.849,280.2c10.202-34.981,34.062-59.52,61.88-59.52c28.277,0,52.482,25.364,62.381,61.295
	l-63.776,40.94L161.849,280.2z"/>
<path style="fill:#DD8833;" d="M223.979,281.088l-62.13-0.888c10.202-34.981,34.062-59.52,61.88-59.52h0.125
	c-9.617,0.073-17.856,29.813-21.385,64.741L223.979,281.088z"/>
<path style="fill:#F9D366;" d="M512,233.826c0,0-26.081,3.197-58.056,35.173c-31.975,31.976-57.556,158.277-238.205,158.277
	c-91.488,0-119.016-50.431-123.9-100.217c-2.467-25.148,17.508-46.869,42.776-46.869h23.569c105.518,0,193.439,17.587,257.39-46.364
	H512z"/>
<g>
	<path style="fill:#DD8833;" d="M276.176,434.388c-17.96,3.467-38.009,5.419-60.439,5.419c-7.529,0-14.629-0.345-21.312-1.002
		c2.527-4.344,4.563-8.416,6.171-12.019l30.645-19.337l39.536,15.39C272.135,426.181,273.9,430.096,276.176,434.388z"/>
	<path style="fill:#DD8833;" d="M265.859,386.553c-91.488,0-119.016-50.431-123.9-100.217c-0.204-2.077-0.24-4.127-0.147-6.146
		h-7.196c-25.268,0-45.243,21.722-42.776,46.869c4.884,49.786,32.411,100.217,123.9,100.217c92.965,0,144.86-33.449,177.696-70.277
		C362.488,374.541,321.55,386.553,265.859,386.553z"/>
	<path style="fill:#DD8833;" d="M66.9,422.313c-4.326,0-7.832-3.506-7.832-7.832s3.505-7.832,7.832-7.832
		c6.069,0,9.806-2.346,11.426-7.172c3.599-10.721-3.497-35.024-30.54-55.489C6.246,312.553-5.15,269.78,1.984,241.336
		c4.799-19.135,17.526-31.683,34.919-34.425c16.389-2.582,30.252,0.85,41.2,10.208c19.783,16.908,29.399,52.869,29.399,109.94
		c0,4.325-3.505,7.832-7.832,7.832s-7.832-3.506-7.832-7.832c0-51.49-8.045-84.472-23.911-98.033
		c-7.412-6.333-16.758-8.508-28.585-6.642c-14.909,2.351-20.288,15.272-22.167,22.764c-8.115,32.359,15.077,67.446,40.061,86.354
		c14.033,10.62,24.889,23.415,31.392,37.004c6.299,13.161,7.913,25.932,4.546,35.96C89.366,415.806,79.789,422.313,66.9,422.313z"/>
</g>
<g>
	<path style="fill:#CF8BFC;" d="M160.976,64.942c-2.459,0-4.88-1.154-6.405-3.315c-2.495-3.534-1.652-8.42,1.882-10.915
		c1.526-1.077,3.039-2.151,4.544-3.219c25.148-17.848,48.9-34.705,86.89-34.705c31.215,0,50.641,11.39,64.078,21.313
		c3.479,2.569,4.218,7.472,1.648,10.953c-2.571,3.479-7.472,4.218-10.952,1.648c-12.22-9.024-28.286-18.25-54.774-18.25
		c-32.996,0-53.769,14.744-77.824,31.816c-1.516,1.076-3.041,2.157-4.577,3.242C164.113,64.477,162.536,64.942,160.976,64.942z"/>
	<path style="fill:#CF8BFC;" d="M437.395,205.437c-1.137,0-2.29-0.249-3.383-0.774c-3.899-1.871-5.544-6.549-3.672-10.449
		c10.67-22.227,11.052-48.775,0.975-67.635c-8.39-15.704-23.73-25.562-44.358-28.509c-29.926-4.275-48.947-21.073-64.232-34.57
		c-3.241-2.863-3.548-7.812-0.686-11.054c2.863-3.243,7.812-3.549,11.055-0.686c15.138,13.368,30.792,27.192,56.078,30.804
		c32.558,4.652,48.401,22.489,55.958,36.634c12.35,23.115,12.087,55.221-0.668,81.795
		C443.113,203.799,440.313,205.437,437.395,205.437z"/>
	<path style="fill:#CF8BFC;" d="M493.785,155.315c-4.326,0-7.832-3.506-7.832-7.832c0-68.461-51.877-93.973-84.577-93.973
		c-4.326,0-7.832-3.506-7.832-7.832s3.505-7.832,7.832-7.832c22.533,0,46.783,9.432,64.866,25.232
		c16.137,14.099,35.374,40.187,35.374,84.405C501.616,151.809,498.11,155.315,493.785,155.315z"/>
</g>
<path style="fill:#9966CC;" d="M122.987,92.63l16.491-3.344c7.786-1.579,7.786-12.705,0-14.284l-16.491-3.344
	c-16.251-3.294-28.952-15.995-32.246-32.246l-3.344-16.491c-1.579-7.786-12.705-7.786-14.284,0L69.77,39.413
	C66.475,55.664,53.774,68.365,37.523,71.66l-16.491,3.344c-7.786,1.579-7.786,12.705,0,14.284l16.491,3.344
	c16.251,3.294,28.952,15.995,32.246,32.246l3.344,16.491c1.579,7.786,12.705,7.786,14.284,0l3.344-16.491
	C94.035,108.626,106.736,95.925,122.987,92.63z"/>
<path style="fill:#FFDB82;" d="M340.814,307.806c0,9.083-23.141,26.888-51.686,26.888s-51.686-17.806-51.686-26.888
	s23.141-6.003,51.686-6.003C317.674,301.803,340.814,298.724,340.814,307.806z"/>
<g>
</g>
<g>
</g>
<g>
</g>
<g>
</g>
<g>
</g>
<g>
</g>
<g>
</g>
<g>
</g>
<g>
</g>
<g>
</g>
<g>
</g>
<g>
</g>
<g>
</g>
<g>
</g>
<g>
</g>
</svg>
