<svg xmlns="http://www.w3.org/2000/svg" viewBox="0 0 512 512"><path fill="#f9d366" d="M224 231l47-81h-94z"/><path fill="#d83" d="M224 231l-17-81h-30z"/><g fill="#96c"><path d="M359 155c-4 0-8-3-8-8v-20a8 8 0 1116 0v20c0 5-4 8-8 8zM359 210c-4 0-8-3-8-8v-20a8 8 0 1116 0v20c0 5-4 8-8 8zM397 173h-21a8 8 0 110-16h21a8 8 0 110 16zM342 173h-21a8 8 0 110-16h21a8 8 0 110 16z"/></g><path fill="#f9d366" d="M355 499H118a134 134 0 0083-72l70-4 5 11c11 21 34 51 79 65z"/><path fill="#d83" d="M237 425l-12 2c-3 20-11 56-27 72h-80c51-16 73-52 83-72l36-2z"/><path fill="#ddac33" d="M248 424l-11 1 11-2v1z"/><path fill="#f9d366" d="M162 280c10-35 34-59 62-59s52 25 62 61l-64 41-60-43z"/><path fill="#d83" d="M224 281l-62-1c10-35 34-59 62-59-10 0-18 29-22 64l22-4z"/><path fill="#f9d366" d="M512 234s-26 3-58 35-58 158-238 158c-92 0-119-50-124-100-3-25 17-47 43-47h23c106 0 194 18 258-46h96z"/><g fill="#d83"><path d="M276 434a319 319 0 01-82 5l7-12 30-20 40 16 5 11z"/><path d="M266 387c-92 0-119-51-124-101v-6h-7c-26 0-46 22-43 47 5 50 32 100 124 100 93 0 145-33 177-70-31 18-71 30-127 30z"/><path d="M67 422a8 8 0 110-15c6 0 10-3 11-8 4-10-3-35-30-55C6 313-5 270 2 241c5-19 18-31 35-34 16-3 30 1 41 10 20 17 30 53 30 110a8 8 0 11-16 0c0-51-8-84-24-98-7-6-17-8-29-7-15 3-20 16-22 23-8 33 15 68 40 87 14 10 25 23 32 37 6 13 8 25 4 35-4 12-13 18-26 18z"/></g><g fill="#cf8bfc"><path d="M161 65a8 8 0 01-5-14l5-4c25-17 49-34 87-34 31 0 51 11 64 21a8 8 0 01-9 13c-13-9-29-19-55-19-33 0-54 15-78 32a2487 2487 0 01-9 5zM437 205h-3c-4-2-6-7-4-11 11-22 11-49 1-67-8-16-23-26-44-29-30-4-49-21-64-35a8 8 0 0110-11c15 13 31 27 56 31 33 4 49 22 56 36 12 23 12 55-1 82-1 3-4 4-7 4zM494 155c-5 0-8-3-8-8 0-68-52-93-85-93a8 8 0 110-16c23 0 47 9 65 25 16 14 36 40 36 84 0 5-4 8-8 8z"/></g><path fill="#96c" d="M123 93l16-4c8-1 8-12 0-14l-16-3c-16-4-29-16-32-33l-4-16c-1-8-12-8-14 0l-3 16c-4 17-16 29-32 33l-17 3c-8 2-8 13 0 14l17 4c16 3 28 16 32 32l3 16c2 8 13 8 14 0l4-16c3-16 16-29 32-32z"/><path fill="#ffdb82" d="M341 308c0 9-23 27-52 27s-52-18-52-27 24-6 52-6c29 0 52-3 52 6z"/></svg>