<svg xmlns="http://www.w3.org/2000/svg" viewBox="0 0 512 512"><path fill="#e53935" d="M491 129v254c0 13-7 24-19 30l-202 96a33 33 0 01-28 0L40 413c-12-6-19-17-19-30V129a33 33 0 0119-30L242 3c9-4 19-4 28 0l202 96a32 32 0 0119 30z"/><path fill="#d32f2f" d="M486 111c-4-5-8-9-14-12L270 3c-9-4-19-4-28 0l-1 1 200 95a32 32 0 0119 30v254c0 13-7 24-19 30l-200 95 1 1a33 33 0 0028 0l202-96c12-6 19-17 19-30V129c0-7-2-13-5-18z"/><path fill="#f44336" d="M256 220v292c-5 0-10-1-14-3L40 413c-12-6-19-17-19-30V129c0-7 2-13 5-18z"/><path fill="#d32f2f" d="M491 129v254c0 12-7 24-18 29l-1 1-202 96c-4 2-9 3-14 3V220l230-109c3 5 5 11 5 18z"/><path fill="#c62828" d="M486 111l-26 12v260c0 12-7 24-18 29l-1 1-185 88v11c5 0 10-1 14-3l202-96 1-1c11-5 18-17 18-29V129c0-7-2-13-5-18z"/><g fill="#f1f1f1"><ellipse cx="389.6" cy="306.5" rx="26.7" ry="19.7" transform="rotate(-82 390 306)"/><ellipse cx="190.5" cy="263.3" rx="19.6" ry="26.7" transform="rotate(-3 189 261)"/><ellipse cx="78.3" cy="360.2" rx="19.6" ry="26.7" transform="rotate(-3 78 357)"/><ellipse cx="161.1" cy="104.2" rx="26.7" ry="19.6" transform="rotate(-3 160 103)"/><ellipse cx="253.7" cy="58.5" rx="26.7" ry="19.6" transform="rotate(-3 251 58)"/><ellipse cx="350.6" cy="107.5" rx="26.7" ry="19.6" transform="rotate(-3 347 107)"/><ellipse cx="260.2" cy="150" rx="26.7" ry="19.6" transform="rotate(-3 258 149)"/></g></svg>