<svg xmlns="http://www.w3.org/2000/svg" viewBox="0 0 512 512"><path fill="#E3E9ED" d="M310 190a10 10 0 100 20 10 10 0 000-20z" class="active-path" data-old_color="#000" data-original="#000"/><path fill="#E3E9ED" d="M500 444L367 310a200 200 0 10-57 57l37 37 97 96a40 40 0 0056 0 40 40 0 000-56zm-194-98a180 180 0 1140-40c-11 15-25 29-40 40zm21 9l28-28 28 28c-8 10-18 20-28 28l-28-28zm159 131a20 20 0 01-28 0l-89-89c10-8 20-18 28-28l89 89a20 20 0 010 28z" class="active-path" data-old_color="#000" data-original="#000"/><path fill="#E3E9ED" d="M200 40a160 160 0 100 320 160 160 0 000-320zm0 300a140 140 0 110-280 140 140 0 010 280z" class="active-path" data-old_color="#000" data-original="#000"/><path fill="#E3E9ED" d="M312 157a120 120 0 00-112-77 10 10 0 000 20c41 0 79 26 93 64a10 10 0 1019-7z" class="active-path" data-old_color="#000" data-original="#000"/></svg>