<svg xmlns="http://www.w3.org/2000/svg" viewBox="0 0 480 480"><defs/><path fill="#ffaa64" d="M472 61v41c0 18-14 32-32 32h-2v285c0 18-14 32-32 32H74c-18 0-32-14-32-32V134h-2c-18 0-32-14-32-32V61c0-18 14-32 32-32h400c18 0 32 14 32 32z"/><path fill="#ffbd7b" d="M472 61v41c0 18-14 32-32 32H40c-18 0-32-14-32-32V61c0-18 14-32 32-32h400c18 0 32 14 32 32z"/><path fill="#fa9a4b" d="M320 217v10c0 13-11 24-24 24H184c-13 0-24-11-24-24v-10c0-13 11-24 24-24h112c13 0 24 11 24 24z"/><path fill="#ffd3a6" d="M440 69H80c-18 0-32 14-32 32v1c0 26-39 27-40 2V61c0-18 14-32 32-32h400c28 0 26 40 0 40z"/><path fill="#faa157" d="M42 134h396v35H42z"/><path d="M480 61v41c0 22-18 40-40 40h-15a8 8 0 010-16h15c13 0 24-11 24-24V61c0-13-11-24-24-24H40c-13 0-24 11-24 24v41c0 13 11 24 24 24h333a8 8 0 010 16H50v277c0 13 11 24 24 24h332c13 0 24-11 24-24V177a8 8 0 0116 0v242c0 22-18 40-40 40H74c-22 0-40-18-40-40V142c-19-3-34-20-34-40V61c0-22 18-40 40-40h400c22 0 40 18 40 40zM184 259c-18 0-32-14-32-32v-10c0-18 14-32 32-32h112c18 0 32 14 32 32v10c0 18-14 32-32 32zm0-16h112c9 0 16-7 16-16v-10c0-9-7-16-16-16H184c-9 0-16 7-16 16v10c0 9 7 16 16 16zm-24 102h-56a8 8 0 000 16h56a8 8 0 000-16zm0 40h-56a8 8 0 000 16h56a8 8 0 000-16z"/></svg>