<svg id="Layer_1" enable-background="new 0 0 480 480" height="512" viewBox="0 0 480 480" width="512" xmlns="http://www.w3.org/2000/svg"><path d="m472 60.88v41.23c0 17.68-14.33 32-32 32h-2v285.01c0 17.68-14.33 32-32 32h-332c-17.67 0-32-14.32-32-32v-285.01h-2c-17.67 0-32-14.32-32-32v-41.23c0-17.68 14.33-32 32-32h400c17.67 0 32 14.32 32 32z" fill="#ffaa64"/><path d="m472 60.88v41.23c0 17.68-14.33 32-32 32-18.763 0-381.015 0-400 0-17.67 0-32-14.32-32-32v-41.23c0-17.68 14.33-32 32-32h400c17.67 0 32 14.32 32 32z" fill="#ffbd7b"/><path d="m320 217v10c0 13.25-10.75 24-24 24h-112c-13.25 0-24-10.75-24-24v-10c0-13.25 10.75-24 24-24h112c13.25 0 24 10.75 24 24z" fill="#fa9a4b"/><path d="m440.119 68.88h-360.119c-17.673 0-32 14.327-32 32v1.35c0 25.762-38.767 27.127-39.965 1.393-.057-1.235-.035-43.743-.035-42.743 0-17.673 14.327-32 32-32h400c27.503 0 26.19 40 .119 40z" fill="#ffd3a6"/><path d="m42 134.11h396v35.33h-396z" fill="#faa157"/><path d="m480 60.876v41.237c0 22.056-17.944 40-40 40h-15.5c-4.418 0-8-3.582-8-8s3.582-8 8-8h15.5c13.233 0 24-10.767 24-24v-41.237c0-13.233-10.767-24-24-24h-400c-13.233 0-24 10.767-24 24v41.237c0 13.233 10.767 24 24 24h333c4.418 0 8 3.582 8 8s-3.582 8-8 8h-323v277.011c0 13.233 10.767 24 24 24h332c13.233 0 24-10.767 24-24v-242.124c0-4.418 3.582-8 8-8s8 3.582 8 8v242.124c0 22.056-17.944 40-40 40h-332c-22.056 0-40-17.944-40-40v-277.462c-19.219-2.904-34-19.532-34-39.549v-41.237c0-22.056 17.944-40 40-40h400c22.056 0 40 17.944 40 40zm-296 198.124c-17.645 0-32-14.355-32-32v-10c0-17.645 14.355-32 32-32h112c17.645 0 32 14.355 32 32v10c0 17.645-14.355 32-32 32zm0-16h112c8.822 0 16-7.178 16-16v-10c0-8.822-7.178-16-16-16h-112c-8.822 0-16 7.178-16 16v10c0 8.822 7.178 16 16 16zm-24 102h-56c-4.418 0-8 3.582-8 8s3.582 8 8 8h56c4.418 0 8-3.582 8-8s-3.582-8-8-8zm0 40h-56c-4.418 0-8 3.582-8 8s3.582 8 8 8h56c4.418 0 8-3.582 8-8s-3.582-8-8-8z"/></svg>