<?xml version="1.0"?>
<svg xmlns="http://www.w3.org/2000/svg" xmlns:xlink="http://www.w3.org/1999/xlink" version="1.1" id="Capa_1" x="0px" y="0px" viewBox="0 0 490.544 490.544" style="enable-background:new 0 0 490.544 490.544;" xml:space="preserve" width="512px" height="512px" class="hovered-paths"><g><g>
	<path style="fill:#FFFFFF" d="M18.098,274.151L245.213,47.015l227.115,227.136c4.237,4.093,10.99,3.975,15.083-0.262   c3.993-4.134,3.993-10.687,0-14.821L252.744,24.401c-4.165-4.164-10.917-4.164-15.083,0L2.994,259.068   c-4.093,4.237-3.975,10.99,0.262,15.083c4.134,3.992,10.687,3.992,14.82,0H18.098z" data-original="#607D8B" class="hovered-path active-path" data-old_color="#607D8B"/>
	<path style="fill:#FFFFFF" d="M252.765,216.38c-4.165-4.164-10.917-4.164-15.083,0L3.016,451.047   c-4.093,4.237-3.976,10.99,0.262,15.083c4.134,3.993,10.687,3.993,14.821,0l227.115-227.115l227.115,227.136   c4.237,4.093,10.99,3.976,15.083-0.261c3.993-4.134,3.993-10.688,0-14.821L252.765,216.38z" data-original="#607D8B" class="hovered-path active-path" data-old_color="#607D8B"/>
</g><path d="M479.88,277.266c-2.831,0.005-5.548-1.115-7.552-3.115L245.213,47.015L18.098,274.151  c-4.237,4.093-10.99,3.975-15.083-0.262c-3.992-4.134-3.992-10.687,0-14.82L237.682,24.401c4.165-4.164,10.917-4.164,15.083,0  l234.667,234.667c4.159,4.172,4.148,10.926-0.024,15.085C485.409,276.146,482.702,277.265,479.88,277.266z" data-original="#000000" class="" style="fill:#FFFFFF" data-old_color="#000000"/><path d="M479.88,469.266c-2.831,0.005-5.548-1.115-7.552-3.115L245.213,239.015L18.098,466.151  c-4.237,4.093-10.99,3.976-15.083-0.262c-3.993-4.134-3.993-10.687,0-14.821l234.667-234.667c4.165-4.164,10.917-4.164,15.083,0  l234.667,234.667c4.159,4.172,4.148,10.926-0.024,15.085C485.409,468.146,482.702,469.265,479.88,469.266z" data-original="#000000" class="" style="fill:#FFFFFF" data-old_color="#000000"/></g> </svg>
