<svg id="Capa_1" enable-background="new 0 0 512 512" height="512" viewBox="0 0 512 512" width="512" xmlns="http://www.w3.org/2000/svg"><g><circle cx="256" cy="256" fill="#fe8205" r="256"/><path d="m512 256c0-140.61-115.39-256-256-256v512c140.61 0 256-115.39 256-256z" fill="#fa5d0f"/><path d="m256 61c-107.52 0-195 87.48-195 195s87.48 196 195 196 195-88.48 195-196-87.48-195-195-195z" fill="#f0f7ff"/><path d="m451 256c0-107.52-87.48-195-195-195v391c107.52 0 195-88.48 195-196z" fill="#dfe7f4"/><path d="m256 121c-8.291 0-15 6.709-15 15v150c0 8.291 6.709 15 15 15s15-6.709 15-15v-150c0-8.291-6.709-15-15-15z" fill="#575f64"/><path d="m271 286v-150c0-8.291-6.709-15-15-15v180c8.291 0 15-6.709 15-15z" fill="#474f54"/><path d="m346 241h-90-30c-8.291 0-15 6.709-15 15s6.709 15 15 15h30 90c8.291 0 15-6.709 15-15s-6.709-15-15-15z" fill="#575f64"/><path d="m361 256c0-8.291-6.709-15-15-15h-90v30h90c8.291 0 15-6.709 15-15z" fill="#474f54"/></g></svg>