<svg xmlns="http://www.w3.org/2000/svg" viewBox="0 0 468.1 468.1"><defs/><path fill="#dc8744" d="M28 363L9.4 424 .6 452.5c-2.9 9.2 5.8 18 15 15l28.6-8.7 60.9-18.7-77-77z"/><path fill="#3a556a" d="M44.2 458.8l-28.5 8.8c-9.3 2.8-18-5.9-15.1-15.1L9.3 424l34.9 34.8z"/><path fill="#fcd462" d="M387.5 80.6l-321 321L28.2 363 349 42z"/><path fill="#f6c358" d="M426 119.2l-321 321-38.5-38.6 321-321z"/><path fill="#e56353" d="M426 119.1l-77-77 38.4-38.4a12.5 12.5 0 0117.7 0L464.5 63a12.5 12.5 0 010 17.7L426 119z"/><g fill="#ebf0f3"><path d="M406.2 138.9l-12.9 12.9-77-77 13-12.9zM380.6 164.6l-12.9 12.9-77-77 12.9-12.9z"/></g></svg>