<?xml version="1.0" encoding="iso-8859-1"?>
<!-- Generator: Adobe Illustrator 19.0.0, SVG Export Plug-In . SVG Version: 6.00 Build 0)  -->
<svg version="1.1" id="Capa_1" xmlns="http://www.w3.org/2000/svg" xmlns:xlink="http://www.w3.org/1999/xlink" x="0px" y="0px"
	 viewBox="0 0 468.134 468.134" style="enable-background:new 0 0 468.134 468.134;" xml:space="preserve">
<path style="fill:#DC8744;" d="M28.06,363.046L9.317,423.983l-8.763,28.468c-2.859,9.288,5.842,17.989,15.13,15.129l28.467-8.763
	l60.939-18.743L28.06,363.046z"/>
<path style="fill:#3A556A;" d="M44.151,458.817l-28.467,8.763c-9.288,2.859-17.988-5.841-15.129-15.129l8.763-28.468L44.151,458.817
	z"/>
<rect x="-19.151" y="194.604" transform="matrix(-0.7071 0.7071 -0.7071 -0.7071 511.5694 231.7721)" style="fill:#FCD462;" width="453.868" height="54.465"/>
<rect x="19.36" y="233.116" transform="matrix(-0.7071 0.7071 -0.7071 -0.7071 604.5447 270.2841)" style="fill:#F6C358;" width="453.868" height="54.465"/>
<path style="fill:#E56353;" d="M426.039,119.122L349.01,42.094l38.436-38.436c4.877-4.877,12.784-4.877,17.66,0l59.368,59.368
	c4.877,4.877,4.877,12.784,0,17.66L426.039,119.122z"/>
<g>
	
		<rect x="352.212" y="52.373" transform="matrix(-0.7071 0.7071 -0.7071 -0.7071 692.3092 -73.0846)" style="fill:#EBF0F3;" width="18.157" height="108.937"/>
	
		<rect x="326.525" y="78.036" transform="matrix(-0.7071 0.7071 -0.7071 -0.7071 666.604 -11.1108)" style="fill:#EBF0F3;" width="18.157" height="108.937"/>
</g>
<g>
</g>
<g>
</g>
<g>
</g>
<g>
</g>
<g>
</g>
<g>
</g>
<g>
</g>
<g>
</g>
<g>
</g>
<g>
</g>
<g>
</g>
<g>
</g>
<g>
</g>
<g>
</g>
<g>
</g>
</svg>
