<svg xmlns="http://www.w3.org/2000/svg" viewBox="0 0 498 498"><path fill="#e9a52d" d="M301 36c-2-9-10-15-19-15h-66c-9 0-17 6-19 15l-21 71-2 40-19 32-17 60-1 39-20 34-36 124 170 10 166-10-36-124-20-37-1-36-17-60-21-36v-36z"/><g fill="#e69824"><path d="M301 36c-2-9-10-15-19-15h-30c9 0 17 6 19 15l116 400 15 10 15-10-36-124-20-37-1-36-17-60-20-34-1-38z"/><path d="M495 477H3c-2 0-3-1-3-3v-27c0-6 5-11 11-11h476c6 0 11 5 11 11v27c0 2-1 3-3 3z"/></g><path fill="#e18720" d="M487 436h-30c6 0 11 5 11 11v27c0 2-1 3-3 3h30c2 0 3-1 3-3v-27c0-6-5-11-11-11z"/><path fill="#f7f7f7" d="M155 179h188l-21-72H176zM381 312l-21-73H138l-21 73z"/><path fill="#e8e8e8" d="M322 107h-30l21 72h30zM360 239h-30l21 73h30z"/></svg>