<svg id="Capa_1" enable-background="new 0 0 498.058 498.058" height="512" viewBox="0 0 498.058 498.058" width="512" xmlns="http://www.w3.org/2000/svg"><g><g><g><path d="m495.091 477.345h-492.124c-1.639 0-2.967-1.329-2.967-2.967v-27.127c0-6.233 5.053-11.286 11.286-11.286h475.487c6.233 0 11.286 5.053 11.286 11.286v27.127c-.001 1.639-1.329 2.967-2.968 2.967z" fill="#f7f7f7"/></g></g><g><g><path d="m301.44 35.538c-2.537-8.78-10.576-14.825-19.715-14.825h-32.695-32.696c-9.14 0-17.178 6.044-19.715 14.825l-20.54 71.078-1.797 40.822-19.144 31.642-17.351 60.041-1.241 38.897-19.7 33.567-35.944 124.38 169.676 10 166.578-10-35.944-124.38-20.47-36.232-.47-36.232-17.351-60.041-20.47-36.232-.47-36.232z" fill="#e9a52d"/></g></g><g><g><path d="m301.44 35.538c-2.537-8.78-10.576-14.825-19.715-14.825h-30c9.14 0 17.178 6.044 19.715 14.825l115.716 400.427 14.888 10 15.112-10-35.944-124.38-20.47-36.232-.47-36.232-17.351-60.041-19.957-34.457-.983-38.007z" fill="#e69824"/></g></g><g><g><path d="m495.091 477.345h-492.124c-1.639 0-2.967-1.329-2.967-2.967v-27.127c0-6.233 5.053-11.286 11.286-11.286h475.487c6.233 0 11.286 5.053 11.286 11.286v27.127c-.001 1.639-1.329 2.967-2.968 2.967z" fill="#e69824"/></g></g><g><g><path d="m486.773 435.965h-30c6.233 0 11.286 5.053 11.286 11.286v27.127c0 1.639-1.329 2.967-2.967 2.967h30c1.639 0 2.967-1.329 2.967-2.967v-27.127c-.001-6.233-5.054-11.286-11.286-11.286z" fill="#e18720"/></g></g><g><g><path d="m155.137 179.08h187.784l-20.941-72.464h-145.902z" fill="#f7f7f7"/></g></g><g><g><path d="m321.98 106.616h-30l20.941 72.464h30z" fill="#e8e8e8"/></g></g><g><g><path d="m381.212 311.585-20.94-72.464h-222.485l-20.941 72.464z" fill="#f7f7f7"/></g></g><g><g><path d="m360.272 239.121h-30l20.94 72.464h30z" fill="#e8e8e8"/></g></g></g></svg>