<svg xmlns="http://www.w3.org/2000/svg" viewBox="0 0 408 408"><path fill="#ed664c" d="M56 56c3-4 8-6 14-6l131-4c9 0 17 3 23 9l165 166c13 12 13 32 0 44L265 389a31 31 0 01-44 0L55 224c-6-6-9-14-9-23l4-131c0-6 2-11 6-14zm181 284l103-103-89-89-103 103 89 89zm-66-205a35 35 0 10-71 0 35 35 0 0071 0z"/><path fill="#fdc75b" d="M340 237L237 340l-89-89 103-103z"/><path d="M231 48c-8-8-19-12-30-12L70 40c-5 0-9 1-13 3L17 3A10 10 0 103 17l40 40c-2 4-3 8-3 13l-4 131c0 11 4 22 12 30l166 165a41 41 0 0058 0l124-124c16-16 16-42 0-58L231 48zm151 210L258 382c-8 9-22 9-30 0L63 217c-5-4-7-10-7-16l4-127 37 37a45 45 0 1014-14L74 59l128-3c6 0 11 2 15 6l165 166c9 8 9 22 0 30zM110 135a25 25 0 1151 0 25 25 0 01-51 0z"/><path d="M258 141c-4-4-11-4-14 0L141 243c-4 4-4 11 0 15l89 88c2 2 4 3 7 3s5-1 7-3l103-102c2-2 3-5 3-7l-3-7-89-89zm-21 184l-75-74 89-89 75 75-89 88z"/></svg>