<?xml version="1.0" encoding="iso-8859-1"?>
<!-- Generator: Adobe Illustrator 19.0.0, SVG Export Plug-In . SVG Version: 6.00 Build 0)  -->
<svg version="1.1" id="Capa_1" xmlns="http://www.w3.org/2000/svg" xmlns:xlink="http://www.w3.org/1999/xlink" x="0px" y="0px"
	 viewBox="0 0 408.425 408.425" style="enable-background:new 0 0 408.425 408.425;" xml:space="preserve">
<path style="fill:#ED664C;" d="M55.737,55.725c3.7-3.7,8.7-6,14.3-6.1l131.1-3.4c8.6-0.2,16.9,3.1,23,9.2l165.2,165.2
	c12.3,12.3,12.3,32.2,0,44.5l-124.2,124.2c-12.3,12.3-32.2,12.3-44.5,0l-165.2-165.2c-6.1-6.1-9.4-14.4-9.2-23l3.4-131.1
	C49.737,64.425,52.038,59.325,55.737,55.725z M236.938,339.525l102.7-102.7l-89-89l-102.7,102.7L236.938,339.525z M170.538,135.225
	c0-19.5-15.8-35.4-35.4-35.4s-35.4,15.9-35.4,35.4s15.9,35.4,35.4,35.4S170.538,154.725,170.538,135.225z"/>
<polygon style="fill:#FDC75B;" points="339.537,236.925 236.938,339.525 147.938,250.525 250.537,147.925 "/>
<path d="M231.137,48.325c-8-8-19-12.4-30.3-12.1l-131,3.4c-4.6,0.1-8.9,1.2-12.9,3.1l-39.9-39.8c-3.9-3.9-10.2-3.9-14.1,0
	s-3.9,10.2,0,14.1l39.8,39.8c-1.9,4-3,8.4-3.1,12.9l-3.4,131.1c-0.3,11.3,4.1,22.3,12.1,30.3l165.2,165.2
	c8.1,8.1,18.7,12.1,29.3,12.1c10.6,0,21.2-4,29.3-12.1l124.2-124.2l0,0c16.1-16.2,16.1-42.5,0-58.6L231.137,48.325z
	 M382.237,258.025l-124.2,124.2c-8.4,8.4-22,8.4-30.3,0l-165.2-165.2c-4.1-4.1-6.4-9.8-6.2-15.7l3.3-127.7l37.3,37.3
	c-4.4,7-7,15.3-7,24.2c0,25,20.4,45.4,45.4,45.4s45.4-20.3,45.4-45.4c0-25-20.3-45.4-45.4-45.4c-8.9,0-17.2,2.6-24.2,7l-37.3-37.3
	l127.7-3.3c0.2,0,0.3,0,0.5,0c5.7,0,11.2,2.3,15.2,6.2l165,165.4C390.537,236.025,390.537,249.625,382.237,258.025z
	 M109.838,135.225c0-14,11.4-25.4,25.4-25.4s25.4,11.4,25.4,25.4s-11.4,25.4-25.4,25.4
	C121.238,160.525,109.838,149.225,109.838,135.225z"/>
<path d="M257.637,140.825c-3.9-3.9-10.2-3.9-14.1,0l-102.7,102.6c-3.9,3.9-3.9,10.2,0,14.1l89,88.9c1.9,1.9,4.4,2.8,7.1,2.8l0,0
	c2.7,0,5.2-0.9,7.1-2.8l102.7-102.6c1.9-1.9,2.9-4.4,2.9-7s-1.1-5.2-2.9-7L257.637,140.825z M236.938,325.425l-74.8-74.9l88.5-88.5
	l74.9,74.8L236.938,325.425z"/>
<g>
</g>
<g>
</g>
<g>
</g>
<g>
</g>
<g>
</g>
<g>
</g>
<g>
</g>
<g>
</g>
<g>
</g>
<g>
</g>
<g>
</g>
<g>
</g>
<g>
</g>
<g>
</g>
<g>
</g>
</svg>
