<svg xmlns="http://www.w3.org/2000/svg" viewBox="0 0 512 512"><path fill="#31a7fb" d="M370 392c4 7 2 16-4 21l-13 12c-5 4-11 6-17 4l-25-7-3 1-18 22v1l21 58A183 183 0 0180 278l24 28h2l67-6 3-3-1-45c0-6 3-12 8-15l40-27c4-2 9-3 14-2s9 4 11 8l11 18a18 18 0 01-8 26l-12 6-2 2v12l2 2 23 11h2l47-20 1-1 19-27c3-5 10-8 16-7l71 6c11 22 18 46 20 71l-84 15-1 1-15 15a3 3 0 000 4l15 12 5 6z"/><path fill="#1c96f9" d="M306 490l5 14c-24 7-49 10-74 7 24-2 47-10 69-21zm132-175l-37 6c-1-28-9-55-23-80l40 3c11 22 18 46 20 71z"/><path fill="#27e19d" d="M127 200a183 183 0 01295 52l-75-7c-4 0-8 2-10 5l-18 26-5 4-47 20c-3 2-6 2-9 0l-23-11c-3-2-5-5-5-9l-1-12c0-4 3-8 7-9l12-6c6-2 8-9 5-15l-11-18c-3-5-10-6-15-3l-40 26c-3 2-4 5-4 9v45c0 5-4 10-9 10l-67 7c-4 0-7-1-9-3l-20-23c8-32 24-63 49-88zm205 141l16-16 5-3 84-15a182 182 0 01-133 199l-21-58c-1-3-1-6 1-8l19-22c2-3 6-4 10-3l25 7c3 1 7 0 10-3l13-11c3-4 4-9 2-13l-12-23-3-4-15-12c-5-4-5-11-1-15zm-190 23l17-7c3-2 8-1 11 1l12 10 7 2h38c4 0 8 3 9 7l6 16v7l-16 36c-2 5-8 8-13 6l-48-16c-4-1-7-5-7-9l-1-18c0-5-3-9-7-10l-6-1c-5-2-8-5-8-10v-4c0-4 2-8 6-10z"/><path fill="#23f1a8" d="M258 102l-2-3c-2-36 13-71 43-88s68-13 97 7c2 1 2 2 2 4 3 36-12 70-42 88a91 91 0 01-98-8zm-4 0l2-3c2-36-13-71-43-88a91 91 0 00-97 7l-2 4c-3 36 12 70 42 88 30 17 68 13 98-8z"/><g fill="#26d192"><path d="M347 200c-30-31-70-48-110-52a182 182 0 01185 104l-40-3c-8-18-20-34-35-49zm38 258c-23 24-51 40-81 48l-5-13a182 182 0 00101-179l37-7c7 54-10 110-52 151zm-77-258l-5-2c-10-9-27-15-47-15s-37 6-47 15a8 8 0 11-11-11c13-12 34-19 58-19s45 7 58 19a8 8 0 01-6 13zM256 99V87c28 15 60 16 87 1s42-44 43-76l10 6c2 1 2 2 2 4 3 36-12 70-42 88s-68 13-98-8l-2-3z"/><path d="M388 76a86 86 0 01-32 34l-10 5c-28 11-61 6-88-13l-2-3V87c17 9 36 13 55 11a82 82 0 0056-31c12-16 18-35 19-55l10 6 2 4c2 19-2 38-10 54zM114 22c0-2 0-3 2-4 29-20 67-24 97-7s45 52 43 88l-2 3c-5 4-10 7-16 9 1-34-14-66-43-83a88 88 0 00-82-1l1-5zm285 6l-1-6-2-4-5-3-51 29 4-44-15 1-5 52-23 14 5-60a81 81 0 00-16 10l-6 59-28 16-28-16-6-59a81 81 0 00-16-10l5 60-23-14-5-52-15-1 4 44-51-29-5 3-2 4-1 6 51 29-40 19c3 5 5 9 9 13l48-22 23 13-54 25a81 81 0 0016 10l54-25 28 16v67a8 8 0 0016 0v-67l28-16 54 25a80 80 0 0016-10l-54-25 23-13 48 22c4-4 6-8 9-13l-40-19z"/></g><path fill="#1ec186" d="M362 105a81 81 0 01-16 10l-35-17c8-1 16-3 23-6zm26-29c-3 5-5 9-9 13l-23-11 11-11zM121 15l10 6-18 6 1-5c0-2 0-3 2-4l5-3zm117 85l10 6 6-4 2-3v-7l-21-12c1 6 3 13 3 20zm23-11l-5 3v7l2 3 6 4 16-10c-6-1-13-4-19-7zm138-61l-17 10 4-20 5-3 5 3 2 4 1 6zM226 60c-4-8-10-16-17-22l-3-31a81 81 0 0116 10zm-40-36l-16-5-2-19 15 1z"/></svg>