<svg width="113" height="128" viewBox="0 0 113 128" fill="none" xmlns="http://www.w3.org/2000/svg">
<path d="M24.6637 59.3337L32.1412 51.8562L44.2184 66.0338L29.8772 79.9532C28.7085 81.0876 28.3443 82.8173 28.9563 84.3266C29.5683 85.836 31.0344 86.8235 32.6631 86.8235H92.5028L67.5247 106.806C66.2594 107.818 65.7298 109.494 66.1835 111.049L69.9608 124H31.0805L36.7657 111.596C37.3659 110.286 37.2156 108.755 36.3721 107.587L20.215 85.2161C20.3794 84.9958 20.5226 84.7565 20.6408 84.5005C21.2947 83.0843 21.0658 81.4171 20.0542 80.2297L12.3066 71.1346L20.0395 63.9541C20.0812 63.9153 20.122 63.8758 20.1617 63.8356L24.6614 59.336C24.6622 59.3352 24.6629 59.3344 24.6637 59.3337ZM101.193 76.5647H89.4745C90.2162 73.609 92.1388 69.5598 96.679 64.1834C101.3 58.726 104.009 51.7383 105.519 46.2493C106.213 47.2422 106.872 48.4045 107.402 49.743C109.386 54.7518 109.993 63.3535 101.193 76.5647ZM77.9962 64.0567C75.9317 67.4679 74.1929 71.566 73.842 76.5647H62.454C60.2035 73.7571 56.5771 68.6022 54.7738 62.4556C52.6945 55.3677 53.0109 47.0396 61.1035 39.0164L61.104 39.0159C69.5087 30.6807 74.6146 22.7347 76.8078 15.6999C77.5821 13.2161 78.0043 10.7893 78.0555 8.48397C80.6738 10.3958 83.4898 12.8635 85.9054 15.9006C89.1604 19.9929 91.6386 25.049 92.0315 31.1916C92.424 37.3281 90.7617 44.957 85.0299 54.247C84.3475 55.3429 83.4533 56.4992 82.3222 57.962C82.2062 58.1119 82.0877 58.2651 81.9667 58.4218C80.7208 60.0353 79.2887 61.9211 77.9962 64.0567Z" stroke="currentColor" stroke-width="8" stroke-linejoin="round"/>
</svg>
