<?xml version="1.0" encoding="UTF-8"?>
<svg
  viewBox="0 0 24 24"
  fill="currentColor"
  stroke="none"
>
  <path class="st0" d="m20.2 17.6c-0.5-0.2-0.9 0-1.2 0.3-1.2 1.4-2.8 2.5-4.8 3-3.1 0.8-6.2 0-8.4-1.9l3.6-3.2 2.1 1.9 4-1.8 2.1-3.3-0.8-1.6-2.3 1-1 1.3-1.5 0.7-1.2-1-0.8-1.5 1-1.3 1.5-0.7 1.6-2-1.3-1.2-3.8 1.3-2.7 3.5 1.3 2.5-3.7 3.2-0.5-0.8c-0.1-0.2-0.2-0.5-0.3-0.8 0-0.1-0.1-0.2-0.1-0.2-0.1-0.3-0.5-0.6-0.9-0.6-0.5 0-1 0.4-1 1 0.1 0.2 0.1 0.4 0.2 0.5 2 5.3 7.8 8.3 13.4 6.8 2.4-0.6 4.3-1.9 5.8-3.7 0.5-0.4 0.3-1.2-0.3-1.4zm2.6-8.5c-1.7-5.9-7.8-9.4-13.8-7.9-3.8 1-6.6 3.8-7.8 7.1-0.2 0.7 0.3 1.3 0.9 1.3 0.4 0 0.8-0.3 0.9-0.7 1-2.8 3.3-5 6.4-5.9 4.7-1.2 9.5 1.3 11.1 5.6l0.5 1.8c0.1 0.7 0.1 1.4 0.1 2.1v0.1c0 0.4 0.3 0.8 0.7 0.9 0.6 0.2 1.3-0.2 1.3-0.9 0.1-1 0-2.3-0.3-3.5z"/>
</svg>