<?xml version="1.0" encoding="UTF-8"?>
<svg xmlns="http://www.w3.org/2000/svg" xmlns:serif="http://www.serif.com/" version="1.1" viewBox="0 0 1793 199">
  <g>
    <g id="Layer_1">
      <g id="green" fill="var(--color-brand)">
        <path d="M1184.1,166.6c-8,0-15.6-1-22.9-3.1s-13.1-4.6-17.4-7.6l8.5-16.9c4.3,2.7,9.4,5,15.3,6.8,5.9,1.8,11.9,2.7,17.8,2.7s12.1-.9,15.2-2.8c3.1-1.9,4.7-4.5,4.7-7.7s-1.1-4.6-3.2-6c-2.1-1.4-4.9-2.4-8.4-3.1-3.4-.7-7.3-1.4-11.5-2-4.2-.6-8.4-1.4-12.6-2.4-4.2-1-8-2.5-11.5-4.5-3.4-2-6.2-4.6-8.4-7.9-2.1-3.3-3.2-7.7-3.2-13.2s1.7-11.3,5.2-15.8c3.4-4.5,8.3-7.9,14.5-10.3,6.2-2.4,13.6-3.7,22.2-3.7s12.9.7,19.4,2.1c6.5,1.4,11.9,3.4,16.2,6.1l-8.5,16.9c-4.5-2.7-9.1-4.6-13.6-5.6-4.6-1-9.1-1.5-13.6-1.5-6.8,0-11.8,1-15,3-3.3,2-4.9,4.6-4.9,7.7s1.1,5,3.2,6.4c2.1,1.4,4.9,2.6,8.4,3.4,3.4.8,7.3,1.5,11.5,2,4.2.5,8.4,1.3,12.6,2.4,4.2,1.1,8,2.5,11.5,4.4,3.5,1.8,6.3,4.4,8.5,7.7,2.1,3.3,3.2,7.7,3.2,13s-1.8,11.1-5.3,15.5c-3.5,4.4-8.5,7.8-14.9,10.2-6.4,2.4-14.1,3.7-23,3.7Z"/>
        <path d="M1291.1,166.6c-10.6,0-19.8-2.1-27.7-6.3-7.9-4.2-14-10-18.3-17.4-4.3-7.4-6.5-15.7-6.5-25.1s2.1-17.9,6.3-25.2c4.2-7.3,10-13,17.5-17.2,7.4-4.2,15.9-6.2,25.4-6.2s17.5,2,24.8,6.1c7.2,4,12.9,9.7,17.1,17.1,4.2,7.4,6.2,16,6.2,26s0,2,0,3.2c0,1.2-.2,2.3-.3,3.4h-79.3v-14.8h67.5l-8.7,4.6c.1-5.5-1-10.3-3.4-14.4-2.4-4.2-5.6-7.4-9.7-9.8-4.1-2.4-8.8-3.6-14.2-3.6s-10.2,1.2-14.3,3.6c-4.1,2.4-7.3,5.7-9.6,9.9-2.3,4.2-3.5,9.2-3.5,14.9v3.6c0,5.7,1.3,10.7,3.9,15.1,2.6,4.4,6.3,7.8,11,10.2,4.7,2.4,10.2,3.6,16.4,3.6s10.2-.8,14.4-2.5c4.3-1.7,8.1-4.3,11.4-7.8l11.9,13.7c-4.3,5-9.6,8.8-16.1,11.5-6.5,2.7-13.9,4-22.2,4Z"/>
        <path d="M1357.2,165.3v-95.1h21.2v26.2l-2.5-7.7c2.8-6.4,7.3-11.3,13.4-14.6,6.1-3.3,13.7-5,22.9-5v21.2c-1-.2-1.8-.4-2.7-.4-.8,0-1.7,0-2.5,0-8.4,0-15.1,2.5-20.1,7.4-5,4.9-7.5,12.3-7.5,22v46.1h-22.3Z"/>
        <path d="M1460,165.3l-40.8-95.1h23.2l35.1,83.9h-11.4l36.3-83.9h21.4l-40.8,95.1h-23Z"/>
        <path d="M1579.6,166.6c-10.6,0-19.8-2.1-27.7-6.3-7.9-4.2-14-10-18.3-17.4-4.3-7.4-6.5-15.7-6.5-25.1s2.1-17.9,6.3-25.2c4.2-7.3,10-13,17.5-17.2,7.4-4.2,15.9-6.2,25.4-6.2s17.5,2,24.8,6.1c7.2,4,12.9,9.7,17.1,17.1,4.2,7.4,6.2,16,6.2,26s0,2,0,3.2c0,1.2-.2,2.3-.3,3.4h-79.3v-14.8h67.5l-8.7,4.6c.1-5.5-1-10.3-3.4-14.4-2.4-4.2-5.6-7.4-9.7-9.8-4.1-2.4-8.8-3.6-14.2-3.6s-10.2,1.2-14.3,3.6c-4.1,2.4-7.3,5.7-9.6,9.9-2.3,4.2-3.5,9.2-3.5,14.9v3.6c0,5.7,1.3,10.7,3.9,15.1,2.6,4.4,6.3,7.8,11,10.2,4.7,2.4,10.2,3.6,16.4,3.6s10.2-.8,14.4-2.5c4.3-1.7,8.1-4.3,11.4-7.8l11.9,13.7c-4.3,5-9.6,8.8-16.1,11.5-6.5,2.7-13.9,4-22.2,4Z"/>
        <path d="M1645.7,165.3v-95.1h21.2v26.2l-2.5-7.7c2.8-6.4,7.3-11.3,13.4-14.6,6.1-3.3,13.7-5,22.9-5v21.2c-1-.2-1.8-.4-2.7-.4-.8,0-1.7,0-2.5,0-8.4,0-15.1,2.5-20.1,7.4-5,4.9-7.5,12.3-7.5,22v46.1h-22.3Z"/>
        <path d="M1749.9,166.6c-8,0-15.6-1-22.9-3.1s-13.1-4.6-17.4-7.6l8.5-16.9c4.3,2.7,9.4,5,15.3,6.8,5.9,1.8,11.9,2.7,17.8,2.7s12.1-.9,15.2-2.8c3.1-1.9,4.7-4.5,4.7-7.7s-1.1-4.6-3.2-6c-2.1-1.4-4.9-2.4-8.4-3.1-3.4-.7-7.3-1.4-11.5-2-4.2-.6-8.4-1.4-12.6-2.4-4.2-1-8-2.5-11.5-4.5-3.4-2-6.2-4.6-8.4-7.9-2.1-3.3-3.2-7.7-3.2-13.2s1.7-11.3,5.2-15.8c3.4-4.5,8.3-7.9,14.5-10.3,6.2-2.4,13.6-3.7,22.2-3.7s12.9.7,19.4,2.1c6.5,1.4,11.9,3.4,16.2,6.1l-8.5,16.9c-4.5-2.7-9.1-4.6-13.6-5.6-4.6-1-9.1-1.5-13.6-1.5-6.8,0-11.8,1-15,3-3.3,2-4.9,4.6-4.9,7.7s1.1,5,3.2,6.4c2.1,1.4,4.9,2.6,8.4,3.4,3.4.8,7.3,1.5,11.5,2,4.2.5,8.4,1.3,12.6,2.4,4.2,1.1,8,2.5,11.5,4.4,3.5,1.8,6.3,4.4,8.5,7.7,2.1,3.3,3.2,7.7,3.2,13s-1.8,11.1-5.3,15.5c-3.5,4.4-8.5,7.8-14.9,10.2-6.4,2.4-14.1,3.7-23,3.7Z"/>
        <g>
          <path d="M9.8,143l63.4-38.1-5.8-15.3,18.1-18.6,22.9-4.9,6.6,8.2-10.6,10.7-9.2,2.9-6.6,6.8,3.2,9,6.5,6.9,9.2-2.5,6.6-7.2,14.3-4.5,4.3,9.6-14.8,18.1-24.8,7.8-11.1-12.4-63.6,38.2c-3-3.9-6.5-9.4-8.8-14.7ZM192.8,65.4l-50.4,13.6c2.8,7.4,3.7,11.7,4.5,16.5l50.3-13.6c-.8-5.4-2.2-10.8-4.4-16.5Z" fill-rule="evenodd"/>
          <path d="M17.3,106.5c3.6,42.1,38.9,75.2,82,75.2s60.7-18.9,74-46.3l16.4,5.7c-15.8,34.1-50.3,57.9-90.4,57.9S3.6,158.2,0,106.5h17.3ZM.3,89.4C5.3,39.2,47.8,0,99.3,0s99.5,44.6,99.5,99.5-1.1,17.4-3.3,25.5l-16.3-5.7c1.6-6.5,2.4-13.1,2.4-19.8,0-45.4-36.9-82.3-82.3-82.3S22.6,48.7,17.6,89.4H.3Z" fill-rule="evenodd"/>
          <path d="M99,51.6c-26.4,0-47.9,21.5-47.9,48s21.5,48,48,48,2.7,0,4-.2l4.8,16.8c-2.9.4-5.8.6-8.8.6-36,0-65.2-29.2-65.2-65.2S63.1,34.4,99,34.4s1.8,0,2.7,0l-2.7,17.1ZM118.6,37.4c26.4,8.3,45.6,33,45.6,62.2s-16.4,50.2-39.8,60l-4.8-16.7c16.2-7.7,27.4-24.2,27.4-43.3s-13-38.1-31.1-44.9l2.7-17.2Z" fill-rule="evenodd"/>
        </g>
      </g>
      <g id="black" fill="currentColor">
        <path d="M354.8,69.2c12,0,21.7,3.4,28.6,10.4,7,7.2,10.6,17.5,10.6,31.5v54.8h-22.4v-51.9c0-8.4-1.8-14.7-5.5-19-3.8-4.1-8.9-6.3-15.9-6.3s-13.6,2.5-18.1,7.3c-4.5,5-6.8,12.2-6.8,21.3v48.5h-22.4v-51.9c0-8.4-1.8-14.7-5.5-19-3.8-4.1-8.9-6.3-15.9-6.3s-13.6,2.5-18.1,7.3c-4.5,4.8-6.8,12-6.8,21.3v48.5h-22.4v-95.6h21.3v12.2c3.6-4.3,8.1-7.5,13.4-9.8,5.4-2.3,11.3-3.4,17.9-3.4s13.6,1.3,19.2,3.9c5.5,2.9,9.8,6.8,13.1,12,3.9-5,8.9-8.9,15.2-11.8,6.3-2.7,13.1-4.1,20.6-4.1ZM466,167.2c-9.7,0-18.4-2.1-26.1-6.3-7.6-4-13.8-10.1-18.1-17.5-4.5-7.3-6.6-15.7-6.6-25.2s2.1-17.9,6.6-25.2c4.3-7.4,10.6-13.4,18.1-17.4,7.7-4.1,16.5-6.3,26.1-6.3s18.6,2.1,26.3,6.3c7.7,4.1,13.8,10,18.3,17.4,4.3,7.3,6.4,15.7,6.4,25.2s-2.1,17.9-6.4,25.2c-4.5,7.5-10.6,13.4-18.3,17.5-7.7,4.1-16.5,6.3-26.3,6.3h0ZM466,148c8.2,0,15-2.7,20.4-8.2,5.4-5.5,8.1-12.7,8.1-21.7s-2.7-16.1-8.1-21.7c-5.4-5.5-12.2-8.2-20.4-8.2s-15,2.7-20.2,8.2c-5.4,5.5-8.1,12.7-8.1,21.7s2.7,16.1,8.1,21.7c5.2,5.5,12,8.2,20.2,8.2ZM631.5,33.1v132.8h-21.5v-12.3c-3.7,4.4-8.3,7.9-13.6,10.2-5.5,2.3-11.5,3.4-18.1,3.4s-17.4-2-24.7-6.1c-7.3-4.1-13.2-9.8-17.4-17.4-4.1-7.3-6.3-15.9-6.3-25.6s2.1-18.3,6.3-25.6c4.1-7.3,10-13.1,17.4-17.2,7.3-4.1,15.6-6.1,24.7-6.1s12.2,1.1,17.4,3.2c5.2,2.1,9.8,5.4,13.4,9.7v-49h22.4ZM581.1,148c5.4,0,10.2-1.3,14.5-3.8,4.3-2.3,7.7-5.9,10.2-10.4,2.5-4.5,3.8-9.8,3.8-15.7s-1.3-11.3-3.8-15.7c-2.5-4.5-5.9-8.1-10.2-10.6-4.3-2.3-9.1-3.6-14.5-3.6s-10.2,1.3-14.5,3.6c-4.3,2.5-7.7,6.1-10.2,10.6-2.5,4.5-3.8,9.8-3.8,15.7s1.3,11.3,3.8,15.7c2.5,4.5,5.9,8.1,10.2,10.4,4.3,2.5,9.1,3.8,14.5,3.8ZM681.6,84.3c6.4-10,17.7-15,34-15v21.3c-1.7-.3-3.4-.5-5.2-.5-8.8,0-15.6,2.5-20.4,7.5-4.8,5.2-7.3,12.5-7.3,22v46.4h-22.4v-95.6h21.3v14h0ZM734.1,70.3h22.4v95.6h-22.4v-95.6ZM745.4,54.6c-4.1,0-7.5-1.3-10.2-3.9-2.7-2.4-4.2-5.9-4.1-9.5,0-3.8,1.4-7,4.1-9.7,2.7-2.5,6.1-3.8,10.2-3.8s7.5,1.3,10.2,3.6c2.7,2.5,4.1,5.5,4.1,9.3s-1.3,7.2-3.9,9.8c-2.7,2.7-6.3,4.1-10.4,4.1ZM839.5,69.2c12,0,21.7,3.6,29,10.6,7.3,7,10.9,17.5,10.9,31.3v54.8h-22.4v-51.9c0-8.4-2-14.7-5.9-19-3.9-4.1-9.5-6.3-16.8-6.3s-14.7,2.5-19.5,7.3c-4.8,5-7.2,12.2-7.2,21.5v48.3h-22.4v-95.6h21.3v12.3c3.8-4.5,8.4-7.7,14-10,5.5-2.3,12-3.4,19-3.4ZM964.8,160.7c-2.8,2.2-6,3.9-9.5,4.8-3.9,1.1-7.9,1.6-12,1.6-10.6,0-18.6-2.7-24.3-8.2-5.7-5.5-8.6-13.4-8.6-24v-46h-15.7v-17.9h15.7v-21.8h22.4v21.8h25.6v17.9h-25.6v45.5c0,4.7,1.1,8.2,3.4,10.6,2.3,2.5,5.5,3.8,9.8,3.8s9.1-1.3,12.5-3.9l6.3,15.9ZM1036.9,69.2c12,0,21.7,3.6,29,10.6,7.3,7,10.9,17.5,10.9,31.3v54.8h-22.4v-51.9c0-8.4-2-14.7-5.9-19-3.9-4.1-9.5-6.3-16.8-6.3s-14.7,2.5-19.5,7.3c-4.8,5-7.2,12.2-7.2,21.5v48.3h-22.4V33.1h22.4v48.3c3.8-3.9,8.2-7,13.8-9.1,5.4-2,11.5-3,18.1-3Z"/>
      </g>
    </g>
  </g>
</svg>