<?xml version="1.0" encoding="UTF-8" standalone="no"?>
<!DOCTYPE svg PUBLIC "-//W3C//DTD SVG 1.1//EN" "http://www.w3.org/Graphics/SVG/1.1/DTD/svg11.dtd">
<svg width="100%" height="100%" viewBox="0 0 1215 175" version="1.1" xmlns="http://www.w3.org/2000/svg" xmlns:xlink="http://www.w3.org/1999/xlink" xml:space="preserve" xmlns:serif="http://www.serif.com/" style="fill-rule:evenodd;clip-rule:evenodd;stroke-linejoin:round;stroke-miterlimit:2;">
    <g transform="matrix(1,0,0,1,-3395.45,-1175)">
        <g transform="matrix(0.632704,0,0,0.161619,3395.45,1175)">
            <rect id="modrinth-app-logo" serif:id="modrinth app logo" x="0" y="0" width="1920" height="1080" style="fill:none;"/>
            <g id="modrinth-app-logo1" serif:id="modrinth app logo">
                <g transform="matrix(1.26353,0,0,3.23025,-514.757,-837.171)">
                    <g transform="matrix(1.25087,0,0,1.91545,-240.84,-608.008)">
                        <g transform="matrix(0.273005,0,0,0.273005,523.782,459.389)">
                            <path d="M1053.02,205.51C1088.61,205.51 1117.29,215.61 1138,236.32C1158.72,257.57 1169.34,288.37 1169.34,329.8L1169.34,492.33L1102.94,492.33L1102.94,338.3C1102.94,313.34 1097.64,294.75 1086.48,282C1075.33,269.78 1059.93,263.4 1039.21,263.4C1016.91,263.4 998.84,270.85 985.56,285.19C972.29,300.06 965.38,321.3 965.38,348.39L965.38,492.33L898.98,492.33L898.98,338.3C898.98,313.34 893.68,294.75 882.52,282C871.37,269.78 855.96,263.4 835.25,263.4C812.41,263.4 794.88,270.85 781.6,285.19C768.33,299.53 761.42,320.77 761.42,348.39L761.42,492.33L695.02,492.33L695.02,208.7L758.23,208.7L758.23,244.82C768.86,232.07 782.13,222.52 798.07,215.61C814,208.71 831.53,205.51 851.18,205.51C872.43,205.51 891.55,209.23 908.02,217.2C924.48,225.7 937.23,237.38 946.79,252.79C958.48,237.91 973.35,226.23 991.94,217.73C1010.53,209.76 1030.71,205.51 1053.02,205.51ZM1382.86,496.05C1354.18,496.05 1328.16,489.68 1305.32,477.46C1282.84,465.588 1264.22,447.523 1251.67,425.41C1238.39,403.63 1232.02,378.67 1232.02,350.51C1232.02,322.37 1238.39,297.41 1251.67,275.63C1264.39,253.783 1282.98,235.93 1305.32,224.1C1328.16,211.89 1354.18,205.51 1382.86,205.51C1412.08,205.51 1438.1,211.89 1460.94,224.11C1483.78,236.32 1501.84,253.85 1515.12,275.63C1527.87,297.4 1534.24,322.37 1534.24,350.52C1534.24,378.67 1527.87,403.63 1515.12,425.41C1501.84,447.71 1483.78,465.24 1460.94,477.46C1438.1,489.68 1412.08,496.06 1382.86,496.06L1382.86,496.05ZM1382.86,439.22C1407.3,439.22 1427.48,431.25 1443.41,414.79C1459.35,398.32 1467.31,377.07 1467.31,350.52C1467.31,323.96 1459.35,302.72 1443.41,286.25C1427.48,269.78 1407.3,261.82 1382.86,261.82C1358.43,261.82 1338.25,269.78 1322.84,286.25C1306.91,302.71 1298.94,323.96 1298.94,350.52C1298.94,377.07 1306.91,398.32 1322.84,414.79C1338.24,431.25 1358.44,439.22 1382.86,439.22ZM1874.18,98.22L1874.18,492.33L1810.44,492.33L1810.44,455.68C1799.56,468.819 1785.73,479.196 1770.07,485.96C1753.61,492.86 1736.07,496.06 1716.42,496.06C1689.34,496.06 1664.9,490.21 1643.12,477.99C1621.35,465.78 1603.82,448.78 1591.6,426.47C1579.39,404.69 1573.01,379.2 1573.01,350.52C1573.01,321.84 1579.39,296.34 1591.61,274.56C1603.82,252.79 1621.35,235.79 1643.13,223.57C1664.9,211.36 1689.33,205.51 1716.43,205.51C1735.02,205.51 1752.54,208.71 1767.95,215.07C1783.28,221.396 1796.92,231.222 1807.78,243.76L1807.78,98.22L1874.18,98.22ZM1724.39,439.22C1740.33,439.22 1754.67,435.5 1767.42,428.06C1780.16,421.16 1790.25,410.54 1797.69,397.26C1805.13,383.98 1808.84,368.05 1808.84,350.52C1808.84,332.99 1805.13,317.06 1797.69,303.78C1790.25,290.5 1780.16,279.88 1767.42,272.44C1754.67,265.54 1740.32,261.82 1724.39,261.82C1708.46,261.82 1694.12,265.53 1681.37,272.44C1668.62,279.87 1658.53,290.5 1651.09,303.78C1643.66,317.06 1639.94,332.98 1639.94,350.52C1639.94,368.05 1643.66,383.98 1651.09,397.26C1658.53,410.54 1668.62,421.16 1681.37,428.06C1694.12,435.5 1708.46,439.22 1724.39,439.22ZM2022.9,250.13C2042.02,220.39 2075.48,205.51 2123.82,205.51L2123.82,268.72C2118.75,267.715 2113.59,267.18 2108.42,267.12C2082.39,267.12 2062.2,274.56 2047.86,289.44C2033.52,304.84 2026.08,326.62 2026.08,354.77L2026.08,492.33L1959.69,492.33L1959.69,208.7L2022.89,208.7L2022.89,250.13L2022.9,250.13ZM2178.52,208.7L2244.92,208.7L2244.92,492.33L2178.52,492.33L2178.52,208.7ZM2211.99,161.96C2199.77,161.96 2189.68,158.24 2181.71,150.28C2173.8,143.08 2169.35,132.817 2169.5,122.12C2169.5,110.97 2173.75,101.41 2181.71,93.44C2189.68,86.01 2199.77,82.29 2211.99,82.29C2224.2,82.29 2234.29,86.01 2242.26,92.91C2250.23,100.35 2254.48,109.38 2254.48,120.53C2254.48,132.22 2250.76,141.78 2242.79,149.74C2234.83,157.71 2224.2,161.96 2211.99,161.96ZM2491.37,205.51C2526.96,205.51 2555.64,216.14 2577.42,236.85C2599.2,257.57 2609.82,288.9 2609.82,329.8L2609.82,492.33L2543.42,492.33L2543.42,338.3C2543.42,313.34 2537.58,294.75 2525.9,282C2514.21,269.78 2497.75,263.4 2475.97,263.4C2451.54,263.4 2432.42,270.85 2418.07,285.19C2403.73,300.06 2396.83,321.3 2396.83,348.92L2396.83,492.33L2330.43,492.33L2330.43,208.7L2393.64,208.7L2393.64,245.35C2404.8,232.07 2418.61,222.51 2435.07,215.61C2451.54,208.71 2470.66,205.51 2491.37,205.51ZM2863.18,476.93C2854.87,483.572 2845.29,488.451 2835.03,491.27C2823.44,494.492 2811.46,496.101 2799.43,496.05C2768.1,496.05 2744.2,488.08 2727.2,471.62C2710.2,455.15 2701.7,431.78 2701.7,400.45L2701.7,263.94L2654.97,263.94L2654.97,210.83L2701.71,210.83L2701.71,146.03L2768.11,146.03L2768.11,210.83L2844.06,210.83L2844.06,263.94L2768.1,263.94L2768.1,398.85C2768.1,412.66 2771.29,423.28 2778.2,430.19C2785.1,437.63 2794.66,441.34 2807.4,441.34C2822.28,441.34 2834.5,437.63 2844.59,429.66L2863.18,476.93ZM3077.23,205.51C3112.82,205.51 3141.5,216.14 3163.28,236.85C3185.05,257.57 3195.68,288.9 3195.68,329.8L3195.68,492.33L3129.28,492.33L3129.28,338.3C3129.28,313.34 3123.44,294.75 3111.75,282C3100.07,269.78 3083.6,263.4 3061.83,263.4C3037.39,263.4 3018.27,270.85 3003.93,285.19C2989.59,300.06 2982.69,321.3 2982.69,348.92L2982.69,492.33L2916.29,492.33L2916.29,98.23L2982.69,98.23L2982.69,241.63C2993.84,229.95 3007.12,220.92 3023.59,214.54C3039.52,208.7 3057.58,205.51 3077.23,205.51Z" style="fill:currentColor;fill-rule:nonzero;"/>
                        </g>
                        <g transform="matrix(0.273005,0,0,0.273005,523.782,459.389)">
                            <path d="M29,424.4L217.2,311.45L200.05,265.97L253.8,210.76L321.73,196.12L341.4,220.33L310.08,252.05L282.78,260.65L263.26,280.7L272.82,307.3L292.22,327.9L319.58,320.62L339.05,299.24L381.56,285.77L394.23,314.27L350.36,368.05L276.86,391.32L243.89,354.62L55.06,467.94C46.1,456.41 35.67,440.08 29,424.4ZM572.03,194.15L422.53,234.47C430.77,256.39 433.48,269.27 435.76,283.47L584.99,243.21C582.61,227.27 578.34,211.04 572.03,194.15Z" style="fill:var(--color-brand);"/>
                            <path d="M51.28,316.13C61.87,441.13 166.82,539.43 294.55,539.43C391.06,539.43 474.57,483.31 514.18,401.97L562.79,418.8C516.01,520.14 413.44,590.55 294.55,590.55C138.6,590.55 10.71,469.38 0,316.13L51.28,316.13ZM0.78,265.24C15.86,116.36 141.73,0 294.56,0C457.53,0 589.84,132.31 589.84,295.28C589.84,321.42 586.44,346.77 580.04,370.91L531.56,354.13C536.324,334.876 538.725,315.114 538.71,295.28C538.71,160.53 429.31,51.13 294.56,51.13C169.98,51.13 67.07,144.63 52.24,265.24L0.78,265.24Z" style="fill:var(--color-brand);"/>
                            <path d="M293.77,153.17C215.28,153.24 151.57,217 151.57,295.51C151.57,374.07 215.36,437.85 293.92,437.85C297.9,437.85 301.85,437.69 305.75,437.36L319.97,487.12C311.335,488.282 302.632,488.864 293.92,488.86C187.2,488.86 100.56,402.22 100.56,295.51C100.56,188.79 187.2,102.16 293.92,102.16C296.56,102.16 299.2,102.21 301.82,102.32L293.77,153.17ZM351.97,111.04C430.36,135.71 487.27,209.02 487.27,295.51C487.27,375.58 438.5,444.34 369.07,473.69L354.9,424.14C402.98,401.29 436.26,352.25 436.26,295.51C436.26,234.52 397.82,182.44 343.87,162.19L351.97,111.04Z" style="fill:var(--color-brand);"/>
                        </g>
                    </g>
                    <g transform="matrix(1.25498,0,0,1.92174,1126.78,-2077.58)">
                        <path d="M411.597,1355.36L411.597,1339.8L410.589,1336.49L410.589,1309.28C410.589,1304 409.005,1299.89 405.837,1296.96C402.669,1294.04 397.869,1292.57 391.437,1292.57C387.117,1292.57 382.869,1293.24 378.693,1294.59C374.517,1295.93 370.989,1297.8 368.109,1300.2L361.053,1287.1C365.181,1283.93 370.101,1281.56 375.813,1279.97C381.525,1278.39 387.453,1277.6 393.597,1277.6C404.733,1277.6 413.349,1280.26 419.445,1285.59C425.541,1290.91 428.589,1299.15 428.589,1310.28L428.589,1355.36L411.597,1355.36ZM387.405,1356.36C381.645,1356.36 376.605,1355.38 372.285,1353.41C367.965,1351.44 364.629,1348.71 362.277,1345.2C359.925,1341.7 358.749,1337.74 358.749,1333.32C358.749,1329 359.781,1325.12 361.845,1321.66C363.909,1318.2 367.293,1315.47 371.997,1313.45C376.701,1311.43 382.941,1310.43 390.717,1310.43L413.037,1310.43L413.037,1322.38L392.013,1322.38C385.869,1322.38 381.741,1323.36 379.629,1325.33C377.517,1327.3 376.461,1329.72 376.461,1332.6C376.461,1335.87 377.757,1338.46 380.349,1340.38C382.941,1342.3 386.541,1343.26 391.149,1343.26C395.565,1343.26 399.525,1342.25 403.029,1340.24C406.533,1338.22 409.053,1335.24 410.589,1331.31L413.613,1342.11C411.885,1346.62 408.789,1350.12 404.325,1352.62C399.861,1355.12 394.221,1356.36 387.405,1356.36Z" style="fill:var(--color-brand);fill-rule:nonzero;"/>
                        <path d="M494.253,1356.36C488.013,1356.36 482.325,1354.92 477.189,1352.04C472.053,1349.16 467.973,1344.82 464.949,1339.01C461.925,1333.2 460.413,1325.84 460.413,1316.91C460.413,1307.88 461.877,1300.49 464.805,1294.73C467.733,1288.97 471.741,1284.67 476.829,1281.84C481.917,1279.01 487.725,1277.6 494.253,1277.6C501.837,1277.6 508.533,1279.23 514.341,1282.49C520.149,1285.76 524.757,1290.32 528.165,1296.17C531.573,1302.03 533.277,1308.94 533.277,1316.91C533.277,1324.88 531.573,1331.81 528.165,1337.71C524.757,1343.62 520.149,1348.2 514.341,1351.47C508.533,1354.73 501.837,1356.36 494.253,1356.36ZM451.629,1383.29L451.629,1278.46L468.765,1278.46L468.765,1296.6L468.189,1317.05L469.629,1337.5L469.629,1383.29L451.629,1383.29ZM492.237,1340.95C496.557,1340.95 500.421,1340 503.829,1338.08C507.237,1336.15 509.949,1333.37 511.965,1329.72C513.981,1326.08 514.989,1321.8 514.989,1316.91C514.989,1311.91 513.981,1307.62 511.965,1304.02C509.949,1300.42 507.237,1297.66 503.829,1295.74C500.421,1293.82 496.557,1292.86 492.237,1292.86C487.917,1292.86 484.029,1293.82 480.573,1295.74C477.117,1297.66 474.381,1300.42 472.365,1304.02C470.349,1307.62 469.341,1311.91 469.341,1316.91C469.341,1321.8 470.349,1326.08 472.365,1329.72C474.381,1333.37 477.117,1336.15 480.573,1338.08C484.029,1340 487.917,1340.95 492.237,1340.95Z" style="fill:var(--color-brand);fill-rule:nonzero;"/>
                        <path d="M593.037,1356.36C586.797,1356.36 581.109,1354.92 575.973,1352.04C570.837,1349.16 566.757,1344.82 563.733,1339.01C560.709,1333.2 559.197,1325.84 559.197,1316.91C559.197,1307.88 560.661,1300.49 563.589,1294.73C566.517,1288.97 570.525,1284.67 575.613,1281.84C580.701,1279.01 586.509,1277.6 593.037,1277.6C600.621,1277.6 607.317,1279.23 613.125,1282.49C618.933,1285.76 623.541,1290.32 626.949,1296.17C630.357,1302.03 632.061,1308.94 632.061,1316.91C632.061,1324.88 630.357,1331.81 626.949,1337.71C623.541,1343.62 618.933,1348.2 613.125,1351.47C607.317,1354.73 600.621,1356.36 593.037,1356.36ZM550.413,1383.29L550.413,1278.46L567.549,1278.46L567.549,1296.6L566.973,1317.05L568.413,1337.5L568.413,1383.29L550.413,1383.29ZM591.021,1340.95C595.341,1340.95 599.205,1340 602.613,1338.08C606.021,1336.15 608.733,1333.37 610.749,1329.72C612.765,1326.08 613.773,1321.8 613.773,1316.91C613.773,1311.91 612.765,1307.62 610.749,1304.02C608.733,1300.42 606.021,1297.66 602.613,1295.74C599.205,1293.82 595.341,1292.86 591.021,1292.86C586.701,1292.86 582.813,1293.82 579.357,1295.74C575.901,1297.66 573.165,1300.42 571.149,1304.02C569.133,1307.62 568.125,1311.91 568.125,1316.91C568.125,1321.8 569.133,1326.08 571.149,1329.72C573.165,1333.37 575.901,1336.15 579.357,1338.08C582.813,1340 586.701,1340.95 591.021,1340.95Z" style="fill:var(--color-brand);fill-rule:nonzero;"/>
                    </g>
                </g>
            </g>
        </g>
    </g>
</svg>
