<svg
   xmlns="http://www.w3.org/2000/svg"
   xmlns:xlink="http://www.w3.org/1999/xlink"
   id="b3c5850d-3d23-4aad-a12c-b5e8440d4fde"
   width="432.34134"
   height="448.72375"
   viewBox="0 0 432.34134 448.72374"
   version="1.1">

  <path
     d="m 367.46102,279.26375 -46.77977,46.17 -105.72023,104.32 -2.13965,2.11 -11.91992,11.76 -24.9902,-24.69 -2.20019,-2.17 -45.69,-45.13 h -0.01 l -14.64013,-14.47 -8.6499,-8.55 -25.760248,-25.44 -3.4795,-3.44 -41.06006,-40.56 a 117.65792,117.65792 0 0 1 -20.52,-27.63 c -0.5,-0.91 -0.97022,-1.83 -1.43018,-2.75 A 117.50682,117.50682 0 0 1 137.18125,80.263749 h 0.0102 c 0.37989,0.06 0.75,0.12 1.12989,0.2 a 113.60526,113.60526 0 0 1 11.91015,2.77 117.09292,117.09292 0 0 1 29.11961,12.93 q 1.4253,0.885 2.82031,1.8 a 118.17183,118.17183 0 0 1 18.46973,15.090001 l 0.3501,-0.35 0.3501,0.35 a 118.54248,118.54248 0 0 1 10.83007,-9.58 c 0.82959,-0.65 1.66993,-1.29 2.50977,-1.91 a 117.44922,117.44922 0 0 1 90.51025,-21.060001 111.92113,111.92113 0 0 1 11.91993,2.78 q 1.96507,0.55509 3.8999,1.2 c 1.04,0.34 2.08008,0.69 3.10986,1.07 a 116.42525,116.42525 0 0 1 24.39014,12.1 q 2.50488,1.63494 4.93994,3.420001 a 117.54672,117.54672 0 0 1 14.00977,178.19 z"
     fill="var(--color-brand)"
     id="path10" />
  <path
     d="m 320.68125,325.43375 -105.72023,104.32 -2.13965,2.11 -11.91992,11.76 -24.9902,-24.69 -2.20019,-2.17 -45.69,-45.13 c 7.34034,-1.71 18.62012,0.64 22.75,2.68 9.79,4.83 17.84034,12.76 27.78028,17.28 a 46.138,46.138 0 0 0 28.33009,3.13 c 17.81982,-3.74 31.60986,-17.52 43.77,-31.08 12.15966,-13.57 24.58984,-28.13 41.67968,-34.42 9.01028,-3.32 18.68996,-4.07 28.35014,-3.79 z"
     opacity="0.15"
     id="path12" />
  <path
     d="M 397.54109,114.98375 A 118.15747,118.15747 0 0 0 345.01131,84.433749 c -1.31983,-0.37 -2.62988,-0.7 -3.96,-1.01 a 116.83094,116.83094 0 0 0 -17.39006,-2.79 c -1.02,-0.1 -2.04,-0.17 -3.06982,-0.22 a 115.15486,115.15486 0 0 0 -15.43018,0.06 118.39675,118.39675 0 0 0 -74.83984,33.450001 l -0.36035,-0.36 -0.35987,0.36 a 118.61442,118.61442 0 0 0 -46.6997,-28.080001 c -0.99024,-0.32 -1.99024,-0.63 -2.99024,-0.92 a 119.67335,119.67335 0 0 0 -41.62012,-4.45 c -0.38964,0.02 -0.77978,0.05 -1.15966,0.09 A 118.30611,118.30611 0 0 0 67.731562,109.96375 c -1.82031,1.6 -3.61035,3.28 -5.35009,5.02 a 119.14261,119.14261 0 0 0 -26.64022,127.55 c 0.3501,0.94 0.73,1.87006 1.12988,2.8 a 118.153,118.153 0 0 0 25.51026,37.95 l 38.919918,38.42 3.06006,3.03 84.21972,83.13 2.16992,2.15 22.12012,21.84 17.08985,16.87 167.58011,-165.45 a 119.129,119.129 0 0 0 0,-168.29 z m -2.10984,166.16 -165.47023,163.36 -14.94971,-14.76 -21.6499,-21.37 -2.16993,-2.14 -82.58007,-81.53 -3.01026,-2.97 -41.100098,-40.58 a 115.19343,115.19343 0 0 1 -24.7598,-36.72 c -0.3999,-0.93 -0.78027,-1.86 -1.12988,-2.79 a 116.13377,116.13377 0 0 1 25.88968,-124.54 q 2.79054,-2.79 5.71,-5.34 h 0.0102 A 115.38082,115.38082 0 0 1 136.70125,83.603749 q 4.905,-0.42 9.81982,-0.42 c 1.23,0 2.4502,0.02 3.68018,0.06 a 116.0993,116.0993 0 0 1 29.6499,4.8 c 0.99024,0.29 1.98,0.6 2.96,0.93 a 114.15644,114.15644 0 0 1 29.33008,14.490001 115.61419,115.61419 0 0 1 16.41016,13.64 l 1.06006,1.06 0.34961,-0.35 0.35009,0.35 1.06006,-1.06 a 115.674,115.674 0 0 1 85.71,-33.860001 c 1.27,0.04 2.54,0.1 3.81006,0.19 1.02,0.06 2.04,0.13 3.05029,0.23 a 115.12349,115.12349 0 0 1 19.08985,3.35 c 1.33984,0.34 2.66992,0.71 3.98974,1.12 a 115.9591,115.9591 0 0 1 48.4101,193.010001 z"
     fill="#ffffff"
     id="path14" />
  <path
     d="m 163.08113,87.773749 c -6.41992,5.07 -13.31006,9.75 -17.48,16.680001 -3.06982,5.12 -4.3999,11.07 -5.39013,16.95 -1.91993,11.44 -2.73975,23.16 -6.5,34.12994 -3.75,10.97 -11.06983,21.45 -21.91993,25.54 -6.73,2.53 -14.149898,2.39 -21.319818,1.9 -17.68994,-1.2 -35.5,-4.37 -51.41992,-12.16 -8.8999,-4.36 -17.53028,-10.24 -27.41992,-10.89 a 25.39538,25.39538 0 0 0 -6.0200005,0.33 A 117.494,117.494 0 0 1 137.18125,80.263749 h 0.0102 c 0.37989,0.06 0.75,0.12 1.12989,0.2 a 113.60526,113.60526 0 0 1 11.91015,2.77 117.48205,117.48205 0 0 1 12.84959,4.54 z"
     opacity="0.15"
     id="path16" />
  <circle
     cx="94.291763"
     cy="76.050789"
     r="43.067329"
     fill="#2f2e41"
     id="circle18" />
  <rect
     x="74.666153"
     y="109.85048"
     width="13.08374"
     height="23.44171"
     fill="#2f2e41"
     id="rect20" />
  <rect
     x="100.83363"
     y="109.85048"
     width="13.08374"
     height="23.44171"
     fill="#2f2e41"
     id="rect22" />
  <ellipse
     cx="85.569229"
     cy="133.56477"
     rx="10.90314"
     ry="4.0886798"
     fill="#2f2e41"
     id="ellipse24" />
  <ellipse
     cx="111.73677"
     cy="133.01961"
     rx="10.90314"
     ry="4.0886798"
     fill="#2f2e41"
     id="ellipse26" />
  <circle
     cx="95.382095"
     cy="65.147659"
     r="14.71923"
     fill="#ffffff"
     id="circle28" />
  <ellipse
     cx="22.820126"
     cy="119.16339"
     rx="4.8859401"
     ry="4.9205499"
     transform="rotate(-44.98705)"
     fill="#3f3d56"
     id="ellipse30" />
  <path
     d="M 52.514972,35.999439 C 49.037492,20.425649 60.153622,4.6890094 77.343632,0.85062939 94.533642,-2.9877506 111.28784,6.5257394 114.76532,22.099539 c 3.47748,15.5738 -7.91492,21.31768 -25.104858,25.156 -17.18994,3.83832 -33.66795,4.31775 -37.14549,-11.2561 z"
     fill="#e6e6e6"
     id="path32" />
</svg>
