<svg viewBox="7 18 57 32" fill="none" xmlns="http://www.w3.org/2000/svg">
    <path
        d="M22.562 46.8959L31.189 42.2804C31.8922 41.9026 31.8873 40.9333 31.1763 40.558L22.426 35.9147C21.8463 35.6082 21.1377 36.0016 21.1373 36.6321L21.1319 46.0958C21.1315 46.7967 21.9244 47.2404 22.562 46.8985L22.562 46.8959Z"
        fill="currentColor" />
    <path
        d="M48.7804 47.0911L40.1588 42.3472C39.4561 41.9589 39.4621 40.9896 40.1735 40.625L48.9288 36.112C49.5092 35.8141 50.2172 36.218 50.2168 36.8485L50.2114 46.3122C50.211 47.0131 49.4178 47.445 48.7804 47.0937L48.7804 47.0911Z"
        fill="currentColor" />
    <path
        d="M62.1735 23.588L54.919 19.3778C54.3937 19.0742 53.7374 19.0615 53.2066 19.3468L36.5152 28.3219C35.9844 28.6072 35.3333 28.6024 34.8028 28.3092L18.1193 19.0882C17.5888 18.7951 16.9323 18.7954 16.4069 19.0937L9.14477 23.1933C8.62214 23.4891 8.30179 24.0235 8.30145 24.6046L8.29042 43.8064C8.2901 44.3589 8.58797 44.877 9.07744 45.1777L15.2929 48.9763C15.4214 49.0554 15.6784 49.2085 15.971 49.3853C16.5917 49.7573 17.3935 49.3359 17.3884 48.6401C17.3886 48.3431 17.3887 48.0721 17.3888 47.9053L17.4315 30.8117C17.432 29.9049 18.4636 29.3471 19.2894 29.8041L34.7506 38.3879C35.3084 38.697 35.9922 38.7021 36.5477 38.4013L52.0186 30.0477C52.845 29.603 53.8731 30.1762 53.8753 31.083L53.8983 48.177C53.8982 48.3282 53.9008 48.6044 53.9033 48.9171C53.9084 49.6077 54.707 50.0358 55.3225 49.6729C55.599 49.5108 55.8509 49.3642 55.9931 49.2792L62.2128 45.5732C62.7025 45.2798 63.0011 44.7687 63.0014 44.2137L63.0125 25.0118C63.0128 24.4307 62.693 23.8889 62.1707 23.588L62.1735 23.588Z"
        fill="currentColor" />
</svg>
