<svg width="1120" height="116" viewBox="0 0 1120 116" fill="none" xmlns="http://www.w3.org/2000/svg">
    <mask id="path-1-inside-1_9092_23263" fill="white">
        <path
            d="M460.704 -89.7906L418.995 -98.1936C415.591 -98.8731 412.786 -95.5784 414.023 -92.3281L429.187 -52.2419C430.194 -49.5896 433.662 -48.9476 435.498 -51.081L463.062 -83.0993C465.103 -85.4707 463.796 -89.1809 460.711 -89.7994L460.704 -89.7906Z" />
        <path
            d="M375.343 -163.469L389.792 -123.4C390.965 -120.129 388.124 -116.865 384.731 -117.612L342.9 -126.719C340.131 -127.327 338.986 -130.666 340.823 -132.799L368.386 -164.818C370.428 -167.189 374.284 -166.442 375.351 -163.478L375.343 -163.469Z" />
        <path
            d="M263.038 -121.213L274.559 -86.7584C275.398 -84.2678 277.512 -82.397 280.082 -81.8845L360.91 -65.7792C363.48 -65.2665 365.6 -63.437 366.485 -60.9671L394.325 16.7081C395.21 19.1779 397.363 21.0052 399.953 21.4584L435.687 27.8069C438.261 28.2613 440.866 27.3445 442.558 25.3785L498.485 -39.587C500.094 -41.456 500.626 -44.0395 499.897 -46.4205L490.583 -76.5881C490.392 -77.2139 489.995 -78.4479 489.551 -79.861C488.599 -82.849 484.745 -83.6556 482.737 -81.2863C481.871 -80.2812 481.082 -79.3643 480.596 -78.8001L430.703 -21.059C428.062 -17.991 423.057 -18.9759 421.68 -22.8226L395.993 -94.9369C395.064 -97.5367 392.837 -99.4584 390.141 -99.9873L315.122 -114.797C311.119 -115.594 309.418 -120.397 312.05 -123.473L361.73 -181.398C362.171 -181.909 362.966 -182.852 363.868 -183.917C365.861 -186.269 364.49 -189.942 361.417 -190.428C360.039 -190.649 358.786 -190.854 358.073 -190.963L326.901 -195.74C324.442 -196.111 321.976 -195.212 320.359 -193.335L264.433 -128.369C262.74 -126.403 262.211 -123.678 263.047 -121.205L263.038 -121.213Z" />
        <path
            d="M268.307 204.958L310.016 213.361C313.42 214.041 316.226 210.746 314.988 207.496L299.825 167.41C298.817 164.757 295.349 164.115 293.513 166.249L265.949 198.267C263.908 200.639 265.215 204.349 268.3 204.967L268.307 204.958Z" />
        <path
            d="M353.668 278.637L339.219 238.568C338.046 235.297 340.887 232.033 344.28 232.78L386.111 241.887C388.88 242.495 390.025 245.834 388.189 247.967L360.625 279.986C358.584 282.357 354.727 281.61 353.66 278.646L353.668 278.637Z" />
        <path
            d="M465.973 236.381L454.452 201.926C453.613 199.436 451.499 197.565 448.93 197.052L368.101 180.947C365.531 180.434 363.411 178.605 362.526 176.135L334.686 98.4597C333.801 95.9899 331.648 94.1626 329.058 93.7094L293.324 87.3609C290.75 86.9065 288.145 87.8232 286.453 89.7892L230.526 154.755C228.917 156.624 228.385 159.207 229.114 161.588L238.428 191.756C238.619 192.382 239.016 193.616 239.46 195.029C240.412 198.017 244.266 198.823 246.274 196.454C247.14 195.449 247.929 194.532 248.415 193.968L298.308 136.227C300.95 133.159 305.954 134.144 307.331 137.99L333.018 210.105C333.947 212.704 336.174 214.626 338.87 215.155L413.889 229.965C417.892 230.762 419.593 235.565 416.961 238.64L367.281 296.566C366.84 297.077 366.045 298.019 365.143 299.085C363.15 301.436 364.521 305.11 367.594 305.596C368.972 305.817 370.225 306.022 370.938 306.131L402.11 310.908C404.569 311.279 407.035 310.38 408.652 308.502L464.579 243.537C466.271 241.571 466.8 238.846 465.964 236.373L465.973 236.381Z" />
        <path
            d="M440.999 55.1022L399.29 46.6992C395.886 46.0197 393.08 49.3145 394.318 52.5647L409.482 92.6509C410.489 95.3032 413.957 95.9452 415.793 93.8118L443.357 61.7935C445.398 59.4221 444.091 55.7119 441.006 55.0934L440.999 55.1022Z" />
        <path
            d="M355.638 -18.5761L370.087 21.4924C371.26 24.7638 368.419 28.0279 365.026 27.2811L323.195 18.1735C320.426 17.5658 319.281 14.2267 321.117 12.0934L348.681 -19.925C350.723 -22.2964 354.579 -21.5491 355.646 -18.5849L355.638 -18.5761Z" />
        <path
            d="M243.333 23.6798L254.854 58.1344C255.693 60.6251 257.807 62.4958 260.376 63.0083L341.205 79.1136C343.775 79.6263 345.895 81.4558 346.78 83.9257L374.62 161.601C375.505 164.071 377.658 165.898 380.248 166.351L415.982 172.7C418.555 173.154 421.161 172.237 422.853 170.271L478.78 105.306C480.389 103.437 480.921 100.853 480.192 98.4723L470.878 68.3047C470.687 67.6789 470.29 66.4449 469.846 65.0319C468.894 62.0438 465.04 61.2373 463.032 63.6066C462.166 64.6116 461.377 65.5285 460.891 66.0927L410.998 123.834C408.357 126.902 403.352 125.917 401.975 122.07L376.288 49.9559C375.359 47.3562 373.132 45.4345 370.436 44.9055L295.417 30.0955C291.414 29.2991 289.713 24.496 292.345 21.4203L342.025 -36.5052C342.466 -37.0165 343.261 -37.9588 344.163 -39.0243C346.156 -41.3759 344.785 -45.049 341.712 -45.535C340.334 -45.7564 339.081 -45.9615 338.368 -46.07L307.196 -50.8473C304.737 -51.2181 302.271 -50.3195 300.654 -48.4417L244.727 16.5238C243.035 18.4898 242.506 21.2145 243.342 23.6875L243.333 23.6798Z" />
        <path
            d="M693.703 -89.7894L651.995 -98.1924C648.59 -98.8719 645.785 -95.5771 647.023 -92.3269L662.186 -52.2407C663.194 -49.5884 666.661 -48.9464 668.498 -51.0798L696.061 -83.0981C698.103 -85.4695 696.795 -89.1797 693.711 -89.7982L693.703 -89.7894Z" />
        <path
            d="M608.342 -163.468L622.791 -123.399C623.964 -120.128 621.123 -116.864 617.73 -117.611L575.899 -126.718C573.13 -127.326 571.985 -130.665 573.822 -132.798L601.385 -164.817C603.427 -167.188 607.283 -166.441 608.35 -163.477L608.342 -163.468Z" />
        <path
            d="M496.037 -121.212L507.559 -86.7572C508.397 -84.2665 510.511 -82.3958 513.081 -81.8833L593.909 -65.778C596.48 -65.2653 598.599 -63.4358 599.484 -60.9659L627.324 16.7093C628.209 19.1791 630.362 21.0064 632.952 21.4596L668.686 27.8081C671.26 28.2625 673.865 27.3458 675.558 25.3798L731.485 -39.5858C733.094 -41.4548 733.626 -44.0383 732.897 -46.4193L723.582 -76.5869C723.392 -77.2127 722.995 -78.4467 722.55 -79.8598C721.599 -82.8478 717.745 -83.6543 715.736 -81.285C714.871 -80.28 714.081 -79.3631 713.596 -78.7989L663.702 -21.0578C661.061 -17.9897 656.056 -18.9746 654.68 -22.8213L628.992 -94.9357C628.063 -97.5354 625.837 -99.4571 623.141 -99.9861L548.121 -114.796C544.118 -115.593 542.417 -120.396 545.05 -123.471L594.73 -181.397C595.17 -181.908 595.966 -182.85 596.867 -183.916C598.861 -186.267 597.49 -189.941 594.416 -190.427C593.038 -190.648 591.785 -190.853 591.072 -190.962L559.901 -195.739C557.441 -196.11 554.975 -195.211 553.359 -193.333L497.432 -128.368C495.739 -126.402 495.211 -123.677 496.046 -121.204L496.037 -121.212Z" />
        <path
            d="M501.308 204.961L543.017 213.364C546.421 214.043 549.227 210.748 547.989 207.498L532.826 167.412C531.818 164.76 528.35 164.118 526.514 166.251L498.95 198.269C496.909 200.641 498.216 204.351 501.301 204.969L501.308 204.961Z" />
        <path
            d="M586.669 278.639L572.221 238.57C571.047 235.299 573.888 232.035 577.282 232.782L619.112 241.889C621.882 242.497 623.026 245.836 621.19 247.969L593.626 279.988C591.585 282.359 587.728 281.612 586.662 278.648L586.669 278.639Z" />
        <path
            d="M698.974 236.383L687.453 201.928C686.615 199.438 684.501 197.567 681.931 197.054L601.102 180.949C598.532 180.436 596.412 178.607 595.527 176.137L567.687 98.4619C566.802 95.9921 564.649 94.1648 562.059 93.7116L526.325 87.3631C523.752 86.9087 521.146 87.8254 519.454 89.7914L463.527 154.757C461.918 156.626 461.386 159.209 462.115 161.59L471.429 191.758C471.62 192.384 472.017 193.618 472.461 195.031C473.413 198.019 477.267 198.826 479.276 196.456C480.141 195.451 480.93 194.534 481.416 193.97L531.309 136.229C533.951 133.161 538.955 134.146 540.332 137.993L566.02 210.107C566.948 212.707 569.175 214.628 571.871 215.157L646.89 229.967C650.893 230.764 652.594 235.567 649.962 238.643L600.282 296.568C599.842 297.079 599.046 298.022 598.144 299.087C596.151 301.439 597.522 305.112 600.595 305.598C601.973 305.819 603.226 306.024 603.939 306.133L635.111 310.91C637.57 311.281 640.036 310.382 641.653 308.504L697.58 243.539C699.272 241.573 699.801 238.848 698.965 236.375L698.974 236.383Z" />
        <path
            d="M674 55.1032L632.291 46.7001C628.887 46.0206 626.082 49.3155 627.319 52.5657L642.483 92.6519C643.49 95.3041 646.958 95.9462 648.795 93.8128L676.358 61.7945C678.4 59.4231 677.092 55.7129 674.008 55.0944L674 55.1032Z" />
        <path
            d="M588.639 -18.5751L603.088 21.4934C604.261 24.7648 601.42 28.0289 598.027 27.2821L556.196 18.1745C553.427 17.5667 552.282 14.2277 554.119 12.0943L581.682 -19.924C583.724 -22.2954 587.58 -21.5481 588.647 -18.584L588.639 -18.5751Z" />
        <path
            d="M476.334 23.6808L487.856 58.1354C488.694 60.626 490.808 62.4968 493.378 63.0093L574.206 79.1146C576.776 79.6273 578.896 81.4568 579.781 83.9267L607.621 161.602C608.506 164.072 610.659 165.899 613.249 166.352L648.983 172.701C651.557 173.155 654.162 172.238 655.855 170.272L711.781 105.307C713.39 103.438 713.922 100.854 713.193 98.4733L703.879 68.3057C703.688 67.6799 703.291 66.4459 702.847 65.0328C701.896 62.0448 698.041 61.2382 696.033 63.6075C695.168 64.6126 694.378 65.5295 693.893 66.0937L643.999 123.835C641.358 126.903 636.353 125.918 634.977 122.071L609.289 49.9569C608.36 47.3571 606.134 45.4354 603.438 44.9065L528.418 30.0964C524.415 29.3 522.714 24.4969 525.346 21.4212L575.027 -36.5042C575.467 -37.0156 576.262 -37.9578 577.164 -39.0234C579.158 -41.3749 577.786 -45.048 574.713 -45.5341C573.335 -45.7554 572.082 -45.9606 571.369 -46.069L540.198 -50.8463C537.738 -51.2171 535.272 -50.3185 533.656 -48.4407L477.729 16.5248C476.036 18.4908 475.508 21.2154 476.343 23.6885L476.334 23.6808Z" />
        <path
            d="M931.704 -89.7906L889.995 -98.1936C886.591 -98.8731 883.785 -95.5784 885.023 -92.3281L900.186 -52.2419C901.194 -49.5896 904.662 -48.9476 906.498 -51.081L934.062 -83.0993C936.103 -85.4707 934.796 -89.1809 931.711 -89.7994L931.704 -89.7906Z" />
        <path
            d="M846.343 -163.469L860.791 -123.4C861.964 -120.129 859.124 -116.865 855.73 -117.612L813.9 -126.719C811.13 -127.327 809.986 -130.666 811.822 -132.799L839.386 -164.818C841.427 -167.189 845.284 -166.442 846.35 -163.478L846.343 -163.469Z" />
        <path
            d="M734.038 -121.213L745.559 -86.7584C746.397 -84.2678 748.511 -82.397 751.081 -81.8845L831.91 -65.7792C834.48 -65.2665 836.6 -63.437 837.485 -60.9671L865.325 16.7081C866.21 19.1779 868.362 21.0052 870.953 21.4584L906.687 27.8069C909.26 28.2613 911.866 27.3445 913.558 25.3785L969.485 -39.587C971.094 -41.456 971.626 -44.0395 970.897 -46.4205L961.583 -76.5881C961.392 -77.2139 960.995 -78.4479 960.551 -79.861C959.599 -82.849 955.745 -83.6556 953.736 -81.2863C952.871 -80.2812 952.082 -79.3643 951.596 -78.8001L901.703 -21.059C899.061 -17.991 894.057 -18.9759 892.68 -22.8226L866.992 -94.9369C866.064 -97.5367 863.837 -99.4584 861.141 -99.9873L786.122 -114.797C782.119 -115.594 780.418 -120.397 783.05 -123.473L832.73 -181.398C833.17 -181.909 833.966 -182.852 834.868 -183.917C836.861 -186.269 835.49 -189.942 832.417 -190.428C831.039 -190.649 829.786 -190.854 829.073 -190.963L797.901 -195.74C795.442 -196.111 792.976 -195.212 791.359 -193.335L735.432 -128.369C733.74 -126.403 733.211 -123.678 734.047 -121.205L734.038 -121.213Z" />
        <path
            d="M739.307 204.957L781.016 213.36C784.42 214.04 787.225 210.745 785.988 207.495L770.824 167.409C769.817 164.756 766.349 164.114 764.513 166.248L736.949 198.266C734.907 200.638 736.215 204.348 739.299 204.966L739.307 204.957Z" />
        <path
            d="M824.668 278.636L810.219 238.567C809.046 235.296 811.887 232.032 815.28 232.779L857.111 241.886C859.88 242.494 861.025 245.833 859.188 247.966L831.625 279.985C829.583 282.356 825.727 281.609 824.66 278.645L824.668 278.636Z" />
        <path
            d="M936.973 236.38L925.452 201.925C924.613 199.435 922.499 197.564 919.929 197.051L839.101 180.946C836.531 180.433 834.411 178.604 833.526 176.134L805.686 98.4587C804.801 95.9889 802.648 94.1616 800.058 93.7084L764.324 87.3599C761.75 86.9055 759.145 87.8223 757.452 89.7883L701.526 154.754C699.917 156.623 699.385 159.206 700.114 161.587L709.428 191.755C709.619 192.381 710.016 193.615 710.46 195.028C711.411 198.016 715.266 198.822 717.274 196.453C718.139 195.448 718.929 194.531 719.415 193.967L769.308 136.226C771.949 133.158 776.954 134.143 778.331 137.989L804.018 210.104C804.947 212.703 807.174 214.625 809.87 215.154L884.889 229.964C888.892 230.761 890.593 235.564 887.961 238.639L838.281 296.565C837.84 297.076 837.045 298.018 836.143 299.084C834.15 301.436 835.521 305.109 838.594 305.595C839.972 305.816 841.225 306.021 841.938 306.13L873.109 310.907C875.569 311.278 878.035 310.379 879.652 308.501L935.578 243.536C937.271 241.57 937.8 238.845 936.964 236.372L936.973 236.38Z" />
        <path
            d="M911.999 55.102L870.29 46.6989C866.886 46.0194 864.08 49.3142 865.318 52.5645L880.481 92.6507C881.489 95.3029 884.957 95.9449 886.793 93.8116L914.357 61.7933C916.398 59.4218 915.091 55.7117 912.006 55.0932L911.999 55.102Z" />
        <path
            d="M826.638 -18.5764L841.086 21.4922C842.259 24.7636 839.418 28.0277 836.025 27.2808L794.195 18.1733C791.425 17.5655 790.281 14.2265 792.117 12.0931L819.681 -19.9252C821.722 -22.2966 825.579 -21.5494 826.645 -18.5852L826.638 -18.5764Z" />
        <path
            d="M714.333 23.6796L725.854 58.1342C726.692 60.6248 728.806 62.4956 731.376 63.0081L812.205 79.1134C814.775 79.6261 816.895 81.4556 817.78 83.9254L845.62 161.601C846.505 164.07 848.657 165.898 851.248 166.351L886.981 172.699C889.555 173.154 892.161 172.237 893.853 170.271L949.78 105.306C951.389 103.437 951.921 100.853 951.192 98.4721L941.878 68.3045C941.687 67.6787 941.29 66.4447 940.846 65.0316C939.894 62.0436 936.04 61.237 934.031 63.6063C933.166 64.6113 932.377 65.5283 931.891 66.0925L881.997 123.834C879.356 126.902 874.352 125.917 872.975 122.07L847.287 49.9557C846.359 47.3559 844.132 45.4342 841.436 44.9053L766.417 30.0952C762.414 29.2988 760.713 24.4957 763.345 21.42L813.025 -36.5054C813.465 -37.0168 814.261 -37.959 815.163 -39.0246C817.156 -41.3761 815.785 -45.0493 812.712 -45.5353C811.333 -45.7567 810.081 -45.9618 809.368 -46.0702L778.196 -50.8475C775.737 -51.2183 773.271 -50.3197 771.654 -48.4419L715.727 16.5236C714.035 18.4896 713.506 21.2142 714.342 23.6873L714.333 23.6796Z" />
        <path
            d="M1164.7 -89.7906L1122.99 -98.1936C1119.59 -98.8731 1116.78 -95.5784 1118.02 -92.3281L1133.19 -52.2419C1134.19 -49.5896 1137.66 -48.9476 1139.5 -51.081L1167.06 -83.0993C1169.1 -85.4707 1167.79 -89.1809 1164.71 -89.7994L1164.7 -89.7906Z" />
        <path
            d="M1079.34 -163.469L1093.79 -123.4C1094.96 -120.129 1092.12 -116.865 1088.73 -117.612L1046.9 -126.719C1044.13 -127.327 1042.98 -130.666 1044.82 -132.799L1072.39 -164.818C1074.43 -167.189 1078.28 -166.442 1079.35 -163.478L1079.34 -163.469Z" />
        <path
            d="M967.037 -121.213L978.558 -86.7584C979.397 -84.2678 981.511 -82.397 984.081 -81.8845L1064.91 -65.7792C1067.48 -65.2665 1069.6 -63.437 1070.48 -60.9671L1098.32 16.7081C1099.21 19.1779 1101.36 21.0052 1103.95 21.4584L1139.69 27.8069C1142.26 28.2613 1144.87 27.3445 1146.56 25.3785L1202.48 -39.587C1204.09 -41.456 1204.63 -44.0395 1203.9 -46.4205L1194.58 -76.5881C1194.39 -77.2139 1193.99 -78.4479 1193.55 -79.861C1192.6 -82.849 1188.74 -83.6556 1186.74 -81.2863C1185.87 -80.2812 1185.08 -79.3643 1184.6 -78.8001L1134.7 -21.059C1132.06 -17.991 1127.06 -18.9759 1125.68 -22.8226L1099.99 -94.9369C1099.06 -97.5367 1096.84 -99.4584 1094.14 -99.9873L1019.12 -114.797C1015.12 -115.594 1013.42 -120.397 1016.05 -123.473L1065.73 -181.398C1066.17 -181.909 1066.97 -182.852 1067.87 -183.917C1069.86 -186.269 1068.49 -189.942 1065.42 -190.428C1064.04 -190.649 1062.79 -190.854 1062.07 -190.963L1030.9 -195.74C1028.44 -196.111 1025.97 -195.212 1024.36 -193.335L968.432 -128.369C966.739 -126.403 966.21 -123.678 967.046 -121.205L967.037 -121.213Z" />
        <path
            d="M972.308 204.959L1014.02 213.362C1017.42 214.042 1020.23 210.747 1018.99 207.497L1003.83 167.411C1002.82 164.758 999.35 164.116 997.514 166.25L969.95 198.268C967.908 200.639 969.216 204.35 972.3 204.968L972.308 204.959Z" />
        <path
            d="M1057.67 278.638L1043.22 238.569C1042.05 235.298 1044.89 232.034 1048.28 232.78L1090.11 241.888C1092.88 242.496 1094.03 245.835 1092.19 247.968L1064.63 279.987C1062.58 282.358 1058.73 281.611 1057.66 278.647L1057.67 278.638Z" />
        <path
            d="M1169.97 236.382L1158.45 201.927C1157.61 199.437 1155.5 197.566 1152.93 197.053L1072.1 180.948C1069.53 180.435 1067.41 178.606 1066.53 176.136L1038.69 98.4607C1037.8 95.9908 1035.65 94.1636 1033.06 93.7104L997.325 87.3618C994.751 86.9075 992.146 87.8242 990.453 89.7902L934.527 154.756C932.918 156.625 932.386 159.208 933.115 161.589L942.429 191.757C942.62 192.383 943.017 193.617 943.461 195.03C944.413 198.018 948.267 198.824 950.275 196.455C951.14 195.45 951.93 194.533 952.416 193.969L1002.31 136.228C1004.95 133.16 1009.95 134.145 1011.33 137.991L1037.02 210.106C1037.95 212.705 1040.17 214.627 1042.87 215.156L1117.89 229.966C1121.89 230.763 1123.59 235.566 1120.96 238.641L1071.28 296.567C1070.84 297.078 1070.05 298.02 1069.14 299.086C1067.15 301.437 1068.52 305.111 1071.6 305.597C1072.97 305.818 1074.23 306.023 1074.94 306.132L1106.11 310.909C1108.57 311.28 1111.04 310.381 1112.65 308.503L1168.58 243.538C1170.27 241.572 1170.8 238.847 1169.96 236.374L1169.97 236.382Z" />
        <path
            d="M1145 55.102L1103.29 46.6989C1099.89 46.0194 1097.08 49.3142 1098.32 52.5645L1113.48 92.6507C1114.49 95.3029 1117.96 95.9449 1119.79 93.8116L1147.36 61.7933C1149.4 59.4218 1148.09 55.7117 1145.01 55.0932L1145 55.102Z" />
        <path
            d="M1059.64 -18.5764L1074.09 21.4922C1075.26 24.7636 1072.42 28.0277 1069.03 27.2808L1027.2 18.1733C1024.43 17.5655 1023.28 14.2265 1025.12 12.0931L1052.68 -19.9252C1054.72 -22.2966 1058.58 -21.5494 1059.65 -18.5852L1059.64 -18.5764Z" />
        <path
            d="M947.334 23.6796L958.855 58.1342C959.694 60.6248 961.808 62.4956 964.377 63.0081L1045.21 79.1134C1047.78 79.6261 1049.9 81.4556 1050.78 83.9254L1078.62 161.601C1079.51 164.07 1081.66 165.898 1084.25 166.351L1119.98 172.699C1122.56 173.154 1125.16 172.237 1126.85 170.271L1182.78 105.306C1184.39 103.437 1184.92 100.853 1184.19 98.4721L1174.88 68.3045C1174.69 67.6787 1174.29 66.4447 1173.85 65.0316C1172.9 62.0436 1169.04 61.237 1167.03 63.6063C1166.17 64.6113 1165.38 65.5283 1164.89 66.0925L1115 123.834C1112.36 126.902 1107.35 125.917 1105.98 122.07L1080.29 49.9557C1079.36 47.3559 1077.13 45.4342 1074.44 44.9053L999.418 30.0952C995.415 29.2988 993.714 24.4957 996.346 21.42L1046.03 -36.5054C1046.47 -37.0168 1047.26 -37.959 1048.16 -39.0246C1050.16 -41.3761 1048.79 -45.0493 1045.71 -45.5353C1044.33 -45.7567 1043.08 -45.9618 1042.37 -46.0702L1011.2 -50.8475C1008.74 -51.2183 1006.27 -50.3197 1004.66 -48.4419L948.728 16.5236C947.036 18.4896 946.507 21.2142 947.343 23.6873L947.334 23.6796Z" />
        <path
            d="M-10.2954 -89.7842L-52.0041 -98.1873C-55.4084 -98.8668 -58.2138 -95.572 -56.976 -92.3217L-41.8127 -52.2355C-40.805 -49.5833 -37.3374 -48.9413 -35.5009 -51.0746L-7.93733 -83.093C-5.89584 -85.4644 -7.20342 -89.1745 -10.2878 -89.7931L-10.2954 -89.7842Z" />
        <path
            d="M-95.6563 -163.463L-81.2076 -123.394C-80.0346 -120.123 -82.8755 -116.859 -86.2686 -117.605L-128.099 -126.713C-130.869 -127.321 -132.013 -130.66 -130.177 -132.793L-102.613 -164.811C-100.572 -167.183 -96.7151 -166.436 -95.6487 -163.471L-95.6563 -163.463Z" />
        <path
            d="M-207.961 -121.207L-196.44 -86.7521C-195.602 -84.2614 -193.488 -82.3906 -190.918 -81.8782L-110.089 -65.7728C-107.519 -65.2602 -105.399 -63.4306 -104.514 -60.9608L-76.6744 16.7144C-75.7891 19.1843 -73.6365 21.0115 -71.0462 21.4648L-35.3125 27.8132C-32.7387 28.2676 -30.1333 27.3509 -28.4408 25.3849L27.486 -39.5807C29.0949 -41.4496 29.627 -44.0332 28.898 -46.4142L19.5838 -76.5818C19.3929 -77.2076 18.996 -78.4415 18.5516 -79.8546C17.6002 -82.8427 13.746 -83.6492 11.7374 -81.2799C10.8722 -80.2749 10.0828 -79.358 9.59708 -78.7937L-40.2965 -21.0526C-42.9377 -17.9846 -47.9423 -18.9695 -49.3189 -22.8162L-75.0067 -94.9306C-75.9355 -97.5303 -78.1619 -99.452 -80.8578 -99.9809L-155.877 -114.791C-159.88 -115.587 -161.581 -120.391 -158.949 -123.466L-109.269 -181.392C-108.829 -181.903 -108.033 -182.845 -107.131 -183.911C-105.138 -186.262 -106.509 -189.935 -109.582 -190.422C-110.961 -190.643 -112.213 -190.848 -112.926 -190.956L-144.098 -195.734C-146.557 -196.105 -149.023 -195.206 -150.64 -193.328L-206.567 -128.363C-208.259 -126.397 -208.788 -123.672 -207.952 -121.199L-207.961 -121.207Z" />
        <path
            d="M-202.692 204.964L-160.984 213.367C-157.579 214.046 -154.774 210.752 -156.012 207.501L-171.175 167.415C-172.183 164.763 -175.65 164.121 -177.487 166.254L-205.05 198.272C-207.092 200.644 -205.784 204.354 -202.7 204.973L-202.692 204.964Z" />
        <path
            d="M-117.331 278.642L-131.78 238.574C-132.953 235.302 -130.112 232.038 -126.719 232.785L-84.8883 241.892C-82.119 242.5 -80.9743 245.839 -82.8109 247.973L-110.374 279.991C-112.416 282.362 -116.273 281.615 -117.339 278.651L-117.331 278.642Z" />
        <path
            d="M-5.0264 236.386L-16.5478 201.932C-17.386 199.441 -19.5 197.57 -22.0699 197.058L-102.898 180.952C-105.469 180.44 -107.588 178.61 -108.474 176.14L-136.313 98.4651C-137.198 95.9952 -139.351 94.168 -141.941 93.7148L-177.675 87.3662C-180.249 86.9119 -182.854 87.8286 -184.547 89.7946L-240.474 154.76C-242.083 156.629 -242.615 159.213 -241.886 161.594L-232.571 191.761C-232.381 192.387 -231.984 193.621 -231.539 195.034C-230.588 198.022 -226.734 198.829 -224.725 196.459C-223.86 195.454 -223.07 194.537 -222.585 193.973L-172.691 136.232C-170.05 133.164 -165.045 134.149 -163.669 137.996L-137.981 210.11C-137.052 212.71 -134.826 214.631 -132.13 215.16L-57.1103 229.971C-53.1076 230.767 -51.4064 235.57 -54.0387 238.646L-103.719 296.571C-104.159 297.083 -104.955 298.025 -105.856 299.09C-107.85 301.442 -106.479 305.115 -103.405 305.601C-102.027 305.822 -100.775 306.028 -100.061 306.136L-68.8898 310.913C-66.4306 311.284 -63.9642 310.385 -62.3477 308.508L-6.42088 243.542C-4.72842 241.576 -4.19972 238.852 -5.03531 236.378L-5.0264 236.386Z" />
        <path
            d="M-30.0004 55.1083L-71.7092 46.7053C-75.1135 46.0258 -77.9188 49.3206 -76.6811 52.5708L-61.5178 92.657C-60.5101 95.3093 -57.0425 95.9513 -55.206 93.8179L-27.6424 61.7996C-25.6009 59.4282 -26.9085 55.7181 -29.9929 55.0995L-30.0004 55.1083Z" />
        <path
            d="M-115.361 -18.57L-100.913 21.4985C-99.7397 24.7699 -102.581 28.034 -105.974 27.2872L-147.804 18.1796C-150.574 17.5719 -151.718 14.2328 -149.882 12.0995L-122.318 -19.9189C-120.277 -22.2903 -116.42 -21.543 -115.354 -18.5788L-115.361 -18.57Z" />
        <path
            d="M-227.666 23.6859L-216.145 58.1405C-215.307 60.6312 -213.193 62.5019 -210.623 63.0144L-129.794 79.1198C-127.224 79.6324 -125.104 81.4619 -124.219 83.9318L-96.3795 161.607C-95.4942 164.077 -93.3416 165.904 -90.7513 166.357L-55.0176 172.706C-52.4438 173.16 -49.8384 172.243 -48.1459 170.277L7.78091 105.312C9.38986 103.443 9.9219 100.859 9.19295 98.4784L-0.121262 68.3108C-0.312151 67.685 -0.709083 66.451 -1.15346 65.038C-2.10493 62.0499 -5.95909 61.2434 -7.96773 63.6127C-8.83292 64.6177 -9.62228 65.5346 -10.108 66.0988L-60.0016 123.84C-62.6428 126.908 -67.6474 125.923 -69.0239 122.076L-94.7117 49.962C-95.6405 47.3623 -97.8669 45.4406 -100.563 44.9116L-175.582 30.1016C-179.585 29.3052 -181.286 24.5021 -178.654 21.4264L-128.974 -36.4991C-128.534 -37.0104 -127.738 -37.9527 -126.836 -39.0182C-124.843 -41.3698 -126.214 -45.0429 -129.288 -45.5289C-130.666 -45.7503 -131.918 -45.9554 -132.631 -46.0639L-163.803 -50.8412C-166.262 -51.212 -168.728 -50.3134 -170.345 -48.4356L-226.272 16.5299C-227.964 18.4959 -228.493 21.2206 -227.657 23.6936L-227.666 23.6859Z" />
        <path
            d="M222.706 -89.7842L180.997 -98.1873C177.593 -98.8668 174.787 -95.572 176.025 -92.3217L191.188 -52.2355C192.196 -49.5833 195.663 -48.9413 197.5 -51.0746L225.064 -83.093C227.105 -85.4644 225.798 -89.1745 222.713 -89.7931L222.706 -89.7842Z" />
        <path
            d="M137.345 -163.463L151.793 -123.394C152.966 -120.123 150.125 -116.859 146.732 -117.605L104.902 -126.713C102.132 -127.321 100.988 -130.66 102.824 -132.793L130.388 -164.811C132.429 -167.183 136.286 -166.436 137.352 -163.471L137.345 -163.463Z" />
        <path
            d="M25.0397 -121.207L36.5611 -86.7521C37.3993 -84.2614 39.5133 -82.3906 42.0832 -81.8782L122.912 -65.7728C125.482 -65.2602 127.602 -63.4306 128.487 -60.9608L156.327 16.7144C157.212 19.1843 159.364 21.0115 161.955 21.4648L197.688 27.8132C200.262 28.2676 202.868 27.3509 204.56 25.3849L260.487 -39.5807C262.096 -41.4496 262.628 -44.0332 261.899 -46.4142L252.585 -76.5818C252.394 -77.2076 251.997 -78.4415 251.553 -79.8546C250.601 -82.8427 246.747 -83.6492 244.738 -81.2799C243.873 -80.2749 243.084 -79.358 242.598 -78.7937L192.704 -21.0526C190.063 -17.9846 185.059 -18.9695 183.682 -22.8162L157.994 -94.9306C157.066 -97.5303 154.839 -99.452 152.143 -99.9809L77.1236 -114.791C73.1209 -115.587 71.4197 -120.391 74.052 -123.466L123.732 -181.392C124.172 -181.903 124.968 -182.845 125.87 -183.911C127.863 -186.262 126.492 -189.935 123.418 -190.422C122.04 -190.643 120.788 -190.848 120.075 -190.956L88.9031 -195.734C86.4439 -196.105 83.9776 -195.206 82.361 -193.328L26.4342 -128.363C24.7417 -126.397 24.213 -123.672 25.0486 -121.199L25.0397 -121.207Z" />
        <path
            d="M30.3106 204.966L72.0193 213.369C75.4237 214.048 78.229 210.753 76.9913 207.503L61.828 167.417C60.8203 164.765 57.3527 164.123 55.5162 166.256L27.9526 198.274C25.9111 200.646 27.2187 204.356 30.303 204.975L30.3106 204.966Z" />
        <path
            d="M115.672 278.644L101.223 238.576C100.05 235.304 102.891 232.04 106.284 232.787L148.115 241.894C150.884 242.502 152.029 245.841 150.192 247.975L122.628 279.993C120.587 282.364 116.73 281.617 115.664 278.653L115.672 278.644Z" />
        <path
            d="M227.977 236.388L216.455 201.934C215.617 199.443 213.503 197.572 210.933 197.06L130.104 180.954C127.534 180.442 125.415 178.612 124.529 176.142L96.6897 98.467C95.8044 95.9972 93.6518 94.17 91.0615 93.7167L55.3278 87.3682C52.754 86.9138 50.1486 87.8306 48.4561 89.7966L-7.47073 154.762C-9.07968 156.631 -9.61172 159.215 -8.88277 161.596L0.431442 191.763C0.622332 192.389 1.01926 193.623 1.46364 195.036C2.41511 198.024 6.26927 198.831 8.27791 196.461C9.1431 195.456 9.93247 194.539 10.4182 193.975L60.3118 136.234C62.953 133.166 67.9575 134.151 69.3341 137.998L95.0219 210.112C95.9507 212.712 98.1771 214.633 100.873 215.162L175.893 229.972C179.895 230.769 181.597 235.572 178.964 238.648L129.284 296.573C128.844 297.084 128.048 298.027 127.147 299.092C125.153 301.444 126.524 305.117 129.598 305.603C130.976 305.824 132.228 306.029 132.942 306.138L164.113 310.915C166.572 311.286 169.039 310.387 170.655 308.51L226.582 243.544C228.274 241.578 228.803 238.853 227.968 236.38L227.977 236.388Z" />
        <path
            d="M203.002 55.1083L161.294 46.7053C157.889 46.0258 155.084 49.3206 156.322 52.5708L171.485 92.657C172.493 95.3093 175.96 95.9513 177.797 93.8179L205.361 61.7996C207.402 59.4282 206.094 55.7181 203.01 55.0995L203.002 55.1083Z" />
        <path
            d="M117.642 -18.57L132.09 21.4985C133.263 24.7699 130.422 28.034 127.029 27.2872L85.1985 18.1796C82.4292 17.5719 81.2845 14.2328 83.121 12.0995L110.685 -19.9189C112.726 -22.2903 116.583 -21.543 117.649 -18.5788L117.642 -18.57Z" />
        <path
            d="M5.33659 23.6859L16.858 58.1405C17.6961 60.6312 19.8102 62.5019 22.3801 63.0144L103.209 79.1198C105.779 79.6324 107.898 81.4619 108.784 83.9318L136.623 161.607C137.509 164.077 139.661 165.904 142.252 166.357L177.985 172.706C180.559 173.16 183.165 172.243 184.857 170.277L240.784 105.312C242.393 103.443 242.925 100.859 242.196 98.4784L232.882 68.3108C232.691 67.685 232.294 66.451 231.849 65.038C230.898 62.0499 227.044 61.2434 225.035 63.6127C224.17 64.6177 223.381 65.5346 222.895 66.0988L173.001 123.84C170.36 126.908 165.356 125.923 163.979 122.076L138.291 49.962C137.362 47.3623 135.136 45.4406 132.44 44.9116L57.4205 30.1016C53.4178 29.3052 51.7166 24.5021 54.3488 21.4264L104.029 -36.4991C104.469 -37.0104 105.265 -37.9527 106.167 -39.0182C108.16 -41.3698 106.789 -45.0429 103.715 -45.5289C102.337 -45.7503 101.085 -45.9554 100.372 -46.0639L69.2 -50.8412C66.7408 -51.212 64.2744 -50.3134 62.6579 -48.4356L6.73106 16.5299C5.0386 18.4959 4.5099 21.2206 5.34549 23.6936L5.33659 23.6859Z" />
    </mask>
    <path
        d="M460.704 -89.7906L418.995 -98.1936C415.591 -98.8731 412.786 -95.5784 414.023 -92.3281L429.187 -52.2419C430.194 -49.5896 433.662 -48.9476 435.498 -51.081L463.062 -83.0993C465.103 -85.4707 463.796 -89.1809 460.711 -89.7994L460.704 -89.7906Z"
        fill="currentColor" fill-opacity="0.08" />
    <path
        d="M375.343 -163.469L389.792 -123.4C390.965 -120.129 388.124 -116.865 384.731 -117.612L342.9 -126.719C340.131 -127.327 338.986 -130.666 340.823 -132.799L368.386 -164.818C370.428 -167.189 374.284 -166.442 375.351 -163.478L375.343 -163.469Z"
        fill="currentColor" fill-opacity="0.08" />
    <path
        d="M263.038 -121.213L274.559 -86.7584C275.398 -84.2678 277.512 -82.397 280.082 -81.8845L360.91 -65.7792C363.48 -65.2665 365.6 -63.437 366.485 -60.9671L394.325 16.7081C395.21 19.1779 397.363 21.0052 399.953 21.4584L435.687 27.8069C438.261 28.2613 440.866 27.3445 442.558 25.3785L498.485 -39.587C500.094 -41.456 500.626 -44.0395 499.897 -46.4205L490.583 -76.5881C490.392 -77.2139 489.995 -78.4479 489.551 -79.861C488.599 -82.849 484.745 -83.6556 482.737 -81.2863C481.871 -80.2812 481.082 -79.3643 480.596 -78.8001L430.703 -21.059C428.062 -17.991 423.057 -18.9759 421.68 -22.8226L395.993 -94.9369C395.064 -97.5367 392.837 -99.4584 390.141 -99.9873L315.122 -114.797C311.119 -115.594 309.418 -120.397 312.05 -123.473L361.73 -181.398C362.171 -181.909 362.966 -182.852 363.868 -183.917C365.861 -186.269 364.49 -189.942 361.417 -190.428C360.039 -190.649 358.786 -190.854 358.073 -190.963L326.901 -195.74C324.442 -196.111 321.976 -195.212 320.359 -193.335L264.433 -128.369C262.74 -126.403 262.211 -123.678 263.047 -121.205L263.038 -121.213Z"
        fill="currentColor" fill-opacity="0.08" />
    <path
        d="M268.307 204.958L310.016 213.361C313.42 214.041 316.226 210.746 314.988 207.496L299.825 167.41C298.817 164.757 295.349 164.115 293.513 166.249L265.949 198.267C263.908 200.639 265.215 204.349 268.3 204.967L268.307 204.958Z"
        fill="currentColor" fill-opacity="0.08" />
    <path
        d="M353.668 278.637L339.219 238.568C338.046 235.297 340.887 232.033 344.28 232.78L386.111 241.887C388.88 242.495 390.025 245.834 388.189 247.967L360.625 279.986C358.584 282.357 354.727 281.61 353.66 278.646L353.668 278.637Z"
        fill="currentColor" fill-opacity="0.08" />
    <path
        d="M465.973 236.381L454.452 201.926C453.613 199.436 451.499 197.565 448.93 197.052L368.101 180.947C365.531 180.434 363.411 178.605 362.526 176.135L334.686 98.4597C333.801 95.9899 331.648 94.1626 329.058 93.7094L293.324 87.3609C290.75 86.9065 288.145 87.8232 286.453 89.7892L230.526 154.755C228.917 156.624 228.385 159.207 229.114 161.588L238.428 191.756C238.619 192.382 239.016 193.616 239.46 195.029C240.412 198.017 244.266 198.823 246.274 196.454C247.14 195.449 247.929 194.532 248.415 193.968L298.308 136.227C300.95 133.159 305.954 134.144 307.331 137.99L333.018 210.105C333.947 212.704 336.174 214.626 338.87 215.155L413.889 229.965C417.892 230.762 419.593 235.565 416.961 238.64L367.281 296.566C366.84 297.077 366.045 298.019 365.143 299.085C363.15 301.436 364.521 305.11 367.594 305.596C368.972 305.817 370.225 306.022 370.938 306.131L402.11 310.908C404.569 311.279 407.035 310.38 408.652 308.502L464.579 243.537C466.271 241.571 466.8 238.846 465.964 236.373L465.973 236.381Z"
        fill="currentColor" fill-opacity="0.08" />
    <path
        d="M440.999 55.1022L399.29 46.6992C395.886 46.0197 393.08 49.3145 394.318 52.5647L409.482 92.6509C410.489 95.3032 413.957 95.9452 415.793 93.8118L443.357 61.7935C445.398 59.4221 444.091 55.7119 441.006 55.0934L440.999 55.1022Z"
        fill="currentColor" fill-opacity="0.08" />
    <path
        d="M355.638 -18.5761L370.087 21.4924C371.26 24.7638 368.419 28.0279 365.026 27.2811L323.195 18.1735C320.426 17.5658 319.281 14.2267 321.117 12.0934L348.681 -19.925C350.723 -22.2964 354.579 -21.5491 355.646 -18.5849L355.638 -18.5761Z"
        fill="currentColor" fill-opacity="0.08" />
    <path
        d="M243.333 23.6798L254.854 58.1344C255.693 60.6251 257.807 62.4958 260.376 63.0083L341.205 79.1136C343.775 79.6263 345.895 81.4558 346.78 83.9257L374.62 161.601C375.505 164.071 377.658 165.898 380.248 166.351L415.982 172.7C418.555 173.154 421.161 172.237 422.853 170.271L478.78 105.306C480.389 103.437 480.921 100.853 480.192 98.4723L470.878 68.3047C470.687 67.6789 470.29 66.4449 469.846 65.0319C468.894 62.0438 465.04 61.2373 463.032 63.6066C462.166 64.6116 461.377 65.5285 460.891 66.0927L410.998 123.834C408.357 126.902 403.352 125.917 401.975 122.07L376.288 49.9559C375.359 47.3562 373.132 45.4345 370.436 44.9055L295.417 30.0955C291.414 29.2991 289.713 24.496 292.345 21.4203L342.025 -36.5052C342.466 -37.0165 343.261 -37.9588 344.163 -39.0243C346.156 -41.3759 344.785 -45.049 341.712 -45.535C340.334 -45.7564 339.081 -45.9615 338.368 -46.07L307.196 -50.8473C304.737 -51.2181 302.271 -50.3195 300.654 -48.4417L244.727 16.5238C243.035 18.4898 242.506 21.2145 243.342 23.6875L243.333 23.6798Z"
        fill="currentColor" fill-opacity="0.08" />
    <path
        d="M693.703 -89.7894L651.995 -98.1924C648.59 -98.8719 645.785 -95.5771 647.023 -92.3269L662.186 -52.2407C663.194 -49.5884 666.661 -48.9464 668.498 -51.0798L696.061 -83.0981C698.103 -85.4695 696.795 -89.1797 693.711 -89.7982L693.703 -89.7894Z"
        fill="currentColor" fill-opacity="0.08" />
    <path
        d="M608.342 -163.468L622.791 -123.399C623.964 -120.128 621.123 -116.864 617.73 -117.611L575.899 -126.718C573.13 -127.326 571.985 -130.665 573.822 -132.798L601.385 -164.817C603.427 -167.188 607.283 -166.441 608.35 -163.477L608.342 -163.468Z"
        fill="currentColor" fill-opacity="0.08" />
    <path
        d="M496.037 -121.212L507.559 -86.7572C508.397 -84.2665 510.511 -82.3958 513.081 -81.8833L593.909 -65.778C596.48 -65.2653 598.599 -63.4358 599.484 -60.9659L627.324 16.7093C628.209 19.1791 630.362 21.0064 632.952 21.4596L668.686 27.8081C671.26 28.2625 673.865 27.3458 675.558 25.3798L731.485 -39.5858C733.094 -41.4548 733.626 -44.0383 732.897 -46.4193L723.582 -76.5869C723.392 -77.2127 722.995 -78.4467 722.55 -79.8598C721.599 -82.8478 717.745 -83.6543 715.736 -81.285C714.871 -80.28 714.081 -79.3631 713.596 -78.7989L663.702 -21.0578C661.061 -17.9897 656.056 -18.9746 654.68 -22.8213L628.992 -94.9357C628.063 -97.5354 625.837 -99.4571 623.141 -99.9861L548.121 -114.796C544.118 -115.593 542.417 -120.396 545.05 -123.471L594.73 -181.397C595.17 -181.908 595.966 -182.85 596.867 -183.916C598.861 -186.267 597.49 -189.941 594.416 -190.427C593.038 -190.648 591.785 -190.853 591.072 -190.962L559.901 -195.739C557.441 -196.11 554.975 -195.211 553.359 -193.333L497.432 -128.368C495.739 -126.402 495.211 -123.677 496.046 -121.204L496.037 -121.212Z"
        fill="currentColor" fill-opacity="0.08" />
    <path
        d="M501.308 204.961L543.017 213.364C546.421 214.043 549.227 210.748 547.989 207.498L532.826 167.412C531.818 164.76 528.35 164.118 526.514 166.251L498.95 198.269C496.909 200.641 498.216 204.351 501.301 204.969L501.308 204.961Z"
        fill="currentColor" fill-opacity="0.08" />
    <path
        d="M586.669 278.639L572.221 238.57C571.047 235.299 573.888 232.035 577.282 232.782L619.112 241.889C621.882 242.497 623.026 245.836 621.19 247.969L593.626 279.988C591.585 282.359 587.728 281.612 586.662 278.648L586.669 278.639Z"
        fill="currentColor" fill-opacity="0.08" />
    <path
        d="M698.974 236.383L687.453 201.928C686.615 199.438 684.501 197.567 681.931 197.054L601.102 180.949C598.532 180.436 596.412 178.607 595.527 176.137L567.687 98.4619C566.802 95.9921 564.649 94.1648 562.059 93.7116L526.325 87.3631C523.752 86.9087 521.146 87.8254 519.454 89.7914L463.527 154.757C461.918 156.626 461.386 159.209 462.115 161.59L471.429 191.758C471.62 192.384 472.017 193.618 472.461 195.031C473.413 198.019 477.267 198.826 479.276 196.456C480.141 195.451 480.93 194.534 481.416 193.97L531.309 136.229C533.951 133.161 538.955 134.146 540.332 137.993L566.02 210.107C566.948 212.707 569.175 214.628 571.871 215.157L646.89 229.967C650.893 230.764 652.594 235.567 649.962 238.643L600.282 296.568C599.842 297.079 599.046 298.022 598.144 299.087C596.151 301.439 597.522 305.112 600.595 305.598C601.973 305.819 603.226 306.024 603.939 306.133L635.111 310.91C637.57 311.281 640.036 310.382 641.653 308.504L697.58 243.539C699.272 241.573 699.801 238.848 698.965 236.375L698.974 236.383Z"
        fill="currentColor" fill-opacity="0.08" />
    <path
        d="M674 55.1032L632.291 46.7001C628.887 46.0206 626.082 49.3155 627.319 52.5657L642.483 92.6519C643.49 95.3041 646.958 95.9462 648.795 93.8128L676.358 61.7945C678.4 59.4231 677.092 55.7129 674.008 55.0944L674 55.1032Z"
        fill="currentColor" fill-opacity="0.08" />
    <path
        d="M588.639 -18.5751L603.088 21.4934C604.261 24.7648 601.42 28.0289 598.027 27.2821L556.196 18.1745C553.427 17.5667 552.282 14.2277 554.119 12.0943L581.682 -19.924C583.724 -22.2954 587.58 -21.5481 588.647 -18.584L588.639 -18.5751Z"
        fill="currentColor" fill-opacity="0.08" />
    <path
        d="M476.334 23.6808L487.856 58.1354C488.694 60.626 490.808 62.4968 493.378 63.0093L574.206 79.1146C576.776 79.6273 578.896 81.4568 579.781 83.9267L607.621 161.602C608.506 164.072 610.659 165.899 613.249 166.352L648.983 172.701C651.557 173.155 654.162 172.238 655.855 170.272L711.781 105.307C713.39 103.438 713.922 100.854 713.193 98.4733L703.879 68.3057C703.688 67.6799 703.291 66.4459 702.847 65.0328C701.896 62.0448 698.041 61.2382 696.033 63.6075C695.168 64.6126 694.378 65.5295 693.893 66.0937L643.999 123.835C641.358 126.903 636.353 125.918 634.977 122.071L609.289 49.9569C608.36 47.3571 606.134 45.4354 603.438 44.9065L528.418 30.0964C524.415 29.3 522.714 24.4969 525.346 21.4212L575.027 -36.5042C575.467 -37.0156 576.262 -37.9578 577.164 -39.0234C579.158 -41.3749 577.786 -45.048 574.713 -45.5341C573.335 -45.7554 572.082 -45.9606 571.369 -46.069L540.198 -50.8463C537.738 -51.2171 535.272 -50.3185 533.656 -48.4407L477.729 16.5248C476.036 18.4908 475.508 21.2154 476.343 23.6885L476.334 23.6808Z"
        fill="currentColor" fill-opacity="0.08" />
    <path
        d="M931.704 -89.7906L889.995 -98.1936C886.591 -98.8731 883.785 -95.5784 885.023 -92.3281L900.186 -52.2419C901.194 -49.5896 904.662 -48.9476 906.498 -51.081L934.062 -83.0993C936.103 -85.4707 934.796 -89.1809 931.711 -89.7994L931.704 -89.7906Z"
        fill="currentColor" fill-opacity="0.08" />
    <path
        d="M846.343 -163.469L860.791 -123.4C861.964 -120.129 859.124 -116.865 855.73 -117.612L813.9 -126.719C811.13 -127.327 809.986 -130.666 811.822 -132.799L839.386 -164.818C841.427 -167.189 845.284 -166.442 846.35 -163.478L846.343 -163.469Z"
        fill="currentColor" fill-opacity="0.08" />
    <path
        d="M734.038 -121.213L745.559 -86.7584C746.397 -84.2678 748.511 -82.397 751.081 -81.8845L831.91 -65.7792C834.48 -65.2665 836.6 -63.437 837.485 -60.9671L865.325 16.7081C866.21 19.1779 868.362 21.0052 870.953 21.4584L906.687 27.8069C909.26 28.2613 911.866 27.3445 913.558 25.3785L969.485 -39.587C971.094 -41.456 971.626 -44.0395 970.897 -46.4205L961.583 -76.5881C961.392 -77.2139 960.995 -78.4479 960.551 -79.861C959.599 -82.849 955.745 -83.6556 953.736 -81.2863C952.871 -80.2812 952.082 -79.3643 951.596 -78.8001L901.703 -21.059C899.061 -17.991 894.057 -18.9759 892.68 -22.8226L866.992 -94.9369C866.064 -97.5367 863.837 -99.4584 861.141 -99.9873L786.122 -114.797C782.119 -115.594 780.418 -120.397 783.05 -123.473L832.73 -181.398C833.17 -181.909 833.966 -182.852 834.868 -183.917C836.861 -186.269 835.49 -189.942 832.417 -190.428C831.039 -190.649 829.786 -190.854 829.073 -190.963L797.901 -195.74C795.442 -196.111 792.976 -195.212 791.359 -193.335L735.432 -128.369C733.74 -126.403 733.211 -123.678 734.047 -121.205L734.038 -121.213Z"
        fill="currentColor" fill-opacity="0.08" />
    <path
        d="M739.307 204.957L781.016 213.36C784.42 214.04 787.225 210.745 785.988 207.495L770.824 167.409C769.817 164.756 766.349 164.114 764.513 166.248L736.949 198.266C734.907 200.638 736.215 204.348 739.299 204.966L739.307 204.957Z"
        fill="currentColor" fill-opacity="0.08" />
    <path
        d="M824.668 278.636L810.219 238.567C809.046 235.296 811.887 232.032 815.28 232.779L857.111 241.886C859.88 242.494 861.025 245.833 859.188 247.966L831.625 279.985C829.583 282.356 825.727 281.609 824.66 278.645L824.668 278.636Z"
        fill="currentColor" fill-opacity="0.08" />
    <path
        d="M936.973 236.38L925.452 201.925C924.613 199.435 922.499 197.564 919.929 197.051L839.101 180.946C836.531 180.433 834.411 178.604 833.526 176.134L805.686 98.4587C804.801 95.9889 802.648 94.1616 800.058 93.7084L764.324 87.3599C761.75 86.9055 759.145 87.8223 757.452 89.7883L701.526 154.754C699.917 156.623 699.385 159.206 700.114 161.587L709.428 191.755C709.619 192.381 710.016 193.615 710.46 195.028C711.411 198.016 715.266 198.822 717.274 196.453C718.139 195.448 718.929 194.531 719.415 193.967L769.308 136.226C771.949 133.158 776.954 134.143 778.331 137.989L804.018 210.104C804.947 212.703 807.174 214.625 809.87 215.154L884.889 229.964C888.892 230.761 890.593 235.564 887.961 238.639L838.281 296.565C837.84 297.076 837.045 298.018 836.143 299.084C834.15 301.436 835.521 305.109 838.594 305.595C839.972 305.816 841.225 306.021 841.938 306.13L873.109 310.907C875.569 311.278 878.035 310.379 879.652 308.501L935.578 243.536C937.271 241.57 937.8 238.845 936.964 236.372L936.973 236.38Z"
        fill="currentColor" fill-opacity="0.08" />
    <path
        d="M911.999 55.102L870.29 46.6989C866.886 46.0194 864.08 49.3142 865.318 52.5645L880.481 92.6507C881.489 95.3029 884.957 95.9449 886.793 93.8116L914.357 61.7933C916.398 59.4218 915.091 55.7117 912.006 55.0932L911.999 55.102Z"
        fill="currentColor" fill-opacity="0.08" />
    <path
        d="M826.638 -18.5764L841.086 21.4922C842.259 24.7636 839.418 28.0277 836.025 27.2808L794.195 18.1733C791.425 17.5655 790.281 14.2265 792.117 12.0931L819.681 -19.9252C821.722 -22.2966 825.579 -21.5494 826.645 -18.5852L826.638 -18.5764Z"
        fill="currentColor" fill-opacity="0.08" />
    <path
        d="M714.333 23.6796L725.854 58.1342C726.692 60.6248 728.806 62.4956 731.376 63.0081L812.205 79.1134C814.775 79.6261 816.895 81.4556 817.78 83.9254L845.62 161.601C846.505 164.07 848.657 165.898 851.248 166.351L886.981 172.699C889.555 173.154 892.161 172.237 893.853 170.271L949.78 105.306C951.389 103.437 951.921 100.853 951.192 98.4721L941.878 68.3045C941.687 67.6787 941.29 66.4447 940.846 65.0316C939.894 62.0436 936.04 61.237 934.031 63.6063C933.166 64.6113 932.377 65.5283 931.891 66.0925L881.997 123.834C879.356 126.902 874.352 125.917 872.975 122.07L847.287 49.9557C846.359 47.3559 844.132 45.4342 841.436 44.9053L766.417 30.0952C762.414 29.2988 760.713 24.4957 763.345 21.42L813.025 -36.5054C813.465 -37.0168 814.261 -37.959 815.163 -39.0246C817.156 -41.3761 815.785 -45.0493 812.712 -45.5353C811.333 -45.7567 810.081 -45.9618 809.368 -46.0702L778.196 -50.8475C775.737 -51.2183 773.271 -50.3197 771.654 -48.4419L715.727 16.5236C714.035 18.4896 713.506 21.2142 714.342 23.6873L714.333 23.6796Z"
        fill="currentColor" fill-opacity="0.08" />
    <path
        d="M1164.7 -89.7906L1122.99 -98.1936C1119.59 -98.8731 1116.78 -95.5784 1118.02 -92.3281L1133.19 -52.2419C1134.19 -49.5896 1137.66 -48.9476 1139.5 -51.081L1167.06 -83.0993C1169.1 -85.4707 1167.79 -89.1809 1164.71 -89.7994L1164.7 -89.7906Z"
        fill="currentColor" fill-opacity="0.08" />
    <path
        d="M1079.34 -163.469L1093.79 -123.4C1094.96 -120.129 1092.12 -116.865 1088.73 -117.612L1046.9 -126.719C1044.13 -127.327 1042.98 -130.666 1044.82 -132.799L1072.39 -164.818C1074.43 -167.189 1078.28 -166.442 1079.35 -163.478L1079.34 -163.469Z"
        fill="currentColor" fill-opacity="0.08" />
    <path
        d="M967.037 -121.213L978.558 -86.7584C979.397 -84.2678 981.511 -82.397 984.081 -81.8845L1064.91 -65.7792C1067.48 -65.2665 1069.6 -63.437 1070.48 -60.9671L1098.32 16.7081C1099.21 19.1779 1101.36 21.0052 1103.95 21.4584L1139.69 27.8069C1142.26 28.2613 1144.87 27.3445 1146.56 25.3785L1202.48 -39.587C1204.09 -41.456 1204.63 -44.0395 1203.9 -46.4205L1194.58 -76.5881C1194.39 -77.2139 1193.99 -78.4479 1193.55 -79.861C1192.6 -82.849 1188.74 -83.6556 1186.74 -81.2863C1185.87 -80.2812 1185.08 -79.3643 1184.6 -78.8001L1134.7 -21.059C1132.06 -17.991 1127.06 -18.9759 1125.68 -22.8226L1099.99 -94.9369C1099.06 -97.5367 1096.84 -99.4584 1094.14 -99.9873L1019.12 -114.797C1015.12 -115.594 1013.42 -120.397 1016.05 -123.473L1065.73 -181.398C1066.17 -181.909 1066.97 -182.852 1067.87 -183.917C1069.86 -186.269 1068.49 -189.942 1065.42 -190.428C1064.04 -190.649 1062.79 -190.854 1062.07 -190.963L1030.9 -195.74C1028.44 -196.111 1025.97 -195.212 1024.36 -193.335L968.432 -128.369C966.739 -126.403 966.21 -123.678 967.046 -121.205L967.037 -121.213Z"
        fill="currentColor" fill-opacity="0.08" />
    <path
        d="M972.308 204.959L1014.02 213.362C1017.42 214.042 1020.23 210.747 1018.99 207.497L1003.83 167.411C1002.82 164.758 999.35 164.116 997.514 166.25L969.95 198.268C967.908 200.639 969.216 204.35 972.3 204.968L972.308 204.959Z"
        fill="currentColor" fill-opacity="0.08" />
    <path
        d="M1057.67 278.638L1043.22 238.569C1042.05 235.298 1044.89 232.034 1048.28 232.78L1090.11 241.888C1092.88 242.496 1094.03 245.835 1092.19 247.968L1064.63 279.987C1062.58 282.358 1058.73 281.611 1057.66 278.647L1057.67 278.638Z"
        fill="currentColor" fill-opacity="0.08" />
    <path
        d="M1169.97 236.382L1158.45 201.927C1157.61 199.437 1155.5 197.566 1152.93 197.053L1072.1 180.948C1069.53 180.435 1067.41 178.606 1066.53 176.136L1038.69 98.4607C1037.8 95.9908 1035.65 94.1636 1033.06 93.7104L997.325 87.3618C994.751 86.9075 992.146 87.8242 990.453 89.7902L934.527 154.756C932.918 156.625 932.386 159.208 933.115 161.589L942.429 191.757C942.62 192.383 943.017 193.617 943.461 195.03C944.413 198.018 948.267 198.824 950.275 196.455C951.14 195.45 951.93 194.533 952.416 193.969L1002.31 136.228C1004.95 133.16 1009.95 134.145 1011.33 137.991L1037.02 210.106C1037.95 212.705 1040.17 214.627 1042.87 215.156L1117.89 229.966C1121.89 230.763 1123.59 235.566 1120.96 238.641L1071.28 296.567C1070.84 297.078 1070.05 298.02 1069.14 299.086C1067.15 301.437 1068.52 305.111 1071.6 305.597C1072.97 305.818 1074.23 306.023 1074.94 306.132L1106.11 310.909C1108.57 311.28 1111.04 310.381 1112.65 308.503L1168.58 243.538C1170.27 241.572 1170.8 238.847 1169.96 236.374L1169.97 236.382Z"
        fill="currentColor" fill-opacity="0.08" />
    <path
        d="M1145 55.102L1103.29 46.6989C1099.89 46.0194 1097.08 49.3142 1098.32 52.5645L1113.48 92.6507C1114.49 95.3029 1117.96 95.9449 1119.79 93.8116L1147.36 61.7933C1149.4 59.4218 1148.09 55.7117 1145.01 55.0932L1145 55.102Z"
        fill="currentColor" fill-opacity="0.08" />
    <path
        d="M1059.64 -18.5764L1074.09 21.4922C1075.26 24.7636 1072.42 28.0277 1069.03 27.2808L1027.2 18.1733C1024.43 17.5655 1023.28 14.2265 1025.12 12.0931L1052.68 -19.9252C1054.72 -22.2966 1058.58 -21.5494 1059.65 -18.5852L1059.64 -18.5764Z"
        fill="currentColor" fill-opacity="0.08" />
    <path
        d="M947.334 23.6796L958.855 58.1342C959.694 60.6248 961.808 62.4956 964.377 63.0081L1045.21 79.1134C1047.78 79.6261 1049.9 81.4556 1050.78 83.9254L1078.62 161.601C1079.51 164.07 1081.66 165.898 1084.25 166.351L1119.98 172.699C1122.56 173.154 1125.16 172.237 1126.85 170.271L1182.78 105.306C1184.39 103.437 1184.92 100.853 1184.19 98.4721L1174.88 68.3045C1174.69 67.6787 1174.29 66.4447 1173.85 65.0316C1172.9 62.0436 1169.04 61.237 1167.03 63.6063C1166.17 64.6113 1165.38 65.5283 1164.89 66.0925L1115 123.834C1112.36 126.902 1107.35 125.917 1105.98 122.07L1080.29 49.9557C1079.36 47.3559 1077.13 45.4342 1074.44 44.9053L999.418 30.0952C995.415 29.2988 993.714 24.4957 996.346 21.42L1046.03 -36.5054C1046.47 -37.0168 1047.26 -37.959 1048.16 -39.0246C1050.16 -41.3761 1048.79 -45.0493 1045.71 -45.5353C1044.33 -45.7567 1043.08 -45.9618 1042.37 -46.0702L1011.2 -50.8475C1008.74 -51.2183 1006.27 -50.3197 1004.66 -48.4419L948.728 16.5236C947.036 18.4896 946.507 21.2142 947.343 23.6873L947.334 23.6796Z"
        fill="currentColor" fill-opacity="0.08" />
    <path
        d="M-10.2954 -89.7842L-52.0041 -98.1873C-55.4084 -98.8668 -58.2138 -95.572 -56.976 -92.3217L-41.8127 -52.2355C-40.805 -49.5833 -37.3374 -48.9413 -35.5009 -51.0746L-7.93733 -83.093C-5.89584 -85.4644 -7.20342 -89.1745 -10.2878 -89.7931L-10.2954 -89.7842Z"
        fill="currentColor" fill-opacity="0.08" />
    <path
        d="M-95.6563 -163.463L-81.2076 -123.394C-80.0346 -120.123 -82.8755 -116.859 -86.2686 -117.605L-128.099 -126.713C-130.869 -127.321 -132.013 -130.66 -130.177 -132.793L-102.613 -164.811C-100.572 -167.183 -96.7151 -166.436 -95.6487 -163.471L-95.6563 -163.463Z"
        fill="currentColor" fill-opacity="0.08" />
    <path
        d="M-207.961 -121.207L-196.44 -86.7521C-195.602 -84.2614 -193.488 -82.3906 -190.918 -81.8782L-110.089 -65.7728C-107.519 -65.2602 -105.399 -63.4306 -104.514 -60.9608L-76.6744 16.7144C-75.7891 19.1843 -73.6365 21.0115 -71.0462 21.4648L-35.3125 27.8132C-32.7387 28.2676 -30.1333 27.3509 -28.4408 25.3849L27.486 -39.5807C29.0949 -41.4496 29.627 -44.0332 28.898 -46.4142L19.5838 -76.5818C19.3929 -77.2076 18.996 -78.4415 18.5516 -79.8546C17.6002 -82.8427 13.746 -83.6492 11.7374 -81.2799C10.8722 -80.2749 10.0828 -79.358 9.59708 -78.7937L-40.2965 -21.0526C-42.9377 -17.9846 -47.9423 -18.9695 -49.3189 -22.8162L-75.0067 -94.9306C-75.9355 -97.5303 -78.1619 -99.452 -80.8578 -99.9809L-155.877 -114.791C-159.88 -115.587 -161.581 -120.391 -158.949 -123.466L-109.269 -181.392C-108.829 -181.903 -108.033 -182.845 -107.131 -183.911C-105.138 -186.262 -106.509 -189.935 -109.582 -190.422C-110.961 -190.643 -112.213 -190.848 -112.926 -190.956L-144.098 -195.734C-146.557 -196.105 -149.023 -195.206 -150.64 -193.328L-206.567 -128.363C-208.259 -126.397 -208.788 -123.672 -207.952 -121.199L-207.961 -121.207Z"
        fill="currentColor" fill-opacity="0.08" />
    <path
        d="M-202.692 204.964L-160.984 213.367C-157.579 214.046 -154.774 210.752 -156.012 207.501L-171.175 167.415C-172.183 164.763 -175.65 164.121 -177.487 166.254L-205.05 198.272C-207.092 200.644 -205.784 204.354 -202.7 204.973L-202.692 204.964Z"
        fill="currentColor" fill-opacity="0.08" />
    <path
        d="M-117.331 278.642L-131.78 238.574C-132.953 235.302 -130.112 232.038 -126.719 232.785L-84.8883 241.892C-82.119 242.5 -80.9743 245.839 -82.8109 247.973L-110.374 279.991C-112.416 282.362 -116.273 281.615 -117.339 278.651L-117.331 278.642Z"
        fill="currentColor" fill-opacity="0.08" />
    <path
        d="M-5.0264 236.386L-16.5478 201.932C-17.386 199.441 -19.5 197.57 -22.0699 197.058L-102.898 180.952C-105.469 180.44 -107.588 178.61 -108.474 176.14L-136.313 98.4651C-137.198 95.9952 -139.351 94.168 -141.941 93.7148L-177.675 87.3662C-180.249 86.9119 -182.854 87.8286 -184.547 89.7946L-240.474 154.76C-242.083 156.629 -242.615 159.213 -241.886 161.594L-232.571 191.761C-232.381 192.387 -231.984 193.621 -231.539 195.034C-230.588 198.022 -226.734 198.829 -224.725 196.459C-223.86 195.454 -223.07 194.537 -222.585 193.973L-172.691 136.232C-170.05 133.164 -165.045 134.149 -163.669 137.996L-137.981 210.11C-137.052 212.71 -134.826 214.631 -132.13 215.16L-57.1103 229.971C-53.1076 230.767 -51.4064 235.57 -54.0387 238.646L-103.719 296.571C-104.159 297.083 -104.955 298.025 -105.856 299.09C-107.85 301.442 -106.479 305.115 -103.405 305.601C-102.027 305.822 -100.775 306.028 -100.061 306.136L-68.8898 310.913C-66.4306 311.284 -63.9642 310.385 -62.3477 308.508L-6.42088 243.542C-4.72842 241.576 -4.19972 238.852 -5.03531 236.378L-5.0264 236.386Z"
        fill="currentColor" fill-opacity="0.08" />
    <path
        d="M-30.0004 55.1083L-71.7092 46.7053C-75.1135 46.0258 -77.9188 49.3206 -76.6811 52.5708L-61.5178 92.657C-60.5101 95.3093 -57.0425 95.9513 -55.206 93.8179L-27.6424 61.7996C-25.6009 59.4282 -26.9085 55.7181 -29.9929 55.0995L-30.0004 55.1083Z"
        fill="currentColor" fill-opacity="0.08" />
    <path
        d="M-115.361 -18.57L-100.913 21.4985C-99.7397 24.7699 -102.581 28.034 -105.974 27.2872L-147.804 18.1796C-150.574 17.5719 -151.718 14.2328 -149.882 12.0995L-122.318 -19.9189C-120.277 -22.2903 -116.42 -21.543 -115.354 -18.5788L-115.361 -18.57Z"
        fill="currentColor" fill-opacity="0.08" />
    <path
        d="M-227.666 23.6859L-216.145 58.1405C-215.307 60.6312 -213.193 62.5019 -210.623 63.0144L-129.794 79.1198C-127.224 79.6324 -125.104 81.4619 -124.219 83.9318L-96.3795 161.607C-95.4942 164.077 -93.3416 165.904 -90.7513 166.357L-55.0176 172.706C-52.4438 173.16 -49.8384 172.243 -48.1459 170.277L7.78091 105.312C9.38986 103.443 9.9219 100.859 9.19295 98.4784L-0.121262 68.3108C-0.312151 67.685 -0.709083 66.451 -1.15346 65.038C-2.10493 62.0499 -5.95909 61.2434 -7.96773 63.6127C-8.83292 64.6177 -9.62228 65.5346 -10.108 66.0988L-60.0016 123.84C-62.6428 126.908 -67.6474 125.923 -69.0239 122.076L-94.7117 49.962C-95.6405 47.3623 -97.8669 45.4406 -100.563 44.9116L-175.582 30.1016C-179.585 29.3052 -181.286 24.5021 -178.654 21.4264L-128.974 -36.4991C-128.534 -37.0104 -127.738 -37.9527 -126.836 -39.0182C-124.843 -41.3698 -126.214 -45.0429 -129.288 -45.5289C-130.666 -45.7503 -131.918 -45.9554 -132.631 -46.0639L-163.803 -50.8412C-166.262 -51.212 -168.728 -50.3134 -170.345 -48.4356L-226.272 16.5299C-227.964 18.4959 -228.493 21.2206 -227.657 23.6936L-227.666 23.6859Z"
        fill="currentColor" fill-opacity="0.08" />
    <path
        d="M222.706 -89.7842L180.997 -98.1873C177.593 -98.8668 174.787 -95.572 176.025 -92.3217L191.188 -52.2355C192.196 -49.5833 195.663 -48.9413 197.5 -51.0746L225.064 -83.093C227.105 -85.4644 225.798 -89.1745 222.713 -89.7931L222.706 -89.7842Z"
        fill="currentColor" fill-opacity="0.08" />
    <path
        d="M137.345 -163.463L151.793 -123.394C152.966 -120.123 150.125 -116.859 146.732 -117.605L104.902 -126.713C102.132 -127.321 100.988 -130.66 102.824 -132.793L130.388 -164.811C132.429 -167.183 136.286 -166.436 137.352 -163.471L137.345 -163.463Z"
        fill="currentColor" fill-opacity="0.08" />
    <path
        d="M25.0397 -121.207L36.5611 -86.7521C37.3993 -84.2614 39.5133 -82.3906 42.0832 -81.8782L122.912 -65.7728C125.482 -65.2602 127.602 -63.4306 128.487 -60.9608L156.327 16.7144C157.212 19.1843 159.364 21.0115 161.955 21.4648L197.688 27.8132C200.262 28.2676 202.868 27.3509 204.56 25.3849L260.487 -39.5807C262.096 -41.4496 262.628 -44.0332 261.899 -46.4142L252.585 -76.5818C252.394 -77.2076 251.997 -78.4415 251.553 -79.8546C250.601 -82.8427 246.747 -83.6492 244.738 -81.2799C243.873 -80.2749 243.084 -79.358 242.598 -78.7937L192.704 -21.0526C190.063 -17.9846 185.059 -18.9695 183.682 -22.8162L157.994 -94.9306C157.066 -97.5303 154.839 -99.452 152.143 -99.9809L77.1236 -114.791C73.1209 -115.587 71.4197 -120.391 74.052 -123.466L123.732 -181.392C124.172 -181.903 124.968 -182.845 125.87 -183.911C127.863 -186.262 126.492 -189.935 123.418 -190.422C122.04 -190.643 120.788 -190.848 120.075 -190.956L88.9031 -195.734C86.4439 -196.105 83.9776 -195.206 82.361 -193.328L26.4342 -128.363C24.7417 -126.397 24.213 -123.672 25.0486 -121.199L25.0397 -121.207Z"
        fill="currentColor" fill-opacity="0.08" />
    <path
        d="M30.3106 204.966L72.0193 213.369C75.4237 214.048 78.229 210.753 76.9913 207.503L61.828 167.417C60.8203 164.765 57.3527 164.123 55.5162 166.256L27.9526 198.274C25.9111 200.646 27.2187 204.356 30.303 204.975L30.3106 204.966Z"
        fill="currentColor" fill-opacity="0.08" />
    <path
        d="M115.672 278.644L101.223 238.576C100.05 235.304 102.891 232.04 106.284 232.787L148.115 241.894C150.884 242.502 152.029 245.841 150.192 247.975L122.628 279.993C120.587 282.364 116.73 281.617 115.664 278.653L115.672 278.644Z"
        fill="currentColor" fill-opacity="0.08" />
    <path
        d="M227.977 236.388L216.455 201.934C215.617 199.443 213.503 197.572 210.933 197.06L130.104 180.954C127.534 180.442 125.415 178.612 124.529 176.142L96.6897 98.467C95.8044 95.9972 93.6518 94.17 91.0615 93.7167L55.3278 87.3682C52.754 86.9138 50.1486 87.8306 48.4561 89.7966L-7.47073 154.762C-9.07968 156.631 -9.61172 159.215 -8.88277 161.596L0.431442 191.763C0.622332 192.389 1.01926 193.623 1.46364 195.036C2.41511 198.024 6.26927 198.831 8.27791 196.461C9.1431 195.456 9.93247 194.539 10.4182 193.975L60.3118 136.234C62.953 133.166 67.9575 134.151 69.3341 137.998L95.0219 210.112C95.9507 212.712 98.1771 214.633 100.873 215.162L175.893 229.972C179.895 230.769 181.597 235.572 178.964 238.648L129.284 296.573C128.844 297.084 128.048 298.027 127.147 299.092C125.153 301.444 126.524 305.117 129.598 305.603C130.976 305.824 132.228 306.029 132.942 306.138L164.113 310.915C166.572 311.286 169.039 310.387 170.655 308.51L226.582 243.544C228.274 241.578 228.803 238.853 227.968 236.38L227.977 236.388Z"
        fill="currentColor" fill-opacity="0.08" />
    <path
        d="M203.002 55.1083L161.294 46.7053C157.889 46.0258 155.084 49.3206 156.322 52.5708L171.485 92.657C172.493 95.3093 175.96 95.9513 177.797 93.8179L205.361 61.7996C207.402 59.4282 206.094 55.7181 203.01 55.0995L203.002 55.1083Z"
        fill="currentColor" fill-opacity="0.08" />
    <path
        d="M117.642 -18.57L132.09 21.4985C133.263 24.7699 130.422 28.034 127.029 27.2872L85.1985 18.1796C82.4292 17.5719 81.2845 14.2328 83.121 12.0995L110.685 -19.9189C112.726 -22.2903 116.583 -21.543 117.649 -18.5788L117.642 -18.57Z"
        fill="currentColor" fill-opacity="0.08" />
    <path
        d="M5.33659 23.6859L16.858 58.1405C17.6961 60.6312 19.8102 62.5019 22.3801 63.0144L103.209 79.1198C105.779 79.6324 107.898 81.4619 108.784 83.9318L136.623 161.607C137.509 164.077 139.661 165.904 142.252 166.357L177.985 172.706C180.559 173.16 183.165 172.243 184.857 170.277L240.784 105.312C242.393 103.443 242.925 100.859 242.196 98.4784L232.882 68.3108C232.691 67.685 232.294 66.451 231.849 65.038C230.898 62.0499 227.044 61.2434 225.035 63.6127C224.17 64.6177 223.381 65.5346 222.895 66.0988L173.001 123.84C170.36 126.908 165.356 125.923 163.979 122.076L138.291 49.962C137.362 47.3623 135.136 45.4406 132.44 44.9116L57.4205 30.1016C53.4178 29.3052 51.7166 24.5021 54.3488 21.4264L104.029 -36.4991C104.469 -37.0104 105.265 -37.9527 106.167 -39.0182C108.16 -41.3698 106.789 -45.0429 103.715 -45.5289C102.337 -45.7503 101.085 -45.9554 100.372 -46.0639L69.2 -50.8412C66.7408 -51.212 64.2744 -50.3134 62.6579 -48.4356L6.73106 16.5299C5.0386 18.4959 4.5099 21.2206 5.34549 23.6936L5.33659 23.6859Z"
        fill="currentColor" fill-opacity="0.08" />
    <path
        d="M460.704 -89.7906L418.995 -98.1936C415.591 -98.8731 412.786 -95.5784 414.023 -92.3281L429.187 -52.2419C430.194 -49.5896 433.662 -48.9476 435.498 -51.081L463.062 -83.0993C465.103 -85.4707 463.796 -89.1809 460.711 -89.7994L460.704 -89.7906Z"
        stroke="currentColor" stroke-opacity="0.18" stroke-width="2"
        mask="url(#path-1-inside-1_9092_23263)" />
    <path
        d="M375.343 -163.469L389.792 -123.4C390.965 -120.129 388.124 -116.865 384.731 -117.612L342.9 -126.719C340.131 -127.327 338.986 -130.666 340.823 -132.799L368.386 -164.818C370.428 -167.189 374.284 -166.442 375.351 -163.478L375.343 -163.469Z"
        stroke="currentColor" stroke-opacity="0.18" stroke-width="2"
        mask="url(#path-1-inside-1_9092_23263)" />
    <path
        d="M263.038 -121.213L274.559 -86.7584C275.398 -84.2678 277.512 -82.397 280.082 -81.8845L360.91 -65.7792C363.48 -65.2665 365.6 -63.437 366.485 -60.9671L394.325 16.7081C395.21 19.1779 397.363 21.0052 399.953 21.4584L435.687 27.8069C438.261 28.2613 440.866 27.3445 442.558 25.3785L498.485 -39.587C500.094 -41.456 500.626 -44.0395 499.897 -46.4205L490.583 -76.5881C490.392 -77.2139 489.995 -78.4479 489.551 -79.861C488.599 -82.849 484.745 -83.6556 482.737 -81.2863C481.871 -80.2812 481.082 -79.3643 480.596 -78.8001L430.703 -21.059C428.062 -17.991 423.057 -18.9759 421.68 -22.8226L395.993 -94.9369C395.064 -97.5367 392.837 -99.4584 390.141 -99.9873L315.122 -114.797C311.119 -115.594 309.418 -120.397 312.05 -123.473L361.73 -181.398C362.171 -181.909 362.966 -182.852 363.868 -183.917C365.861 -186.269 364.49 -189.942 361.417 -190.428C360.039 -190.649 358.786 -190.854 358.073 -190.963L326.901 -195.74C324.442 -196.111 321.976 -195.212 320.359 -193.335L264.433 -128.369C262.74 -126.403 262.211 -123.678 263.047 -121.205L263.038 -121.213Z"
        stroke="currentColor" stroke-opacity="0.18" stroke-width="2"
        mask="url(#path-1-inside-1_9092_23263)" />
    <path
        d="M268.307 204.958L310.016 213.361C313.42 214.041 316.226 210.746 314.988 207.496L299.825 167.41C298.817 164.757 295.349 164.115 293.513 166.249L265.949 198.267C263.908 200.639 265.215 204.349 268.3 204.967L268.307 204.958Z"
        stroke="currentColor" stroke-opacity="0.18" stroke-width="2"
        mask="url(#path-1-inside-1_9092_23263)" />
    <path
        d="M353.668 278.637L339.219 238.568C338.046 235.297 340.887 232.033 344.28 232.78L386.111 241.887C388.88 242.495 390.025 245.834 388.189 247.967L360.625 279.986C358.584 282.357 354.727 281.61 353.66 278.646L353.668 278.637Z"
        stroke="currentColor" stroke-opacity="0.18" stroke-width="2"
        mask="url(#path-1-inside-1_9092_23263)" />
    <path
        d="M465.973 236.381L454.452 201.926C453.613 199.436 451.499 197.565 448.93 197.052L368.101 180.947C365.531 180.434 363.411 178.605 362.526 176.135L334.686 98.4597C333.801 95.9899 331.648 94.1626 329.058 93.7094L293.324 87.3609C290.75 86.9065 288.145 87.8232 286.453 89.7892L230.526 154.755C228.917 156.624 228.385 159.207 229.114 161.588L238.428 191.756C238.619 192.382 239.016 193.616 239.46 195.029C240.412 198.017 244.266 198.823 246.274 196.454C247.14 195.449 247.929 194.532 248.415 193.968L298.308 136.227C300.95 133.159 305.954 134.144 307.331 137.99L333.018 210.105C333.947 212.704 336.174 214.626 338.87 215.155L413.889 229.965C417.892 230.762 419.593 235.565 416.961 238.64L367.281 296.566C366.84 297.077 366.045 298.019 365.143 299.085C363.15 301.436 364.521 305.11 367.594 305.596C368.972 305.817 370.225 306.022 370.938 306.131L402.11 310.908C404.569 311.279 407.035 310.38 408.652 308.502L464.579 243.537C466.271 241.571 466.8 238.846 465.964 236.373L465.973 236.381Z"
        stroke="currentColor" stroke-opacity="0.18" stroke-width="2"
        mask="url(#path-1-inside-1_9092_23263)" />
    <path
        d="M440.999 55.1022L399.29 46.6992C395.886 46.0197 393.08 49.3145 394.318 52.5647L409.482 92.6509C410.489 95.3032 413.957 95.9452 415.793 93.8118L443.357 61.7935C445.398 59.4221 444.091 55.7119 441.006 55.0934L440.999 55.1022Z"
        stroke="currentColor" stroke-opacity="0.18" stroke-width="2"
        mask="url(#path-1-inside-1_9092_23263)" />
    <path
        d="M355.638 -18.5761L370.087 21.4924C371.26 24.7638 368.419 28.0279 365.026 27.2811L323.195 18.1735C320.426 17.5658 319.281 14.2267 321.117 12.0934L348.681 -19.925C350.723 -22.2964 354.579 -21.5491 355.646 -18.5849L355.638 -18.5761Z"
        stroke="currentColor" stroke-opacity="0.18" stroke-width="2"
        mask="url(#path-1-inside-1_9092_23263)" />
    <path
        d="M243.333 23.6798L254.854 58.1344C255.693 60.6251 257.807 62.4958 260.376 63.0083L341.205 79.1136C343.775 79.6263 345.895 81.4558 346.78 83.9257L374.62 161.601C375.505 164.071 377.658 165.898 380.248 166.351L415.982 172.7C418.555 173.154 421.161 172.237 422.853 170.271L478.78 105.306C480.389 103.437 480.921 100.853 480.192 98.4723L470.878 68.3047C470.687 67.6789 470.29 66.4449 469.846 65.0319C468.894 62.0438 465.04 61.2373 463.032 63.6066C462.166 64.6116 461.377 65.5285 460.891 66.0927L410.998 123.834C408.357 126.902 403.352 125.917 401.975 122.07L376.288 49.9559C375.359 47.3562 373.132 45.4345 370.436 44.9055L295.417 30.0955C291.414 29.2991 289.713 24.496 292.345 21.4203L342.025 -36.5052C342.466 -37.0165 343.261 -37.9588 344.163 -39.0243C346.156 -41.3759 344.785 -45.049 341.712 -45.535C340.334 -45.7564 339.081 -45.9615 338.368 -46.07L307.196 -50.8473C304.737 -51.2181 302.271 -50.3195 300.654 -48.4417L244.727 16.5238C243.035 18.4898 242.506 21.2145 243.342 23.6875L243.333 23.6798Z"
        stroke="currentColor" stroke-opacity="0.18" stroke-width="2"
        mask="url(#path-1-inside-1_9092_23263)" />
    <path
        d="M693.703 -89.7894L651.995 -98.1924C648.59 -98.8719 645.785 -95.5771 647.023 -92.3269L662.186 -52.2407C663.194 -49.5884 666.661 -48.9464 668.498 -51.0798L696.061 -83.0981C698.103 -85.4695 696.795 -89.1797 693.711 -89.7982L693.703 -89.7894Z"
        stroke="currentColor" stroke-opacity="0.18" stroke-width="2"
        mask="url(#path-1-inside-1_9092_23263)" />
    <path
        d="M608.342 -163.468L622.791 -123.399C623.964 -120.128 621.123 -116.864 617.73 -117.611L575.899 -126.718C573.13 -127.326 571.985 -130.665 573.822 -132.798L601.385 -164.817C603.427 -167.188 607.283 -166.441 608.35 -163.477L608.342 -163.468Z"
        stroke="currentColor" stroke-opacity="0.18" stroke-width="2"
        mask="url(#path-1-inside-1_9092_23263)" />
    <path
        d="M496.037 -121.212L507.559 -86.7572C508.397 -84.2665 510.511 -82.3958 513.081 -81.8833L593.909 -65.778C596.48 -65.2653 598.599 -63.4358 599.484 -60.9659L627.324 16.7093C628.209 19.1791 630.362 21.0064 632.952 21.4596L668.686 27.8081C671.26 28.2625 673.865 27.3458 675.558 25.3798L731.485 -39.5858C733.094 -41.4548 733.626 -44.0383 732.897 -46.4193L723.582 -76.5869C723.392 -77.2127 722.995 -78.4467 722.55 -79.8598C721.599 -82.8478 717.745 -83.6543 715.736 -81.285C714.871 -80.28 714.081 -79.3631 713.596 -78.7989L663.702 -21.0578C661.061 -17.9897 656.056 -18.9746 654.68 -22.8213L628.992 -94.9357C628.063 -97.5354 625.837 -99.4571 623.141 -99.9861L548.121 -114.796C544.118 -115.593 542.417 -120.396 545.05 -123.471L594.73 -181.397C595.17 -181.908 595.966 -182.85 596.867 -183.916C598.861 -186.267 597.49 -189.941 594.416 -190.427C593.038 -190.648 591.785 -190.853 591.072 -190.962L559.901 -195.739C557.441 -196.11 554.975 -195.211 553.359 -193.333L497.432 -128.368C495.739 -126.402 495.211 -123.677 496.046 -121.204L496.037 -121.212Z"
        stroke="currentColor" stroke-opacity="0.18" stroke-width="2"
        mask="url(#path-1-inside-1_9092_23263)" />
    <path
        d="M501.308 204.961L543.017 213.364C546.421 214.043 549.227 210.748 547.989 207.498L532.826 167.412C531.818 164.76 528.35 164.118 526.514 166.251L498.95 198.269C496.909 200.641 498.216 204.351 501.301 204.969L501.308 204.961Z"
        stroke="currentColor" stroke-opacity="0.18" stroke-width="2"
        mask="url(#path-1-inside-1_9092_23263)" />
    <path
        d="M586.669 278.639L572.221 238.57C571.047 235.299 573.888 232.035 577.282 232.782L619.112 241.889C621.882 242.497 623.026 245.836 621.19 247.969L593.626 279.988C591.585 282.359 587.728 281.612 586.662 278.648L586.669 278.639Z"
        stroke="currentColor" stroke-opacity="0.18" stroke-width="2"
        mask="url(#path-1-inside-1_9092_23263)" />
    <path
        d="M698.974 236.383L687.453 201.928C686.615 199.438 684.501 197.567 681.931 197.054L601.102 180.949C598.532 180.436 596.412 178.607 595.527 176.137L567.687 98.4619C566.802 95.9921 564.649 94.1648 562.059 93.7116L526.325 87.3631C523.752 86.9087 521.146 87.8254 519.454 89.7914L463.527 154.757C461.918 156.626 461.386 159.209 462.115 161.59L471.429 191.758C471.62 192.384 472.017 193.618 472.461 195.031C473.413 198.019 477.267 198.826 479.276 196.456C480.141 195.451 480.93 194.534 481.416 193.97L531.309 136.229C533.951 133.161 538.955 134.146 540.332 137.993L566.02 210.107C566.948 212.707 569.175 214.628 571.871 215.157L646.89 229.967C650.893 230.764 652.594 235.567 649.962 238.643L600.282 296.568C599.842 297.079 599.046 298.022 598.144 299.087C596.151 301.439 597.522 305.112 600.595 305.598C601.973 305.819 603.226 306.024 603.939 306.133L635.111 310.91C637.57 311.281 640.036 310.382 641.653 308.504L697.58 243.539C699.272 241.573 699.801 238.848 698.965 236.375L698.974 236.383Z"
        stroke="currentColor" stroke-opacity="0.18" stroke-width="2"
        mask="url(#path-1-inside-1_9092_23263)" />
    <path
        d="M674 55.1032L632.291 46.7001C628.887 46.0206 626.082 49.3155 627.319 52.5657L642.483 92.6519C643.49 95.3041 646.958 95.9462 648.795 93.8128L676.358 61.7945C678.4 59.4231 677.092 55.7129 674.008 55.0944L674 55.1032Z"
        stroke="currentColor" stroke-opacity="0.18" stroke-width="2"
        mask="url(#path-1-inside-1_9092_23263)" />
    <path
        d="M588.639 -18.5751L603.088 21.4934C604.261 24.7648 601.42 28.0289 598.027 27.2821L556.196 18.1745C553.427 17.5667 552.282 14.2277 554.119 12.0943L581.682 -19.924C583.724 -22.2954 587.58 -21.5481 588.647 -18.584L588.639 -18.5751Z"
        stroke="currentColor" stroke-opacity="0.18" stroke-width="2"
        mask="url(#path-1-inside-1_9092_23263)" />
    <path
        d="M476.334 23.6808L487.856 58.1354C488.694 60.626 490.808 62.4968 493.378 63.0093L574.206 79.1146C576.776 79.6273 578.896 81.4568 579.781 83.9267L607.621 161.602C608.506 164.072 610.659 165.899 613.249 166.352L648.983 172.701C651.557 173.155 654.162 172.238 655.855 170.272L711.781 105.307C713.39 103.438 713.922 100.854 713.193 98.4733L703.879 68.3057C703.688 67.6799 703.291 66.4459 702.847 65.0328C701.896 62.0448 698.041 61.2382 696.033 63.6075C695.168 64.6126 694.378 65.5295 693.893 66.0937L643.999 123.835C641.358 126.903 636.353 125.918 634.977 122.071L609.289 49.9569C608.36 47.3571 606.134 45.4354 603.438 44.9065L528.418 30.0964C524.415 29.3 522.714 24.4969 525.346 21.4212L575.027 -36.5042C575.467 -37.0156 576.262 -37.9578 577.164 -39.0234C579.158 -41.3749 577.786 -45.048 574.713 -45.5341C573.335 -45.7554 572.082 -45.9606 571.369 -46.069L540.198 -50.8463C537.738 -51.2171 535.272 -50.3185 533.656 -48.4407L477.729 16.5248C476.036 18.4908 475.508 21.2154 476.343 23.6885L476.334 23.6808Z"
        stroke="currentColor" stroke-opacity="0.18" stroke-width="2"
        mask="url(#path-1-inside-1_9092_23263)" />
    <path
        d="M931.704 -89.7906L889.995 -98.1936C886.591 -98.8731 883.785 -95.5784 885.023 -92.3281L900.186 -52.2419C901.194 -49.5896 904.662 -48.9476 906.498 -51.081L934.062 -83.0993C936.103 -85.4707 934.796 -89.1809 931.711 -89.7994L931.704 -89.7906Z"
        stroke="currentColor" stroke-opacity="0.18" stroke-width="2"
        mask="url(#path-1-inside-1_9092_23263)" />
    <path
        d="M846.343 -163.469L860.791 -123.4C861.964 -120.129 859.124 -116.865 855.73 -117.612L813.9 -126.719C811.13 -127.327 809.986 -130.666 811.822 -132.799L839.386 -164.818C841.427 -167.189 845.284 -166.442 846.35 -163.478L846.343 -163.469Z"
        stroke="currentColor" stroke-opacity="0.18" stroke-width="2"
        mask="url(#path-1-inside-1_9092_23263)" />
    <path
        d="M734.038 -121.213L745.559 -86.7584C746.397 -84.2678 748.511 -82.397 751.081 -81.8845L831.91 -65.7792C834.48 -65.2665 836.6 -63.437 837.485 -60.9671L865.325 16.7081C866.21 19.1779 868.362 21.0052 870.953 21.4584L906.687 27.8069C909.26 28.2613 911.866 27.3445 913.558 25.3785L969.485 -39.587C971.094 -41.456 971.626 -44.0395 970.897 -46.4205L961.583 -76.5881C961.392 -77.2139 960.995 -78.4479 960.551 -79.861C959.599 -82.849 955.745 -83.6556 953.736 -81.2863C952.871 -80.2812 952.082 -79.3643 951.596 -78.8001L901.703 -21.059C899.061 -17.991 894.057 -18.9759 892.68 -22.8226L866.992 -94.9369C866.064 -97.5367 863.837 -99.4584 861.141 -99.9873L786.122 -114.797C782.119 -115.594 780.418 -120.397 783.05 -123.473L832.73 -181.398C833.17 -181.909 833.966 -182.852 834.868 -183.917C836.861 -186.269 835.49 -189.942 832.417 -190.428C831.039 -190.649 829.786 -190.854 829.073 -190.963L797.901 -195.74C795.442 -196.111 792.976 -195.212 791.359 -193.335L735.432 -128.369C733.74 -126.403 733.211 -123.678 734.047 -121.205L734.038 -121.213Z"
        stroke="currentColor" stroke-opacity="0.18" stroke-width="2"
        mask="url(#path-1-inside-1_9092_23263)" />
    <path
        d="M739.307 204.957L781.016 213.36C784.42 214.04 787.225 210.745 785.988 207.495L770.824 167.409C769.817 164.756 766.349 164.114 764.513 166.248L736.949 198.266C734.907 200.638 736.215 204.348 739.299 204.966L739.307 204.957Z"
        stroke="currentColor" stroke-opacity="0.18" stroke-width="2"
        mask="url(#path-1-inside-1_9092_23263)" />
    <path
        d="M824.668 278.636L810.219 238.567C809.046 235.296 811.887 232.032 815.28 232.779L857.111 241.886C859.88 242.494 861.025 245.833 859.188 247.966L831.625 279.985C829.583 282.356 825.727 281.609 824.66 278.645L824.668 278.636Z"
        stroke="currentColor" stroke-opacity="0.18" stroke-width="2"
        mask="url(#path-1-inside-1_9092_23263)" />
    <path
        d="M936.973 236.38L925.452 201.925C924.613 199.435 922.499 197.564 919.929 197.051L839.101 180.946C836.531 180.433 834.411 178.604 833.526 176.134L805.686 98.4587C804.801 95.9889 802.648 94.1616 800.058 93.7084L764.324 87.3599C761.75 86.9055 759.145 87.8223 757.452 89.7883L701.526 154.754C699.917 156.623 699.385 159.206 700.114 161.587L709.428 191.755C709.619 192.381 710.016 193.615 710.46 195.028C711.411 198.016 715.266 198.822 717.274 196.453C718.139 195.448 718.929 194.531 719.415 193.967L769.308 136.226C771.949 133.158 776.954 134.143 778.331 137.989L804.018 210.104C804.947 212.703 807.174 214.625 809.87 215.154L884.889 229.964C888.892 230.761 890.593 235.564 887.961 238.639L838.281 296.565C837.84 297.076 837.045 298.018 836.143 299.084C834.15 301.436 835.521 305.109 838.594 305.595C839.972 305.816 841.225 306.021 841.938 306.13L873.109 310.907C875.569 311.278 878.035 310.379 879.652 308.501L935.578 243.536C937.271 241.57 937.8 238.845 936.964 236.372L936.973 236.38Z"
        stroke="currentColor" stroke-opacity="0.18" stroke-width="2"
        mask="url(#path-1-inside-1_9092_23263)" />
    <path
        d="M911.999 55.102L870.29 46.6989C866.886 46.0194 864.08 49.3142 865.318 52.5645L880.481 92.6507C881.489 95.3029 884.957 95.9449 886.793 93.8116L914.357 61.7933C916.398 59.4218 915.091 55.7117 912.006 55.0932L911.999 55.102Z"
        stroke="currentColor" stroke-opacity="0.18" stroke-width="2"
        mask="url(#path-1-inside-1_9092_23263)" />
    <path
        d="M826.638 -18.5764L841.086 21.4922C842.259 24.7636 839.418 28.0277 836.025 27.2808L794.195 18.1733C791.425 17.5655 790.281 14.2265 792.117 12.0931L819.681 -19.9252C821.722 -22.2966 825.579 -21.5494 826.645 -18.5852L826.638 -18.5764Z"
        stroke="currentColor" stroke-opacity="0.18" stroke-width="2"
        mask="url(#path-1-inside-1_9092_23263)" />
    <path
        d="M714.333 23.6796L725.854 58.1342C726.692 60.6248 728.806 62.4956 731.376 63.0081L812.205 79.1134C814.775 79.6261 816.895 81.4556 817.78 83.9254L845.62 161.601C846.505 164.07 848.657 165.898 851.248 166.351L886.981 172.699C889.555 173.154 892.161 172.237 893.853 170.271L949.78 105.306C951.389 103.437 951.921 100.853 951.192 98.4721L941.878 68.3045C941.687 67.6787 941.29 66.4447 940.846 65.0316C939.894 62.0436 936.04 61.237 934.031 63.6063C933.166 64.6113 932.377 65.5283 931.891 66.0925L881.997 123.834C879.356 126.902 874.352 125.917 872.975 122.07L847.287 49.9557C846.359 47.3559 844.132 45.4342 841.436 44.9053L766.417 30.0952C762.414 29.2988 760.713 24.4957 763.345 21.42L813.025 -36.5054C813.465 -37.0168 814.261 -37.959 815.163 -39.0246C817.156 -41.3761 815.785 -45.0493 812.712 -45.5353C811.333 -45.7567 810.081 -45.9618 809.368 -46.0702L778.196 -50.8475C775.737 -51.2183 773.271 -50.3197 771.654 -48.4419L715.727 16.5236C714.035 18.4896 713.506 21.2142 714.342 23.6873L714.333 23.6796Z"
        stroke="currentColor" stroke-opacity="0.18" stroke-width="2"
        mask="url(#path-1-inside-1_9092_23263)" />
    <path
        d="M1164.7 -89.7906L1122.99 -98.1936C1119.59 -98.8731 1116.78 -95.5784 1118.02 -92.3281L1133.19 -52.2419C1134.19 -49.5896 1137.66 -48.9476 1139.5 -51.081L1167.06 -83.0993C1169.1 -85.4707 1167.79 -89.1809 1164.71 -89.7994L1164.7 -89.7906Z"
        stroke="currentColor" stroke-opacity="0.18" stroke-width="2"
        mask="url(#path-1-inside-1_9092_23263)" />
    <path
        d="M1079.34 -163.469L1093.79 -123.4C1094.96 -120.129 1092.12 -116.865 1088.73 -117.612L1046.9 -126.719C1044.13 -127.327 1042.98 -130.666 1044.82 -132.799L1072.39 -164.818C1074.43 -167.189 1078.28 -166.442 1079.35 -163.478L1079.34 -163.469Z"
        stroke="currentColor" stroke-opacity="0.18" stroke-width="2"
        mask="url(#path-1-inside-1_9092_23263)" />
    <path
        d="M967.037 -121.213L978.558 -86.7584C979.397 -84.2678 981.511 -82.397 984.081 -81.8845L1064.91 -65.7792C1067.48 -65.2665 1069.6 -63.437 1070.48 -60.9671L1098.32 16.7081C1099.21 19.1779 1101.36 21.0052 1103.95 21.4584L1139.69 27.8069C1142.26 28.2613 1144.87 27.3445 1146.56 25.3785L1202.48 -39.587C1204.09 -41.456 1204.63 -44.0395 1203.9 -46.4205L1194.58 -76.5881C1194.39 -77.2139 1193.99 -78.4479 1193.55 -79.861C1192.6 -82.849 1188.74 -83.6556 1186.74 -81.2863C1185.87 -80.2812 1185.08 -79.3643 1184.6 -78.8001L1134.7 -21.059C1132.06 -17.991 1127.06 -18.9759 1125.68 -22.8226L1099.99 -94.9369C1099.06 -97.5367 1096.84 -99.4584 1094.14 -99.9873L1019.12 -114.797C1015.12 -115.594 1013.42 -120.397 1016.05 -123.473L1065.73 -181.398C1066.17 -181.909 1066.97 -182.852 1067.87 -183.917C1069.86 -186.269 1068.49 -189.942 1065.42 -190.428C1064.04 -190.649 1062.79 -190.854 1062.07 -190.963L1030.9 -195.74C1028.44 -196.111 1025.97 -195.212 1024.36 -193.335L968.432 -128.369C966.739 -126.403 966.21 -123.678 967.046 -121.205L967.037 -121.213Z"
        stroke="currentColor" stroke-opacity="0.18" stroke-width="2"
        mask="url(#path-1-inside-1_9092_23263)" />
    <path
        d="M972.308 204.959L1014.02 213.362C1017.42 214.042 1020.23 210.747 1018.99 207.497L1003.83 167.411C1002.82 164.758 999.35 164.116 997.514 166.25L969.95 198.268C967.908 200.639 969.216 204.35 972.3 204.968L972.308 204.959Z"
        stroke="currentColor" stroke-opacity="0.18" stroke-width="2"
        mask="url(#path-1-inside-1_9092_23263)" />
    <path
        d="M1057.67 278.638L1043.22 238.569C1042.05 235.298 1044.89 232.034 1048.28 232.78L1090.11 241.888C1092.88 242.496 1094.03 245.835 1092.19 247.968L1064.63 279.987C1062.58 282.358 1058.73 281.611 1057.66 278.647L1057.67 278.638Z"
        stroke="currentColor" stroke-opacity="0.18" stroke-width="2"
        mask="url(#path-1-inside-1_9092_23263)" />
    <path
        d="M1169.97 236.382L1158.45 201.927C1157.61 199.437 1155.5 197.566 1152.93 197.053L1072.1 180.948C1069.53 180.435 1067.41 178.606 1066.53 176.136L1038.69 98.4607C1037.8 95.9908 1035.65 94.1636 1033.06 93.7104L997.325 87.3618C994.751 86.9075 992.146 87.8242 990.453 89.7902L934.527 154.756C932.918 156.625 932.386 159.208 933.115 161.589L942.429 191.757C942.62 192.383 943.017 193.617 943.461 195.03C944.413 198.018 948.267 198.824 950.275 196.455C951.14 195.45 951.93 194.533 952.416 193.969L1002.31 136.228C1004.95 133.16 1009.95 134.145 1011.33 137.991L1037.02 210.106C1037.95 212.705 1040.17 214.627 1042.87 215.156L1117.89 229.966C1121.89 230.763 1123.59 235.566 1120.96 238.641L1071.28 296.567C1070.84 297.078 1070.05 298.02 1069.14 299.086C1067.15 301.437 1068.52 305.111 1071.6 305.597C1072.97 305.818 1074.23 306.023 1074.94 306.132L1106.11 310.909C1108.57 311.28 1111.04 310.381 1112.65 308.503L1168.58 243.538C1170.27 241.572 1170.8 238.847 1169.96 236.374L1169.97 236.382Z"
        stroke="currentColor" stroke-opacity="0.18" stroke-width="2"
        mask="url(#path-1-inside-1_9092_23263)" />
    <path
        d="M1145 55.102L1103.29 46.6989C1099.89 46.0194 1097.08 49.3142 1098.32 52.5645L1113.48 92.6507C1114.49 95.3029 1117.96 95.9449 1119.79 93.8116L1147.36 61.7933C1149.4 59.4218 1148.09 55.7117 1145.01 55.0932L1145 55.102Z"
        stroke="currentColor" stroke-opacity="0.18" stroke-width="2"
        mask="url(#path-1-inside-1_9092_23263)" />
    <path
        d="M1059.64 -18.5764L1074.09 21.4922C1075.26 24.7636 1072.42 28.0277 1069.03 27.2808L1027.2 18.1733C1024.43 17.5655 1023.28 14.2265 1025.12 12.0931L1052.68 -19.9252C1054.72 -22.2966 1058.58 -21.5494 1059.65 -18.5852L1059.64 -18.5764Z"
        stroke="currentColor" stroke-opacity="0.18" stroke-width="2"
        mask="url(#path-1-inside-1_9092_23263)" />
    <path
        d="M947.334 23.6796L958.855 58.1342C959.694 60.6248 961.808 62.4956 964.377 63.0081L1045.21 79.1134C1047.78 79.6261 1049.9 81.4556 1050.78 83.9254L1078.62 161.601C1079.51 164.07 1081.66 165.898 1084.25 166.351L1119.98 172.699C1122.56 173.154 1125.16 172.237 1126.85 170.271L1182.78 105.306C1184.39 103.437 1184.92 100.853 1184.19 98.4721L1174.88 68.3045C1174.69 67.6787 1174.29 66.4447 1173.85 65.0316C1172.9 62.0436 1169.04 61.237 1167.03 63.6063C1166.17 64.6113 1165.38 65.5283 1164.89 66.0925L1115 123.834C1112.36 126.902 1107.35 125.917 1105.98 122.07L1080.29 49.9557C1079.36 47.3559 1077.13 45.4342 1074.44 44.9053L999.418 30.0952C995.415 29.2988 993.714 24.4957 996.346 21.42L1046.03 -36.5054C1046.47 -37.0168 1047.26 -37.959 1048.16 -39.0246C1050.16 -41.3761 1048.79 -45.0493 1045.71 -45.5353C1044.33 -45.7567 1043.08 -45.9618 1042.37 -46.0702L1011.2 -50.8475C1008.74 -51.2183 1006.27 -50.3197 1004.66 -48.4419L948.728 16.5236C947.036 18.4896 946.507 21.2142 947.343 23.6873L947.334 23.6796Z"
        stroke="currentColor" stroke-opacity="0.18" stroke-width="2"
        mask="url(#path-1-inside-1_9092_23263)" />
    <path
        d="M-10.2954 -89.7842L-52.0041 -98.1873C-55.4084 -98.8668 -58.2138 -95.572 -56.976 -92.3217L-41.8127 -52.2355C-40.805 -49.5833 -37.3374 -48.9413 -35.5009 -51.0746L-7.93733 -83.093C-5.89584 -85.4644 -7.20342 -89.1745 -10.2878 -89.7931L-10.2954 -89.7842Z"
        stroke="currentColor" stroke-opacity="0.18" stroke-width="2"
        mask="url(#path-1-inside-1_9092_23263)" />
    <path
        d="M-95.6563 -163.463L-81.2076 -123.394C-80.0346 -120.123 -82.8755 -116.859 -86.2686 -117.605L-128.099 -126.713C-130.869 -127.321 -132.013 -130.66 -130.177 -132.793L-102.613 -164.811C-100.572 -167.183 -96.7151 -166.436 -95.6487 -163.471L-95.6563 -163.463Z"
        stroke="currentColor" stroke-opacity="0.18" stroke-width="2"
        mask="url(#path-1-inside-1_9092_23263)" />
    <path
        d="M-207.961 -121.207L-196.44 -86.7521C-195.602 -84.2614 -193.488 -82.3906 -190.918 -81.8782L-110.089 -65.7728C-107.519 -65.2602 -105.399 -63.4306 -104.514 -60.9608L-76.6744 16.7144C-75.7891 19.1843 -73.6365 21.0115 -71.0462 21.4648L-35.3125 27.8132C-32.7387 28.2676 -30.1333 27.3509 -28.4408 25.3849L27.486 -39.5807C29.0949 -41.4496 29.627 -44.0332 28.898 -46.4142L19.5838 -76.5818C19.3929 -77.2076 18.996 -78.4415 18.5516 -79.8546C17.6002 -82.8427 13.746 -83.6492 11.7374 -81.2799C10.8722 -80.2749 10.0828 -79.358 9.59708 -78.7937L-40.2965 -21.0526C-42.9377 -17.9846 -47.9423 -18.9695 -49.3189 -22.8162L-75.0067 -94.9306C-75.9355 -97.5303 -78.1619 -99.452 -80.8578 -99.9809L-155.877 -114.791C-159.88 -115.587 -161.581 -120.391 -158.949 -123.466L-109.269 -181.392C-108.829 -181.903 -108.033 -182.845 -107.131 -183.911C-105.138 -186.262 -106.509 -189.935 -109.582 -190.422C-110.961 -190.643 -112.213 -190.848 -112.926 -190.956L-144.098 -195.734C-146.557 -196.105 -149.023 -195.206 -150.64 -193.328L-206.567 -128.363C-208.259 -126.397 -208.788 -123.672 -207.952 -121.199L-207.961 -121.207Z"
        stroke="currentColor" stroke-opacity="0.18" stroke-width="2"
        mask="url(#path-1-inside-1_9092_23263)" />
    <path
        d="M-202.692 204.964L-160.984 213.367C-157.579 214.046 -154.774 210.752 -156.012 207.501L-171.175 167.415C-172.183 164.763 -175.65 164.121 -177.487 166.254L-205.05 198.272C-207.092 200.644 -205.784 204.354 -202.7 204.973L-202.692 204.964Z"
        stroke="currentColor" stroke-opacity="0.18" stroke-width="2"
        mask="url(#path-1-inside-1_9092_23263)" />
    <path
        d="M-117.331 278.642L-131.78 238.574C-132.953 235.302 -130.112 232.038 -126.719 232.785L-84.8883 241.892C-82.119 242.5 -80.9743 245.839 -82.8109 247.973L-110.374 279.991C-112.416 282.362 -116.273 281.615 -117.339 278.651L-117.331 278.642Z"
        stroke="currentColor" stroke-opacity="0.18" stroke-width="2"
        mask="url(#path-1-inside-1_9092_23263)" />
    <path
        d="M-5.0264 236.386L-16.5478 201.932C-17.386 199.441 -19.5 197.57 -22.0699 197.058L-102.898 180.952C-105.469 180.44 -107.588 178.61 -108.474 176.14L-136.313 98.4651C-137.198 95.9952 -139.351 94.168 -141.941 93.7148L-177.675 87.3662C-180.249 86.9119 -182.854 87.8286 -184.547 89.7946L-240.474 154.76C-242.083 156.629 -242.615 159.213 -241.886 161.594L-232.571 191.761C-232.381 192.387 -231.984 193.621 -231.539 195.034C-230.588 198.022 -226.734 198.829 -224.725 196.459C-223.86 195.454 -223.07 194.537 -222.585 193.973L-172.691 136.232C-170.05 133.164 -165.045 134.149 -163.669 137.996L-137.981 210.11C-137.052 212.71 -134.826 214.631 -132.13 215.16L-57.1103 229.971C-53.1076 230.767 -51.4064 235.57 -54.0387 238.646L-103.719 296.571C-104.159 297.083 -104.955 298.025 -105.856 299.09C-107.85 301.442 -106.479 305.115 -103.405 305.601C-102.027 305.822 -100.775 306.028 -100.061 306.136L-68.8898 310.913C-66.4306 311.284 -63.9642 310.385 -62.3477 308.508L-6.42088 243.542C-4.72842 241.576 -4.19972 238.852 -5.03531 236.378L-5.0264 236.386Z"
        stroke="currentColor" stroke-opacity="0.18" stroke-width="2"
        mask="url(#path-1-inside-1_9092_23263)" />
    <path
        d="M-30.0004 55.1083L-71.7092 46.7053C-75.1135 46.0258 -77.9188 49.3206 -76.6811 52.5708L-61.5178 92.657C-60.5101 95.3093 -57.0425 95.9513 -55.206 93.8179L-27.6424 61.7996C-25.6009 59.4282 -26.9085 55.7181 -29.9929 55.0995L-30.0004 55.1083Z"
        stroke="currentColor" stroke-opacity="0.18" stroke-width="2"
        mask="url(#path-1-inside-1_9092_23263)" />
    <path
        d="M-115.361 -18.57L-100.913 21.4985C-99.7397 24.7699 -102.581 28.034 -105.974 27.2872L-147.804 18.1796C-150.574 17.5719 -151.718 14.2328 -149.882 12.0995L-122.318 -19.9189C-120.277 -22.2903 -116.42 -21.543 -115.354 -18.5788L-115.361 -18.57Z"
        stroke="currentColor" stroke-opacity="0.18" stroke-width="2"
        mask="url(#path-1-inside-1_9092_23263)" />
    <path
        d="M-227.666 23.6859L-216.145 58.1405C-215.307 60.6312 -213.193 62.5019 -210.623 63.0144L-129.794 79.1198C-127.224 79.6324 -125.104 81.4619 -124.219 83.9318L-96.3795 161.607C-95.4942 164.077 -93.3416 165.904 -90.7513 166.357L-55.0176 172.706C-52.4438 173.16 -49.8384 172.243 -48.1459 170.277L7.78091 105.312C9.38986 103.443 9.9219 100.859 9.19295 98.4784L-0.121262 68.3108C-0.312151 67.685 -0.709083 66.451 -1.15346 65.038C-2.10493 62.0499 -5.95909 61.2434 -7.96773 63.6127C-8.83292 64.6177 -9.62228 65.5346 -10.108 66.0988L-60.0016 123.84C-62.6428 126.908 -67.6474 125.923 -69.0239 122.076L-94.7117 49.962C-95.6405 47.3623 -97.8669 45.4406 -100.563 44.9116L-175.582 30.1016C-179.585 29.3052 -181.286 24.5021 -178.654 21.4264L-128.974 -36.4991C-128.534 -37.0104 -127.738 -37.9527 -126.836 -39.0182C-124.843 -41.3698 -126.214 -45.0429 -129.288 -45.5289C-130.666 -45.7503 -131.918 -45.9554 -132.631 -46.0639L-163.803 -50.8412C-166.262 -51.212 -168.728 -50.3134 -170.345 -48.4356L-226.272 16.5299C-227.964 18.4959 -228.493 21.2206 -227.657 23.6936L-227.666 23.6859Z"
        stroke="currentColor" stroke-opacity="0.18" stroke-width="2"
        mask="url(#path-1-inside-1_9092_23263)" />
    <path
        d="M222.706 -89.7842L180.997 -98.1873C177.593 -98.8668 174.787 -95.572 176.025 -92.3217L191.188 -52.2355C192.196 -49.5833 195.663 -48.9413 197.5 -51.0746L225.064 -83.093C227.105 -85.4644 225.798 -89.1745 222.713 -89.7931L222.706 -89.7842Z"
        stroke="currentColor" stroke-opacity="0.18" stroke-width="2"
        mask="url(#path-1-inside-1_9092_23263)" />
    <path
        d="M137.345 -163.463L151.793 -123.394C152.966 -120.123 150.125 -116.859 146.732 -117.605L104.902 -126.713C102.132 -127.321 100.988 -130.66 102.824 -132.793L130.388 -164.811C132.429 -167.183 136.286 -166.436 137.352 -163.471L137.345 -163.463Z"
        stroke="currentColor" stroke-opacity="0.18" stroke-width="2"
        mask="url(#path-1-inside-1_9092_23263)" />
    <path
        d="M25.0397 -121.207L36.5611 -86.7521C37.3993 -84.2614 39.5133 -82.3906 42.0832 -81.8782L122.912 -65.7728C125.482 -65.2602 127.602 -63.4306 128.487 -60.9608L156.327 16.7144C157.212 19.1843 159.364 21.0115 161.955 21.4648L197.688 27.8132C200.262 28.2676 202.868 27.3509 204.56 25.3849L260.487 -39.5807C262.096 -41.4496 262.628 -44.0332 261.899 -46.4142L252.585 -76.5818C252.394 -77.2076 251.997 -78.4415 251.553 -79.8546C250.601 -82.8427 246.747 -83.6492 244.738 -81.2799C243.873 -80.2749 243.084 -79.358 242.598 -78.7937L192.704 -21.0526C190.063 -17.9846 185.059 -18.9695 183.682 -22.8162L157.994 -94.9306C157.066 -97.5303 154.839 -99.452 152.143 -99.9809L77.1236 -114.791C73.1209 -115.587 71.4197 -120.391 74.052 -123.466L123.732 -181.392C124.172 -181.903 124.968 -182.845 125.87 -183.911C127.863 -186.262 126.492 -189.935 123.418 -190.422C122.04 -190.643 120.788 -190.848 120.075 -190.956L88.9031 -195.734C86.4439 -196.105 83.9776 -195.206 82.361 -193.328L26.4342 -128.363C24.7417 -126.397 24.213 -123.672 25.0486 -121.199L25.0397 -121.207Z"
        stroke="currentColor" stroke-opacity="0.18" stroke-width="2"
        mask="url(#path-1-inside-1_9092_23263)" />
    <path
        d="M30.3106 204.966L72.0193 213.369C75.4237 214.048 78.229 210.753 76.9913 207.503L61.828 167.417C60.8203 164.765 57.3527 164.123 55.5162 166.256L27.9526 198.274C25.9111 200.646 27.2187 204.356 30.303 204.975L30.3106 204.966Z"
        stroke="currentColor" stroke-opacity="0.18" stroke-width="2"
        mask="url(#path-1-inside-1_9092_23263)" />
    <path
        d="M115.672 278.644L101.223 238.576C100.05 235.304 102.891 232.04 106.284 232.787L148.115 241.894C150.884 242.502 152.029 245.841 150.192 247.975L122.628 279.993C120.587 282.364 116.73 281.617 115.664 278.653L115.672 278.644Z"
        stroke="currentColor" stroke-opacity="0.18" stroke-width="2"
        mask="url(#path-1-inside-1_9092_23263)" />
    <path
        d="M227.977 236.388L216.455 201.934C215.617 199.443 213.503 197.572 210.933 197.06L130.104 180.954C127.534 180.442 125.415 178.612 124.529 176.142L96.6897 98.467C95.8044 95.9972 93.6518 94.17 91.0615 93.7167L55.3278 87.3682C52.754 86.9138 50.1486 87.8306 48.4561 89.7966L-7.47073 154.762C-9.07968 156.631 -9.61172 159.215 -8.88277 161.596L0.431442 191.763C0.622332 192.389 1.01926 193.623 1.46364 195.036C2.41511 198.024 6.26927 198.831 8.27791 196.461C9.1431 195.456 9.93247 194.539 10.4182 193.975L60.3118 136.234C62.953 133.166 67.9575 134.151 69.3341 137.998L95.0219 210.112C95.9507 212.712 98.1771 214.633 100.873 215.162L175.893 229.972C179.895 230.769 181.597 235.572 178.964 238.648L129.284 296.573C128.844 297.084 128.048 298.027 127.147 299.092C125.153 301.444 126.524 305.117 129.598 305.603C130.976 305.824 132.228 306.029 132.942 306.138L164.113 310.915C166.572 311.286 169.039 310.387 170.655 308.51L226.582 243.544C228.274 241.578 228.803 238.853 227.968 236.38L227.977 236.388Z"
        stroke="currentColor" stroke-opacity="0.18" stroke-width="2"
        mask="url(#path-1-inside-1_9092_23263)" />
    <path
        d="M203.002 55.1083L161.294 46.7053C157.889 46.0258 155.084 49.3206 156.322 52.5708L171.485 92.657C172.493 95.3093 175.96 95.9513 177.797 93.8179L205.361 61.7996C207.402 59.4282 206.094 55.7181 203.01 55.0995L203.002 55.1083Z"
        stroke="currentColor" stroke-opacity="0.18" stroke-width="2"
        mask="url(#path-1-inside-1_9092_23263)" />
    <path
        d="M117.642 -18.57L132.09 21.4985C133.263 24.7699 130.422 28.034 127.029 27.2872L85.1985 18.1796C82.4292 17.5719 81.2845 14.2328 83.121 12.0995L110.685 -19.9189C112.726 -22.2903 116.583 -21.543 117.649 -18.5788L117.642 -18.57Z"
        stroke="currentColor" stroke-opacity="0.18" stroke-width="2"
        mask="url(#path-1-inside-1_9092_23263)" />
    <path
        d="M5.33659 23.6859L16.858 58.1405C17.6961 60.6312 19.8102 62.5019 22.3801 63.0144L103.209 79.1198C105.779 79.6324 107.898 81.4619 108.784 83.9318L136.623 161.607C137.509 164.077 139.661 165.904 142.252 166.357L177.985 172.706C180.559 173.16 183.165 172.243 184.857 170.277L240.784 105.312C242.393 103.443 242.925 100.859 242.196 98.4784L232.882 68.3108C232.691 67.685 232.294 66.451 231.849 65.038C230.898 62.0499 227.044 61.2434 225.035 63.6127C224.17 64.6177 223.381 65.5346 222.895 66.0988L173.001 123.84C170.36 126.908 165.356 125.923 163.979 122.076L138.291 49.962C137.362 47.3623 135.136 45.4406 132.44 44.9116L57.4205 30.1016C53.4178 29.3052 51.7166 24.5021 54.3488 21.4264L104.029 -36.4991C104.469 -37.0104 105.265 -37.9527 106.167 -39.0182C108.16 -41.3698 106.789 -45.0429 103.715 -45.5289C102.337 -45.7503 101.085 -45.9554 100.372 -46.0639L69.2 -50.8412C66.7408 -51.212 64.2744 -50.3134 62.6579 -48.4356L6.73106 16.5299C5.0386 18.4959 4.5099 21.2206 5.34549 23.6936L5.33659 23.6859Z"
        stroke="currentColor" stroke-opacity="0.18" stroke-width="2"
        mask="url(#path-1-inside-1_9092_23263)" />
</svg>