<?xml version="1.0" encoding="utf-8"?>
<!-- Generator: Adobe Illustrator 28.2.0, SVG Export Plug-In . SVG Version: 6.00 Build 0)  -->
<svg version="1.1" id="MCCB_Logo_Primary" xmlns="http://www.w3.org/2000/svg" xmlns:xlink="http://www.w3.org/1999/xlink" x="0px"
	 y="0px" viewBox="0 0 300 51" style="enable-background:new 0 0 300 51;" xml:space="preserve">
<style type="text/css">
	.st0{fill:#3D3938;}
	.st1{fill:#D0C5C0;}
</style>
<g>
	<path d="M293.2,18.5l5.4-8.9l-3-9.6H90.8l-1,7L88,0H40.3l-1.6,6.6h-4l-0.9,3.6L28.4,0H12.9L1,38l9.4,13L26,51l1.9-7.2h6.3l4.2,7.2
		h47.9l1.1-8.3l2.7,8.3h160.2l6.5-13.4h5.9l5.4-10.7l5.8,24.1H290l8.9-13L293.2,18.5z M154.8,27.5l0-4.5h13.8l0.1,4.5H154.8z"/>
	<polygon class="st0" points="11.8,48.4 4,37.6 16.7,37.6 23.9,48.4 	"/>
	<polygon class="st0" points="63.2,37.6 50.5,37.6 56,48.4 68,48.4 	"/>
	<polygon class="st0" points="67.5,37.6 72,48.4 84,48.4 80.2,37.6 	"/>
	<polygon class="st0" points="105.6,37.6 108.1,48.4 136.2,48.4 135.2,37.6 	"/>
	<polygon class="st0" points="169.1,37.6 168.3,48.4 140.2,48.4 139.4,37.6 	"/>
	<polygon class="st0" points="173.3,37.6 186,37.6 184.3,48.4 172.3,48.4 	"/>
	<polygon class="st0" points="190.2,37.6 188.3,48.4 200.4,48.4 202.9,37.6 	"/>
	<polygon class="st0" points="207.2,37.6 204.4,48.4 216.4,48.4 219.9,37.6 	"/>
	<polygon class="st0" points="224.1,37.6 220.4,48.4 232.5,48.4 236.8,37.6 	"/>
	<polygon class="st0" points="241,37.6 236.5,48.4 248.5,48.4 253.7,37.6 	"/>
	<polygon class="st0" points="283.4,37.6 276.6,48.4 288.6,48.4 296.1,37.6 	"/>
	<polygon class="st0" points="88.6,37.6 92.1,48.4 104.1,48.4 101.3,37.6 	"/>
	<polygon class="st0" points="33.6,37.6 46.3,37.6 51.9,48.4 39.9,48.4 	"/>
	<g>
		<g>
			<path class="st1" d="M37.2,23h-4.1l-1.9,7.2h-8.3l2-7.2h-4.1l-4.2,14.6H4L14.8,2.6h11.8l-1.9,6.6h4L26.9,16h8.1l1.8-6.8h4
				l1.6-6.6h11.8l-7.8,34.9H33.6L37.2,23z"/>
			<path class="st1" d="M58,2.6h11.8l-6.6,34.9H50.5L58,2.6z"/>
			<path class="st1" d="M109.1,2.6h27.5l-0.3,6.6h-15.9l-0.5,6.8H136l-0.3,7h-16.4l-0.5,7.2h16.7l-0.3,7.4h-29.6L109.1,2.6z"/>
			<path class="st1" d="M140.5,2.6H168l0.2,6.6h-15.9l-0.1,20.9h16.7l0.2,7.4h-29.6L140.5,2.6z"/>
			<path class="st1" d="M189.1,23H185l1,14.6h-12.7l-1.4-34.9l27.5,0l1.3,13.3h-4l0.3,3.5h4.1l1.8,18.1h-12.7L189.1,23z M184.1,9.2
				l0.4,6.8h4l-0.5-6.8H184.1z"/>
			<path class="st1" d="M234.8,2.6h27.5l1.6,6.6h-15.9l1.4,6.8h16.2l1.7,7h-16.4l3,14.6H241L234.8,2.6z"/>
			<path class="st1" d="M275.8,9.2h-8l-1.6-6.6h27.5l2,6.6h-8l8.3,28.3h-12.7L275.8,9.2z"/>
			<path class="st1" d="M90.1,26.5H86l1-7.1h-4.1l-2.8,18.1H67.5l6.3-34.9h11.8l-1,6.6h4l-1,6.8h4l1.8-13.3h11.8l-3.8,34.9H88.6
				L90.1,26.5z"/>
		</g>
		<path class="st1" d="M230.8,2.6h-27.5l3.8,34.9h12.7l-1.5-11h4.1l1.6,11h12.7L230.8,2.6z M221.6,15.4h2l1,6.4h-2.7l-0.3-2.3h-4.1
			l0.3,2.3H215l-0.8-6.4h2l-0.2-1.7h-4.7l-0.6-4.5h5.3l0.5,3.9h4L220,9.2h5.3l0.7,4.5h-4.7L221.6,15.4z"/>
	</g>
</g>
</svg>
