<svg width="99" height="89" viewBox="-2 -2 97 87" fill="none" xmlns="http://www.w3.org/2000/svg">
  <path d="M61.9791 3.24938C63.1826 1.08312 64.9076 -1.3368e-05 67.1541 -1.3368e-05H89.1778C90.0603 -1.3368e-05 90.8225 0.320915 91.4644 0.962771C92.1062 1.60463 92.4271 2.36683 92.4271 3.24938V80.9941C92.4271 81.8766 92.1062 82.6388 91.4644 83.2807C90.8225 83.9225 90.0603 84.2435 89.1778 84.2435H67.3948C66.5122 84.2435 65.75 83.9225 65.1082 83.2807C64.4663 82.6388 64.1454 81.8766 64.1454 80.9941V43.6863L55.36 61.0163C55.1193 61.578 54.5577 62.2198 53.6751 62.9419C52.7926 63.664 51.6693 64.025 50.3054 64.025H42.1218C40.7578 64.025 39.6346 63.664 38.752 62.9419C37.8695 62.2198 37.3078 61.578 37.0671 61.0163L28.2818 43.6863V80.9941C28.2818 81.8766 27.9608 82.6388 27.319 83.2807C26.6771 83.9225 25.9149 84.2435 25.0324 84.2435H3.2494C2.36685 84.2435 1.60465 83.9225 0.962794 83.2807C0.320939 82.6388 1.10463e-05 81.8766 1.10463e-05 80.9941V3.24938C1.10463e-05 2.36683 0.320939 1.60463 0.962794 0.962771C1.60465 0.320915 2.36685 -1.3368e-05 3.2494 -1.3368e-05H25.2731C27.5195 -1.3368e-05 29.2445 1.08312 30.448 3.24938L46.2136 32.1329L61.9791 3.24938Z" fill="black"/>
</svg>