<?xml version="1.0" encoding="UTF-8"?>
<svg id="Layer_1" xmlns="http://www.w3.org/2000/svg" viewBox="0 0 1187.17 207.25">
  <g>
    <path d="M146.06,109.85l-14.38,17.63-24.09,7.63-10.81-12.03-61.89,37.14c-2.94-3.78-6.36-9.13-8.54-14.27l61.69-37.02-5.63-14.91,17.62-18.1,22.27-4.8,6.45,7.94-10.27,10.4-8.95,2.82-6.4,6.57,3.14,8.72,6.36,6.75,8.96-2.39,6.39-7,13.93-4.42,4.15,9.34Z" style="fill: var(--color-purple); fill-rule: evenodd;"/>
    <path d="M208.59,86.56l-48.91,13.2c-.75-4.66-1.64-8.88-4.34-16.06l49-13.22c2.07,5.54,3.47,10.86,4.25,16.08Z" style="fill: var(--color-purple); fill-rule: evenodd;"/>
    <path d="M33.65,110.46c3.47,40.97,37.87,73.19,79.74,73.19,31.63,0,59.01-18.4,71.99-45.06l15.93,5.52c-15.33,33.22-48.95,56.3-87.92,56.3-51.12,0-93.04-39.72-96.55-89.95h16.81ZM17.1,93.78C22.04,44.98,63.3,6.84,113.4,6.84c53.42,0,96.79,43.37,96.79,96.79,0,8.57-1.11,16.88-3.21,24.79l-15.89-5.5c1.56-6.31,2.35-12.79,2.34-19.29,0-44.17-35.86-80.03-80.03-80.03-40.83,0-74.57,30.65-79.43,70.18h-16.87Z" style="fill: var(--color-purple); fill-rule: evenodd;"/>
    <path d="M113.14,57.04c-25.73.02-46.61,20.92-46.61,46.66s20.91,46.66,46.66,46.66c1.3,0,2.6-.05,3.88-.16l4.66,16.31c-2.83.38-5.68.57-8.54.57-34.98,0-63.38-28.4-63.38-63.38s28.4-63.38,63.38-63.38c.87,0,1.73.02,2.59.05l-2.64,16.67ZM132.22,43.23c25.69,8.09,44.35,32.12,44.35,60.47,0,26.25-15.99,48.78-38.74,58.4l-4.64-16.24c15.76-7.49,26.67-23.56,26.67-42.16,0-19.99-12.6-37.06-30.28-43.7l2.66-16.77Z" style="fill: var(--color-purple); fill-rule: evenodd;"/>
  </g>
  <path d="M1090.35,115.11v-17.35h79.97v17.35h-79.97ZM1121.05,145.47v-78.06h18.56v78.06h-18.56Z" style="fill: var(--color-purple);"/>
  <path style="fill: currentColor;" d="M362.01,74.2c11.67,0,21.07,3.31,27.85,10.1,6.79,6.97,10.27,17.06,10.27,30.64v53.27h-21.76v-50.49c0-8.18-1.74-14.27-5.4-18.45-3.65-4.01-8.7-6.1-15.49-6.1-7.31,0-13.23,2.44-17.59,7.14-4.35,4.87-6.61,11.84-6.61,20.72v47.18h-21.76v-50.49c0-8.18-1.74-14.27-5.4-18.45-3.65-4.01-8.71-6.1-15.49-6.1-7.49,0-13.23,2.44-17.59,7.14-4.35,4.7-6.61,11.66-6.61,20.72v47.18h-21.76v-92.97h20.72v11.84c3.48-4.18,7.83-7.31,13.06-9.57,5.22-2.26,10.97-3.31,17.41-3.31,6.97,0,13.23,1.22,18.63,3.83,5.4,2.79,9.57,6.61,12.71,11.67,3.83-4.88,8.71-8.71,14.8-11.49,6.09-2.61,12.71-4.01,20.02-4.01ZM470.12,169.43c-9.4,0-17.93-2.09-25.42-6.09-7.37-3.89-13.47-9.81-17.59-17.06-4.35-7.14-6.44-15.32-6.44-24.55s2.09-17.41,6.44-24.54c4.17-7.16,10.26-13.01,17.59-16.89,7.49-4,16.02-6.09,25.42-6.09s18.11,2.09,25.59,6.1c7.49,4,13.41,9.75,17.76,16.89,4.18,7.14,6.27,15.32,6.27,24.55s-2.09,17.41-6.27,24.55c-4.35,7.31-10.27,13.06-17.76,17.06-7.49,4.01-16.02,6.1-25.59,6.1h0ZM470.12,150.81c8.01,0,14.63-2.61,19.85-8.01,5.22-5.4,7.83-12.36,7.83-21.07s-2.61-15.67-7.83-21.07c-5.22-5.4-11.84-8.01-19.85-8.01s-14.62,2.61-19.67,8.01c-5.22,5.4-7.83,12.36-7.83,21.07s2.61,15.67,7.83,21.07c5.05,5.4,11.67,8.01,19.67,8.01ZM631.17,39.03v129.18h-20.89v-12.01c-3.57,4.31-8.1,7.71-13.23,9.93-5.4,2.26-11.14,3.31-17.59,3.31-8.88,0-16.89-1.92-24.03-5.92-7.14-4-12.88-9.57-16.89-16.89-4-7.14-6.09-15.49-6.09-24.9s2.09-17.76,6.1-24.9c4-7.14,9.75-12.71,16.89-16.71,7.14-4,15.14-5.92,24.03-5.92,6.09,0,11.84,1.05,16.89,3.13,5.02,2.07,9.5,5.29,13.06,9.4v-47.71h21.76ZM582.07,150.81c5.22,0,9.93-1.22,14.1-3.66,4.18-2.26,7.48-5.74,9.92-10.1,2.44-4.35,3.65-9.57,3.65-15.32s-1.22-10.97-3.65-15.32c-2.44-4.35-5.75-7.83-9.92-10.27-4.18-2.26-8.88-3.48-14.1-3.48s-9.92,1.22-14.1,3.48c-4.18,2.44-7.49,5.92-9.93,10.27-2.44,4.35-3.65,9.57-3.65,15.32s1.22,10.97,3.65,15.32c2.44,4.35,5.75,7.83,9.93,10.1,4.18,2.44,8.88,3.66,14.1,3.66ZM679.91,88.82c6.27-9.75,17.23-14.63,33.08-14.63v20.72c-1.66-.33-3.35-.5-5.05-.52-8.53,0-15.15,2.44-19.85,7.32-4.7,5.05-7.14,12.19-7.14,21.41v45.09h-21.76v-92.97h20.72v13.58h0ZM730.92,75.24h21.76v92.97h-21.76v-92.97ZM741.89,59.92c-4.01,0-7.31-1.22-9.93-3.83-2.59-2.36-4.05-5.72-4-9.23,0-3.65,1.39-6.79,4-9.4,2.61-2.44,5.92-3.65,9.93-3.65s7.31,1.22,9.92,3.48c2.61,2.44,4.01,5.4,4.01,9.05s-1.22,6.97-3.83,9.57c-2.61,2.61-6.09,4.01-10.1,4.01ZM833.47,74.2c11.67,0,21.07,3.48,28.21,10.27,7.14,6.79,10.62,17.06,10.62,30.47v53.27h-21.76v-50.49c0-8.18-1.91-14.27-5.74-18.45-3.83-4.01-9.23-6.1-16.37-6.1-8.01,0-14.27,2.44-18.98,7.14-4.7,4.87-6.96,11.84-6.96,20.89v47.01h-21.76v-92.97h20.72v12.01c3.66-4.35,8.18-7.49,13.58-9.75,5.4-2.26,11.67-3.31,18.45-3.31ZM955.34,163.17c-2.72,2.18-5.86,3.78-9.23,4.7-3.8,1.06-7.73,1.58-11.67,1.57-10.27,0-18.1-2.61-23.68-8.01-5.57-5.4-8.36-13.06-8.36-23.33v-44.75h-15.32v-17.41h15.32v-21.24h21.76v21.24h24.89v17.41h-24.9v44.22c0,4.53,1.05,8.01,3.31,10.27,2.26,2.44,5.4,3.65,9.57,3.65,4.88,0,8.88-1.22,12.19-3.83l6.09,15.49ZM1025.5,74.2c11.67,0,21.07,3.48,28.21,10.27,7.14,6.79,10.62,17.06,10.62,30.47v53.27h-21.76v-50.49c0-8.18-1.91-14.27-5.75-18.45-3.83-4.01-9.23-6.1-16.36-6.1-8.01,0-14.28,2.44-18.98,7.14-4.7,4.87-6.96,11.84-6.96,20.89v47.01h-21.76V39.03h21.76v47c3.65-3.83,8.01-6.79,13.41-8.88,5.22-1.91,11.14-2.96,17.58-2.96Z"/>
</svg>